<svg width="74" height="73" viewBox="0 0 74 73" fill="none" xmlns="http://www.w3.org/2000/svg">
<path d="M36.6836 71.3268C56.842 71.3268 73.1836 55.4754 73.1836 35.9217C73.1836 16.3681 56.842 0.516663 36.6836 0.516663C16.5252 0.516663 0.183594 16.3681 0.183594 35.9217C0.183594 55.4754 16.5252 71.3268 36.6836 71.3268Z" fill="#F5F5E6"/>
<path d="M10.7913 25.2252L3.59149 22.3048C5.31208 18.3181 7.73428 14.725 10.7913 11.6078V25.2252ZM22.3343 3.69991L22.6851 3.55225L25.6585 10.6234H11.7935C14.8839 7.70308 18.4254 5.37337 22.3343 3.69991ZM23.5871 3.19131C27.5629 1.66551 31.7558 0.845188 36.0322 0.763156L26.2265 10.3937L23.253 3.33897L23.5871 3.19131ZM50.2313 3.32256L47.2578 10.3937L43.5327 6.7351L37.4354 0.74675C41.8455 0.845188 46.1553 1.69832 50.2313 3.32256ZM47.7924 10.607L50.7826 3.53585C54.8251 5.2093 58.4835 7.58824 61.6741 10.607H47.7924ZM62.8935 25.7502L70.0933 22.8298C71.7471 26.833 72.6157 31.0495 72.6993 35.3972L62.8935 25.7502ZM70.0933 49.359L62.8935 46.4223L72.6993 36.7917C72.6324 41.123 71.7471 45.3559 70.0933 49.359ZM62.6764 46.9473L69.8761 49.8676C68.1555 53.8544 65.7334 57.4474 62.6764 60.5646V46.9473ZM51.1334 68.489L50.7659 68.6366L47.7924 61.5818H61.6741C58.5837 64.4858 55.0423 66.7991 51.1334 68.489ZM49.8805 68.9976C45.9048 70.5398 41.7118 71.3437 37.4521 71.4257L43.5327 65.4374L47.2578 61.7787L50.2313 68.8499L49.8805 68.9976ZM23.2363 68.8499L26.2098 61.7787L29.935 65.4374L36.0322 71.4257C31.6221 71.3437 27.3123 70.4741 23.2363 68.8499ZM25.6752 61.5654L22.6851 68.6366C18.6258 66.9632 14.9675 64.5842 11.7935 61.5654H25.6752ZM6.84892 42.7637L10.5741 46.4223L3.37433 49.359C1.72055 45.3559 0.8519 41.1394 0.768376 36.7917L6.84892 42.7637ZM22.351 19.0727L21.4823 21.1236L11.3759 25.2252V11.1812H25.6752L22.351 19.0727ZM46.8402 10.8039L36.7338 14.9219L33.2759 13.511L26.6274 10.8039L36.7338 0.878001L40.7764 4.84836L46.8402 10.8039ZM62.0917 25.2252L51.9853 21.1071L47.7924 11.1812H62.0917V25.2252ZM62.6764 25.2252V11.6078C65.7501 14.7414 68.1555 18.3345 69.8761 22.3048L62.6764 25.2252ZM58.2997 36.0862L62.4926 26.1603L72.599 36.0862L62.4926 46.0121L58.2997 36.0862ZM11.3759 46.9473L18.8096 49.9661L21.4823 51.0489L25.6752 60.9748H11.3759V46.9473ZM10.7913 46.9473V60.5811C7.71757 57.4474 5.31208 53.8544 3.59149 49.884L10.7913 46.9473ZM37.5022 56.9552L51.2336 51.377L47.2077 60.9092L46.8235 60.7615L37.5022 56.9552ZM22.2508 20.7954L26.2766 11.2633L35.9821 15.2172L22.2508 20.7954ZM55.1425 28.6049L52.3027 21.8618L62.0082 25.8158L57.9823 35.3479L55.1425 28.6049ZM29.1164 54.1661L35.9821 56.9552L26.2766 60.9092L22.2508 51.377L29.1164 54.1661ZM57.9823 36.8409L62.0082 46.3731L52.3027 50.327L57.9823 36.8409ZM44.3512 18.0063L37.4855 15.2172L47.191 11.2633L51.2169 20.7954L44.3512 18.0063ZM15.8027 36.0862L18.8764 28.8182L21.9501 21.5501L36.7505 15.529L44.1507 18.5477L51.551 21.5665L57.6816 36.1026L51.551 50.6387L36.7505 56.6599L29.3503 53.6411L21.9501 50.6223L20.1125 46.2582L15.8027 36.0862ZM18.3251 28.6049L15.4853 35.3479L11.4594 25.8158L21.1649 21.8618L18.3251 28.6049ZM11.4762 46.3731L14.1155 40.0894L15.4853 36.8409L18.3251 43.584L21.1649 50.327L18.7093 49.3262L11.4762 46.3731ZM0.868605 36.0862L4.91117 32.1159L10.975 26.1603L15.1679 36.0862L14.0988 38.6456L10.9917 46.0121L4.92787 40.0566L0.868605 36.0862ZM36.7338 71.3109L32.6913 67.3241L26.6274 61.3686L36.7338 57.2505L42.7475 59.6951L46.8569 61.3686L40.7931 67.3241L36.7338 71.3109ZM47.7924 61.0076L50.0977 55.5443L51.9853 51.0817L62.0917 46.9637V61.0076H47.7924ZM3.37433 22.8298L4.94458 23.4697L10.5741 25.7666L6.84892 29.4252L0.768376 35.3972C0.835195 31.0495 1.72055 26.833 3.37433 22.8298ZM2.94 49.8348C10.4572 67.6686 31.7892 76.5773 50.0977 69.5226L50.7324 69.2601L51.3672 68.9976C64.5473 63.3373 73.2839 50.245 73.3006 36.119C73.334 36.0862 73.334 36.037 73.3006 35.9878C73.2672 24.7494 67.7546 14.0032 58.5837 7.27651C48.5608 -0.0735724 35.0132 -1.82906 23.37 2.6499L22.7352 2.9124L22.1004 3.1749C4.14275 10.8859 -4.62728 32.001 2.94 49.8348Z" fill="#B5936C"/>
<path d="M37.0011 72.1636C32.0732 72.1636 27.1119 71.1792 22.3844 69.2105C13.3805 65.437 6.41465 58.5955 2.75629 49.9165C-0.918764 41.2538 -0.918764 31.5576 2.75629 22.6325C6.43135 13.7074 13.2636 6.73463 22.0169 2.97755L23.2865 2.46894C35.0634 -2.05924 48.6277 -0.270936 58.7007 7.11197C67.9384 13.8878 73.4677 24.6669 73.5011 35.9545C73.5178 36.0202 73.5178 36.1022 73.5011 36.1678C73.4677 50.2774 64.5975 63.5502 51.4341 69.1941L50.1645 69.7027C45.9382 71.3433 41.478 72.1636 37.0011 72.1636ZM36.667 0.40173C32.1902 0.40173 27.6966 1.20565 23.4368 2.84629L22.184 3.35489C13.5309 7.06276 6.76545 13.9699 3.1405 22.7802C-0.501144 31.6068 -0.501144 41.1882 3.1405 49.7524C6.74874 58.333 13.6478 65.0924 22.5515 68.8167C31.4551 72.541 41.2108 72.7214 50.0142 69.3253L51.2838 68.8167C64.3135 63.2221 73.0668 50.0805 73.0835 36.1186C73.0835 36.1022 73.0835 36.0694 73.1002 36.053C73.1002 36.0366 73.0835 36.0038 73.0835 35.9874C73.0501 24.8146 67.5876 14.1339 58.4501 7.4401C52.1357 2.81348 44.4348 0.40173 36.667 0.40173ZM36.0323 71.6386C31.5888 71.5566 27.2622 70.687 23.1529 69.0464C23.1027 69.03 23.0526 68.9808 23.0359 68.9315C23.0192 68.8823 23.0192 68.8167 23.0359 68.7675L26.0094 61.6963C26.0428 61.6307 26.0929 61.5815 26.1597 61.5815C26.2265 61.565 26.2934 61.5815 26.3435 61.6307L36.1659 71.2777C36.2327 71.3433 36.2494 71.4253 36.216 71.5074C36.1826 71.5894 36.1158 71.6386 36.0323 71.6386ZM23.5037 68.7511C27.3458 70.2441 31.3716 71.0808 35.5144 71.2121L26.2934 62.1557L23.5037 68.7511ZM37.4522 71.6386C37.3686 71.6386 37.2851 71.5894 37.2517 71.5074C37.2183 71.4253 37.235 71.3433 37.3018 71.2777L47.1076 61.6307C47.1577 61.5815 47.2245 61.565 47.2913 61.5815C47.3581 61.5979 47.4249 61.6471 47.4416 61.6963L50.4151 68.7675C50.4318 68.8167 50.4318 68.8823 50.4151 68.9315C50.3984 68.9808 50.3483 69.0136 50.2982 69.0464L49.9474 69.1941C45.9549 70.7199 41.7453 71.5566 37.4522 71.6386ZM47.1911 62.1557L37.97 71.2121C42.046 71.0808 46.0217 70.2769 49.8137 68.8003L49.9808 68.7347L47.1911 62.1557ZM36.7339 71.5238C36.6838 71.5238 36.6169 71.5074 36.5835 71.4581L26.4771 61.5158C26.427 61.4666 26.4103 61.401 26.427 61.3354C26.4437 61.2697 26.4938 61.2041 26.5606 61.1877L36.667 57.0697C36.7172 57.0533 36.7673 57.0533 36.8341 57.0697L46.9405 61.1877C47.0073 61.2205 47.0574 61.2697 47.0741 61.3354C47.0908 61.401 47.0741 61.4666 47.024 61.5158L36.9176 71.4581C36.8508 71.5074 36.784 71.5238 36.7339 71.5238ZM26.995 61.4502L36.7339 71.0152L46.4728 61.4502L36.7339 57.4962L26.995 61.4502ZM22.6851 68.8495C22.6517 68.8495 22.635 68.8495 22.6016 68.8331C18.5423 67.1432 14.8506 64.7479 11.6432 61.7291C11.5764 61.6635 11.5597 61.5814 11.5931 61.4994C11.6265 61.4174 11.7101 61.3682 11.7936 61.3682H25.6753C25.7421 61.3682 25.8089 61.401 25.8423 61.4666C25.8757 61.5158 25.8924 61.5979 25.859 61.6635L22.8689 68.7347C22.8522 68.7839 22.8021 68.8331 22.7519 68.8495C22.7519 68.8331 22.7185 68.8495 22.6851 68.8495ZM12.3281 61.7783C15.3517 64.5674 18.8096 66.7823 22.5849 68.3737L25.3746 61.7783H12.3281ZM50.7826 68.8331C50.6991 68.8331 50.6156 68.7839 50.5821 68.7019L47.6087 61.6471C47.5753 61.5814 47.592 61.5158 47.6254 61.4502C47.6588 61.401 47.7256 61.3518 47.7924 61.3518H61.6741C61.7577 61.3518 61.8412 61.401 61.8746 61.483C61.908 61.565 61.8913 61.6471 61.8245 61.7127C58.7174 64.6495 55.1593 66.9792 51.2169 68.669L50.8494 68.8167C50.8327 68.8331 50.7993 68.8331 50.7826 68.8331ZM48.1098 61.7783L50.8828 68.3737L51.0499 68.3081C54.7751 66.7167 58.1661 64.5182 61.1396 61.7783H48.1098ZM62.0918 61.2041H47.7924C47.7256 61.2041 47.6588 61.1713 47.6254 61.1057C47.592 61.0564 47.5753 60.9744 47.6087 60.9088L51.8016 50.9829C51.8183 50.9337 51.8684 50.8844 51.9185 50.868L62.0249 46.75C62.0918 46.7172 62.1586 46.7336 62.2254 46.7664C62.2922 46.7992 62.3256 46.8648 62.3256 46.9305V60.9744C62.3089 61.1057 62.2087 61.2041 62.0918 61.2041ZM48.1098 60.7939H61.8913V47.2586L52.1524 51.229L48.1098 60.7939ZM25.6753 61.2041H11.376C11.259 61.2041 11.1755 61.1057 11.1755 61.0072V46.9469C11.1755 46.8813 11.2089 46.8156 11.2757 46.7828C11.3426 46.75 11.4094 46.7336 11.4762 46.7664L21.5826 50.8844C21.6327 50.9008 21.6661 50.9501 21.6995 50.9993L25.8924 60.9252C25.9259 60.9908 25.9092 61.0564 25.8757 61.1221C25.8089 61.1713 25.7421 61.2041 25.6753 61.2041ZM11.5764 60.7939H25.3579L21.3153 51.229L11.5764 47.2586V60.7939ZM26.26 61.1057C26.1764 61.1057 26.0929 61.0564 26.0595 60.9744L22.0336 51.4423C22.0002 51.3602 22.0169 51.2782 22.0838 51.2126C22.1506 51.1469 22.2341 51.1305 22.3176 51.1633L29.1833 53.9524L36.049 56.7415C36.1325 56.7744 36.1826 56.84 36.1826 56.9384C36.1826 57.0369 36.1325 57.1025 36.049 57.1353L26.3435 61.0893C26.3268 61.1057 26.2934 61.1057 26.26 61.1057ZM22.635 51.754L26.3769 60.6463L35.4309 56.9712L22.635 51.754ZM47.2078 61.1057C47.1744 61.1057 47.1577 61.1057 47.1243 61.0893L37.4188 57.1517C37.3352 57.1189 37.2851 57.0533 37.2851 56.9548C37.2851 56.8564 37.3352 56.7908 37.4188 56.7579L51.1501 51.1797C51.2169 51.1469 51.3172 51.1633 51.384 51.229C51.4508 51.2946 51.4675 51.3766 51.4341 51.4587L47.4082 60.9908C47.3915 61.04 47.3414 61.0893 47.2913 61.1057C47.2579 61.1057 47.2245 61.1057 47.2078 61.1057ZM38.0368 56.9548L47.0741 60.6299L50.816 51.754L38.0368 56.9548ZM62.6764 60.7939C62.643 60.7939 62.6263 60.7939 62.5929 60.7775C62.5094 60.7447 62.4593 60.6791 62.4593 60.5807V46.9469C62.4593 46.8813 62.4927 46.8156 62.5595 46.7828C62.6263 46.75 62.6931 46.7336 62.76 46.7664L69.9597 49.6868C70.0098 49.7032 70.06 49.7524 70.0767 49.8016C70.0934 49.8508 70.0934 49.9165 70.0767 49.9657C68.3394 53.9688 65.9172 57.5947 62.8435 60.7283C62.7934 60.7611 62.7265 60.7939 62.6764 60.7939ZM62.8769 47.2586V60.0721C65.7 57.1025 67.9551 53.7228 69.5922 49.9985L62.8769 47.2586ZM10.7913 60.7939C10.7412 60.7939 10.6744 60.7775 10.641 60.7283C7.56728 57.5783 5.12838 53.9688 3.40778 49.9657C3.39108 49.9165 3.39108 49.8508 3.40778 49.8016C3.42448 49.7524 3.4746 49.7032 3.52471 49.6868L10.7245 46.75C10.7913 46.7172 10.8581 46.7336 10.9249 46.7664C10.9918 46.7992 11.0252 46.8648 11.0252 46.9305V60.5642C11.0252 60.6463 10.9751 60.7283 10.8915 60.7611C10.8414 60.7775 10.8247 60.7939 10.7913 60.7939ZM3.87551 49.9985C5.51259 53.7228 7.76773 57.1025 10.5908 60.0721V47.2586L3.87551 49.9985ZM36.7339 56.8564C36.7005 56.8564 36.6838 56.8564 36.6503 56.84L21.8499 50.8188C21.7998 50.8024 21.7664 50.7532 21.733 50.704L15.6023 36.1678C15.5856 36.1186 15.5856 36.0694 15.6023 36.0038L21.733 21.4676C21.7497 21.4184 21.7998 21.3692 21.8499 21.3528L36.6503 15.3316C36.7005 15.3152 36.7506 15.3152 36.8174 15.3316L51.6179 21.3528C51.668 21.3692 51.7014 21.4184 51.7348 21.4676L57.8654 36.0038C57.8821 36.053 57.8821 36.1022 57.8654 36.1678L51.7348 50.704C51.7181 50.7532 51.668 50.8024 51.6179 50.8188L36.8174 56.84C36.784 56.8564 36.7673 56.8564 36.7339 56.8564ZM22.0838 50.4743L36.7339 56.4298L51.3673 50.4743L57.4311 36.0858L51.3673 21.7137L36.7339 15.7582L22.0838 21.7137L16.0199 36.1022L22.0838 50.4743ZM52.3027 50.5235C52.2526 50.5235 52.2025 50.5071 52.1524 50.4579C52.0856 50.3922 52.0689 50.3102 52.1023 50.2282L57.7819 36.7421C57.8487 36.5944 58.0993 36.5944 58.1661 36.7421L62.192 46.2742C62.2421 46.3727 62.192 46.5039 62.0751 46.5367L52.3696 50.4907C52.3529 50.5235 52.3195 50.5235 52.3027 50.5235ZM57.9824 37.3655L52.687 49.9329L61.741 46.2578L57.9824 37.3655ZM21.165 50.5235C21.1316 50.5235 21.1149 50.5235 21.0815 50.5071L11.376 46.5531C11.2757 46.5039 11.2256 46.3891 11.259 46.2906L15.2682 36.7585C15.335 36.6108 15.5856 36.6108 15.6524 36.7585L21.332 50.2282C21.3654 50.3102 21.3487 50.3922 21.2819 50.4579C21.2819 50.5071 21.2318 50.5235 21.165 50.5235ZM11.7435 46.2578L20.7975 49.9329L15.5021 37.3655L11.7435 46.2578ZM3.37437 49.5555C3.34096 49.5555 3.32426 49.5555 3.29085 49.5391C3.24073 49.5227 3.19062 49.4735 3.17391 49.4243C1.52014 45.4047 0.634783 41.1554 0.551259 36.7913C0.551259 36.7092 0.601373 36.6272 0.684897 36.5944C0.751716 36.5616 0.851945 36.578 0.918764 36.6436L10.7245 46.2742C10.7746 46.3234 10.7913 46.3891 10.7913 46.4547C10.7746 46.5203 10.7245 46.5859 10.6577 46.6023L3.45789 49.5391C3.42449 49.5555 3.40778 49.5555 3.37437 49.5555ZM0.985584 37.2999C1.11922 41.3687 1.97117 45.339 3.4913 49.0961L10.2066 46.3563L6.69863 42.9273L0.985584 37.2999ZM70.0934 49.5555C70.06 49.5555 70.0432 49.5555 70.0098 49.5391L62.8268 46.6188C62.76 46.5859 62.7098 46.5367 62.6931 46.4711C62.6764 46.4055 62.6931 46.3398 62.7432 46.2906L72.549 36.66C72.6158 36.5944 72.6993 36.578 72.7828 36.6108C72.8664 36.6436 72.9165 36.7257 72.9165 36.8077C72.833 41.1718 71.9476 45.4375 70.2771 49.4407C70.2604 49.4899 70.2103 49.5391 70.1602 49.5555C70.1602 49.5555 70.1268 49.5555 70.0934 49.5555ZM63.2778 46.3563L69.9931 49.0961C71.5133 45.339 72.3652 41.3851 72.4989 37.2999L63.2778 46.3563ZM10.9918 46.225C10.9416 46.225 10.8915 46.2086 10.8414 46.1594L0.735012 36.2335C0.651488 36.1514 0.651488 36.0202 0.735012 35.9381L10.8414 26.0122C10.8915 25.963 10.9584 25.9466 11.0252 25.963C11.092 25.9794 11.1588 26.0286 11.1755 26.0779L15.3517 36.0038C15.3684 36.053 15.3684 36.1022 15.3517 36.1678L11.1755 46.0937C11.1421 46.1594 11.092 46.2086 11.0252 46.2086C11.0085 46.225 10.9918 46.225 10.9918 46.225ZM1.16934 36.0858L10.9082 45.6508L14.9341 36.0858L10.9082 26.5208L1.16934 36.0858ZM62.4927 46.225C62.476 46.225 62.4593 46.225 62.4593 46.225C62.3924 46.2086 62.3256 46.1594 62.3089 46.1102L58.116 36.1842C58.0993 36.135 58.0993 36.0858 58.116 36.0202L62.3089 26.0943C62.3423 26.0286 62.3924 25.9794 62.4593 25.9794C62.5261 25.963 62.5929 25.9794 62.643 26.0286L72.7494 35.9545C72.7828 35.9874 72.8162 36.053 72.8162 36.1022C72.8162 36.1514 72.7995 36.2006 72.7494 36.2499L62.643 46.1758C62.5929 46.2086 62.5428 46.225 62.4927 46.225ZM58.5336 36.0858L62.5762 45.6508L72.3151 36.0858L62.5762 26.5208L58.5336 36.0858ZM0.751716 35.5936C0.718307 35.5936 0.701602 35.5936 0.668192 35.5772C0.584668 35.5444 0.534554 35.4624 0.534554 35.3803C0.618078 30.9998 1.50343 26.7505 3.15721 22.7473C3.17391 22.6981 3.22403 22.6489 3.27414 22.6325C3.32426 22.6161 3.37437 22.6161 3.44119 22.6325L10.641 25.5693C10.7078 25.6021 10.7579 25.6513 10.7746 25.7169C10.7913 25.7825 10.7746 25.8482 10.7245 25.8974L0.918764 35.528C0.86865 35.5772 0.818536 35.5936 0.751716 35.5936ZM3.4913 23.0919C1.97117 26.849 1.11922 30.8029 0.985584 34.8881L10.2066 25.8318L3.4913 23.0919ZM72.716 35.5936C72.6659 35.5936 72.6158 35.5772 72.5657 35.528L62.76 25.8974C62.7098 25.8482 62.6931 25.7825 62.7098 25.7169C62.7265 25.6513 62.7767 25.5857 62.8435 25.5693L70.0433 22.6489C70.0934 22.6325 70.1602 22.6325 70.2103 22.6489C70.2604 22.6653 70.3105 22.7145 70.3272 22.7637C71.981 26.7833 72.8664 31.0326 72.9499 35.3967C72.9499 35.4788 72.8998 35.5608 72.8162 35.5936C72.7661 35.5936 72.7494 35.5936 72.716 35.5936ZM63.2778 25.8318L72.4989 34.8881C72.3652 30.8193 71.5133 26.849 69.9931 23.1083L63.2778 25.8318ZM15.4854 35.5444C15.4018 35.5444 15.3183 35.4952 15.2849 35.4131L11.259 25.881C11.2089 25.7825 11.259 25.6513 11.376 25.6185L21.0815 21.6645C21.165 21.6317 21.2485 21.6481 21.3153 21.7137C21.3821 21.7794 21.3989 21.8614 21.3654 21.9434L15.6858 35.4295C15.6524 35.4952 15.5689 35.5444 15.4854 35.5444ZM11.7435 25.9138L15.4854 34.8061L18.1414 28.5224L20.7975 22.2387L11.7435 25.9138ZM57.9824 35.5444C57.8989 35.5444 57.8153 35.4952 57.7819 35.4131L52.1023 21.9434C52.0689 21.8614 52.0856 21.7794 52.1524 21.7137C52.2192 21.6481 52.3027 21.6317 52.3863 21.6645L62.0918 25.6185C62.1419 25.6349 62.1753 25.6841 62.2087 25.7333C62.2421 25.7825 62.2254 25.8318 62.2087 25.8974L58.1828 35.4295C58.1494 35.4952 58.0659 35.5444 57.9824 35.5444ZM52.687 22.2387L55.343 28.5224L57.9991 34.8061L61.741 25.9302L52.687 22.2387ZM11.376 25.438C11.3426 25.438 11.2924 25.4216 11.259 25.4052C11.1922 25.3724 11.1588 25.3067 11.1588 25.2411V11.1808C11.1588 11.0659 11.259 10.9839 11.3593 10.9839H25.6586C25.7254 10.9839 25.7922 11.0167 25.8256 11.0823C25.859 11.1316 25.8757 11.2136 25.8423 11.2792L22.5181 19.1707L21.6494 21.2215C21.6327 21.2708 21.5826 21.32 21.5325 21.3364L11.4261 25.4544C11.4261 25.438 11.4094 25.438 11.376 25.438ZM11.5764 11.3941V24.9294L21.3153 20.959L25.3579 11.3941H11.5764ZM62.0918 25.438C62.0584 25.438 62.0416 25.438 62.0082 25.4216L51.9018 21.3036C51.8517 21.2872 51.8183 21.2379 51.7849 21.1887L47.592 11.2628C47.5586 11.1972 47.5753 11.1316 47.6087 11.0659C47.6421 11.0167 47.7089 10.9675 47.7757 10.9675H62.0751C62.192 10.9675 62.2755 11.0659 62.2755 11.1644V25.2083C62.2755 25.2739 62.2421 25.3396 62.1753 25.3724C62.1753 25.4216 62.1419 25.438 62.0918 25.438ZM52.1524 20.959L61.8913 24.913V11.3941H48.1098L52.1524 20.959ZM10.7913 25.438C10.7579 25.438 10.7412 25.438 10.7078 25.4216L3.50801 22.5012C3.45789 22.4848 3.40778 22.4356 3.39108 22.3864C3.37437 22.3372 3.37437 22.2716 3.39108 22.2223C5.12838 18.2192 7.55057 14.5933 10.6243 11.4597C10.7078 11.3941 10.7913 11.3777 10.8748 11.4105C10.9584 11.4433 11.0085 11.5089 11.0085 11.5909V25.2247C11.0085 25.2903 10.9751 25.356 10.9082 25.3888C10.8748 25.4216 10.8414 25.438 10.7913 25.438ZM3.87551 22.1895L10.5908 24.913V12.1159C7.76773 15.0691 5.51259 18.4653 3.87551 22.1895ZM62.6764 25.4216C62.643 25.4216 62.5929 25.4052 62.5595 25.3888C62.4927 25.356 62.4593 25.2903 62.4593 25.2247V11.6073C62.4593 11.5253 62.5094 11.4433 62.5929 11.4105C62.6764 11.3777 62.76 11.3941 62.8268 11.4597C65.9172 14.6097 68.3394 18.2356 70.06 22.2223C70.0767 22.2716 70.0767 22.3372 70.06 22.3864C70.0433 22.4356 69.9931 22.4848 69.943 22.5012L62.7432 25.4216C62.7265 25.4216 62.7098 25.4216 62.6764 25.4216ZM62.8936 12.1159V24.913L69.6089 22.1895C67.9719 18.4653 65.7167 15.0855 62.8936 12.1159ZM51.2169 21.0083C51.1835 21.0083 51.1668 21.0083 51.1334 20.9918L44.2677 18.2027L37.4021 15.4136C37.3185 15.3808 37.2684 15.3152 37.2684 15.2168C37.2684 15.1183 37.3185 15.0527 37.4021 15.0199L47.1076 11.0659C47.2245 11.0331 47.3414 11.0659 47.3748 11.1808L51.4007 20.7129C51.4341 20.795 51.4174 20.877 51.3506 20.9426C51.3339 20.9918 51.2838 21.0083 51.2169 21.0083ZM38.0368 15.2168L44.4348 17.8254L50.8327 20.434L47.0908 11.5417L38.0368 15.2168ZM22.2508 21.0083C22.2007 21.0083 22.1506 20.9918 22.1005 20.9426C22.0336 20.877 22.0169 20.795 22.0503 20.7129L26.0762 11.1808C26.1263 11.0823 26.2432 11.0331 26.3435 11.0659L36.049 15.0199C36.1325 15.0527 36.1826 15.1183 36.1826 15.2168C36.1826 15.3152 36.1325 15.3808 36.049 15.4136L22.3176 20.9918C22.3009 21.0083 22.2675 21.0083 22.2508 21.0083ZM26.3769 11.5417L22.635 20.4176L35.4309 15.2168L26.3769 11.5417ZM36.7339 15.1183C36.7005 15.1183 36.6838 15.1183 36.6503 15.1019L26.5439 10.9839C26.4771 10.9511 26.427 10.9019 26.4103 10.8362C26.3936 10.7706 26.4103 10.705 26.4604 10.6558L36.5668 0.729859C36.6503 0.647827 36.784 0.647827 36.8675 0.729859L46.9739 10.6558C47.024 10.705 47.0407 10.7706 47.024 10.8362C47.0073 10.9019 46.9572 10.9675 46.8904 10.9839L36.784 15.1019C36.784 15.1183 36.7673 15.1183 36.7339 15.1183ZM26.995 10.7214L36.7339 14.6754L46.4728 10.7214L36.7339 1.15643L26.995 10.7214ZM61.6741 10.8198H47.7924C47.7256 10.8198 47.6588 10.787 47.6254 10.7214C47.592 10.6722 47.5753 10.5901 47.6087 10.5245L50.5989 3.45333C50.6156 3.40411 50.6657 3.35489 50.7158 3.33849C50.7659 3.32208 50.8327 3.32208 50.8828 3.33849C54.9588 5.02835 58.6339 7.4237 61.8412 10.4425C61.908 10.5081 61.9247 10.5901 61.8913 10.6722C61.8412 10.7706 61.7577 10.8198 61.6741 10.8198ZM48.1098 10.4097H61.1563C58.1327 7.63698 54.6915 5.42211 50.8995 3.81428L48.1098 10.4097ZM25.6753 10.8198H11.7936C11.7101 10.8198 11.6265 10.7706 11.5931 10.6886C11.5764 10.6066 11.5931 10.5245 11.6432 10.4589C14.7336 7.53854 18.3085 5.19242 22.2508 3.50255L22.6016 3.35489C22.6517 3.33849 22.7018 3.33849 22.7687 3.35489C22.8188 3.3713 22.8522 3.42052 22.8856 3.46974L25.859 10.5409C25.8924 10.6066 25.8757 10.6722 25.8423 10.7378C25.8089 10.787 25.7421 10.8198 25.6753 10.8198ZM12.3281 10.4097H25.3746L22.6016 3.81428L22.4346 3.8799C18.6927 5.48773 15.2849 7.6698 12.3281 10.4097ZM47.2579 10.6066C47.2078 10.6066 47.1577 10.5901 47.1076 10.5409L37.2851 0.893924C37.2183 0.828298 37.2016 0.746266 37.235 0.664233C37.2684 0.582201 37.3519 0.532981 37.4355 0.532981C41.8622 0.615014 46.2055 1.48456 50.3149 3.1252C50.365 3.14161 50.4151 3.19083 50.4318 3.24005C50.4485 3.28927 50.4485 3.35489 50.4318 3.40411L47.4584 10.4753C47.4249 10.5409 47.3748 10.5901 47.308 10.5901C47.2913 10.5901 47.2746 10.6066 47.2579 10.6066ZM37.9533 0.975956L47.1744 10.0323L49.9474 3.43693C46.122 1.94394 42.0961 1.10721 37.9533 0.975956ZM26.2098 10.5901C26.1931 10.5901 26.1764 10.5901 26.1764 10.5901C26.1096 10.5737 26.0428 10.5245 26.0261 10.4753L23.0526 3.42052C23.0025 3.32208 23.0526 3.19083 23.1696 3.15802L23.5204 3.01036C27.5295 1.46815 31.7391 0.647827 36.0323 0.565794C36.1158 0.565794 36.1993 0.615014 36.2327 0.697046C36.2661 0.779078 36.2494 0.861111 36.1826 0.926737L26.3769 10.5573C26.3268 10.5737 26.26 10.5901 26.2098 10.5901ZM23.5037 3.43693L26.2934 10.0323L35.5144 0.975956C31.4551 1.10721 27.4627 1.92753 23.6707 3.3713L23.5037 3.43693Z" fill="#B5936C"/>
</svg>
