<svg width="74" height="73" viewBox="0 0 74 73" fill="none" xmlns="http://www.w3.org/2000/svg">
<path d="M36.9156 71.8908C57.2016 71.8908 73.6466 55.9102 73.6466 36.1971C73.6466 16.4839 57.2016 0.503296 36.9156 0.503296C16.6296 0.503296 0.18457 16.4839 0.18457 36.1971C0.18457 55.9102 16.6296 71.8908 36.9156 71.8908Z" fill="#F5F6E0"/>
<path d="M10.8761 25.4291L3.63076 22.4849C5.36225 18.4657 7.79977 14.8434 10.8761 11.7007V25.4291ZM22.4754 3.7118L22.8284 3.56293L25.8206 10.6918H11.8679C14.9779 7.74761 18.5417 5.41544 22.4754 3.7118ZM23.7361 3.19905C27.737 1.66081 31.9565 0.833798 36.26 0.751097L26.3922 10.4602L23.3999 3.34791L23.7361 3.19905ZM50.5657 3.34791L47.5735 10.4767L43.8247 6.78828L37.7057 0.751097C42.1269 0.833798 46.4472 1.71043 50.5657 3.34791ZM48.0946 10.6918L51.1037 3.56293C55.1718 5.25004 58.8533 7.64837 62.0641 10.6918H48.0946ZM63.3081 25.9584L70.5534 23.0142C72.2177 27.05 73.0918 31.3009 73.1759 35.684L63.3081 25.9584ZM70.5366 49.7432L63.2913 46.7825L73.1591 37.0734C73.0918 41.4566 72.2177 45.7074 70.5366 49.7432ZM63.0728 47.3283L70.3181 50.2725C68.5866 54.2918 66.1491 57.9141 63.0728 61.0567V47.3283ZM51.4735 69.0291L51.1037 69.178L48.1114 62.0657H62.0809C58.971 64.9933 55.4072 67.342 51.4735 69.0291ZM50.1959 69.5584C46.195 71.1132 41.9756 71.9236 37.6889 72.0063L43.8079 65.9692L47.5566 62.2807L50.5489 69.4095L50.1959 69.5584ZM23.3831 69.4095L26.3754 62.2807L30.1241 65.9692L36.26 72.0063C31.822 71.9236 27.4849 71.047 23.3831 69.4095ZM25.8375 62.0657L22.8284 69.1945C18.7434 67.5074 15.0619 65.1091 11.8679 62.0657H25.8375ZM6.892 43.1106L10.6408 46.799L3.39542 49.7597C1.73118 45.7239 0.857028 41.4731 0.772976 37.0899L6.892 43.1106ZM22.4922 19.21L21.618 21.2775L11.4477 25.4291V11.2707H25.8375L22.4922 19.21ZM47.1532 10.8902L36.9828 15.0418L33.5031 13.6194L26.8125 10.8902L36.9828 0.883419L41.051 4.88615L47.1532 10.8902ZM62.5012 25.4291L52.3308 21.2775L48.1114 11.2707H62.5012V25.4291ZM63.0728 25.4291V11.7007C66.1659 14.8599 68.5866 18.4822 70.3181 22.4849L63.0728 25.4291ZM58.6684 36.3787L62.8878 26.3719L73.0582 36.3787L62.8878 46.3855L58.6684 36.3787ZM11.4477 47.3283L18.9283 50.3717L21.618 51.4634L25.8375 61.4702H11.4477V47.3283ZM10.8593 47.3283V61.0733C7.76615 57.9141 5.34544 54.2918 3.61395 50.289L10.8593 47.3283ZM37.7393 57.4179L51.5576 51.7942L47.5062 61.4041L47.1196 61.2552L37.7393 57.4179ZM22.3913 20.9632L26.4426 11.3534L36.2095 15.3396L22.3913 20.9632ZM55.4912 28.8364L52.6334 22.0383L62.4003 26.0245L58.349 35.6344L55.4912 28.8364ZM29.3004 54.606L36.2095 57.4179L26.4426 61.4041L22.3913 51.7942L29.3004 54.606ZM58.349 37.1396L62.4003 46.7494L52.6334 50.7356L58.349 37.1396ZM44.6484 18.1514L37.7393 15.3396L47.5062 11.3534L51.5576 20.9632L44.6484 18.1514ZM15.9024 36.3787L18.9956 29.0514L22.0887 21.7241L36.9828 15.6538L44.4299 18.6972L51.877 21.7406L58.0296 36.3787L51.8601 51.0333L36.966 57.1036L29.519 54.0602L22.0719 51.0168L20.2227 46.6171L15.9024 36.3787ZM18.4408 28.8364L15.583 35.6344L11.5317 26.0245L21.2986 22.0383L18.4408 28.8364ZM11.5485 46.7494L14.2046 40.4145L15.583 37.1396L18.4408 43.9376L21.2986 50.7356L18.8275 49.7267L11.5485 46.7494ZM0.890649 36.3787L4.9588 32.376L11.061 26.3719L15.2636 36.3787L14.1878 38.959L11.061 46.3855L4.9588 40.3814L0.890649 36.3787ZM36.966 71.8906L32.8979 67.8713L26.7957 61.8672L36.966 57.7156L43.0178 60.1801L47.1532 61.8672L41.051 67.8713L36.966 71.8906ZM48.0946 61.4868L50.4144 55.9789L52.314 51.4799L62.4844 47.3283V61.4868H48.0946ZM3.39542 23.0142L4.97561 23.6593L10.6408 25.9749L6.892 29.6468L0.772976 35.6675C0.857028 31.3009 1.73118 27.0335 3.39542 23.0142ZM2.97515 50.2394C10.5399 68.2186 32.0069 77.2 50.4312 70.0877L51.07 69.823L51.7088 69.5584C64.9723 63.852 73.7643 50.6529 73.7811 36.4118C73.8147 36.3787 73.8147 36.3291 73.7811 36.2795C73.7474 24.9494 68.2 14.1156 58.971 7.3341C48.8847 -0.0759133 35.2514 -1.84572 23.5344 2.66976L22.8956 2.93441L22.2568 3.19905C4.1687 10.9564 -4.64001 32.2602 2.97515 50.2394Z" fill="#B5936C"/>
<path d="M37.2522 72.7511C32.2931 72.7511 27.3003 71.7587 22.543 69.7738C13.4821 65.9861 6.45525 59.0723 2.77374 50.3226C-0.92458 41.5893 -0.92458 31.8141 2.77374 22.8162C6.47206 13.8348 13.3476 6.78872 22.1731 3.00101L23.4507 2.48826C35.2854 -2.07684 48.9523 -0.273955 59.0891 7.18568C68.3853 14.0168 73.9496 24.8837 73.9832 36.2634C74.0001 36.3295 74.0001 36.4122 73.9832 36.4784C73.9496 50.703 65.0232 64.084 51.7765 69.7738L50.4989 70.2866C46.229 71.9241 41.7574 72.7511 37.2522 72.7511ZM36.916 0.404194C32.4107 0.404194 27.8887 1.21466 23.602 2.86869L22.3412 3.38143C13.6334 7.11952 6.82508 14.083 3.16038 22.965C-0.504317 31.8637 -0.504317 41.5232 3.16038 50.1572C6.79146 58.8077 13.7342 65.6223 22.6942 69.3769C31.6543 73.1315 41.4716 73.3135 50.3308 69.8896L51.5916 69.3769C64.7038 63.7367 73.5126 50.488 73.5294 36.4122C73.5294 36.3957 73.5294 36.3626 73.5462 36.3461C73.5462 36.3295 73.5294 36.313 73.5294 36.2965C73.4957 25.0326 67.9987 14.2649 58.8033 7.51649C52.4657 2.83561 44.7161 0.404194 36.916 0.404194ZM36.2604 72.2053C31.7888 72.1226 27.4348 71.2459 23.2994 69.5919C23.249 69.5754 23.1986 69.5257 23.1818 69.4761C23.1649 69.4265 23.1649 69.3603 23.1818 69.3107L26.174 62.1819C26.2077 62.1157 26.2581 62.0661 26.3253 62.0661C26.3926 62.0496 26.4598 62.0661 26.5102 62.1157L36.3948 71.8414C36.4621 71.9075 36.4789 71.9902 36.4453 72.0729C36.4285 72.1556 36.3444 72.2053 36.2604 72.2053ZM23.6693 69.2942C27.5357 70.7993 31.587 71.6429 35.756 71.7752L26.4766 62.645L23.6693 69.2942ZM37.6893 72.2053C37.6052 72.2053 37.5212 72.1556 37.4875 72.0729C37.4539 71.9902 37.4707 71.9075 37.538 71.8414L47.4058 62.1157C47.4562 62.0661 47.5234 62.0496 47.5907 62.0661C47.6579 62.0826 47.7252 62.1323 47.742 62.1819L50.7342 69.3107C50.7511 69.3603 50.7511 69.4265 50.7342 69.4761C50.7174 69.5257 50.667 69.5754 50.6166 69.5919L50.2636 69.7408C46.2626 71.2955 42.0264 72.1226 37.6893 72.2053ZM47.4898 62.645L38.2104 71.7752C42.3122 71.6429 46.3131 70.8324 50.1291 69.3438L50.2972 69.2776L47.4898 62.645ZM36.9664 72.106C36.916 72.106 36.8487 72.0895 36.8151 72.0399L26.6447 62.0165C26.5943 61.9669 26.5775 61.9007 26.5943 61.8345C26.6111 61.7684 26.6615 61.7022 26.7288 61.6857L36.8992 57.5341C36.9496 57.5176 37 57.5176 37.0673 57.5341L47.2377 61.6857C47.3049 61.7188 47.3553 61.7684 47.3721 61.8345C47.389 61.9007 47.3721 61.9669 47.3217 62.0165L37.1513 72.0399C37.0841 72.0729 37.0336 72.106 36.9664 72.106ZM27.1659 61.9503L36.9664 71.5933L46.767 61.9503L36.9664 57.9641L27.1659 61.9503ZM22.8455 69.3934C22.8119 69.3934 22.7951 69.3934 22.7615 69.3769C18.6765 67.6732 14.9614 65.2584 11.7338 62.215C11.6665 62.1488 11.6497 62.0661 11.6833 61.9834C11.717 61.9007 11.801 61.8511 11.8851 61.8511H25.8546C25.9219 61.8511 25.9891 61.8842 26.0227 61.9503C26.0564 61.9999 26.0732 62.0827 26.0395 62.1488L23.0305 69.2776C23.0136 69.3273 22.9632 69.3769 22.9128 69.3934C22.896 69.3934 22.8624 69.3934 22.8455 69.3934ZM12.4062 62.2646C15.4489 65.0764 18.9287 67.3094 22.7279 68.9138L25.5352 62.2646H12.4062ZM51.1041 69.3934C51.02 69.3934 50.936 69.3438 50.9024 69.2611L47.9101 62.1488C47.8765 62.0827 47.8933 62.0165 47.9269 61.9503C47.9605 61.9007 48.0278 61.8511 48.095 61.8511H62.0646C62.1486 61.8511 62.2327 61.9007 62.2663 61.9834C62.2999 62.0661 62.2831 62.1488 62.2159 62.215C59.0891 65.1757 55.5084 67.5244 51.558 69.228L51.1881 69.3769C51.1545 69.3934 51.1209 69.3934 51.1041 69.3934ZM48.4144 62.2646L51.2049 68.9138L51.3731 68.8476C55.1218 67.2432 58.5343 65.0268 61.5266 62.2646H48.4144ZM62.5016 61.7022H48.1118C48.0446 61.7022 47.9773 61.6691 47.9437 61.603C47.9101 61.5534 47.8933 61.4707 47.9269 61.4045L52.1463 51.3977C52.1631 51.348 52.2136 51.2984 52.264 51.2819L62.4344 47.1303C62.5016 47.0972 62.5689 47.1138 62.6361 47.1468C62.7034 47.1799 62.737 47.2461 62.737 47.3122V61.4707C62.7034 61.603 62.6025 61.7022 62.5016 61.7022ZM48.4144 61.2887H62.2831V47.643L52.4825 51.6458L48.4144 61.2887ZM25.8378 61.7022H11.448C11.3303 61.7022 11.2463 61.603 11.2463 61.5037V47.3453C11.2463 47.2792 11.2799 47.213 11.3471 47.1799C11.3976 47.1468 11.4816 47.1303 11.5489 47.1634L21.7192 51.315C21.7697 51.3315 21.8033 51.3811 21.8369 51.4308L26.0564 61.4376C26.09 61.5037 26.0732 61.5699 26.0395 61.6361C25.9723 61.6526 25.9051 61.7022 25.8378 61.7022ZM11.6665 61.2887H25.5352L21.4671 51.6458L11.6665 47.643V61.2887ZM26.443 61.603C26.3589 61.603 26.2749 61.5534 26.2413 61.4707L22.1899 51.8608C22.1563 51.7781 22.1731 51.6954 22.2404 51.6292C22.3076 51.5631 22.3917 51.5465 22.4757 51.5796L29.3848 54.3914L36.294 57.2033C36.378 57.2364 36.4285 57.3191 36.4285 57.4018C36.4285 57.4845 36.378 57.5672 36.294 57.6003L26.5271 61.5864C26.4934 61.603 26.4598 61.603 26.443 61.603ZM22.7783 52.1751L26.5439 61.1399L35.6552 57.4348L22.7783 52.1751ZM47.5066 61.603C47.473 61.603 47.4562 61.603 47.4226 61.5864L37.6556 57.6003C37.5716 57.5672 37.5212 57.501 37.5212 57.4018C37.5212 57.3025 37.5716 57.2364 37.6556 57.2033L51.4739 51.5796C51.558 51.5465 51.642 51.5631 51.7093 51.6292C51.7765 51.6954 51.7933 51.7781 51.7597 51.8608L47.7083 61.4707C47.6579 61.5534 47.5907 61.603 47.5066 61.603ZM38.2944 57.4183L47.389 61.1233L51.1545 52.1751L38.2944 57.4183ZM63.0732 61.2722C63.0396 61.2722 63.0228 61.2722 62.9891 61.2556C62.9051 61.2226 62.8547 61.1564 62.8547 61.0572V47.3122C62.8547 47.2461 62.8883 47.1799 62.9555 47.1468C63.006 47.1138 63.09 47.0972 63.1572 47.1303L70.4026 50.0745C70.453 50.091 70.5035 50.1406 70.5203 50.1902C70.5371 50.2399 70.5371 50.306 70.5203 50.3556C68.772 54.3915 66.3344 58.0468 63.2413 61.206C63.1909 61.2556 63.1404 61.2722 63.0732 61.2722ZM63.2917 47.643V60.5609C66.1327 57.5672 68.4021 54.1599 70.0496 50.4053L63.2917 47.643ZM10.8596 61.2722C10.8092 61.2722 10.7419 61.2556 10.7083 61.206C7.61518 58.0303 5.16084 54.3915 3.42935 50.3556C3.41254 50.306 3.41254 50.2399 3.42935 50.1902C3.44616 50.1406 3.49659 50.091 3.54703 50.0745L10.7924 47.1138C10.8596 47.0807 10.9269 47.0972 10.9941 47.1303C11.0613 47.1634 11.095 47.2295 11.095 47.2957V61.0406C11.095 61.1233 11.0445 61.206 10.9605 61.2391C10.91 61.2722 10.8932 61.2722 10.8596 61.2722ZM3.90005 50.3887C5.54748 54.1433 7.81691 57.5506 10.6579 60.5444V47.6265L3.90005 50.3887ZM36.9664 57.3191C36.9328 57.3191 36.916 57.3191 36.8824 57.3025L21.9882 51.2323C21.9378 51.2157 21.9042 51.1661 21.8705 51.1165L15.7011 36.4619C15.6842 36.4122 15.6842 36.3626 15.7011 36.2965L21.8705 21.6418C21.8873 21.5922 21.9378 21.5426 21.9882 21.526L36.8824 15.4558C36.9328 15.4392 36.9832 15.4392 37.0505 15.4558L51.9446 21.526C51.995 21.5426 52.0287 21.5922 52.0623 21.6418L58.2318 36.2965C58.2486 36.3461 58.2486 36.3957 58.2318 36.4619L52.0623 51.1165C52.0455 51.1661 51.995 51.2157 51.9446 51.2323L37.0505 57.3025C37.0336 57.3025 37 57.3191 36.9664 57.3191ZM22.2404 50.8684L36.9832 56.8725L51.7093 50.8684L57.8115 36.3792L51.7093 21.8899L36.9664 15.8693L22.2404 21.8734L16.1381 36.3792L22.2404 50.8684ZM52.6338 50.9345C52.5834 50.9345 52.533 50.918 52.4825 50.8684C52.4153 50.8022 52.3985 50.7195 52.4321 50.6368L58.1477 37.0408C58.2149 36.8919 58.4671 36.8919 58.5343 37.0408L62.5857 46.6506C62.6361 46.7499 62.5857 46.8822 62.468 46.9153L52.7011 50.9015C52.6843 50.9345 52.6675 50.9345 52.6338 50.9345ZM58.3494 37.6693L53.0205 50.3391L62.1318 46.6341L58.3494 37.6693ZM21.3158 50.9345C21.2822 50.9345 21.2654 50.9345 21.2317 50.918L11.4648 46.9318C11.3639 46.8822 11.3135 46.7664 11.3471 46.6672L15.3817 37.0573C15.4489 36.9084 15.7011 36.9084 15.7683 37.0573L21.5007 50.6368C21.5343 50.7195 21.5175 50.8022 21.4503 50.8684C21.4166 50.9015 21.3662 50.9345 21.3158 50.9345ZM11.8178 46.6341L20.9291 50.3391L15.6002 37.6693L11.8178 46.6341ZM3.39573 49.9587C3.36211 49.9587 3.3453 49.9587 3.31168 49.9421C3.26125 49.9256 3.21082 49.876 3.19401 49.8264C1.52976 45.774 0.638801 41.4901 0.554748 37.0904C0.554748 37.0077 0.60518 36.925 0.689233 36.8919C0.773286 36.8588 0.857338 36.8754 0.924581 36.9415L10.7924 46.6506C10.8428 46.7002 10.8596 46.7664 10.8596 46.8326C10.8428 46.8987 10.7924 46.9649 10.7251 46.9814L3.47978 49.9421C3.44616 49.9587 3.42935 49.9587 3.39573 49.9587ZM0.991823 37.5866C1.12631 41.6886 1.98365 45.6913 3.51341 49.479L10.2712 46.7168L6.74103 43.2599L0.991823 37.5866ZM70.5371 49.9587C70.5035 49.9587 70.4866 49.9587 70.453 49.9421L63.2077 46.9814C63.1404 46.9484 63.09 46.8987 63.0732 46.8326C63.0564 46.7664 63.0732 46.7002 63.1236 46.6506L72.9914 36.9415C73.0587 36.8754 73.1427 36.8588 73.2268 36.8919C73.3108 36.925 73.3613 37.0077 73.3613 37.0904C73.2772 41.4901 72.3862 45.774 70.7052 49.8264C70.6884 49.876 70.6379 49.9256 70.5875 49.9421C70.6043 49.9587 70.5707 49.9587 70.5371 49.9587ZM63.6784 46.7168L70.4362 49.479C71.966 45.6913 72.8233 41.6886 72.9578 37.5866L63.6784 46.7168ZM11.0613 46.601C11.0109 46.601 10.9605 46.5845 10.91 46.5348L0.739664 36.528C0.655612 36.4453 0.655612 36.313 0.739664 36.2303L10.91 26.2235C10.9605 26.1738 11.0277 26.1573 11.095 26.1738C11.1622 26.1904 11.2294 26.24 11.2463 26.2896L15.4657 36.2965C15.4825 36.3461 15.4825 36.3957 15.4657 36.4619L11.2463 46.4687C11.2126 46.5349 11.1622 46.5845 11.095 46.5845C11.0782 46.601 11.0782 46.601 11.0613 46.601ZM1.17674 36.3792L10.9773 46.0221L15.0454 36.3792L10.9941 26.7362L1.17674 36.3792ZM62.8883 46.601C62.8715 46.601 62.8547 46.601 62.8547 46.601C62.7874 46.5845 62.7202 46.5349 62.7034 46.4852L58.4839 36.4784C58.4671 36.4288 58.4671 36.3792 58.4839 36.313L62.7034 26.3062C62.737 26.24 62.7874 26.1904 62.8547 26.1904C62.9219 26.1738 62.9891 26.1904 63.0396 26.24L73.21 36.2468C73.2436 36.2799 73.2772 36.3461 73.2772 36.3957C73.2772 36.4453 73.2604 36.4949 73.21 36.5446L63.0396 46.5514C62.9891 46.5679 62.9387 46.601 62.8883 46.601ZM58.9042 36.3792L62.9723 46.0221L72.7729 36.3792L62.9723 26.7362L58.9042 36.3792ZM73.1763 35.883C73.1259 35.883 73.0755 35.8664 73.025 35.8168L63.1572 26.1077C63.1068 26.0581 63.09 25.9919 63.1068 25.9257C63.1236 25.8596 63.1741 25.7934 63.2413 25.7769L70.4866 22.8327C70.5371 22.8162 70.6043 22.8162 70.6548 22.8327C70.7052 22.8493 70.7556 22.8989 70.7724 22.9485C72.4367 27.0009 73.3276 31.2848 73.4117 35.6845C73.4117 35.7672 73.3613 35.8499 73.2772 35.883C73.2268 35.883 73.21 35.883 73.1763 35.883ZM63.6784 26.0415L72.9578 35.1717C72.8233 31.0697 71.966 27.067 70.4362 23.2959L63.6784 26.0415ZM0.773286 35.883C0.739664 35.883 0.722854 35.883 0.689233 35.8664C0.60518 35.8333 0.554748 35.7506 0.554748 35.6679C0.638801 31.2682 1.52976 26.9843 3.19401 22.932C3.21082 22.8823 3.26125 22.8327 3.31168 22.8162C3.36211 22.7996 3.41254 22.7996 3.47978 22.8162L10.7251 25.7769C10.7924 25.81 10.8428 25.8596 10.8596 25.9257C10.8764 25.9919 10.8596 26.0581 10.8092 26.1077L0.941391 35.8168C0.874149 35.8664 0.823717 35.883 0.773286 35.883ZM3.51341 23.2793C1.98365 27.067 1.12631 31.0697 0.991823 35.1717L10.2712 26.0415L3.51341 23.2793ZM15.5834 35.8333C15.4993 35.8333 15.4153 35.7837 15.3817 35.701L11.3303 26.0911C11.2799 25.9919 11.3303 25.8596 11.448 25.8265L21.2149 21.8403C21.2822 21.8072 21.383 21.8238 21.4503 21.8899C21.5175 21.9561 21.5343 22.0388 21.5007 22.1215L15.7683 35.7175C15.7515 35.7837 15.6674 35.8333 15.5834 35.8333ZM11.8178 26.1242L15.5834 35.089L18.2563 28.7541L20.9291 22.4192L11.8178 26.1242ZM58.3494 35.8333C58.2654 35.8333 58.1813 35.7837 58.1477 35.701L52.4321 22.1215C52.3985 22.0388 52.4153 21.9561 52.4825 21.8899C52.5498 21.8238 52.6338 21.8072 52.7179 21.8403L62.4848 25.8265C62.5353 25.843 62.5689 25.8927 62.6025 25.9423C62.6361 25.9919 62.6193 26.0415 62.6025 26.1077L58.5512 35.7175C58.5175 35.7837 58.4335 35.8333 58.3494 35.8333ZM53.0205 22.4192L55.6934 28.7541L58.3494 35.089L62.115 26.1408L53.0205 22.4192ZM11.448 25.6446C11.4144 25.6446 11.3639 25.628 11.3303 25.6115C11.2631 25.5784 11.2294 25.5122 11.2294 25.4461V11.2711C11.2294 11.1553 11.3303 11.0726 11.4312 11.0726H25.821C25.8883 11.0726 25.9555 11.1057 25.9891 11.1719C26.0227 11.2215 26.0395 11.3042 26.0059 11.3704L22.6606 19.3262L21.7865 21.3937C21.7697 21.4433 21.7192 21.493 21.6688 21.5095L11.532 25.628C11.4984 25.628 11.4816 25.6446 11.448 25.6446ZM11.6665 11.4696V25.1153L21.4671 21.1125L25.5352 11.4696H11.6665ZM62.5016 25.628C62.468 25.628 62.4512 25.628 62.4176 25.6115L52.2472 21.4599C52.1968 21.4433 52.1631 21.3937 52.1295 21.3441L47.9101 11.3538C47.8765 11.2877 47.8933 11.2215 47.9269 11.1553C47.9605 11.1057 48.0278 11.0561 48.095 11.0561H62.4848C62.6025 11.0561 62.6866 11.1553 62.6866 11.2546V25.413C62.6866 25.4792 62.6529 25.5453 62.5857 25.5784C62.5689 25.628 62.5353 25.628 62.5016 25.628ZM52.4825 21.1291L62.2831 25.1153V11.4696H48.4144L52.4825 21.1291ZM10.8764 25.628C10.8428 25.628 10.826 25.628 10.7924 25.6115L3.54703 22.6673C3.49659 22.6508 3.44616 22.6012 3.42935 22.5515C3.41254 22.5019 3.41254 22.4358 3.42935 22.3861C5.17765 18.3503 7.63199 14.6949 10.7083 11.5358C10.7588 11.4696 10.8596 11.4531 10.9437 11.4861C11.0277 11.5192 11.0782 11.5854 11.0782 11.6846V25.4295C11.0782 25.4957 11.0445 25.5619 10.9773 25.5949C10.9437 25.628 10.91 25.628 10.8764 25.628ZM3.90005 22.3696L10.6579 25.1153V12.1974C7.81691 15.1911 5.54748 18.5984 3.90005 22.3696ZM63.0732 25.628C63.0396 25.628 62.9891 25.6115 62.9555 25.5949C62.8883 25.5619 62.8547 25.4957 62.8547 25.4295V11.7012C62.8547 11.6185 62.9051 11.5358 62.9891 11.5027C63.0732 11.4696 63.1572 11.4861 63.2245 11.5523C66.3344 14.728 68.772 18.3834 70.5035 22.4027C70.5203 22.4523 70.5203 22.5185 70.5035 22.5681C70.4866 22.6177 70.4362 22.6673 70.3858 22.6839L63.1404 25.628C63.1404 25.628 63.1068 25.628 63.0732 25.628ZM63.2917 12.2139V25.1153L70.0496 22.3696C68.4021 18.615 66.1327 15.2077 63.2917 12.2139ZM51.558 21.1787C51.5243 21.1787 51.5075 21.1787 51.4739 21.1622L37.6556 15.5385C37.5716 15.5054 37.5212 15.4392 37.5212 15.34C37.5212 15.2408 37.5716 15.1746 37.6556 15.1415L47.4226 11.1553C47.5402 11.1223 47.6579 11.1553 47.6915 11.2711L51.7429 20.881C51.7765 20.9637 51.7597 21.0464 51.6925 21.1125C51.6588 21.1622 51.6084 21.1787 51.558 21.1787ZM38.2944 15.34L51.1713 20.5833L47.4058 11.6185L38.2944 15.34ZM22.3917 21.1787C22.3412 21.1787 22.2908 21.1622 22.2404 21.1125C22.1731 21.0464 22.1563 20.9637 22.1899 20.881L26.2413 11.2711C26.2917 11.1719 26.4094 11.1223 26.5102 11.1553L36.2772 15.1415C36.3612 15.1746 36.4117 15.2408 36.4117 15.34C36.4117 15.4392 36.3612 15.5054 36.2772 15.5385L22.4589 21.1622C22.4421 21.1622 22.4253 21.1787 22.3917 21.1787ZM26.5439 11.635L22.7783 20.5833L35.6552 15.34L26.5439 11.635ZM36.9664 15.2408C36.9328 15.2408 36.916 15.2408 36.8824 15.2242L26.712 11.0726C26.6447 11.0396 26.5943 10.9899 26.5775 10.9238C26.5607 10.8576 26.5775 10.7914 26.6279 10.7418L36.7983 0.734998C36.8824 0.652297 37.0168 0.652297 37.1009 0.734998L47.2713 10.7418C47.3217 10.7914 47.3385 10.8576 47.3217 10.9238C47.3049 10.9899 47.2545 11.0561 47.1872 11.0726L37.0168 15.2242C37.0168 15.2242 37 15.2408 36.9664 15.2408ZM27.1659 10.808L36.9664 14.7942L46.767 10.808L36.9664 1.16504L27.1659 10.808ZM62.0646 10.9072H48.095C48.0278 10.9072 47.9605 10.8741 47.9269 10.808C47.8933 10.7584 47.8765 10.6757 47.9101 10.6095L50.9192 3.48067C50.936 3.43105 50.9864 3.38143 51.0368 3.36489C51.0873 3.34835 51.1545 3.34835 51.2049 3.36489C55.3067 5.06853 59.005 7.48341 62.2327 10.5268C62.2999 10.593 62.3167 10.6757 62.2831 10.7584C62.2327 10.8576 62.1486 10.9072 62.0646 10.9072ZM48.4144 10.4937H61.5434C58.5007 7.69843 55.0378 5.4655 51.2218 3.84456L48.4144 10.4937ZM25.8378 10.9072H11.8851C11.801 10.9072 11.717 10.8576 11.6833 10.7749C11.6497 10.6922 11.6665 10.6095 11.7338 10.5433C14.8437 7.59919 18.4412 5.23394 22.3917 3.53029L22.7447 3.38143C22.8455 3.33181 22.98 3.38143 23.0136 3.49721L26.0059 10.626C26.0395 10.6922 26.0227 10.7584 25.9891 10.8245C25.9723 10.8576 25.9051 10.9072 25.8378 10.9072ZM12.4062 10.4937H25.5352L22.7447 3.84456L22.5766 3.91072C18.811 5.53166 15.3985 7.73151 12.4062 10.4937ZM47.5571 10.6757C47.5066 10.6757 47.4562 10.6591 47.4058 10.6095L37.5212 0.88386C37.4539 0.817699 37.4371 0.734998 37.4707 0.652297C37.5043 0.569596 37.5884 0.519975 37.6725 0.519975C42.1272 0.602676 46.498 1.47931 50.6166 3.13333C50.667 3.14987 50.7174 3.19949 50.7342 3.24911C50.7511 3.29873 50.7511 3.36489 50.7342 3.41451L47.742 10.5433C47.7083 10.6095 47.6579 10.6591 47.5907 10.6591C47.5907 10.6757 47.5739 10.6757 47.5571 10.6757ZM38.2104 0.983101L47.4898 10.1133L50.2804 3.46413C46.4139 1.94243 42.3626 1.11542 38.2104 0.983101ZM26.3926 10.6757C26.3758 10.6757 26.3589 10.6757 26.3589 10.6757C26.2917 10.6591 26.2245 10.6095 26.2077 10.5599L23.2154 3.44759C23.1649 3.34835 23.2154 3.21603 23.333 3.18295L23.6861 3.03409C27.7206 1.47931 31.9569 0.652297 36.2772 0.569596C36.3612 0.569596 36.4453 0.619217 36.4789 0.701918C36.5125 0.784619 36.4957 0.86732 36.4285 0.933481L26.5607 10.6426C26.4934 10.6591 26.443 10.6757 26.3926 10.6757ZM23.6524 3.46413L26.4598 10.1133L35.7392 0.983101C31.6543 1.11542 27.6365 1.94243 23.8206 3.39797L23.6524 3.46413Z" fill="#B5936C"/>
</svg>
