<svg width="74" height="73" viewBox="0 0 74 73" fill="none" xmlns="http://www.w3.org/2000/svg">
<path d="M36.9322 71.8908C57.2182 71.8908 73.6632 55.9102 73.6632 36.1971C73.6632 16.4839 57.2182 0.503296 36.9322 0.503296C16.6462 0.503296 0.201172 16.4839 0.201172 36.1971C0.201172 55.9102 16.6462 71.8908 36.9322 71.8908Z" fill="#F5F6DD"/>
<path d="M10.8765 25.4291L3.63121 22.4849C5.36269 18.4657 7.80022 14.8434 10.8765 11.7007V25.4291ZM22.4926 3.7118L22.8456 3.56293L25.8379 10.6918H11.8852C14.9951 7.74761 18.559 5.41544 22.4926 3.7118ZM23.7534 3.19905C27.7543 1.66081 31.9738 0.833798 36.2773 0.751097L26.4095 10.4602L23.4172 3.34791L23.7534 3.19905ZM50.583 3.34791L47.5907 10.4767L43.842 6.78828L37.723 0.751097C42.1441 0.833798 46.4644 1.71043 50.583 3.34791ZM48.1119 10.6918L51.121 3.56293C55.1891 5.25004 58.8706 7.64837 62.0814 10.6918H48.1119ZM63.3254 25.9584L70.5707 23.0142C72.235 27.05 73.1091 31.3009 73.1932 35.684L63.3254 25.9584ZM70.5539 49.7432L63.3086 46.7825L73.1764 37.0734C73.1091 41.4566 72.2182 45.7074 70.5539 49.7432ZM63.09 47.3283L70.3354 50.2725C68.6039 54.2918 66.1664 57.9141 63.09 61.0567V47.3283ZM51.474 69.0291L51.1041 69.178L48.1119 62.0657H62.0814C58.9883 64.9933 55.4244 67.342 51.474 69.0291ZM50.2132 69.5584C46.2123 71.1132 41.9928 71.9236 37.7062 72.0063L43.8252 65.9692L47.5739 62.2807L50.5662 69.4095L50.2132 69.5584ZM23.4004 69.4095L26.3927 62.2807L30.1414 65.9692L36.2773 72.0063C31.8393 71.9236 27.5022 71.047 23.4004 69.4095ZM25.8547 62.0657L22.8456 69.1945C18.7607 67.5074 15.0792 65.1091 11.8852 62.0657H25.8547ZM6.90926 43.1106L10.658 46.799L3.41267 49.7597C1.74843 45.7239 0.874283 41.4731 0.790231 37.0899L6.90926 43.1106ZM22.5094 19.21L21.6353 21.2775L11.4649 25.4291V11.2707H25.8547L22.5094 19.21ZM47.1705 10.8737L37.0001 15.0253L33.5203 13.6028L26.8297 10.8737L37.0001 0.866879L41.0683 4.86961L47.1705 10.8737ZM62.5185 25.4291L52.3481 21.2775L48.1287 11.2707H62.5185V25.4291ZM63.09 25.4291V11.7007C66.1832 14.8599 68.6039 18.4822 70.3354 22.4849L63.09 25.4291ZM58.6857 36.3787L62.9051 26.3719L73.0755 36.3787L62.9051 46.3855L58.6857 36.3787ZM11.4649 47.3283L18.9456 50.3717L21.6353 51.4634L25.8547 61.4702H11.4649V47.3283ZM10.8765 47.3283V61.0733C7.78341 57.9141 5.36269 54.2918 3.63121 50.289L10.8765 47.3283ZM37.7566 57.4179L51.5748 51.7942L47.5235 61.4041L47.1369 61.2552L37.7566 57.4179ZM22.4086 20.9632L26.4599 11.3534L36.2268 15.3396L22.4086 20.9632ZM55.5085 28.8198L52.6507 22.0218L62.4176 26.008L58.3663 35.6179L55.5085 28.8198ZM29.3177 54.606L36.2268 57.4179L26.4599 61.4041L22.4086 51.7942L29.3177 54.606ZM58.3663 37.123L62.4176 46.7329L52.6507 50.7191L58.3663 37.123ZM44.6657 18.1514L37.7566 15.3396L47.5235 11.3534L51.5748 20.9632L44.6657 18.1514ZM15.9197 36.3787L19.0128 29.0514L22.106 21.7241L37.0001 15.6538L44.4472 18.6972L51.8942 21.7406L58.0469 36.3787L51.8774 51.0333L36.9833 57.1036L29.5362 54.0602L22.0892 51.0168L20.24 46.6171L15.9197 36.3787ZM18.4581 28.8198L15.6003 35.6179L11.549 26.008L21.3159 22.0218L18.4581 28.8198ZM11.5658 46.7494L14.2218 40.4145L15.6003 37.1396L18.4581 43.9376L21.3159 50.7356L18.8447 49.7267L11.5658 46.7494ZM0.907904 36.3787L4.97605 32.376L11.0783 26.3719L15.2809 36.3787L14.205 38.959L11.0783 46.3855L4.97605 40.3814L0.907904 36.3787ZM36.9833 71.8906L32.9151 67.8713L26.8129 61.8672L36.9833 57.7156L43.0351 60.1801L47.1705 61.8672L41.0683 67.8713L36.9833 71.8906ZM48.1119 61.4868L50.4317 55.9789L52.3313 51.4799L62.5017 47.3283V61.4868H48.1119ZM3.41267 23.0142L4.99286 23.6593L10.658 25.9749L6.90926 29.6468L0.790231 35.6675C0.874283 31.3009 1.74843 27.0335 3.41267 23.0142ZM2.9756 50.2394C10.5403 68.2186 32.0074 77.2 50.4317 70.0877L51.0705 69.823L51.7093 69.5584C64.9728 63.852 73.7647 50.6529 73.7815 36.4118C73.8152 36.3787 73.8152 36.3291 73.7815 36.2795C73.7479 24.9494 68.2004 14.1156 58.9715 7.3341C48.8851 -0.0759133 35.2518 -1.84572 23.5349 2.66976L22.8961 2.93441L22.2573 3.19905C4.18596 10.9564 -4.62276 32.2602 2.9756 50.2394Z" fill="#B5936C"/>
<path d="M37.2522 72.7511C32.2931 72.7511 27.3003 71.7587 22.5429 69.7738C13.4821 65.9861 6.45525 59.0723 2.77374 50.3226C-0.92458 41.5893 -0.92458 31.8141 2.77374 22.8162C6.47206 13.8348 13.3476 6.78872 22.1563 3.00101L23.4339 2.48826C35.2685 -2.07684 48.9355 -0.273955 59.0723 7.18568C68.3685 14.0168 73.9328 24.8837 73.9664 36.2634C73.9832 36.3295 73.9832 36.4122 73.9664 36.4784C73.9328 50.703 65.0232 64.084 51.7597 69.7738L50.4821 70.2866C46.2458 71.9241 41.7574 72.7511 37.2522 72.7511ZM36.9328 0.404194C32.4275 0.404194 27.9055 1.21466 23.6188 2.86869L22.358 3.38143C13.6502 7.11952 6.84189 14.083 3.17719 22.965C-0.487506 31.8637 -0.487506 41.5232 3.17719 50.1572C6.80827 58.8077 13.751 65.6223 22.711 69.3769C31.6711 73.1315 41.4884 73.3135 50.3476 69.8896L51.6252 69.3769C64.7374 63.7367 73.5461 50.488 73.5629 36.4122C73.5629 36.3957 73.5629 36.3626 73.5797 36.3461C73.5797 36.3295 73.5629 36.313 73.5629 36.2965C73.5293 25.0326 68.0323 14.2649 58.8369 7.51649C52.4825 2.83561 44.7329 0.404194 36.9328 0.404194ZM36.2772 72.2053C31.8055 72.1226 27.4516 71.2459 23.3162 69.5919C23.2658 69.5754 23.2154 69.5257 23.1986 69.4761C23.1817 69.4265 23.1817 69.3603 23.1986 69.3107L26.1908 62.1819C26.2244 62.1157 26.2749 62.0661 26.3421 62.0661C26.4094 62.0496 26.4766 62.0661 26.527 62.1157L36.4116 71.8414C36.4789 71.9075 36.4957 71.9902 36.4621 72.0729C36.4453 72.1556 36.3612 72.2053 36.2772 72.2053ZM23.6692 69.2942C27.5357 70.7993 31.587 71.6429 35.756 71.7752L26.4766 62.645L23.6692 69.2942ZM37.7061 72.2053C37.622 72.2053 37.5379 72.1556 37.5043 72.0729C37.4707 71.9902 37.4875 71.9075 37.5548 71.8414L47.4225 62.1157C47.473 62.0661 47.5402 62.0496 47.6075 62.0661C47.6747 62.0826 47.7419 62.1323 47.7588 62.1819L50.751 69.3107C50.7678 69.3603 50.7678 69.4265 50.751 69.4761C50.7342 69.5257 50.6838 69.5588 50.6334 69.5919L50.2803 69.7408C46.2794 71.2955 42.0432 72.1226 37.7061 72.2053ZM47.5066 62.645L38.2272 71.7752C42.3289 71.6429 46.3299 70.8324 50.1459 69.3438L50.314 69.2776L47.5066 62.645ZM36.9832 72.106C36.9328 72.106 36.8655 72.0895 36.8319 72.0399L26.6615 62.0165C26.6111 61.9669 26.5943 61.9007 26.5943 61.8345C26.6111 61.7684 26.6615 61.7022 26.7288 61.6857L36.8991 57.5341C36.9496 57.5176 37 57.5176 37.0672 57.5341L47.2376 61.6857C47.3049 61.7188 47.3553 61.7684 47.3721 61.8345C47.3889 61.9007 47.3721 61.9669 47.3217 62.0165L37.1513 72.0399C37.1009 72.0729 37.0504 72.106 36.9832 72.106ZM27.1826 61.9503L36.9832 71.5933L46.7837 61.9503L36.9832 57.9641L27.1826 61.9503ZM22.8623 69.3934C22.8287 69.3934 22.8119 69.3934 22.7783 69.3769C18.6933 67.6732 14.9782 65.2584 11.7506 62.215C11.6833 62.1488 11.6665 62.0661 11.7001 61.9834C11.7338 61.9007 11.8178 61.8511 11.9019 61.8511H25.8714C25.9387 61.8511 26.0059 61.8842 26.0395 61.9503C26.0732 61.9999 26.09 62.0827 26.0563 62.1488L23.0473 69.2776C23.0304 69.3273 22.98 69.3769 22.9296 69.3934C22.9128 69.3934 22.8792 69.3934 22.8623 69.3934ZM12.423 62.2646C15.4657 65.0764 18.9455 67.3094 22.7447 68.9138L25.552 62.2646H12.423ZM51.1209 69.3934C51.0368 69.3934 50.9528 69.3438 50.9191 69.2611L47.9269 62.1488C47.8932 62.0827 47.91 62.0165 47.9437 61.9503C47.9773 61.9007 48.0445 61.8511 48.1118 61.8511H62.0813C62.1654 61.8511 62.2494 61.9007 62.2831 61.9834C62.3167 62.0661 62.2999 62.1488 62.2326 62.215C59.1059 65.1591 55.5252 67.5244 51.5579 69.228L51.1881 69.3769C51.1713 69.3934 51.1377 69.3934 51.1209 69.3934ZM48.4312 62.2646L51.2217 68.9138L51.3898 68.8476C55.1386 67.2267 58.5511 65.0268 61.5434 62.2646H48.4312ZM62.5016 61.7022H48.1118C48.0445 61.7022 47.9773 61.6691 47.9437 61.603C47.91 61.5534 47.8932 61.4707 47.9269 61.4045L52.1463 51.3977C52.1631 51.348 52.2135 51.2984 52.264 51.2819L62.4344 47.1303C62.5016 47.0972 62.5688 47.1138 62.6361 47.1468C62.7033 47.1799 62.7369 47.2461 62.7369 47.3122V61.4707C62.7201 61.603 62.6193 61.7022 62.5016 61.7022ZM48.4312 61.2887H62.2999V47.643L52.4993 51.6458L48.4312 61.2887ZM25.8546 61.7022H11.4648C11.3471 61.7022 11.2631 61.603 11.2631 61.5037V47.3453C11.2631 47.2792 11.2967 47.213 11.3639 47.1799C11.4312 47.1468 11.4984 47.1303 11.5657 47.1634L21.736 51.315C21.7865 51.3315 21.8201 51.3811 21.8537 51.4308L26.0732 61.4376C26.1068 61.5037 26.09 61.5699 26.0563 61.6361C25.9891 61.6526 25.9387 61.7022 25.8546 61.7022ZM11.6833 61.2887H25.552L21.4839 51.6458L11.6833 47.643V61.2887ZM26.4598 61.603C26.3757 61.603 26.2917 61.5534 26.2581 61.4707L22.2067 51.8608C22.1731 51.7781 22.1899 51.6954 22.2572 51.6292C22.3244 51.5631 22.4085 51.5465 22.4925 51.5796L29.4016 54.3914L36.3108 57.2033C36.3948 57.2364 36.4453 57.3025 36.4453 57.4018C36.4453 57.501 36.3948 57.5672 36.3108 57.6003L26.5438 61.5864C26.5102 61.603 26.4766 61.603 26.4598 61.603ZM22.7951 52.1751L26.5607 61.1399L35.672 57.4348L22.7951 52.1751ZM47.5234 61.603C47.4898 61.603 47.473 61.603 47.4394 61.5864L37.6724 57.6168C37.5884 57.5837 37.5379 57.5176 37.5379 57.4183C37.5379 57.3191 37.5884 57.2529 37.6724 57.2198L51.4907 51.5962C51.5579 51.5631 51.6588 51.5796 51.726 51.6458C51.7933 51.7119 51.8101 51.7946 51.7765 51.8773L47.7251 61.4872C47.7083 61.5368 47.6579 61.5864 47.6075 61.603C47.5738 61.603 47.5402 61.603 47.5234 61.603ZM38.3112 57.4183L47.4057 61.1233L51.1713 52.1751L38.3112 57.4183ZM63.09 61.2722C63.0563 61.2722 63.0395 61.2722 63.0059 61.2556C62.9219 61.2226 62.8714 61.1564 62.8714 61.0572V47.3122C62.8714 47.2461 62.9051 47.1799 62.9723 47.1468C63.0395 47.1138 63.1068 47.0972 63.174 47.1303L70.4194 50.0745C70.4698 50.091 70.5202 50.1406 70.537 50.1902C70.5538 50.2399 70.5538 50.306 70.537 50.3556C68.7887 54.3915 66.3512 58.0468 63.2581 61.206C63.2076 61.2556 63.1572 61.2722 63.09 61.2722ZM63.3085 47.643V60.5609C66.1495 57.5672 68.4189 54.1599 70.0663 50.4053L63.3085 47.643ZM10.8764 61.2722C10.826 61.2722 10.7587 61.2556 10.7251 61.206C7.63199 58.0303 5.17765 54.3915 3.44616 50.3556C3.42935 50.306 3.42935 50.2399 3.44616 50.1902C3.46297 50.1406 3.5134 50.091 3.56384 50.0745L10.8092 47.1138C10.8764 47.0807 10.9437 47.0972 11.0109 47.1303C11.0781 47.1634 11.1118 47.2295 11.1118 47.2957V61.0406C11.1118 61.1233 11.0613 61.206 10.9773 61.2391C10.9269 61.2722 10.91 61.2722 10.8764 61.2722ZM3.91686 50.3887C5.56429 54.1433 7.83371 57.5506 10.6747 60.5444V47.6265L3.91686 50.3887ZM36.9832 57.3191C36.9496 57.3191 36.9328 57.3191 36.8991 57.3025L22.005 51.2323C21.9546 51.2157 21.9209 51.1661 21.8873 51.1165L15.7179 36.4619C15.701 36.4122 15.701 36.3626 15.7179 36.2965L21.8873 21.6418C21.9041 21.5922 21.9546 21.5426 22.005 21.526L36.8991 15.4558C36.9496 15.4392 37 15.4392 37.0672 15.4558L51.9614 21.526C52.0118 21.5426 52.0454 21.5922 52.0791 21.6418L58.2485 36.2965C58.2653 36.3461 58.2653 36.3957 58.2485 36.4619L52.0791 51.1165C52.0623 51.1661 52.0118 51.2157 51.9614 51.2323L37.0672 57.3025C37.0504 57.3025 37.0168 57.3191 36.9832 57.3191ZM22.2572 50.8684L37 56.8725L51.7429 50.8684L57.8283 36.3792L51.726 21.8899L36.9832 15.8693L22.2572 21.8734L16.1549 36.3792L22.2572 50.8684ZM52.6506 50.9345C52.6002 50.9345 52.5498 50.918 52.4993 50.8684C52.4321 50.8022 52.4153 50.7195 52.4489 50.6368L58.1645 37.0408C58.2317 36.8919 58.4839 36.8919 58.5511 37.0408L62.6025 46.6506C62.6529 46.7499 62.6025 46.8822 62.4848 46.9153L52.7179 50.9015C52.7011 50.918 52.6842 50.9345 52.6506 50.9345ZM58.3662 37.6693L53.0373 50.3391L62.1486 46.6341L58.3662 37.6693ZM21.3326 50.9345C21.299 50.9345 21.2821 50.9345 21.2485 50.918L11.4816 46.9318C11.3807 46.8822 11.3303 46.7664 11.3639 46.6672L15.3985 37.0573C15.4657 36.9084 15.7179 36.9084 15.7851 37.0573L21.5175 50.6368C21.5511 50.7195 21.5343 50.8022 21.4671 50.8684C21.4334 50.9015 21.383 50.9345 21.3326 50.9345ZM11.8346 46.6341L20.9459 50.3391L15.617 37.6693L11.8346 46.6341ZM3.41254 49.9587C3.37892 49.9587 3.36211 49.9587 3.32849 49.9421C3.27806 49.9256 3.22762 49.876 3.21081 49.8264C1.54657 45.774 0.655611 41.4901 0.571559 37.0904C0.571559 37.0077 0.62199 36.925 0.706043 36.8919C0.773285 36.8588 0.874148 36.8754 0.941391 36.9415L10.8092 46.6506C10.8596 46.7002 10.8764 46.7664 10.8764 46.8326C10.8596 46.8987 10.8092 46.9649 10.7419 46.9814L3.49659 49.9421C3.46297 49.9587 3.44616 49.9587 3.41254 49.9587ZM1.00863 37.5866C1.14312 41.6886 2.00045 45.6913 3.53021 49.479L10.2881 46.7168L6.75784 43.2599L1.00863 37.5866ZM70.5538 49.9587C70.5202 49.9587 70.5034 49.9587 70.4698 49.9421L63.2244 46.9814C63.1572 46.9484 63.1068 46.8987 63.09 46.8326C63.0732 46.7664 63.09 46.7002 63.1404 46.6506L73.0082 36.9415C73.0754 36.8754 73.1595 36.8588 73.2435 36.8919C73.3276 36.925 73.378 37.0077 73.378 37.0904C73.294 41.4901 72.403 45.7905 70.7388 49.8264C70.722 49.876 70.6715 49.9256 70.6211 49.9421C70.6211 49.9587 70.5875 49.9587 70.5538 49.9587ZM63.6951 46.7168L70.453 49.479C71.9827 45.6913 72.8401 41.7051 72.9746 37.5866L63.6951 46.7168ZM11.0781 46.601C11.0277 46.601 10.9773 46.5845 10.9269 46.5348L0.756475 36.528C0.672422 36.4453 0.672422 36.313 0.756475 36.2303L10.9269 26.2235C10.9773 26.1738 11.0445 26.1573 11.1118 26.1738C11.179 26.1904 11.2463 26.24 11.2631 26.2896L15.4825 36.2965C15.4993 36.3461 15.4993 36.3957 15.4825 36.4619L11.2631 46.4687C11.2294 46.5349 11.179 46.5845 11.1118 46.5845C11.095 46.601 11.0781 46.601 11.0781 46.601ZM1.19355 36.3792L10.9941 46.0221L15.0622 36.3792L11.0109 26.7362L1.19355 36.3792ZM62.9051 46.601C62.8882 46.601 62.8714 46.601 62.8714 46.601C62.8042 46.5845 62.7369 46.5349 62.7201 46.4852L58.5007 36.4784C58.4839 36.4288 58.4839 36.3792 58.5007 36.313L62.7201 26.3062C62.7538 26.24 62.8042 26.1904 62.8714 26.1904C62.9387 26.1738 63.0059 26.1904 63.0563 26.24L73.2267 36.2468C73.2603 36.2799 73.294 36.3461 73.294 36.3957C73.294 36.4453 73.2772 36.4949 73.2267 36.5446L63.0395 46.5514C63.0059 46.5679 62.9555 46.601 62.9051 46.601ZM58.921 36.3792L62.9891 46.0221L72.7896 36.3792L62.9891 26.7362L58.921 36.3792ZM73.1931 35.883C73.1427 35.883 73.0922 35.8664 73.0418 35.8168L63.174 26.1077C63.1236 26.0581 63.1068 25.9919 63.1236 25.9257C63.1404 25.8596 63.1908 25.7934 63.2581 25.7769L70.5034 22.8327C70.5538 22.8162 70.6211 22.8162 70.6715 22.8327C70.722 22.8493 70.7724 22.8989 70.7892 22.9485C72.4534 27.0009 73.3444 31.2848 73.4285 35.6845C73.4285 35.7672 73.378 35.8499 73.294 35.883C73.2435 35.883 73.2267 35.883 73.1931 35.883ZM63.6951 26.0415L72.9746 35.1717C72.8401 31.0697 71.9827 27.067 70.453 23.2959L63.6951 26.0415ZM0.790096 35.883C0.756475 35.883 0.739664 35.883 0.706043 35.8664C0.62199 35.8333 0.571559 35.7506 0.571559 35.6679C0.655611 31.2682 1.54657 26.9678 3.21081 22.932C3.22762 22.8823 3.27806 22.8327 3.32849 22.8162C3.37892 22.7996 3.42935 22.7996 3.49659 22.8162L10.7419 25.7769C10.8092 25.81 10.8596 25.8596 10.8764 25.9257C10.8932 25.9919 10.8764 26.0581 10.826 26.1077L0.958201 35.8168C0.890959 35.8664 0.840527 35.883 0.790096 35.883ZM3.53021 23.2793C2.00045 27.067 1.14312 31.0532 1.00863 35.1717L10.2881 26.0415L3.53021 23.2793ZM15.6002 35.8333C15.5161 35.8333 15.4321 35.7837 15.3985 35.701L11.3471 26.0911C11.2967 25.9919 11.3471 25.8596 11.4648 25.8265L21.2317 21.8403C21.299 21.8072 21.3998 21.8238 21.4671 21.8899C21.5343 21.9561 21.5511 22.0388 21.5175 22.1215L15.7851 35.7175C15.7683 35.7837 15.6842 35.8333 15.6002 35.8333ZM11.8346 26.1242L15.6002 35.089L20.9291 22.4192L11.8346 26.1242ZM58.3662 35.8333C58.2822 35.8333 58.1981 35.7837 58.1645 35.701L52.4489 22.1215C52.4153 22.0388 52.4321 21.9561 52.4993 21.8899C52.5666 21.8238 52.6506 21.8072 52.7347 21.8403L62.5016 25.8265C62.552 25.843 62.5857 25.8927 62.6193 25.9423C62.6529 25.9919 62.6361 26.0415 62.6193 26.1077L58.5679 35.7175C58.5343 35.7837 58.4503 35.8333 58.3662 35.8333ZM53.0373 22.4192L55.7101 28.7541L58.383 35.089L62.1486 26.1408L53.0373 22.4192ZM11.4648 25.6446C11.4312 25.6446 11.3807 25.628 11.3471 25.6115C11.2799 25.5784 11.2463 25.5122 11.2463 25.4461V11.2711C11.2463 11.1553 11.3471 11.0726 11.448 11.0726H25.8378C25.905 11.0726 25.9723 11.1057 26.0059 11.1719C26.0395 11.2215 26.0563 11.3042 26.0227 11.3704L22.6774 19.3262L21.8033 21.3937C21.7865 21.4433 21.736 21.493 21.6856 21.5095L11.5488 25.628C11.5152 25.628 11.4984 25.6446 11.4648 25.6446ZM11.6833 11.4696V25.1153L21.4839 21.1125L25.552 11.4696H11.6833ZM62.5016 25.628C62.468 25.628 62.4512 25.628 62.4175 25.6115L52.2472 21.4599C52.1967 21.4433 52.1631 21.3937 52.1295 21.3441L47.9269 11.3538C47.8932 11.2877 47.91 11.2215 47.9437 11.1553C47.9773 11.1057 48.0445 11.0561 48.1118 11.0561H62.5016C62.6193 11.0561 62.7033 11.1553 62.7033 11.2546V25.413C62.7033 25.4792 62.6697 25.5453 62.6025 25.5784C62.5857 25.628 62.552 25.628 62.5016 25.628ZM52.4993 21.1291L62.2999 25.1153V11.4696H48.4312L52.4993 21.1291ZM10.8764 25.628C10.8428 25.628 10.826 25.628 10.7924 25.6115L3.54702 22.6673C3.49659 22.6508 3.44616 22.6012 3.42935 22.5515C3.41254 22.5019 3.41254 22.4358 3.42935 22.3861C5.17765 18.3503 7.61518 14.6949 10.7083 11.5358C10.7587 11.4696 10.8596 11.4531 10.9437 11.4861C11.0277 11.5192 11.0781 11.5854 11.0781 11.6846V25.4295C11.0781 25.4957 11.0445 25.5619 10.9773 25.5949C10.9605 25.628 10.9269 25.628 10.8764 25.628ZM3.91686 22.3696L10.6747 25.1153V12.1974C7.83371 15.1911 5.56429 18.5984 3.91686 22.3696ZM63.09 25.628C63.0563 25.628 63.0059 25.6115 62.9723 25.5949C62.9051 25.5619 62.8714 25.4957 62.8714 25.4295V11.7012C62.8714 11.6185 62.9219 11.5358 63.0059 11.5027C63.09 11.4696 63.174 11.4861 63.2413 11.5523C66.3512 14.728 68.7887 18.3834 70.5202 22.4027C70.537 22.4523 70.537 22.5185 70.5202 22.5681C70.5034 22.6177 70.453 22.6673 70.4025 22.6839L63.1572 25.628C63.1572 25.628 63.1236 25.628 63.09 25.628ZM63.3085 12.2139V25.1153L70.0663 22.3696C68.4189 18.615 66.1495 15.2077 63.3085 12.2139ZM51.5747 21.1787C51.5411 21.1787 51.5243 21.1787 51.4907 21.1622L44.5816 18.3503L37.6724 15.5385C37.5884 15.5054 37.5379 15.4392 37.5379 15.34C37.5379 15.2408 37.5884 15.1746 37.6724 15.1415L47.4394 11.1553C47.557 11.1223 47.6747 11.1553 47.7083 11.2711L51.7597 20.881C51.7933 20.9637 51.7765 21.0464 51.7092 21.1125C51.6756 21.1622 51.6252 21.1787 51.5747 21.1787ZM38.3112 15.34L44.7497 17.9699L51.1881 20.5998L47.4225 11.635L38.3112 15.34ZM22.4085 21.1787C22.358 21.1787 22.3076 21.1622 22.2572 21.1125C22.1899 21.0464 22.1731 20.9637 22.2067 20.881L26.2581 11.2711C26.3085 11.1719 26.4262 11.1223 26.527 11.1553L36.294 15.1415C36.378 15.1746 36.4284 15.2408 36.4284 15.34C36.4284 15.4392 36.378 15.5054 36.294 15.5385L22.4757 21.1622C22.4589 21.1622 22.4421 21.1787 22.4085 21.1787ZM26.5607 11.635L22.7951 20.5833L35.672 15.34L26.5607 11.635ZM36.9832 15.2408C36.9496 15.2408 36.9328 15.2408 36.8991 15.2242L26.7288 11.0726C26.6615 11.0396 26.6111 10.9899 26.5943 10.9238C26.5775 10.8576 26.5943 10.7914 26.6447 10.7418L36.8151 0.734998C36.8991 0.652297 37.0336 0.652297 37.1177 0.734998L47.2881 10.7418C47.3385 10.7914 47.3553 10.8576 47.3385 10.9238C47.3217 10.9899 47.2712 11.0561 47.204 11.0726L37.0336 15.2242C37.0336 15.2242 37.0168 15.2408 36.9832 15.2408ZM27.1826 10.808L36.9832 14.7942L46.7837 10.808L36.9832 1.16504L27.1826 10.808ZM62.0813 10.9072H48.1118C48.0445 10.9072 47.9773 10.8741 47.9437 10.808C47.91 10.7584 47.8932 10.6757 47.9269 10.6095L50.9359 3.48067C50.9528 3.43105 51.0032 3.38143 51.0536 3.36489C51.1041 3.34835 51.1713 3.34835 51.2217 3.36489C55.3235 5.06853 59.0218 7.48341 62.2494 10.5268C62.3167 10.593 62.3335 10.6757 62.2999 10.7584C62.2494 10.8576 62.1654 10.9072 62.0813 10.9072ZM48.4312 10.4937H61.5602C58.5175 7.69843 55.0377 5.44896 51.2385 3.84456L48.4312 10.4937ZM25.8546 10.9072H11.8851C11.801 10.9072 11.7169 10.8576 11.6833 10.7749C11.6497 10.6922 11.6665 10.6095 11.7338 10.5433C14.8437 7.59919 18.4412 5.23394 22.4085 3.53029L22.7615 3.38143C22.8119 3.36489 22.8623 3.36489 22.9296 3.38143C22.98 3.39797 23.0136 3.44759 23.0473 3.49721L26.0395 10.626C26.0732 10.6922 26.0563 10.7584 26.0227 10.8245C25.9891 10.8576 25.9219 10.9072 25.8546 10.9072ZM12.423 10.4937H25.552L22.7615 3.84456L22.5934 3.91072C18.8278 5.51512 15.4153 7.73151 12.423 10.4937ZM47.5738 10.6757C47.5234 10.6757 47.473 10.6591 47.4225 10.6095L37.5379 0.88386C37.4707 0.817699 37.4539 0.734998 37.4875 0.652297C37.5211 0.569596 37.6052 0.519975 37.6892 0.519975C42.144 0.602676 46.5148 1.47931 50.6502 3.13333C50.7006 3.14987 50.751 3.19949 50.7678 3.24911C50.7847 3.29873 50.7847 3.36489 50.7678 3.41451L47.7756 10.5433C47.7419 10.6095 47.6915 10.6591 47.6243 10.6591C47.6075 10.6757 47.5907 10.6757 47.5738 10.6757ZM38.2272 0.983101L47.5066 10.1133L50.2971 3.46413C46.4307 1.94243 42.3794 1.11542 38.2272 0.983101ZM26.3926 10.6757C26.3757 10.6757 26.3589 10.6757 26.3589 10.6757C26.2917 10.6591 26.2244 10.6095 26.2076 10.5599L23.2154 3.44759C23.1649 3.34835 23.2154 3.21603 23.333 3.18295L23.6861 3.03409C27.7206 1.47931 31.9568 0.652297 36.2772 0.569596C36.3948 0.569596 36.4453 0.619217 36.4789 0.701918C36.5125 0.784619 36.4957 0.86732 36.4284 0.933481L26.5607 10.6426C26.5102 10.6591 26.4598 10.6757 26.3926 10.6757ZM23.6692 3.46413L26.4766 10.1133L35.756 0.983101C31.6711 1.11542 27.6533 1.94243 23.8374 3.39797L23.6692 3.46413Z" fill="#B5936C"/>
</svg>
