<svg width="75" height="74" viewBox="0 0 75 74" fill="none" xmlns="http://www.w3.org/2000/svg">
<path d="M37.186 72.2477C57.6206 72.2477 74.186 56.1915 74.186 36.3852C74.186 16.5789 57.6206 0.522705 37.186 0.522705C16.7515 0.522705 0.186035 16.5789 0.186035 36.3852C0.186035 56.1915 16.7515 72.2477 37.186 72.2477Z" fill="#F4F4F3"/>
<path d="M10.9391 25.5511L3.64067 22.593C5.38484 18.5548 7.84022 14.9153 10.9391 11.7578V25.5511ZM22.6402 3.74774L22.9958 3.59817L26.01 10.7607H11.9551C15.0878 7.80263 18.6777 5.44282 22.6402 3.74774ZM23.9102 3.23257C27.9404 1.68705 32.1908 0.856132 36.5258 0.77304L26.5858 10.5281L23.5716 3.38213L23.9102 3.23257ZM50.9194 3.36551L47.9052 10.5281L44.129 6.82215L37.9482 0.756422C42.4187 0.856132 46.7876 1.72029 50.9194 3.36551ZM48.4471 10.7441L51.4782 3.58155C55.5761 5.27663 59.2846 7.68631 62.5189 10.7441H48.4471ZM63.7551 26.0829L71.0535 23.1248C72.7299 27.1797 73.6105 31.4507 73.6951 35.8545L63.7551 26.0829ZM71.0535 49.9968L63.7551 47.0221L73.6951 37.2671C73.6274 41.6544 72.7299 45.9419 71.0535 49.9968ZM63.5349 47.5539L70.8333 50.512C69.0892 54.5503 66.6338 58.1897 63.5349 61.3472V47.5539ZM51.8338 69.3739L51.4613 69.5235L48.4471 62.3776H62.5189C59.3862 65.319 55.7963 67.6622 51.8338 69.3739ZM50.5638 69.8891C46.5336 71.4512 42.2832 72.2655 37.9652 72.3486L44.129 66.2829L47.9052 62.577L50.9194 69.7395L50.5638 69.8891ZM23.5546 69.7395L26.5688 62.577L30.345 66.2829L36.5258 72.3486C32.0553 72.2655 27.6864 71.3847 23.5546 69.7395ZM26.0269 62.3609L22.9958 69.5235C18.8809 67.8284 15.1725 65.4187 11.9551 62.3609H26.0269ZM6.94273 43.3162L10.7189 47.0221L3.42054 49.9968C1.74411 45.9419 0.863557 41.671 0.778889 37.2671L6.94273 43.3162ZM22.6571 19.3192L21.7766 21.3965L11.5317 25.5511V11.3257H26.0269L22.6571 19.3192ZM47.4819 10.9435L37.237 15.1147L33.7317 13.6856L26.9922 10.9435L37.237 0.889369L41.3349 4.91103L47.4819 10.9435ZM62.9423 25.5511L52.6974 21.3799L48.4471 11.3257H62.9423V25.5511ZM63.5349 25.5511V11.7578C66.6507 14.9319 69.0892 18.5714 70.8333 22.593L63.5349 25.5511ZM59.0983 36.5525L63.3487 26.4984L73.5935 36.5525L63.3487 46.6067L59.0983 36.5525ZM11.5317 47.5539L19.0672 50.6117L21.7766 51.7085L26.0269 61.7627H11.5317V47.5539ZM10.9391 47.5539V61.3638C7.82328 58.1897 5.38484 54.5503 3.64067 50.5286L10.9391 47.5539ZM38.016 57.6912L51.9354 52.0409L47.8544 61.6962L47.4649 61.5466L38.016 57.6912ZM22.5555 21.0641L26.6366 11.4088L36.475 15.4139L22.5555 21.0641ZM55.8979 28.9745L53.0192 22.1443L62.8576 26.1494L58.7766 35.8047L55.8979 28.9745ZM29.5153 54.866L36.475 57.6912L26.6366 61.6962L22.5555 52.0409L29.5153 54.866ZM58.7766 37.317L62.8576 46.9723L53.0192 50.9773L58.7766 37.317ZM44.9587 18.239L37.999 15.4139L47.8375 11.4088L51.9185 21.0641L44.9587 18.239ZM16.0192 36.5525L19.135 29.1905L22.2507 21.8286L37.2539 15.7296L44.7555 18.7874L52.2571 21.8452L58.4718 36.5691L52.2571 51.2931L37.2539 57.392L29.7523 54.3342L22.2507 51.2764L20.388 46.8559L16.0192 36.5525ZM18.5761 28.9745L15.6974 35.8047L11.6164 26.1494L21.4549 22.1443L18.5761 28.9745ZM11.6334 46.9723L14.3089 40.6074L15.6974 37.317L18.5761 44.1471L21.4549 50.9773L18.9656 49.9636L11.6334 46.9723ZM0.88049 36.5525L4.97843 32.5309L11.1253 26.4984L15.3757 36.5525L14.2919 39.145L11.1423 46.6067L4.99536 40.5742L0.88049 36.5525ZM37.237 72.2323L33.1391 68.194L26.9922 62.1615L37.237 57.9903L43.3331 60.4664L47.4988 62.1615L41.3519 68.194L37.237 72.2323ZM48.4471 61.7959L50.7839 56.262L52.6974 51.7418L62.9423 47.5705V61.7959H48.4471ZM3.42054 23.1248L5.0123 23.7729L10.7189 26.0995L6.94273 29.8054L0.778889 35.8545C0.846623 31.4507 1.74411 27.1797 3.42054 23.1248ZM2.98026 50.4788C10.6004 68.543 32.2247 77.5668 50.7839 70.4209L51.4274 70.155L52.0709 69.8891C65.4315 64.1557 74.2878 50.8942 74.3047 36.5858C74.3386 36.5525 74.3386 36.5027 74.3047 36.4528C74.2709 25.0692 68.6828 14.1841 59.3862 7.37056C49.226 -0.0744998 35.4928 -1.85267 23.6901 2.68416L23.0466 2.95005L22.4031 3.21595C4.19948 11.0266 -4.69068 32.4145 2.98026 50.4788Z" fill="#B5936C"/>
<path d="M37.508 73.0959C32.5126 73.0959 27.4833 72.0988 22.6911 70.1046C13.5638 66.2823 6.48558 59.3525 2.79405 50.5613C-0.93135 41.7868 -0.93135 31.9653 2.79405 22.9249C6.51945 13.8845 13.4453 6.82163 22.3185 3.01601L23.6055 2.50084C35.5268 -2.08584 49.2938 -0.274436 59.5048 7.20385C68.8691 14.0673 74.4741 24.9856 74.508 36.419C74.5249 36.4855 74.5249 36.5686 74.508 36.6351C74.4741 50.9269 65.4824 64.3712 52.1387 70.088L50.8517 70.6031C46.5675 72.265 42.0462 73.0959 37.508 73.0959ZM37.1693 0.40692C32.6311 0.40692 28.076 1.22122 23.7579 2.88306L22.4879 3.39824C13.7162 7.154 6.85812 14.1504 3.18352 23.0744C-0.508009 32.0152 -0.508009 41.7203 3.18352 50.3951C6.84119 59.0866 13.8348 65.9334 22.8604 69.7057C31.886 73.4781 41.7753 73.6609 50.6993 70.2209L51.9693 69.7057C65.1776 64.0389 74.0508 50.7275 74.0677 36.5852C74.0677 36.5686 74.0677 36.5354 74.0846 36.5188C74.0846 36.5021 74.0677 36.4855 74.0677 36.4689C74.0339 25.1518 68.4966 14.3332 59.2339 7.55284C52.8499 2.84983 45.0435 0.40692 37.1693 0.40692ZM36.5258 72.5641C32.0215 72.481 27.6357 71.6003 23.47 69.9384C23.4192 69.9218 23.3684 69.8719 23.3515 69.8221C23.3345 69.7722 23.3345 69.7057 23.3515 69.6559L26.3657 62.4934C26.3995 62.4269 26.4503 62.377 26.5181 62.377C26.5858 62.3604 26.6535 62.377 26.7043 62.4269L36.6613 72.1985C36.7291 72.265 36.746 72.3481 36.7121 72.4312C36.6783 72.5143 36.6105 72.5641 36.5258 72.5641ZM23.8256 69.6393C27.7204 71.1516 31.8014 71.9991 36.0009 72.132L26.6535 62.9587L23.8256 69.6393ZM37.9652 72.5641C37.8805 72.5641 37.7959 72.5143 37.762 72.4312C37.7281 72.3481 37.7451 72.265 37.8128 72.1985L47.7528 62.4269C47.8036 62.377 47.8714 62.3604 47.9391 62.377C48.0069 62.3936 48.0746 62.4435 48.0915 62.4934L51.1057 69.6559C51.1226 69.7057 51.1226 69.7722 51.1057 69.8221C51.0888 69.8719 51.038 69.9218 50.9872 69.9384L50.6316 70.088C46.5844 71.6335 42.3172 72.481 37.9652 72.5641ZM47.8375 62.9587L38.4902 72.132C42.622 71.9991 46.6522 71.1848 50.4961 69.6891L50.6654 69.6227L47.8375 62.9587ZM37.2371 72.4478C37.1863 72.4478 37.1185 72.4312 37.0847 72.3813L26.8398 62.3105C26.789 62.2607 26.7721 62.1942 26.789 62.1277C26.8059 62.0613 26.8567 61.9948 26.9245 61.9782L37.1693 57.807C37.2201 57.7903 37.2709 57.7903 37.3387 57.807L47.5835 61.9782C47.6512 62.0114 47.702 62.0613 47.719 62.1277C47.7359 62.1942 47.719 62.2607 47.6682 62.3105L37.4233 72.3813C37.3556 72.4312 37.2879 72.4478 37.2371 72.4478ZM27.3648 62.2441L37.2371 71.9326L47.1094 62.2441L37.2371 58.239L27.3648 62.2441ZM22.9959 69.739C22.962 69.739 22.9451 69.739 22.9112 69.7224C18.7963 68.0107 15.054 65.5844 11.8027 62.5266C11.735 62.4601 11.7181 62.377 11.7519 62.2939C11.7858 62.2108 11.8705 62.161 11.9551 62.161H26.027C26.0947 62.161 26.1625 62.1942 26.1963 62.2607C26.2302 62.3106 26.2471 62.3936 26.2133 62.4601L23.1821 69.6227C23.1652 69.6725 23.1144 69.7224 23.0636 69.739C23.0636 69.7224 23.0297 69.739 22.9959 69.739ZM12.4801 62.5764C15.5451 65.4016 19.0503 67.6451 22.8773 69.257L25.7053 62.5764H12.4801ZM51.4783 69.7224C51.3936 69.7224 51.3089 69.6725 51.275 69.5894L48.2609 62.4435C48.227 62.377 48.2439 62.3105 48.2778 62.2441C48.3117 62.1942 48.3794 62.1444 48.4471 62.1444H62.519C62.6036 62.1444 62.6883 62.1942 62.7222 62.2773C62.7561 62.3604 62.7391 62.4435 62.6714 62.51C59.5217 65.4847 55.9149 67.8445 51.9355 69.5562L51.5629 69.7057C51.529 69.7224 51.4952 69.7224 51.4783 69.7224ZM48.7689 62.5764L51.5799 69.257L51.7492 69.1906C55.5254 67.5786 58.9629 65.3517 61.9771 62.5764H48.7689ZM62.9423 61.9948H48.4471C48.3794 61.9948 48.3117 61.9616 48.2778 61.8951C48.2439 61.8452 48.227 61.7621 48.2609 61.6957L52.5112 51.6415C52.5281 51.5917 52.5789 51.5418 52.6297 51.5252L62.8746 47.354C62.9423 47.3207 63.0101 47.3373 63.0778 47.3706C63.1455 47.4038 63.1794 47.4703 63.1794 47.5368V61.7621C63.1625 61.8951 63.0609 61.9948 62.9423 61.9948ZM48.7689 61.5793H62.7391V47.8691L52.8668 51.8908L48.7689 61.5793ZM26.027 61.9948H11.5318C11.4133 61.9948 11.3286 61.8951 11.3286 61.7954V47.5534C11.3286 47.4869 11.3625 47.4204 11.4302 47.3872C11.4979 47.354 11.5657 47.3373 11.6334 47.3706L21.8783 51.5418C21.9291 51.5584 21.9629 51.6083 21.9968 51.6581L26.2471 61.7123C26.281 61.7788 26.2641 61.8452 26.2302 61.9117C26.1625 61.9616 26.0947 61.9948 26.027 61.9948ZM11.735 61.5793H25.7053L21.6073 51.8908L11.735 47.8691V61.5793ZM26.6197 61.8951C26.535 61.8951 26.4503 61.8452 26.4165 61.7621L22.3355 52.1068C22.3016 52.0237 22.3185 51.9407 22.3863 51.8742C22.454 51.8077 22.5387 51.7911 22.6233 51.8243L36.5428 57.4746C36.6274 57.5078 36.6783 57.5743 36.6783 57.674C36.6783 57.7737 36.6274 57.8402 36.5428 57.8734L26.7043 61.8785C26.6874 61.8951 26.6535 61.8951 26.6197 61.8951ZM22.9451 52.4226L26.7382 61.4298L35.9162 57.7072L22.9451 52.4226ZM47.8545 61.8951C47.8206 61.8951 47.8036 61.8951 47.7698 61.8785L37.9313 57.8734C37.8467 57.8402 37.7959 57.7737 37.7959 57.674C37.7959 57.5743 37.8467 57.5078 37.9313 57.4746L51.8508 51.8243C51.9355 51.7911 52.0201 51.8077 52.0879 51.8742C52.1556 51.9407 52.1725 52.0237 52.1387 52.1068L48.0577 61.7621C48.0069 61.8452 47.9222 61.8951 47.8545 61.8951ZM38.5579 57.6906L47.719 61.4132L51.5121 52.4226L38.5579 57.6906ZM63.535 61.5793C63.5011 61.5793 63.4842 61.5793 63.4503 61.5627C63.3657 61.5295 63.3149 61.463 63.3149 61.3633V47.5534C63.3149 47.4869 63.3487 47.4204 63.4165 47.3872C63.4673 47.354 63.5519 47.3373 63.6197 47.3706L70.9181 50.3287C70.9689 50.3453 71.0197 50.3951 71.0366 50.445C71.0535 50.4949 71.0535 50.5613 71.0366 50.6112C69.2755 54.6661 66.8032 58.3387 63.7043 61.5129C63.6535 61.5461 63.5858 61.5793 63.535 61.5793ZM63.7382 47.8691V60.8481C66.6 57.8402 68.886 54.4168 70.5455 50.6444L63.7382 47.8691ZM10.9391 61.5793C10.8883 61.5793 10.8206 61.5627 10.7867 61.5129C7.67094 58.3221 5.19863 54.6661 3.45446 50.6112C3.43753 50.5613 3.43753 50.4949 3.45446 50.445C3.4714 50.3951 3.5222 50.3453 3.573 50.3287L10.8714 47.354C10.9391 47.3207 11.0069 47.3373 11.0746 47.3706C11.1423 47.4038 11.1762 47.4703 11.1762 47.5368V61.3467C11.1762 61.4298 11.1254 61.5129 11.0407 61.5461C10.9899 61.5627 10.973 61.5793 10.9391 61.5793ZM3.9286 50.6444C5.5881 54.4168 7.87414 57.8402 10.7359 60.8481V47.8691L3.9286 50.6444ZM37.2371 57.5909C37.2032 57.5909 37.1863 57.5909 37.1524 57.5743L22.1492 51.4753C22.0984 51.4587 22.0645 51.4089 22.0307 51.359L15.816 36.6351C15.7991 36.5852 15.7991 36.5354 15.816 36.4689L22.0307 21.745C22.0476 21.6951 22.0984 21.6453 22.1492 21.6286L37.1524 15.5297C37.2032 15.5131 37.254 15.5131 37.3217 15.5297L52.3249 21.6286C52.3757 21.6453 52.4096 21.6951 52.4435 21.745L58.6581 36.4689C58.675 36.5188 58.675 36.5686 58.6581 36.6351L52.4435 51.359C52.4265 51.4089 52.3757 51.4587 52.3249 51.4753L37.3217 57.5743C37.2879 57.5909 37.2709 57.5909 37.2371 57.5909ZM22.3863 51.1264L37.2371 57.1588L52.0709 51.1264L58.2178 36.552L52.0709 21.9943L37.2371 15.9618L22.3863 21.9943L16.2394 36.5686L22.3863 51.1264ZM53.0192 51.1762C52.9684 51.1762 52.9176 51.1596 52.8668 51.1097C52.7991 51.0433 52.7821 50.9602 52.816 50.8771L58.5734 37.2167C58.6412 37.0672 58.8952 37.0672 58.9629 37.2167L63.0439 46.872C63.0947 46.9717 63.0439 47.1047 62.9254 47.1379L53.0869 51.143C53.07 51.1762 53.0361 51.1762 53.0192 51.1762ZM58.7766 37.8482L53.4087 50.5779L62.5867 46.8554L58.7766 37.8482ZM21.4549 51.1762C21.421 51.1762 21.4041 51.1762 21.3702 51.1596L11.5318 47.1545C11.4302 47.1047 11.3794 46.9884 11.4133 46.8886L15.4773 37.2333C15.5451 37.0838 15.7991 37.0838 15.8668 37.2333L21.6243 50.8771C21.6581 50.9602 21.6412 51.0433 21.5735 51.1097C21.5735 51.1596 21.5226 51.1762 21.4549 51.1762ZM11.9043 46.8554L21.0654 50.5779L15.6975 37.8482L11.9043 46.8554ZM3.42059 50.1957C3.38673 50.1957 3.36979 50.1957 3.33593 50.1791C3.28513 50.1625 3.23432 50.1126 3.21739 50.0628C1.54096 45.9913 0.643478 41.6871 0.55881 37.2666C0.55881 37.1835 0.609611 37.1004 0.694279 37.0672C0.762014 37.0339 0.863615 37.0505 0.93135 37.117L10.8714 46.872C10.9222 46.9219 10.9391 46.9884 10.9391 47.0548C10.9222 47.1213 10.8714 47.1878 10.8037 47.2044L3.50526 50.1791C3.4714 50.1957 3.45446 50.1957 3.42059 50.1957ZM0.999084 37.7818C1.13455 41.9031 1.99817 45.9248 3.53913 49.7304L10.3465 46.9551L6.79039 43.4819L0.999084 37.7818ZM71.0535 50.1957C71.0197 50.1957 71.0027 50.1957 70.9689 50.1791L63.6874 47.221C63.6197 47.1878 63.5689 47.1379 63.5519 47.0715C63.535 47.005 63.5519 46.9385 63.6027 46.8886L73.5428 37.1336C73.6105 37.0672 73.6952 37.0505 73.7798 37.0838C73.8645 37.117 73.9153 37.2001 73.9153 37.2832C73.8307 41.7037 72.9332 46.0079 71.2398 50.0794C71.2229 50.1292 71.1721 50.1791 71.1213 50.1957C71.1213 50.1957 71.0874 50.1957 71.0535 50.1957ZM64.1277 46.9551L70.935 49.7304C72.476 45.9248 73.3396 41.9031 73.475 37.7818L64.1277 46.9551ZM11.1423 46.8222C11.0915 46.8222 11.0407 46.8056 10.9899 46.7557L0.74508 36.7016C0.660412 36.6185 0.660412 36.4855 0.74508 36.4024L10.9899 26.3483C11.0407 26.2984 11.1085 26.2818 11.1762 26.2984C11.2439 26.315 11.3117 26.3649 11.3286 26.4148L15.562 36.4689C15.5789 36.5188 15.5789 36.5686 15.562 36.6351L11.3286 46.6892C11.2947 46.7557 11.2439 46.8056 11.1762 46.8056C11.1593 46.8222 11.1423 46.8222 11.1423 46.8222ZM1.18535 36.552L11.0577 46.2405L15.1387 36.552L11.0577 26.8635L1.18535 36.552ZM63.3487 46.8222C63.3318 46.8222 63.3149 46.8222 63.3149 46.8222C63.2471 46.8056 63.1794 46.7557 63.1625 46.7058L58.9121 36.6517C58.8952 36.6018 58.8952 36.552 58.9121 36.4855L63.1625 26.4314C63.1963 26.3649 63.2471 26.315 63.3149 26.315C63.3826 26.2984 63.4503 26.315 63.5011 26.3649L73.746 36.419C73.7798 36.4523 73.8137 36.5188 73.8137 36.5686C73.8137 36.6185 73.7968 36.6683 73.746 36.7182L63.5011 46.7723C63.4503 46.8056 63.3995 46.8222 63.3487 46.8222ZM59.3355 36.552L63.4334 46.2405L73.3057 36.552L63.4334 26.8635L59.3355 36.552ZM73.7121 36.0534C73.6613 36.0534 73.6105 36.0368 73.5597 35.987L63.6197 26.2319C63.5689 26.1821 63.5519 26.1156 63.5689 26.0491C63.5858 25.9827 63.6366 25.9162 63.7043 25.8996L71.0027 22.9415C71.0535 22.9249 71.1213 22.9249 71.1721 22.9415C71.2229 22.9581 71.2737 23.008 71.2906 23.0578C72.967 27.1293 73.8645 31.4335 73.9492 35.854C73.9492 35.9371 73.8984 36.0202 73.8137 36.0534C73.7629 36.0534 73.729 36.0534 73.7121 36.0534ZM64.1277 26.1655L73.475 35.3388C73.3396 31.2175 72.476 27.1958 70.935 23.4068L64.1277 26.1655ZM0.762014 36.0534C0.728146 36.0534 0.711213 36.0534 0.677345 36.0368C0.592677 36.0036 0.541876 35.9205 0.541876 35.8374C0.626545 31.4169 1.52403 27.1127 3.20046 23.0412C3.21739 22.9914 3.26819 22.9415 3.31899 22.9249C3.36979 22.9083 3.42059 22.9083 3.48833 22.9249L10.7867 25.8996C10.8545 25.9328 10.9053 25.9827 10.9222 26.0491C10.9391 26.1156 10.9222 26.1821 10.8714 26.2319L0.93135 35.987C0.880549 36.0368 0.829748 36.0534 0.762014 36.0534ZM3.53913 23.3902C1.99817 27.1958 1.13455 31.2175 0.999084 35.3388L10.3465 26.1655L3.53913 23.3902ZM15.6975 36.0036C15.6128 36.0036 15.5281 35.9537 15.4943 35.8706L11.4133 26.2153C11.3625 26.1156 11.4133 25.9827 11.5318 25.9494L21.3702 21.9444C21.438 21.9112 21.5396 21.9278 21.6073 21.9943C21.6751 22.0607 21.692 22.1438 21.6581 22.2269L15.9007 35.8873C15.8668 35.9537 15.7821 36.0036 15.6975 36.0036ZM11.9043 26.2486L15.6975 35.2558L18.3899 28.8909L21.0824 22.526L11.9043 26.2486ZM58.7766 36.0036C58.692 36.0036 58.6073 35.9537 58.5734 35.8706L52.816 22.2269C52.7821 22.1438 52.7991 22.0607 52.8668 21.9943C52.9345 21.9278 53.0192 21.9112 53.1039 21.9444L62.9423 25.9494C62.9931 25.9661 63.027 26.0159 63.0609 26.0658C63.0947 26.1156 63.0778 26.1655 63.0609 26.2319L58.9799 35.8873C58.946 35.9537 58.8613 36.0036 58.7766 36.0036ZM53.4087 22.526L56.1011 28.8909L58.7766 35.2558L62.5698 26.2652L53.4087 22.526ZM11.5318 25.7666C11.4979 25.7666 11.4471 25.75 11.4133 25.7334C11.3455 25.7002 11.3117 25.6337 11.3117 25.5672V11.3252C11.3117 11.2089 11.4133 11.1258 11.5149 11.1258H26.0101C26.0778 11.1258 26.1455 11.159 26.1794 11.2255C26.2133 11.2754 26.2302 11.3585 26.1963 11.4249L22.8265 19.4184L21.946 21.4957C21.9291 21.5456 21.8783 21.5954 21.8275 21.612L11.5826 25.7833C11.5826 25.7666 11.5657 25.7666 11.5318 25.7666ZM11.735 11.5413V25.2515L21.6073 21.2298L25.7053 11.5413H11.735ZM62.9423 25.7666C62.9085 25.7666 62.8915 25.7666 62.8576 25.75L52.6128 21.5788C52.562 21.5622 52.5281 21.5123 52.4943 21.4625L48.2439 11.4083C48.2101 11.3418 48.227 11.2754 48.2609 11.2089C48.2947 11.159 48.3625 11.1092 48.4302 11.1092H62.9254C63.0439 11.1092 63.1286 11.2089 63.1286 11.3086V25.534C63.1286 25.6005 63.0947 25.6669 63.027 25.7002C63.027 25.75 62.9931 25.7666 62.9423 25.7666ZM52.8499 21.2298L62.7222 25.2348V11.5413H48.7519L52.8499 21.2298ZM10.9391 25.7666C10.9053 25.7666 10.8883 25.7666 10.8545 25.75L3.55606 22.7919C3.50526 22.7753 3.45446 22.7255 3.43753 22.6756C3.42059 22.6258 3.42059 22.5593 3.43753 22.5094C5.19863 18.4545 7.67094 14.7819 10.7867 11.6077C10.8545 11.5413 10.9391 11.5246 11.0238 11.5579C11.1085 11.5911 11.1593 11.6576 11.1593 11.7407V25.5506C11.1593 25.6171 11.1254 25.6835 11.0577 25.7168C11.0238 25.75 10.9899 25.7666 10.9391 25.7666ZM3.9286 22.4762L10.7359 25.2348V12.2725C7.87414 15.2638 5.5881 18.7038 3.9286 22.4762ZM63.535 25.75C63.5011 25.75 63.4503 25.7334 63.4165 25.7168C63.3487 25.6835 63.3149 25.6171 63.3149 25.5506V11.7573C63.3149 11.6742 63.3657 11.5911 63.4503 11.5579C63.535 11.5246 63.6197 11.5413 63.6874 11.6077C66.8201 14.7985 69.2755 18.4711 71.0197 22.5094C71.0366 22.5593 71.0366 22.6258 71.0197 22.6756C71.0027 22.7255 70.9519 22.7753 70.9011 22.7919L63.6027 25.75C63.5858 25.75 63.5689 25.75 63.535 25.75ZM63.7551 12.2725V25.2348L70.5625 22.4762C68.903 18.7038 66.6169 15.2804 63.7551 12.2725ZM51.9185 21.2797C51.8847 21.2797 51.8677 21.2797 51.8339 21.263L37.9144 15.6128C37.8297 15.5795 37.7789 15.5131 37.7789 15.4134C37.7789 15.3136 37.8297 15.2472 37.9144 15.2139L47.7528 11.2089C47.8545 11.1757 47.9899 11.2089 48.0238 11.3252L52.1048 20.9805C52.1387 21.0636 52.1217 21.1467 52.054 21.2132C52.0371 21.263 51.9863 21.2797 51.9185 21.2797ZM38.5579 15.4134L51.529 20.6814L47.7359 11.6742L38.5579 15.4134ZM22.5556 21.2797C22.5048 21.2797 22.454 21.263 22.4032 21.2132C22.3355 21.1467 22.3185 21.0636 22.3524 20.9805L26.4334 11.3252C26.4842 11.2255 26.6027 11.1757 26.7043 11.2089L36.5428 15.2139C36.6274 15.2472 36.6783 15.3136 36.6783 15.4134C36.6783 15.5131 36.6274 15.5795 36.5428 15.6128L22.6233 21.263C22.6064 21.2797 22.5725 21.2797 22.5556 21.2797ZM26.7382 11.6908L22.9451 20.6814L35.9162 15.4134L26.7382 11.6908ZM37.2371 15.3136C37.2032 15.3136 37.1863 15.3136 37.1524 15.297L26.9075 11.1258C26.8398 11.0926 26.789 11.0427 26.7721 10.9762C26.7551 10.9098 26.7721 10.8433 26.8229 10.7934L37.0677 0.739288C37.1524 0.656196 37.2879 0.656196 37.3725 0.739288L47.6174 10.7934C47.6682 10.8433 47.6851 10.9098 47.6682 10.9762C47.6512 11.0427 47.6004 11.1092 47.5327 11.1258L37.2879 15.297C37.2879 15.3136 37.2709 15.3136 37.2371 15.3136ZM27.3648 10.8599L37.2371 14.8649L47.1094 10.8599L37.2371 1.17137L27.3648 10.8599ZM62.519 10.9596H48.4471C48.3794 10.9596 48.3117 10.9264 48.2778 10.8599C48.2439 10.8101 48.227 10.727 48.2609 10.6605L51.292 3.49795C51.3089 3.44809 51.3597 3.39824 51.4105 3.38162C51.4613 3.365 51.529 3.365 51.5799 3.38162C55.7117 5.09332 59.4371 7.5196 62.6883 10.5774C62.7561 10.6439 62.773 10.727 62.7391 10.8101C62.6883 10.9098 62.6036 10.9596 62.519 10.9596ZM48.7689 10.5442H61.994C58.929 7.73564 55.4407 5.49216 51.5968 3.86355L48.7689 10.5442ZM26.027 10.9596H11.9551C11.8705 10.9596 11.7858 10.9098 11.7519 10.8267C11.735 10.7436 11.7519 10.6605 11.8027 10.594C14.9355 7.63593 18.5593 5.2595 22.5556 3.5478L22.9112 3.39824C23.0297 3.34838 23.1483 3.39824 23.1821 3.51456L26.1963 10.6771C26.2302 10.7436 26.2133 10.8101 26.1794 10.8765C26.1625 10.9264 26.0947 10.9596 26.027 10.9596ZM12.4801 10.5442H25.7053L22.8943 3.86355L22.7249 3.93003C18.9487 5.55863 15.4943 7.76888 12.4801 10.5442ZM47.9053 10.7436C47.8545 10.7436 47.8036 10.727 47.7528 10.6771L37.7959 0.905472C37.7281 0.838999 37.7112 0.755907 37.7451 0.672814C37.7789 0.589722 37.8636 0.539867 37.9483 0.539867C42.4357 0.622959 46.8384 1.50374 51.0041 3.16558C51.0549 3.1822 51.1057 3.23205 51.1226 3.28191C51.1396 3.33176 51.1396 3.39824 51.1226 3.44809L48.1085 10.6106C48.0746 10.6771 48.0238 10.727 47.9561 10.727C47.9391 10.727 47.9222 10.7436 47.9053 10.7436ZM38.4732 0.988564L47.8206 10.1619L50.6316 3.48133C46.7538 1.96905 42.6728 1.12151 38.4732 0.988564ZM26.5689 10.727C26.5519 10.727 26.535 10.727 26.535 10.727C26.4673 10.7103 26.3995 10.6605 26.3826 10.6106L23.3684 3.46471C23.3176 3.365 23.3684 3.23205 23.4869 3.19881L23.8426 3.04925C27.9066 1.48712 32.1739 0.656196 36.5258 0.573104C36.6105 0.573104 36.6952 0.622959 36.7291 0.706051C36.7629 0.789143 36.746 0.872235 36.6783 0.938709L26.7382 10.6937C26.6874 10.7103 26.6366 10.727 26.5689 10.727ZM23.8256 3.48133L26.6535 10.1619L36.0009 0.988564C31.8691 1.12151 27.8389 1.95243 23.995 3.41485L23.8256 3.48133Z" fill="#B5936C"/>
</svg>
