<svg width="74" height="74" viewBox="0 0 74 74" fill="none" xmlns="http://www.w3.org/2000/svg">
<path d="M36.9322 72.8213C57.2182 72.8213 73.6632 56.6342 73.6632 36.6664C73.6632 16.6986 57.2182 0.511475 36.9322 0.511475C16.6462 0.511475 0.201172 16.6986 0.201172 36.6664C0.201172 56.6342 16.6462 72.8213 36.9322 72.8213Z" fill="#F5F5EC"/>
<path d="M10.8934 25.7576L3.64802 22.7754C5.3795 18.7042 7.81703 15.0351 10.8934 11.8518V25.7576ZM22.4926 3.75971L22.8456 3.60893L25.8379 10.8299H11.8852C14.9951 7.84766 18.559 5.48536 22.4926 3.75971ZM23.7534 3.24034C27.7543 1.68223 31.9738 0.844533 36.2773 0.760764L26.4095 10.5953L23.4172 3.39113L23.7534 3.24034ZM50.583 3.39113L47.5907 10.6121L43.842 6.87594L37.723 0.760764C42.1441 0.844533 46.4644 1.73249 50.583 3.39113ZM48.1119 10.8299L51.121 3.60893C55.1891 5.31782 58.8706 7.74714 62.0814 10.8299H48.1119ZM63.3254 26.2937L70.5707 23.3115C72.235 27.3995 73.1091 31.7052 73.1932 36.145L63.3254 26.2937ZM70.5539 50.3858L63.3086 47.3869L73.1764 37.5523C73.1091 41.9921 72.2182 46.2979 70.5539 50.3858ZM63.09 47.9397L70.3354 50.9219C68.6039 54.9931 66.1664 58.6622 63.09 61.8455V47.9397ZM51.474 69.9209L51.1041 70.0716L48.1119 62.8675H62.0814C58.9883 65.8329 55.4244 68.212 51.474 69.9209ZM50.2132 70.457C46.2123 72.0319 41.9928 72.8528 37.7062 72.9366L43.8252 66.8214L47.5739 63.0853L50.5662 70.3062L50.2132 70.457ZM23.4004 70.3062L26.3927 63.0853L30.1414 66.8214L36.2773 72.9366C31.8393 72.8528 27.5022 71.9648 23.4004 70.3062ZM25.8547 62.8675L22.8456 70.0884C18.7607 68.3795 15.0792 65.9502 11.8852 62.8675H25.8547ZM6.90926 43.6675L10.658 47.4036L3.41267 50.4026C1.74843 46.3146 0.874283 42.0089 0.790231 37.5691L6.90926 43.6675ZM22.5094 19.4581L21.6353 21.5523L11.4649 25.7576V11.4162H25.8547L22.5094 19.4581ZM47.1705 11.0141L37.0001 15.2194L33.5203 13.7785L26.8297 11.0141L37.0001 0.878041L41.0683 4.93248L47.1705 11.0141ZM62.5185 25.7576L52.3481 21.5523L48.1287 11.4162H62.5185V25.7576ZM63.09 25.7576V11.8518C66.1832 15.0518 68.6039 18.7209 70.3354 22.7754L63.09 25.7576ZM58.6857 36.8487L62.9051 26.7126L73.0755 36.8487L62.9051 46.9848L58.6857 36.8487ZM11.4649 47.9397L18.9456 51.0225L21.6353 52.1282L25.8547 62.2643H11.4649V47.9397ZM10.8765 47.9397V61.8622C7.78341 58.6622 5.36269 54.9931 3.63121 50.9387L10.8765 47.9397ZM37.7566 58.1596L51.5748 52.4633L47.5235 62.1973L47.1369 62.0465L37.7566 58.1596ZM22.4086 21.234L26.4599 11.5L36.2268 15.5377L22.4086 21.234ZM55.5085 29.1921L52.6507 22.3063L62.4176 26.344L58.3663 36.078L55.5085 29.1921ZM29.3177 55.3115L36.2268 58.1596L26.4599 62.1973L22.4086 52.4633L29.3177 55.3115ZM58.3663 37.6026L62.4176 47.3366L52.6507 51.3743L58.3663 37.6026ZM44.6657 18.3859L37.7566 15.5377L47.5235 11.5L51.5748 21.234L44.6657 18.3859ZM15.9197 36.8487L19.0128 29.4267L22.106 22.0047L37.0001 15.856L44.4472 18.9387L51.8942 22.0215L58.0469 36.8487L51.8774 51.6926L36.9833 57.8413L29.5362 54.7586L22.0892 51.6759L20.24 47.2193L15.9197 36.8487ZM18.4581 29.1921L15.6003 36.078L11.549 26.344L21.3159 22.3063L18.4581 29.1921ZM11.5658 47.3534L14.2218 40.9366L15.6003 37.6193L18.4581 44.5052L21.3159 51.391L18.8447 50.3691L11.5658 47.3534ZM0.907904 36.8487L4.97605 32.7942L11.0783 26.7126L15.2809 36.8487L14.205 39.4623L11.0783 46.9848L4.97605 40.9031L0.907904 36.8487ZM36.9833 72.8193L32.9151 68.7481L26.8129 62.6664L36.9833 58.4612L43.0351 60.9575L47.1705 62.6664L41.0683 68.7481L36.9833 72.8193ZM48.1119 62.2811L50.4317 56.702L52.3313 52.145L62.5017 47.9397V62.2811H48.1119ZM3.41267 23.3115L4.99286 23.9649L10.658 26.3105L6.90926 30.0298L0.790231 36.1282C0.874283 31.7052 1.74843 27.3827 3.41267 23.3115ZM2.9756 50.8884C10.5403 69.0999 32.0074 78.1973 50.4317 70.9931L51.0705 70.725L51.7093 70.457C64.9728 64.6769 73.7647 51.3073 73.7815 36.8822C73.8152 36.8487 73.8152 36.7984 73.7815 36.7481C73.7479 25.2717 68.2004 14.2979 58.9715 7.42882C48.8851 -0.0769308 35.2518 -1.8696 23.5349 2.70422L22.8961 2.97228L22.2573 3.24034C4.18596 11.0979 -4.62276 32.6769 2.9756 50.8884Z" fill="#B5936C"/>
<path d="M37.2522 73.691C32.2931 73.691 27.3003 72.6857 22.5429 70.6753C13.4821 66.8386 6.45525 59.8355 2.77374 50.9727C-0.92458 42.1266 -0.92458 32.2251 2.77374 23.1109C6.47206 14.0136 13.3476 6.87642 22.1563 3.03978L23.4339 2.52041C35.2685 -2.10367 48.9355 -0.277495 59.0723 7.27851C68.3685 14.1979 73.9328 25.2052 73.9664 36.7319C73.9832 36.7989 73.9832 36.8827 73.9664 36.9497C73.9328 51.358 65.0064 64.9119 51.7597 70.6753L50.4821 71.1946C46.2458 72.8533 41.7574 73.691 37.2522 73.691ZM36.9328 0.409416C32.4275 0.409416 27.9055 1.23036 23.6188 2.90575L22.358 3.42512C13.6502 7.2115 6.84189 14.2649 3.17719 23.2617C-0.487506 32.2753 -0.487506 42.0596 3.17719 50.8051C6.80827 59.5674 13.751 66.47 22.711 70.2732C31.6711 74.0763 41.4884 74.2606 50.3476 70.7925L51.6252 70.2732C64.7374 64.5601 73.5461 51.1402 73.5629 36.8827C73.5629 36.8491 73.5629 36.8324 73.5797 36.8156C73.5797 36.7989 73.5629 36.7821 73.5629 36.7654C73.5293 25.356 68.0323 14.4492 58.8369 7.61359C52.4825 2.87224 44.7329 0.409416 36.9328 0.409416ZM36.2772 73.1381C31.8055 73.0543 27.4516 72.1664 23.3162 70.491C23.2658 70.4742 23.2154 70.424 23.1986 70.3737C23.1817 70.3234 23.1817 70.2564 23.1986 70.2062L26.1908 62.9852C26.2244 62.9182 26.2749 62.8679 26.3421 62.8679C26.4094 62.8512 26.4766 62.868 26.527 62.9182L36.4116 72.7695C36.4789 72.8365 36.4957 72.9203 36.4621 73.0041C36.4453 73.0878 36.3612 73.1381 36.2772 73.1381ZM23.6861 70.1894C27.5525 71.714 31.6038 72.5685 35.7728 72.7025L26.4934 63.4543L23.6861 70.1894ZM37.7061 73.1381C37.622 73.1381 37.5379 73.0878 37.5043 73.0041C37.4707 72.9203 37.4875 72.8365 37.5548 72.7695L47.4225 62.9182C47.473 62.868 47.5402 62.8512 47.6075 62.8679C47.6747 62.8847 47.7419 62.935 47.7588 62.9852L50.751 70.2062C50.7678 70.2564 50.7678 70.3234 50.751 70.3737C50.7342 70.424 50.6838 70.4575 50.6334 70.491L50.2803 70.6418C46.2794 72.2166 42.0432 73.0543 37.7061 73.1381ZM47.5066 63.4543L38.2272 72.7025C42.3289 72.5685 46.3299 71.7475 50.1459 70.2397L50.314 70.1726L47.5066 63.4543ZM36.9832 73.0376C36.9328 73.0376 36.8655 73.0208 36.8319 72.9706L26.6615 62.8177C26.6111 62.7674 26.5943 62.7004 26.6111 62.6334C26.6279 62.5664 26.6783 62.4994 26.7456 62.4826L36.916 58.2774C36.9664 58.2606 37.0168 58.2606 37.0841 58.2774L47.2544 62.4826C47.3217 62.5161 47.3721 62.5664 47.3889 62.6334C47.4057 62.7004 47.3889 62.7674 47.3385 62.8177L37.1681 72.9706C37.1009 73.0041 37.0504 73.0376 36.9832 73.0376ZM27.1826 62.7507L36.9832 72.5182L46.7837 62.7507L36.9832 58.713L27.1826 62.7507ZM22.8623 70.2899C22.8287 70.2899 22.8119 70.2899 22.7783 70.2732C18.6933 68.5475 14.9782 66.1014 11.7506 63.0187C11.6833 62.9517 11.6665 62.8679 11.7001 62.7842C11.7338 62.7004 11.8178 62.6502 11.9019 62.6502H25.8714C25.9387 62.6502 26.0059 62.6837 26.0395 62.7507C26.0732 62.8009 26.09 62.8847 26.0563 62.9517L23.0473 70.1726C23.0304 70.2229 22.98 70.2732 22.9296 70.2899C22.9128 70.2899 22.8792 70.2899 22.8623 70.2899ZM12.423 63.069C15.4657 65.9172 18.9455 68.1789 22.7447 69.8041L25.552 63.069H12.423ZM51.1209 70.2899C51.0368 70.2899 50.9528 70.2397 50.9191 70.1559L47.9269 62.9517C47.8932 62.8847 47.91 62.8177 47.9437 62.7507C47.9773 62.7004 48.0445 62.6502 48.1118 62.6502H62.0813C62.1654 62.6502 62.2494 62.7004 62.2831 62.7842C62.3167 62.8679 62.2999 62.9517 62.2326 63.0187C59.1059 66.0177 55.5252 68.3967 51.5747 70.1224L51.2049 70.2732C51.1713 70.2899 51.1377 70.2899 51.1209 70.2899ZM48.4312 63.069L51.2217 69.8041L51.3898 69.7371C55.1386 68.1119 58.5511 65.8669 61.5434 63.069H48.4312ZM62.5184 62.4994H48.1286C48.0613 62.4994 47.9941 62.4659 47.9605 62.3988C47.9269 62.3486 47.91 62.2648 47.9437 62.1978L52.1631 52.0617C52.1799 52.0114 52.2304 51.9612 52.2808 51.9444L62.4512 47.7392C62.5184 47.7057 62.5856 47.7224 62.6529 47.7559C62.7201 47.7894 62.7538 47.8565 62.7538 47.9235V62.2648C62.7201 62.3988 62.6361 62.4994 62.5184 62.4994ZM48.4312 62.0805H62.2999V48.2585L52.4993 52.313L48.4312 62.0805ZM25.8546 62.4994H11.4648C11.3471 62.4994 11.2631 62.3988 11.2631 62.2983V47.957C11.2631 47.89 11.2967 47.8229 11.3639 47.7894C11.4312 47.7559 11.4984 47.7392 11.5657 47.7727L21.736 51.9779C21.7865 51.9947 21.8201 52.0449 21.8537 52.0952L26.0732 62.2313C26.1068 62.2983 26.09 62.3653 26.0563 62.4324C25.9891 62.4491 25.9387 62.4994 25.8546 62.4994ZM11.6833 62.0805H25.552L21.4839 52.313L11.6833 48.2585V62.0805ZM26.4598 62.3988C26.3757 62.3988 26.2917 62.3486 26.2581 62.2648L22.2067 52.5308C22.1731 52.447 22.1899 52.3633 22.2572 52.2962C22.3244 52.2292 22.4085 52.2125 22.4925 52.246L36.3108 57.9423C36.3948 57.9758 36.4453 58.0428 36.4453 58.1433C36.4453 58.2439 36.3948 58.3109 36.3108 58.3444L26.5438 62.3821C26.5102 62.3988 26.4766 62.3988 26.4598 62.3988ZM22.7951 52.8491L26.5607 61.9297L35.672 58.1769L22.7951 52.8491ZM47.5234 62.3988C47.4898 62.3988 47.473 62.3988 47.4394 62.3821L37.6724 58.3444C37.5884 58.3109 37.5379 58.2439 37.5379 58.1433C37.5379 58.0428 37.5884 57.9758 37.6724 57.9423L51.4907 52.246C51.5579 52.2125 51.6588 52.2292 51.726 52.2962C51.7933 52.3633 51.8101 52.447 51.7765 52.5308L47.7251 62.2648C47.6747 62.3486 47.6075 62.3988 47.5234 62.3988ZM38.3112 58.1601L47.4057 61.913L51.1713 52.8491L38.3112 58.1601ZM63.09 62.0638C63.0563 62.0638 63.0395 62.0638 63.0059 62.047C62.9219 62.0135 62.8714 61.9465 62.8714 61.846V47.9235C62.8714 47.8565 62.9051 47.7894 62.9723 47.7559C63.0395 47.7224 63.1068 47.7057 63.174 47.7392L70.4194 50.7214C70.4698 50.7381 70.5202 50.7884 70.537 50.8386C70.5538 50.8889 70.5538 50.9559 70.537 51.0062C68.7887 55.0941 66.3512 58.7967 63.2581 61.9967C63.2076 62.047 63.1572 62.0638 63.09 62.0638ZM63.3085 48.2585V61.3433C66.1495 58.3109 68.4189 54.8596 70.0663 51.0564L63.3085 48.2585ZM10.8764 62.0638C10.826 62.0638 10.7587 62.047 10.7251 61.9967C7.63199 58.7967 5.17765 55.0941 3.42935 51.0062C3.41254 50.9559 3.41254 50.8889 3.42935 50.8386C3.44616 50.7884 3.49659 50.7381 3.54702 50.7214L10.7924 47.7224C10.8596 47.6889 10.9269 47.7057 10.9941 47.7392C11.0613 47.7727 11.095 47.8397 11.095 47.9067V61.8292C11.095 61.913 11.0445 61.9967 10.9605 62.0303C10.9437 62.0638 10.91 62.0638 10.8764 62.0638ZM3.91686 51.0397C5.56429 54.8428 7.83371 58.2941 10.6747 61.3266V48.2418L3.91686 51.0397ZM36.9832 58.0596C36.9496 58.0596 36.9328 58.0596 36.8991 58.0428L22.005 51.8941C21.9546 51.8774 21.9209 51.8271 21.8873 51.7769L15.7179 36.9329C15.701 36.8827 15.701 36.8324 15.7179 36.7654L21.8873 21.9214C21.9041 21.8712 21.9546 21.8209 22.005 21.8041L36.8991 15.6555C36.9496 15.6387 37 15.6387 37.0672 15.6555L51.9614 21.8041C52.0118 21.8209 52.0454 21.8712 52.0791 21.9214L58.2485 36.7654C58.2653 36.8156 58.2653 36.8659 58.2485 36.9329L52.0791 51.7769C52.0623 51.8271 52.0118 51.8774 51.9614 51.8941L37.0672 58.0428C37.0504 58.0428 37.0168 58.0596 36.9832 58.0596ZM22.2572 51.5256L37 57.6072L51.726 51.5256L57.8283 36.8491L51.726 22.1727L36.9832 16.0743L22.2404 22.156L16.1549 36.8491L22.2572 51.5256ZM52.6506 51.5926C52.6002 51.5926 52.5498 51.5758 52.4993 51.5256C52.4321 51.4585 52.4153 51.3748 52.4489 51.291L58.1645 37.5193C58.2317 37.3685 58.4839 37.3685 58.5511 37.5193L62.6025 47.2533C62.6529 47.3538 62.6025 47.4879 62.4848 47.5214L52.7179 51.5591C52.7011 51.5758 52.6842 51.5926 52.6506 51.5926ZM58.3662 38.1559L53.0373 50.9894L62.1486 47.2366L58.3662 38.1559ZM21.3326 51.5926C21.299 51.5926 21.2821 51.5926 21.2485 51.5758L11.4816 47.5381C11.3807 47.4879 11.3303 47.3706 11.3639 47.2701L15.3985 37.5361C15.4657 37.3853 15.7179 37.3853 15.7851 37.5361L21.5007 51.291C21.5343 51.3748 21.5175 51.4585 21.4503 51.5256C21.4334 51.5591 21.383 51.5926 21.3326 51.5926ZM11.8346 47.2366L20.9459 50.9894L15.617 38.1559L11.8346 47.2366ZM3.41254 50.6041C3.37892 50.6041 3.36211 50.6041 3.32849 50.5873C3.27806 50.5706 3.22762 50.5203 3.21081 50.4701C1.54657 46.3654 0.655611 42.0261 0.571559 37.5696C0.571559 37.4858 0.62199 37.402 0.706043 37.3685C0.773285 37.335 0.874148 37.3518 0.941391 37.4188L10.8092 47.2533C10.8596 47.3036 10.8764 47.3706 10.8764 47.4376C10.8596 47.5046 10.8092 47.5716 10.7419 47.5884L3.49659 50.5873C3.46297 50.6041 3.44616 50.6041 3.41254 50.6041ZM1.00863 38.0722C1.14312 42.2271 2.00045 46.2816 3.53021 50.1182L10.2881 47.3203L6.75784 43.8188L1.00863 38.0722ZM70.5538 50.6041C70.5202 50.6041 70.5034 50.6041 70.4698 50.5873L63.2244 47.5884C63.1572 47.5549 63.1068 47.5046 63.09 47.4376C63.0732 47.3706 63.09 47.3036 63.1404 47.2533L73.0082 37.4188C73.0754 37.3518 73.1595 37.335 73.2435 37.3685C73.3276 37.402 73.378 37.4858 73.378 37.5696C73.294 42.0261 72.403 46.3654 70.722 50.4701C70.7051 50.5203 70.6547 50.5706 70.6043 50.5873C70.6211 50.6041 70.5875 50.6041 70.5538 50.6041ZM63.6951 47.3203L70.453 50.1182C71.9827 46.2816 72.8401 42.2271 72.9746 38.0722L63.6951 47.3203ZM11.0781 47.2031C11.0277 47.2031 10.9773 47.1863 10.9269 47.136L0.756475 36.9999C0.672422 36.9162 0.672422 36.7821 0.756475 36.6984L10.9269 26.5623C10.9773 26.512 11.0445 26.4952 11.1118 26.512C11.179 26.5287 11.2463 26.579 11.2631 26.6293L15.4657 36.7654C15.4825 36.8156 15.4825 36.8659 15.4657 36.9329L11.2631 47.069C11.2294 47.136 11.179 47.1863 11.1118 47.1863C11.095 47.2031 11.095 47.2031 11.0781 47.2031ZM1.19355 36.8491L10.9941 46.6167L15.0622 36.8491L11.0109 27.0816L1.19355 36.8491ZM62.9051 47.2031C62.8882 47.2031 62.8714 47.2031 62.8714 47.2031C62.8042 47.1863 62.7369 47.136 62.7201 47.0858L58.5007 36.9497C58.4839 36.8994 58.4839 36.8491 58.5007 36.7821L62.7201 26.646C62.7538 26.579 62.8042 26.5287 62.8714 26.5287C62.9387 26.512 63.0059 26.5287 63.0563 26.579L73.2267 36.7151C73.2603 36.7486 73.294 36.8156 73.294 36.8659C73.294 36.9162 73.2772 36.9664 73.2267 37.0167L63.0563 47.1528C63.0059 47.1695 62.9555 47.2031 62.9051 47.2031ZM58.921 36.8491L62.9891 46.6167L72.7896 36.8491L62.9891 27.0816L58.921 36.8491ZM73.1931 36.3465C73.1427 36.3465 73.0922 36.3298 73.0418 36.2795L63.174 26.445C63.1236 26.3947 63.1068 26.3277 63.1236 26.2607C63.1404 26.1937 63.1908 26.1266 63.2581 26.1099L70.5034 23.1277C70.5538 23.1109 70.6211 23.1109 70.6715 23.1277C70.722 23.1445 70.7724 23.1947 70.7892 23.245C72.4534 27.3497 73.3444 31.6889 73.4285 36.1455C73.4285 36.2292 73.378 36.313 73.294 36.3465C73.2435 36.3465 73.2267 36.3465 73.1931 36.3465ZM63.6951 26.378L72.9746 35.6261C72.8401 31.4711 71.9827 27.4167 70.453 23.5968L63.6951 26.378ZM0.790096 36.3465C0.756475 36.3465 0.739664 36.3465 0.706043 36.3298C0.62199 36.2963 0.571559 36.2125 0.571559 36.1287C0.655611 31.6722 1.54657 27.3329 3.21081 23.2282C3.22762 23.178 3.27806 23.1277 3.32849 23.1109C3.37892 23.0942 3.42935 23.0942 3.49659 23.1109L10.7419 26.1099C10.8092 26.1434 10.8596 26.1937 10.8764 26.2607C10.8932 26.3277 10.8764 26.3947 10.826 26.445L0.958201 36.2795C0.890959 36.3298 0.840527 36.3465 0.790096 36.3465ZM3.53021 23.5801C2.00045 27.4167 1.14312 31.4711 1.00863 35.6261L10.2881 26.378L3.53021 23.5801ZM15.6002 36.2963C15.5161 36.2963 15.4321 36.246 15.3985 36.1622L11.3471 26.4282C11.2967 26.3277 11.3471 26.1937 11.4648 26.1602L21.2317 22.1225C21.299 22.089 21.3998 22.1057 21.4671 22.1727C21.5343 22.2397 21.5511 22.3235 21.5175 22.4073L15.8019 36.179C15.7683 36.246 15.6842 36.2963 15.6002 36.2963ZM11.8346 26.4617L15.6002 35.5423L18.2731 29.1256L20.9459 22.7089L11.8346 26.4617ZM58.3662 36.2963C58.2822 36.2963 58.1981 36.246 58.1645 36.1622L52.4489 22.4073C52.4153 22.3235 52.4321 22.2397 52.4993 22.1727C52.5666 22.1057 52.6506 22.089 52.7347 22.1225L62.5016 26.1602C62.552 26.1769 62.5857 26.2272 62.6193 26.2774C62.6529 26.3277 62.6361 26.378 62.6193 26.445L58.5679 36.179C58.5343 36.246 58.4503 36.2963 58.3662 36.2963ZM53.0373 22.7089L55.7101 29.1256L58.383 35.5423L62.1486 26.4785L53.0373 22.7089ZM11.4648 25.9759C11.4312 25.9759 11.3807 25.9591 11.3471 25.9424C11.2799 25.9088 11.2463 25.8418 11.2463 25.7748V11.4167C11.2463 11.2994 11.3471 11.2157 11.448 11.2157H25.8378C25.905 11.2157 25.9723 11.2492 26.0059 11.3162C26.0395 11.3665 26.0563 11.4502 26.0227 11.5173L22.6774 19.5759L21.8033 21.6701C21.7865 21.7204 21.736 21.7706 21.6856 21.7874L11.5488 25.9591C11.5152 25.9591 11.4984 25.9759 11.4648 25.9759ZM11.6833 11.6178V25.4397L21.4839 21.3853L25.552 11.6178H11.6833ZM62.5184 25.9591C62.4848 25.9591 62.468 25.9591 62.4344 25.9424L52.264 21.7371C52.2135 21.7204 52.1799 21.6701 52.1463 21.6199L47.9269 11.5005C47.8932 11.4335 47.91 11.3665 47.9437 11.2994C47.9773 11.2492 48.0445 11.1989 48.1118 11.1989H62.5016C62.6193 11.1989 62.7033 11.2994 62.7033 11.4V25.7413C62.7033 25.8083 62.6697 25.8753 62.6025 25.9088C62.5857 25.9591 62.552 25.9591 62.5184 25.9591ZM52.4993 21.4021L62.2999 25.4397V11.6178H48.4312L52.4993 21.4021ZM10.8764 25.9591C10.8428 25.9591 10.826 25.9591 10.7924 25.9424L3.54702 22.9602C3.49659 22.9434 3.44616 22.8931 3.42935 22.8429C3.41254 22.7926 3.41254 22.7256 3.42935 22.6753C5.17765 18.5874 7.61518 14.8848 10.7083 11.6848C10.7587 11.6178 10.8596 11.601 10.9437 11.6345C11.0277 11.668 11.0781 11.7351 11.0781 11.8356V25.7581C11.0781 25.8251 11.0445 25.8921 10.9773 25.9256C10.9605 25.9591 10.9269 25.9591 10.8764 25.9591ZM3.91686 22.6586L10.6747 25.4397V12.3549C7.83371 15.3874 5.56429 18.8387 3.91686 22.6586ZM63.09 25.9591C63.0563 25.9591 63.0059 25.9424 62.9723 25.9256C62.9051 25.8921 62.8714 25.8251 62.8714 25.7581V11.8523C62.8714 11.7686 62.9219 11.6848 63.0059 11.6513C63.09 11.6178 63.174 11.6345 63.2413 11.7015C66.3512 14.9183 68.7887 18.6209 70.5202 22.6921C70.537 22.7424 70.537 22.8094 70.5202 22.8596C70.5034 22.9099 70.453 22.9602 70.4025 22.9769L63.1572 25.9591C63.1572 25.9591 63.1236 25.9591 63.09 25.9591ZM63.3085 12.3717V25.4397L70.0663 22.6586C68.4189 18.8555 66.1495 15.4042 63.3085 12.3717ZM51.5747 21.4523C51.5411 21.4523 51.5243 21.4523 51.4907 21.4356L37.6724 15.7392C37.5884 15.7057 37.5379 15.6387 37.5379 15.5382C37.5379 15.4377 37.5884 15.3706 37.6724 15.3371L47.4394 11.2994C47.557 11.2659 47.6747 11.2994 47.7083 11.4167L51.7597 21.1507C51.7933 21.2345 51.7765 21.3183 51.7092 21.3853C51.6756 21.4356 51.6252 21.4523 51.5747 21.4523ZM38.3112 15.5382L51.1881 20.8492L47.4225 11.7686L38.3112 15.5382ZM22.4085 21.4523C22.358 21.4523 22.3076 21.4356 22.2572 21.3853C22.1899 21.3183 22.1731 21.2345 22.2067 21.1507L26.2581 11.4167C26.3085 11.3162 26.4262 11.2659 26.527 11.2994L36.294 15.3371C36.378 15.3706 36.4284 15.4377 36.4284 15.5382C36.4284 15.6387 36.378 15.7057 36.294 15.7392L22.4757 21.4356C22.4589 21.4356 22.4421 21.4523 22.4085 21.4523ZM26.5607 11.7853L22.7951 20.8492L35.672 15.5382L26.5607 11.7853ZM36.9832 15.4377C36.9496 15.4377 36.9328 15.4377 36.8991 15.4209L26.7288 11.2157C26.6615 11.1822 26.6111 11.1319 26.5943 11.0649C26.5775 10.9979 26.5943 10.9309 26.6447 10.8806L36.8151 0.744494C36.8991 0.660724 37.0336 0.660724 37.1177 0.744494L47.2881 10.8806C47.3385 10.9309 47.3553 10.9979 47.3385 11.0649C47.3217 11.1319 47.2712 11.1989 47.204 11.2157L37.0336 15.4209C37.0336 15.4209 37.0168 15.4377 36.9832 15.4377ZM27.1826 10.9476L36.9832 14.9853L46.7837 10.9476L36.9832 1.18009L27.1826 10.9476ZM62.0813 11.0481H48.1118C48.0445 11.0481 47.9773 11.0146 47.9437 10.9476C47.91 10.8974 47.8932 10.8136 47.9269 10.7466L50.9359 3.52564C50.9528 3.47538 51.0032 3.42512 51.0536 3.40836C51.1041 3.39161 51.1713 3.39161 51.2217 3.40836C55.3235 5.13402 59.0218 7.58008 62.2494 10.6628C62.3167 10.7298 62.3335 10.8136 62.2999 10.8974C62.2494 10.9979 62.1654 11.0481 62.0813 11.0481ZM48.4312 10.6293H61.5602C58.5175 7.79788 55.0545 5.53611 51.2385 3.89423L48.4312 10.6293ZM25.8546 11.0481H11.8851C11.801 11.0481 11.7169 10.9979 11.6833 10.9141C11.6497 10.8303 11.6665 10.7466 11.7338 10.6796C14.8437 7.69736 18.4412 5.30155 22.4085 3.5759L22.7615 3.42512C22.8119 3.40836 22.8623 3.40836 22.9296 3.42512C22.98 3.44187 23.0136 3.49213 23.0473 3.54239L26.0395 10.7633C26.0732 10.8303 26.0563 10.8974 26.0227 10.9644C25.9891 10.9979 25.9219 11.0481 25.8546 11.0481ZM12.423 10.6293H25.552L22.7615 3.89423L22.5934 3.96124C18.8278 5.58637 15.4153 7.83139 12.423 10.6293ZM47.5738 10.8136C47.5234 10.8136 47.473 10.7968 47.4225 10.7466L37.5379 0.895279C37.4707 0.828263 37.4539 0.744494 37.4875 0.660724C37.5211 0.576955 37.6052 0.526693 37.6892 0.526693C42.144 0.610462 46.5148 1.49842 50.6502 3.17381C50.7006 3.19056 50.751 3.24082 50.7678 3.29109C50.7847 3.34135 50.7847 3.40836 50.7678 3.45863L47.7756 10.6796C47.7419 10.7466 47.6915 10.7968 47.6243 10.7968C47.6075 10.8136 47.5907 10.8136 47.5738 10.8136ZM38.2272 0.995802L47.5066 10.244L50.2971 3.50889C46.4307 1.96753 42.3794 1.12983 38.2272 0.995802ZM26.4094 10.8136C26.3926 10.8136 26.3757 10.8136 26.3757 10.8136C26.3085 10.7968 26.2413 10.7466 26.2244 10.6963L23.2322 3.49213C23.1817 3.39161 23.2322 3.25758 23.3498 3.22407L23.7029 3.07329C27.7374 1.49842 31.9737 0.660724 36.294 0.576955C36.378 0.576955 36.4621 0.627216 36.4957 0.710986C36.5293 0.794755 36.5125 0.878525 36.4453 0.94554L26.5775 10.7801C26.5102 10.7968 26.4598 10.8136 26.4094 10.8136ZM23.6692 3.50889L26.4766 10.244L35.756 0.995802C31.6711 1.12983 27.6533 1.96753 23.8374 3.44187L23.6692 3.50889Z" fill="#B5936C"/>
</svg>
