<svg width="82" height="132" viewBox="0 0 82 132" fill="none" xmlns="http://www.w3.org/2000/svg">
<path d="M81.6068 11.9519C81.5412 11.8525 81.4757 11.7532 81.4757 11.6208L70.5337 0.56285C70.4026 0.529743 70.3043 0.496635 70.206 0.43042H11.8265C11.6955 0.463528 11.5972 0.529743 11.4661 0.56285L0.556824 11.6208C0.524063 11.7532 0.491303 11.8525 0.425781 11.9519V120.081C0.491303 120.181 0.556824 120.313 0.556824 120.412L11.4661 131.437C11.5644 131.537 11.6955 131.57 11.8265 131.57H70.1405C70.2716 131.57 70.4026 131.537 70.5009 131.437L81.443 120.379C81.4757 120.247 81.5085 120.147 81.574 120.048V11.9519H81.6068ZM1.34308 12.8789L5.37264 15.8255V116.208L1.34308 119.154V12.8789ZM80.3946 11.8856L78.1341 13.541L76.2013 14.9647L66.93 5.79385L70.2388 1.62229L80.3946 11.8856ZM23.3255 116.572L16.9044 108.692V23.3078L23.3255 15.4282H58.707L65.1281 23.3078V108.692L58.707 116.572H23.3255ZM11.9903 20.5267L15.9216 23.374V108.593L12.1213 111.341L12.0558 65.52L11.9903 20.5267ZM16.3147 109.52L22.4737 117.068L19.9512 120.114L12.3834 112.367L16.3147 109.52ZM22.4737 14.9315L16.3147 22.4801L12.2524 19.5335L19.9512 11.7863L22.4737 14.9315ZM69.9112 112.566L62.0814 120.247L59.5261 117.068L65.6851 109.52L66.8645 110.381L69.9112 112.566ZM62.0159 11.8525L69.8129 19.5335L65.6851 22.5132L59.5261 14.9647L61.1969 12.8789L62.0159 11.8525ZM70.1733 111.606L66.0454 108.626V23.374L70.0422 20.4936L70.1078 66.1159L70.1733 111.606ZM66.3075 6.52222L75.3822 15.5275L70.5664 18.9707L62.6056 11.1242L63.9488 9.43569L66.3075 6.52222ZM61.0003 11.6208L58.707 14.468H23.3255L20.9995 11.5546L40.9835 11.5877L61.0003 11.6208ZM20.9667 120.313L23.2927 117.499H58.6743L61.0331 120.445L34.3003 120.346L20.9667 120.313ZM62.7038 121.008L64.0143 119.717L70.7302 113.162L75.415 116.506L66.4386 125.643L62.7038 121.008ZM71.1233 112.268L71.0578 65.851L71.0251 19.7984L75.6771 16.4876V115.479L75.546 115.413L71.1233 112.268ZM65.2592 6.29046L64.2764 7.54855L61.7538 10.6607L40.9835 10.6276L20.2132 10.5945L16.7078 6.22425L40.9835 6.25736L65.2592 6.29046ZM11.0402 19.8646L11.1058 66.1159L11.1713 112.036L6.35547 115.512V16.4876L6.84688 16.8518L11.0402 19.8646ZM6.61755 116.506L9.20564 114.619L11.5972 112.897L19.3287 120.843L18.0838 122.432L15.4629 125.776L10.1557 120.214L6.61755 116.506ZM16.4785 126.008L20.2132 121.273L41.2784 121.339L61.8521 121.406L62.0486 121.637L65.423 125.842L41.0163 125.908L16.4785 126.008ZM66.0454 5.33034L40.9835 5.29724L15.9216 5.26413L15.2991 4.50266L12.8093 1.35743H69.1905L66.0454 5.33034ZM15.6595 6.456L18.8373 10.4289L19.3287 11.058L11.4661 18.9707L8.22283 16.6531L6.61755 15.4944L12.4162 9.70055L15.6595 6.456ZM15.6923 126.968L40.8197 126.901L66.1437 126.835L66.7989 127.63L69.1905 130.609H12.8093L15.6923 126.968ZM70.2388 130.378L67.0283 126.372L76.2013 117.035L80.4274 120.081L70.2388 130.378ZM76.5944 116.175V15.8255L78.9204 14.137L80.6239 12.8789V119.121L78.9204 117.863L76.5944 116.175ZM11.7937 1.62229L15.0698 5.69453L11.6955 9.10461L5.83129 14.9315L1.60517 11.8856L11.7937 1.62229ZM2.03105 119.816L5.83129 117.068L14.8732 126.537L11.7937 130.411L1.63793 120.147L2.03105 119.816Z" fill="#F0F0F0"/>
<path d="M70.1734 132H11.8266C11.5973 132 11.4007 131.934 11.2042 131.768L0.229325 120.677C0.163803 120.611 0.131043 120.545 0.131043 120.445C0.131043 120.379 0.0982821 120.313 0.0655214 120.28C0.0327607 120.214 0 120.147 0 120.048V11.9518C0 11.8525 0.0327607 11.7863 0.0655214 11.7201C0.0982821 11.6539 0.131043 11.5877 0.131043 11.5546C0.131043 11.4552 0.196564 11.389 0.229325 11.3228L11.1714 0.264861C11.2369 0.198646 11.3024 0.165538 11.368 0.165538C11.4335 0.165538 11.499 0.13243 11.5645 0.0662152C11.6628 0.0331076 11.7283 0 11.8266 0H70.2062C70.2717 0 70.37 0.0331076 70.4355 0.0662152C70.501 0.0993228 70.5665 0.13243 70.632 0.165538C70.6976 0.198646 70.7631 0.231753 70.8286 0.264861L81.7707 11.3228C81.8362 11.389 81.869 11.4552 81.869 11.5214C81.869 11.5877 81.9017 11.6539 81.9345 11.7201C81.9672 11.7863 82 11.8856 82 11.9518V120.081C82 120.147 81.9672 120.247 81.9345 120.313C81.9017 120.379 81.869 120.445 81.869 120.512C81.869 120.578 81.8034 120.677 81.7707 120.71L70.8286 131.768C70.5993 131.934 70.4027 132 70.1734 132ZM0.917299 120.181L11.7611 131.139C11.7938 131.139 11.7938 131.172 11.8266 131.172H70.1406C70.1734 131.172 70.2062 131.172 70.2389 131.139L81.0499 120.181C81.0827 120.081 81.1155 120.015 81.1482 119.949V12.0512C81.1155 11.985 81.0827 11.8856 81.0499 11.8194L70.2717 0.927013C70.2062 0.893905 70.1079 0.860798 70.0423 0.82769H11.9249C11.8594 0.860798 11.7611 0.893905 11.6956 0.927013L0.917299 11.8194C0.884539 11.8856 0.851778 11.985 0.819017 12.0512V119.949C0.851778 120.015 0.884539 120.114 0.917299 120.181ZM69.1906 131.04H12.8094C12.6456 131.04 12.5146 130.941 12.4491 130.808C12.3835 130.676 12.3835 130.51 12.4818 130.378L15.3648 126.736C15.4303 126.637 15.5613 126.57 15.6924 126.57L66.1438 126.438C66.2749 126.438 66.3732 126.504 66.4714 126.603L69.5182 130.411C69.6165 130.543 69.6492 130.709 69.5837 130.841C69.4854 130.941 69.3544 131.04 69.1906 131.04ZM13.6612 130.212H68.3388L65.9473 127.233L15.8889 127.398L13.6612 130.212ZM70.2389 130.808C70.2062 130.808 70.2062 130.808 70.2389 130.808C70.1079 130.808 69.9768 130.742 69.9113 130.643L66.7008 126.637C66.5697 126.471 66.5697 126.239 66.7335 126.074L75.9065 116.737C76.0376 116.605 76.2669 116.572 76.4307 116.704L80.6568 119.75C80.7551 119.816 80.8206 119.916 80.8206 120.048C80.8206 120.181 80.7878 120.28 80.6896 120.379L70.5338 130.643C70.4355 130.775 70.3372 130.808 70.2389 130.808ZM67.5525 126.405L70.2389 129.782L79.7395 120.181L76.2014 117.631L67.5525 126.405ZM11.7611 130.808C11.6628 130.808 11.5645 130.775 11.4662 130.676L1.31043 120.412C1.21215 120.313 1.17938 120.214 1.17938 120.081C1.17938 119.949 1.24491 119.85 1.34319 119.783L5.53656 116.737C5.70036 116.605 5.92968 116.638 6.06073 116.771L15.0699 126.239C15.201 126.405 15.2337 126.637 15.1027 126.802L12.0232 130.676C12.0232 130.742 11.9249 130.808 11.7611 130.808C11.7938 130.808 11.7938 130.808 11.7611 130.808ZM2.22773 120.181L11.7283 129.782L14.2837 126.57L5.76588 117.631L2.22773 120.181C2.26049 120.147 2.26049 120.147 2.22773 120.181ZM16.4786 126.438C16.3148 126.438 16.1838 126.339 16.1183 126.206C16.0527 126.074 16.0527 125.908 16.151 125.776L19.8857 121.041C19.9513 120.942 20.0823 120.876 20.2133 120.876L61.8522 121.041C61.9832 121.041 62.0815 121.108 62.1798 121.207L62.3764 121.439L65.7507 125.643C65.849 125.776 65.8817 125.941 65.8162 126.074C65.7507 126.206 65.6197 126.305 65.4558 126.305L16.4786 126.438ZM20.3771 121.704L17.2976 125.61L64.5386 125.478L61.6556 121.869L20.3771 121.704ZM15.4303 126.173C15.332 126.173 15.201 126.14 15.1354 126.041L6.29005 116.771C6.19177 116.671 6.15901 116.572 6.19177 116.439C6.19177 116.307 6.25729 116.208 6.35557 116.141L11.368 112.566C11.5318 112.433 11.7611 112.467 11.8921 112.599L19.6237 120.545C19.7547 120.71 19.7875 120.942 19.6564 121.108L15.7579 126.041C15.6924 126.107 15.5613 126.173 15.4303 126.173C15.463 126.173 15.4303 126.173 15.4303 126.173ZM7.24011 116.572L15.4303 125.147L18.8046 120.876L11.5645 113.427L7.24011 116.572ZM66.4059 126.041C66.2749 126.041 66.1438 125.974 66.0783 125.875L62.3436 121.24C62.2453 121.108 62.2453 120.843 62.4091 120.71L70.4355 112.864C70.5665 112.731 70.7958 112.698 70.9596 112.831L75.6444 116.175C75.7427 116.241 75.8082 116.34 75.8082 116.473C75.8082 116.605 75.7755 116.704 75.6772 116.804L66.7008 125.941C66.6352 126.008 66.5042 126.041 66.4059 126.041ZM63.2281 121.041L66.4387 125.014L74.7599 116.539L70.7303 113.658L63.2281 121.041ZM61.0659 120.876L20.9668 120.743C20.803 120.743 20.672 120.644 20.6065 120.512C20.541 120.379 20.5737 120.181 20.672 120.081L22.998 117.3C23.0635 117.201 23.1946 117.168 23.3256 117.168H58.7071C58.8382 117.168 58.9365 117.234 59.0348 117.333L61.3935 120.28C61.4918 120.412 61.5246 120.578 61.459 120.71C61.3608 120.81 61.197 120.876 61.0659 120.876ZM21.8514 119.916L60.1814 120.048L58.4778 117.929H23.4894L21.8514 119.916ZM62.0815 120.677C61.9505 120.677 61.8194 120.611 61.7539 120.512L59.1986 117.333C59.0675 117.168 59.0675 116.969 59.1986 116.804L65.3576 109.255C65.4886 109.09 65.7507 109.056 65.9145 109.189L70.1734 112.268C70.2717 112.334 70.3372 112.467 70.3372 112.566C70.3372 112.698 70.3044 112.798 70.2062 112.897L62.3764 120.578C62.3108 120.611 62.2125 120.677 62.0815 120.677ZM60.0503 117.068L62.1143 119.651L69.2888 112.632L65.7507 110.083L60.0503 117.068ZM19.9185 120.512C19.8202 120.512 19.6892 120.479 19.6237 120.379L12.0559 112.632C11.9577 112.533 11.9249 112.433 11.9249 112.301C11.9249 112.169 11.9904 112.069 12.0887 112.003L16.0527 109.189C16.2165 109.056 16.4786 109.09 16.6097 109.255L22.7687 116.804C22.8997 116.969 22.8997 117.168 22.7687 117.333L20.2461 120.379C20.1806 120.445 20.0495 120.512 19.9185 120.512C19.9513 120.512 19.9513 120.512 19.9185 120.512ZM13.006 112.4L19.9185 119.485L21.9497 117.068L16.2821 110.083L13.006 112.4ZM1.34319 119.552C1.27767 119.552 1.21215 119.552 1.14662 119.518C1.01558 119.452 0.917299 119.32 0.917299 119.154V12.8789C0.917299 12.7133 1.01558 12.5809 1.14662 12.5147C1.31043 12.4485 1.47423 12.4485 1.60527 12.5478L5.6676 15.4944C5.76588 15.5606 5.8314 15.693 5.8314 15.8254V116.208C5.8314 116.34 5.76588 116.473 5.6676 116.539L1.60527 119.485C1.50699 119.518 1.44147 119.552 1.34319 119.552ZM1.76908 13.6734V118.327L5.01238 115.976V16.0241L1.76908 13.6734ZM80.6568 119.552C80.5585 119.552 80.493 119.518 80.4275 119.485L76.3652 116.539C76.2669 116.473 76.2014 116.34 76.2014 116.208V15.8254C76.2014 15.693 76.2669 15.5606 76.3652 15.4944L80.4275 12.5478C80.5585 12.4485 80.7223 12.4485 80.8534 12.5147C80.9844 12.5809 81.0827 12.7133 81.0827 12.8789V119.121C81.0827 119.287 80.9844 119.419 80.8534 119.485C80.7879 119.518 80.7223 119.552 80.6568 119.552ZM77.0204 115.976L80.2637 118.327V13.6734L77.0204 16.0241V115.976ZM58.7071 116.969H23.3256C23.1946 116.969 23.0963 116.903 22.998 116.804L16.5769 108.924C16.5114 108.858 16.4786 108.758 16.4786 108.659V23.3078C16.4786 23.2084 16.5114 23.1091 16.5769 23.0429L22.998 15.1633C23.0635 15.064 23.1946 14.9977 23.3256 14.9977H58.7071C58.8382 14.9977 58.9365 15.064 59.0348 15.1633L65.4558 23.0429C65.4886 23.1091 65.5214 23.2084 65.5214 23.3078V108.692C65.5214 108.792 65.4886 108.891 65.4231 108.957L59.002 116.837C58.9365 116.936 58.8054 116.969 58.7071 116.969ZM23.4894 116.141H58.4778L64.6696 108.527V23.4733L58.4778 15.8585H23.4894L17.2976 23.4733V108.56L23.4894 116.141ZM75.6444 115.91C75.5789 115.91 75.4806 115.877 75.4151 115.843L75.2841 115.777L70.8941 112.632C70.7958 112.566 70.7303 112.433 70.7303 112.301L70.5993 19.7983C70.5993 19.6659 70.6648 19.5335 70.7631 19.4673L75.4151 16.1565C75.5461 16.0572 75.7099 16.0572 75.841 16.1234C75.972 16.1896 76.0703 16.322 76.0703 16.4876V115.479C76.0703 115.645 75.972 115.777 75.841 115.843C75.7755 115.91 75.7099 115.91 75.6444 115.91ZM71.5493 112.069L75.2513 114.718V17.2822L71.4183 20.0301L71.5493 112.069ZM6.35557 115.91C6.29005 115.91 6.22453 115.91 6.15901 115.877C6.02797 115.81 5.92968 115.678 5.92968 115.512V16.4876C5.92968 16.322 6.02797 16.1896 6.15901 16.1234C6.29005 16.0572 6.45386 16.0572 6.5849 16.1565L11.2697 19.5335C11.4007 19.5997 11.4662 19.7321 11.4662 19.8646L11.5973 112.036C11.5973 112.169 11.5318 112.301 11.4335 112.367L6.61766 115.843C6.51938 115.877 6.42109 115.91 6.35557 115.91ZM6.7487 17.2822V114.685L10.7455 111.804L10.6472 20.0632L6.7487 17.2822ZM70.1734 112.003C70.0751 112.003 70.0096 111.97 69.9441 111.937L65.8162 108.957C65.7179 108.891 65.6524 108.758 65.6524 108.626V23.374C65.6524 23.2415 65.7179 23.1091 65.8162 23.0429L69.813 20.1625C69.9441 20.0632 70.1079 20.0632 70.2389 20.1294C70.37 20.1956 70.4682 20.3281 70.4682 20.4936L70.5993 111.606C70.5993 111.771 70.501 111.904 70.37 111.97C70.3044 112.003 70.2389 112.003 70.1734 112.003ZM66.4714 108.394L69.7803 110.778L69.6492 21.2882L66.4714 23.5726V108.394ZM12.1215 111.771C12.0559 111.771 11.9904 111.771 11.9249 111.738C11.7938 111.672 11.6956 111.54 11.6956 111.374L11.5973 20.5267C11.5973 20.3612 11.6956 20.2287 11.8266 20.1625C11.9577 20.0963 12.1215 20.0963 12.2197 20.1956L16.151 23.0429C16.2493 23.1091 16.3148 23.2415 16.3148 23.374V108.593C16.3148 108.725 16.2493 108.858 16.151 108.924L12.318 111.639C12.2853 111.738 12.2197 111.771 12.1215 111.771ZM12.4163 21.3544L12.5473 110.546L15.5613 108.394V23.6057L12.4163 21.3544ZM16.3148 22.9105C16.2165 22.9105 16.151 22.8774 16.0855 22.8442L12.0232 19.8977C11.9249 19.7983 11.8594 19.699 11.8594 19.5666C11.8594 19.4342 11.8921 19.3348 11.9904 19.2355L19.6564 11.5214C19.7547 11.4221 19.8202 11.389 19.984 11.389C20.1151 11.389 20.2133 11.4552 20.2789 11.5546L22.8014 14.6998C22.9325 14.8322 22.9325 15.064 22.8014 15.1964L16.6424 22.7449C16.5769 22.8442 16.4459 22.9105 16.3148 22.9105ZM12.875 19.5004L16.2493 21.9503L21.9497 14.9315L19.9185 12.4153L12.875 19.5004ZM65.6852 22.9105C65.5541 22.9105 65.4559 22.8442 65.3576 22.7449L59.1986 15.1964C59.0675 15.0309 59.0675 14.8322 59.1986 14.6667L61.6884 11.5546C61.7539 11.4552 61.8522 11.4221 61.9832 11.389C62.1143 11.389 62.2125 11.4221 62.2781 11.5214L70.0751 19.2024C70.1734 19.3017 70.2062 19.4011 70.2062 19.5335C70.2062 19.6659 70.1406 19.7652 70.0423 19.8315L65.9145 22.8111C65.849 22.8774 65.7507 22.9105 65.6852 22.9105ZM60.0503 14.9315L65.7507 21.9172L69.1578 19.4342L62.0487 12.4153L60.0503 14.9315ZM11.4662 19.4011C11.368 19.4011 11.3024 19.3679 11.2369 19.3348L6.38833 15.8585C6.29005 15.7592 6.22453 15.6599 6.19177 15.5275C6.19177 15.395 6.22453 15.2957 6.32281 15.1964L15.3975 6.15801C15.4958 6.0918 15.6268 6.02558 15.6924 6.02558C15.8234 6.02558 15.9217 6.0918 15.9872 6.19112L19.6564 10.7931C19.7875 10.9586 19.7875 11.1904 19.6237 11.3559L11.7283 19.3017C11.6956 19.3679 11.5645 19.4011 11.4662 19.4011ZM7.24011 15.4612L11.4335 18.4409L18.8046 11.0248L15.6268 7.08503L7.24011 15.4612ZM70.5993 19.3679C70.501 19.3679 70.4027 19.3348 70.3044 19.2355L62.3436 11.389C62.1798 11.2566 62.1798 10.9917 62.3108 10.8262L65.98 6.25734C66.0455 6.15801 66.1438 6.12491 66.2749 6.0918C66.3732 6.0918 66.5042 6.12491 66.5697 6.22423L75.6772 15.2295C75.7755 15.3288 75.8082 15.4281 75.8082 15.5606C75.8082 15.693 75.7427 15.7923 75.6444 15.8585L70.8286 19.3017C70.7631 19.3348 70.6648 19.3679 70.5993 19.3679ZM63.1626 11.0579L70.632 18.4078L74.7599 15.4612L66.3404 7.11813L63.1626 11.0579ZM76.1686 15.3619C76.0703 15.3619 75.972 15.3288 75.8737 15.2295L66.6025 6.05869C66.4387 5.89315 66.4387 5.6614 66.5697 5.49586L69.9113 1.3243C69.9768 1.22498 70.1079 1.19187 70.2062 1.15877C70.2062 1.15877 70.2062 1.15877 70.2389 1.15877C70.3372 1.15877 70.4355 1.19187 70.5338 1.2912L80.6896 11.5546C80.7878 11.6539 80.8206 11.7532 80.8206 11.8856C80.8206 12.0181 80.7551 12.1174 80.6568 12.1836L76.4307 15.2295C76.3324 15.3288 76.2669 15.3619 76.1686 15.3619ZM67.4543 5.72761L76.2014 14.4018L79.7395 11.8194L70.2389 2.21821L67.4543 5.72761ZM5.8314 15.3619C5.73312 15.3619 5.6676 15.3288 5.60208 15.2957L1.37595 12.2167C1.27767 12.1505 1.21215 12.0512 1.21215 11.9187C1.21215 11.7863 1.24491 11.687 1.31043 11.5877L11.4662 1.3243C11.5645 1.25809 11.63 1.22498 11.7938 1.19187C11.9249 1.19187 12.0232 1.25809 12.0887 1.35741L15.3975 5.46275C15.5286 5.62829 15.5286 5.86005 15.3648 6.02558L6.12625 15.2295C6.02797 15.3288 5.92968 15.3619 5.8314 15.3619ZM2.22773 11.8194L5.76588 14.4018L14.513 5.6614L11.7283 2.21821L2.22773 11.8194ZM58.7071 14.8653H23.3256C23.1946 14.8653 23.0963 14.7991 22.998 14.6998L20.672 11.8194C20.5737 11.687 20.541 11.5214 20.6065 11.389C20.672 11.2566 20.8358 11.1573 20.9996 11.1573L61.0004 11.1904C61.1642 11.1904 61.2952 11.2897 61.3608 11.4221C61.4263 11.5546 61.3935 11.7532 61.2952 11.8525L59.002 14.6998C58.9365 14.8322 58.8054 14.8653 58.7071 14.8653ZM23.4894 14.0376H58.4778L60.1159 12.0181L21.8514 11.985L23.4894 14.0376ZM61.7539 11.0579L20.2133 11.0248C20.0823 11.0248 19.984 10.9586 19.8857 10.8593L16.3803 6.48909C16.2821 6.35666 16.2493 6.19112 16.3148 6.05869C16.4131 5.89315 16.5441 5.79383 16.708 5.79383L65.2593 5.86004C65.4231 5.86004 65.5541 5.95937 65.6197 6.0918C65.6852 6.22423 65.6524 6.42287 65.5541 6.5222L62.0815 10.9255C61.9832 11.0248 61.8849 11.0579 61.7539 11.0579ZM20.4099 10.1971L61.5573 10.2634L64.4075 6.72084L17.5597 6.65463L20.4099 10.1971ZM66.0455 5.72761L15.9217 5.69451C15.7907 5.69451 15.6924 5.62829 15.5941 5.52897L12.4818 1.62227C12.3835 1.52295 12.3835 1.3243 12.4491 1.19187C12.5146 1.05944 12.6784 0.96012 12.8094 0.96012H69.1906C69.3544 0.96012 69.4854 1.05944 69.5509 1.19187C69.6165 1.3243 69.5837 1.48984 69.4854 1.62227L66.3076 5.56208C66.2749 5.69451 66.1438 5.72761 66.0455 5.72761ZM16.1183 4.86682L65.849 4.89992L68.3388 1.78781H13.6612L16.1183 4.86682Z" fill="#F0F0F0"/>
</svg>
