<svg width="130" height="130" viewBox="0 0 130 130" fill="none" xmlns="http://www.w3.org/2000/svg">
<path d="M64.9844 129.596C29.3578 129.596 0.372314 100.611 0.372314 65.0154C0.372314 29.3888 29.3578 0.40332 64.9844 0.40332C100.611 0.40332 129.596 29.3888 129.596 65.0154C129.596 100.611 100.611 129.596 64.9844 129.596ZM64.9844 1.70673C30.1026 1.70673 1.70676 30.1025 1.70676 65.0154C1.70676 99.8972 30.1026 128.293 64.9844 128.293C99.8973 128.293 128.262 99.8972 128.262 65.0154C128.293 30.1025 99.8973 1.70673 64.9844 1.70673Z" fill="#F0F0F0"/>
<path d="M64.9845 130C29.1406 130 0 100.828 0 65.0155C0 29.1716 29.1406 0 64.9845 0C100.828 0 129.969 29.1716 129.969 65.0155C130 100.828 100.828 130 64.9845 130ZM64.9845 0.775841C29.5751 0.775841 0.775841 29.5751 0.775841 65.0155C0.775841 100.425 29.5751 129.224 64.9845 129.224C100.394 129.224 129.193 100.425 129.193 65.0155C129.224 29.5751 100.394 0.775841 64.9845 0.775841ZM64.9845 128.666C29.8854 128.666 1.30341 100.115 1.30341 65.0155C1.30341 29.8854 29.8544 1.33445 64.9845 1.33445C100.084 1.33445 128.666 29.9164 128.666 65.0155C128.666 100.115 100.115 128.666 64.9845 128.666ZM64.9845 2.07926C30.3199 2.07926 2.11029 30.3199 2.11029 65.0155C2.11029 99.6801 30.3199 127.89 65.0155 127.89C99.7112 127.89 127.921 99.6801 127.921 65.0155C127.89 30.3199 99.6801 2.07926 64.9845 2.07926Z" fill="#F0F0F0"/>
<path d="M82.2702 94.4975L47.8539 94.4664L25.8821 88.8804L31.1888 66.9085L47.4815 36.2162L64.1155 18.3098L83.1082 36.3404L99.1215 63.0604L106.135 88.1976L82.2702 94.4975ZM27.4338 87.9183L47.978 93.163H82.053L104.459 87.2356L97.8181 63.4638L81.9599 37.0541L64.1466 20.1718L48.4746 37.0541L32.3681 67.4671L27.4338 87.9183Z" fill="#F0F0F0"/>
<path d="M82.2702 94.901L47.8539 94.87L25.7579 89.2529C25.5407 89.1908 25.4166 89.0046 25.4786 88.7874L30.7854 66.8156C30.7854 66.7845 30.8164 66.7535 30.8164 66.7225L47.1091 36.0302C47.1091 35.9991 47.1401 35.9681 47.1711 35.9371L63.8052 18.0306C63.8673 17.9686 63.9604 17.9065 64.0845 17.9065C64.1776 17.9065 64.2707 17.9375 64.3638 17.9996L83.3564 36.0302C83.3874 36.0612 83.4185 36.0922 83.4185 36.1233L99.4318 62.8432C99.4629 62.8743 99.4629 62.9053 99.4629 62.9363L106.476 88.0736C106.507 88.1667 106.476 88.2908 106.445 88.3839C106.383 88.4771 106.321 88.5391 106.197 88.5702L82.3323 94.87C82.3323 94.901 82.3012 94.901 82.2702 94.901ZM26.3165 88.6012L47.916 94.0941H82.1771L105.608 87.9184L98.718 63.2156L82.7357 36.5888L64.0535 18.8685L47.7298 36.4646L31.4992 67.0638L26.3165 88.6012ZM82.084 93.5666H48.0091L27.3406 88.2908C27.1234 88.2288 26.9993 88.0426 27.0613 87.8253L31.9647 67.3742C31.9647 67.3431 31.9957 67.3121 31.9957 67.2811L48.1022 36.8681C48.1022 36.837 48.1332 36.806 48.1642 36.775L63.8362 19.8926C63.8983 19.8306 64.0224 19.8306 64.1155 19.7685C64.2086 19.7685 64.3017 19.7995 64.3948 19.8616L82.2392 36.775C82.2702 36.806 82.3012 36.837 82.3012 36.8681L98.1594 63.2777C98.1905 63.3087 98.1905 63.3398 98.1905 63.3708L104.832 87.1426C104.863 87.2357 104.832 87.3598 104.801 87.4529C104.739 87.546 104.677 87.6081 104.552 87.6391L82.1461 93.5666C82.1461 93.5666 82.115 93.5666 82.084 93.5666ZM27.8992 87.6391L48.1022 92.7907H82.0219L103.994 86.9874L97.4767 63.6501L81.6806 37.3336L64.1466 20.7306L48.7849 37.2715L32.7095 67.5914L27.8992 87.6391Z" fill="#F0F0F0"/>
<path d="M66.1639 112.218L47.2333 94.1871L31.1579 67.4361L24.1443 42.3299L47.885 36.03L82.7979 36.0611L104.428 41.6471L99.1526 63.5569L82.7358 94.4974L66.1639 112.218ZM48.2885 93.4423L66.1018 110.356L81.6807 93.6595L97.9113 63.0293L102.815 42.6092L82.5186 37.3645L47.9471 37.3334L25.758 43.2609L32.3992 67.0016L48.2885 93.4423Z" fill="#F0F0F0"/>
<path d="M66.1639 112.59C66.0708 112.59 65.9777 112.559 65.8846 112.497L46.9541 94.4665C46.923 94.4355 46.892 94.4044 46.892 94.3734L30.7855 67.6534C30.7545 67.6224 30.7545 67.5914 30.7545 67.5603L23.7409 42.4541C23.7098 42.361 23.7409 42.2369 23.7719 42.1437C23.834 42.0506 23.896 41.9886 24.0202 41.9575L47.7609 35.6577C47.792 35.6577 47.823 35.6577 47.854 35.6577L82.7669 35.6887C82.7979 35.6887 82.829 35.6887 82.86 35.6887L104.49 41.2748C104.708 41.3369 104.832 41.5231 104.77 41.7403L99.4941 63.6501C99.4941 63.6811 99.463 63.7121 99.463 63.7432L83.0462 94.6837C83.0462 94.7148 83.0152 94.7458 82.9841 94.7768L66.4432 112.497C66.3501 112.559 66.257 112.621 66.1639 112.59ZM47.5127 93.9389L66.1329 111.659L82.3945 94.2493L98.7492 63.4018L103.932 41.9265L82.7359 36.4646L47.9161 36.4336L24.5788 42.6093L31.4683 67.312L47.5127 93.9389ZM66.1018 110.728C66.0087 110.728 65.9156 110.697 65.8225 110.635L48.0092 93.7217C47.9782 93.6907 47.9471 93.6596 47.9471 93.6286L32.0269 67.1879C31.9958 67.1569 31.9958 67.1258 31.9958 67.0948L25.3546 43.3541C25.3236 43.261 25.3546 43.1368 25.3857 43.0437C25.4167 42.9506 25.5098 42.8886 25.6339 42.8575L47.854 36.9301C47.8851 36.9301 47.9161 36.9301 47.9471 36.9301L82.5186 36.9611C82.5497 36.9611 82.5807 36.9611 82.6117 36.9611L102.908 42.2058C103.125 42.2679 103.249 42.4541 103.187 42.6713L98.2837 63.0915C98.2837 63.1225 98.2527 63.1535 98.2527 63.1846L82.0221 93.8148C82.0221 93.8458 81.9911 93.8769 81.96 93.9079L66.3811 110.604C66.3191 110.666 66.1949 110.728 66.1018 110.728ZM48.5988 93.1941L66.0708 109.797L81.3394 93.4114L97.5389 62.8742L102.318 42.8886L82.4566 37.768L47.9782 37.737L26.1925 43.5403L32.7096 66.8465L48.5988 93.1941Z" fill="#F0F0F0"/>
<path d="M36.1232 122.242L25.4786 88.8184L0.806885 68.3983L1.27239 67.9017L24.2683 42.0197L29.7303 11.3274L63.8362 18.2479L94.1251 7.82056L104.521 41.5231L129.193 61.9433L106.135 87.9184L100.394 118.456L66.1638 112.218L36.1232 122.242ZM2.69994 68.2741L26.6269 88.0736L26.689 88.2598L36.9921 120.597L66.0707 110.914L99.3387 116.997L104.894 87.3909L127.3 62.1605L103.373 42.361L93.2561 9.52741L63.9293 19.6444L63.7431 19.6133L30.7854 12.9101L25.4786 42.6403L25.3545 42.7645L2.69994 68.2741Z" fill="#F0F0F0"/>
<path d="M36.1233 122.645C36.0612 122.645 35.9991 122.645 35.9371 122.614C35.844 122.552 35.7819 122.49 35.7509 122.397L25.1374 89.0356L0.558705 68.7085C0.465604 68.6465 0.43457 68.5534 0.43457 68.4292C0.43457 68.3361 0.465604 68.212 0.527671 68.1499L0.993176 67.6534L23.9271 41.8644L29.389 11.2963C29.3579 11.1721 29.42 11.079 29.4821 11.017C29.5752 10.9549 29.6993 10.9239 29.7924 10.9549L63.8053 17.8754L94.0011 7.47912C94.0942 7.44809 94.2183 7.44809 94.3114 7.51016C94.4045 7.57223 94.4666 7.63429 94.4976 7.72739L104.863 41.3058L129.442 61.6329C129.535 61.6949 129.566 61.788 129.566 61.9122C129.566 62.0053 129.535 62.1294 129.473 62.1915L106.477 88.0735L100.766 118.518C100.735 118.735 100.549 118.859 100.301 118.828L66.1639 112.59L36.2164 122.552C36.2164 122.614 36.1854 122.645 36.1233 122.645ZM1.36558 68.3672L25.727 88.508C25.7891 88.5701 25.8201 88.6321 25.8511 88.6942L36.3716 121.745L66.0397 111.876C66.1018 111.845 66.1639 111.845 66.2259 111.876L100.084 118.052L105.732 87.8873C105.732 87.8253 105.763 87.7632 105.825 87.7011L128.604 62.0363L104.242 41.8955C104.18 41.8334 104.149 41.7713 104.118 41.7093L93.8769 8.34807L63.9605 18.6512C63.8984 18.6823 63.8363 18.6823 63.7432 18.6512L30.0407 11.7928L24.6408 42.0817C24.6408 42.1437 24.6098 42.2058 24.5477 42.2679L1.36558 68.3672ZM36.9922 120.969C36.9302 120.969 36.8681 120.969 36.806 120.938C36.7129 120.876 36.6509 120.814 36.6198 120.721L26.2856 88.2908L2.45176 68.5844C2.35866 68.5223 2.32762 68.4292 2.32762 68.3051C2.32762 68.212 2.35866 68.0879 2.42072 68.0258L25.1374 42.4541L30.4131 12.8479C30.4131 12.7238 30.4752 12.6307 30.5683 12.5686C30.6614 12.5066 30.7545 12.4755 30.8476 12.5066L63.8984 19.2409L93.1321 9.18598C93.2252 9.15494 93.3494 9.15494 93.4425 9.21701C93.5356 9.27908 93.5976 9.34114 93.6287 9.43425L103.684 42.1127L127.517 61.8191C127.611 61.8811 127.642 61.9742 127.642 62.0984C127.642 62.1915 127.611 62.3156 127.548 62.3777L105.235 87.5149L99.7113 117.028C99.6802 117.245 99.494 117.4 99.2458 117.338L66.0708 111.287L37.0853 120.938C37.0543 120.969 37.0233 120.969 36.9922 120.969ZM3.25863 68.212L26.8752 87.7322C26.9373 87.7942 26.9684 87.8563 26.9994 87.9184L27.0615 88.1046L37.2405 120.069L65.9466 110.511C66.0087 110.48 66.0708 110.48 66.1328 110.511L99.0285 116.5L104.521 87.2667C104.521 87.2046 104.553 87.1425 104.615 87.0805L126.742 62.1604L103.125 42.6403C103.063 42.5782 103.032 42.5161 103.001 42.4541L93.008 10.0239L64.0536 19.9857C63.9915 20.0167 63.9294 20.0167 63.8363 19.9857L63.6501 19.9547L31.0958 13.3445L25.8822 42.6713C25.8822 42.7334 25.8511 42.7954 25.7891 42.8575L25.6649 42.9816L3.25863 68.212Z" fill="#F0F0F0"/>
<path d="M9.07795 34.8321L8.56714 36.0312L24.0989 42.6474L24.6097 41.4483L9.07795 34.8321Z" fill="#F0F0F0"/>
<path d="M24.1132 43.0126C24.0512 43.0126 24.0201 43.0126 23.9581 42.9816L8.41021 36.3714C8.22401 36.2783 8.13091 36.0611 8.19298 35.8749L8.72055 34.6646C8.75158 34.5715 8.84468 34.5094 8.93779 34.4473C9.03089 34.4163 9.15502 34.4163 9.24812 34.4473L24.796 41.0575C24.9822 41.1506 25.0753 41.3679 25.0132 41.5541L24.4856 42.7644C24.4546 42.8575 24.3615 42.9195 24.2684 42.9816C24.2063 43.0126 24.1443 43.0126 24.1132 43.0126ZM9.06192 35.8128L23.896 42.1437L24.1132 41.6472L9.27916 35.3163L9.06192 35.8128Z" fill="#F0F0F0"/>
<path d="M64.3327 1.11719H62.9983V18.5891H64.3327V1.11719Z" fill="#F0F0F0"/>
<path d="M64.3018 18.9927H62.9674C62.7501 18.9927 62.595 18.8065 62.595 18.6203V1.11728C62.595 0.900041 62.7812 0.744873 62.9674 0.744873H64.3018C64.5191 0.744873 64.6742 0.931075 64.6742 1.11728V18.6203C64.7053 18.8375 64.5191 18.9927 64.3018 18.9927ZM63.3708 18.2168H63.9294V1.52071H63.3708V18.2168Z" fill="#F0F0F0"/>
<path d="M118.753 31.212L103.753 40.9924L104.482 42.1103L119.482 32.3298L118.753 31.212Z" fill="#F0F0F0"/>
<path d="M104.459 42.4851C104.335 42.4851 104.211 42.4231 104.149 42.2989L103.435 41.1817C103.373 41.0886 103.373 40.9955 103.373 40.9024C103.404 40.8093 103.466 40.7162 103.528 40.6542L118.518 30.8785C118.704 30.7544 118.952 30.8165 119.045 31.0027L119.759 32.1199C119.821 32.213 119.821 32.3061 119.821 32.3992C119.79 32.4923 119.728 32.5854 119.666 32.6475L104.677 42.4231C104.615 42.4851 104.553 42.4851 104.459 42.4851ZM104.273 41.1197L104.584 41.5852L118.921 32.244L118.611 31.7785L104.273 41.1197Z" fill="#F0F0F0"/>
<path d="M9.96198 97.8182L9.34131 96.6389L25.5098 88.2288L26.1305 89.377L9.96198 97.8182Z" fill="#F0F0F0"/>
<path d="M9.96195 98.2215C9.83781 98.2215 9.68264 98.1594 9.62058 98.0043L8.9999 96.825C8.93784 96.7319 8.93784 96.6388 8.96887 96.5146C8.9999 96.4215 9.06197 96.3284 9.15507 96.2974L25.3236 87.8562C25.5098 87.7631 25.7581 87.8252 25.8512 88.0114L26.4719 89.1907C26.5339 89.2838 26.5339 89.3769 26.5029 89.501C26.4719 89.5941 26.4098 89.6872 26.3167 89.7183L10.1481 98.1594C10.0861 98.1905 10.024 98.2215 9.96195 98.2215ZM9.86885 96.825L10.1171 97.3215L25.6029 89.2528L25.3546 88.7562L9.86885 96.825Z" fill="#F0F0F0"/>
<path d="M66.9538 111.664L65.6255 111.792L67.2743 128.905L68.6026 128.777L66.9538 111.664Z" fill="#F0F0F0"/>
<path d="M67.2812 129.317C67.1881 129.317 67.0949 129.286 67.0329 129.224C66.9398 129.162 66.9087 129.069 66.9087 128.976L65.264 111.845C65.2329 111.628 65.3881 111.442 65.6053 111.411L66.9087 111.287C67.0018 111.256 67.126 111.318 67.188 111.38C67.2811 111.442 67.3122 111.535 67.3122 111.628L68.957 128.759C68.988 128.976 68.8328 129.162 68.6156 129.193L67.3122 129.317C67.2812 129.317 67.2812 129.317 67.2812 129.317ZM66.0398 112.156L67.6225 128.511L68.1501 128.448L66.5674 112.094L66.0398 112.156Z" fill="#F0F0F0"/>
<path d="M120.628 96.1734L105.452 88.5702L106.042 87.3909L121.218 94.9941L120.628 96.1734Z" fill="#F0F0F0"/>
<path d="M120.628 96.5768C120.566 96.5768 120.504 96.5768 120.442 96.5457L105.266 88.9425C105.08 88.8494 104.987 88.6011 105.08 88.4149L105.67 87.2356C105.732 87.1425 105.794 87.0805 105.887 87.0494C105.98 87.0184 106.104 87.0184 106.166 87.0805L121.342 94.6837C121.528 94.7768 121.621 95.0251 121.528 95.2113L120.938 96.3906C120.876 96.4837 120.814 96.5457 120.721 96.5768C120.721 96.5457 120.659 96.5768 120.628 96.5768ZM105.949 88.3839L120.442 95.6458L120.69 95.1492L106.197 87.8873L105.949 88.3839Z" fill="#F0F0F0"/>
</svg>
