<svg width="66" height="133" viewBox="0 0 66 133" fill="none" xmlns="http://www.w3.org/2000/svg">
<path d="M65.6612 132.662H0.366943V0.337646H65.6612V132.662ZM1.55257 131.452H64.4474V1.54776H1.55257V131.452Z" fill="#F0F0F0"/>
<path d="M65.6612 133H0.338751C0.169376 133 0 132.831 0 132.662V0.337706C0 0.168853 0.169376 0 0.338751 0H65.633C65.8306 0 65.9718 0.168853 65.9718 0.337706V132.634C66 132.831 65.8589 133 65.6612 133ZM0.705731 132.296H65.2943V0.703555H0.705731V132.296ZM64.4474 131.818H1.55261C1.355 131.818 1.21386 131.649 1.21386 131.48V1.54782C1.21386 1.35083 1.38323 1.21011 1.55261 1.21011H64.4474C64.645 1.21011 64.7861 1.37897 64.7861 1.54782V131.452C64.8144 131.649 64.645 131.818 64.4474 131.818ZM1.91959 131.114H64.1086V1.88553H1.91959V131.114Z" fill="#F0F0F0"/>
<path d="M49.3166 115.58H16.6836V17.4481H49.3448V115.58H49.3166ZM17.8692 114.37H48.1028V18.6301H17.8692V114.37Z" fill="#F0F0F0"/>
<path d="M49.3165 115.918H16.6835C16.4859 115.918 16.3447 115.749 16.3447 115.58V17.4482C16.3447 17.2512 16.5141 17.1105 16.6835 17.1105H49.3447C49.5423 17.1105 49.6835 17.2793 49.6835 17.4482V115.58C49.6835 115.749 49.5141 115.918 49.3165 115.918ZM17.0222 115.214H48.9778V17.7859H17.0222V115.214ZM48.1309 114.736H17.8691C17.6715 114.736 17.5304 114.567 17.5304 114.398V18.6302C17.5304 18.4332 17.6997 18.2924 17.8691 18.2924H48.1026C48.3003 18.2924 48.4414 18.4613 48.4414 18.6302V114.37C48.4696 114.567 48.3285 114.736 48.1309 114.736ZM18.2361 114.032H47.7639V18.996H18.2361V114.032Z" fill="#F0F0F0"/>
<path d="M1.26436 0.5884L0.390137 1.42786L16.8787 18.4935L17.7529 17.6541L1.26436 0.5884Z" fill="#F0F0F0"/>
<path d="M16.881 18.8553C16.7963 18.8553 16.6834 18.8272 16.627 18.7428L0.141084 1.68859C0.0846257 1.60417 0.0563965 1.51974 0.0563965 1.43531C0.0563965 1.35089 0.0846257 1.26646 0.169314 1.18203L1.04442 0.365909C1.18557 0.225198 1.4114 0.225198 1.55255 0.365909L18.0384 17.4201C18.0667 17.4764 18.0949 17.5608 18.0949 17.6734C18.0949 17.7859 18.0667 17.8422 17.982 17.9266L17.1351 18.7428C17.0504 18.799 16.9657 18.8553 16.881 18.8553ZM0.903274 1.43531L16.9093 17.9829L17.2762 17.6452L1.27025 1.09761L0.903274 1.43531Z" fill="#F0F0F0"/>
<path d="M64.2089 0.594488L47.7322 17.672L48.607 18.5108L65.0837 1.43334L64.2089 0.594488Z" fill="#F0F0F0"/>
<path d="M48.5827 18.8553C48.498 18.8553 48.4133 18.8271 48.3286 18.7708L47.4535 17.9547C47.397 17.8984 47.3406 17.814 47.3406 17.7014C47.3406 17.5889 47.3688 17.5044 47.4535 17.4482L63.9394 0.393985C64.0805 0.253274 64.3064 0.253274 64.4475 0.393985L65.3226 1.21011C65.3791 1.26639 65.4355 1.35082 65.4355 1.46339C65.4355 1.57596 65.4073 1.66038 65.3226 1.71667L48.8367 18.7427C48.7803 18.799 48.6956 18.8553 48.5827 18.8553ZM48.2157 17.6451L48.5827 17.9829L64.5886 1.43525L64.2217 1.09754L48.2157 17.6451Z" fill="#F0F0F0"/>
<path d="M16.8854 114.25L0.408691 131.328L1.28352 132.167L17.7602 115.089L16.8854 114.25Z" fill="#F0F0F0"/>
<path d="M1.27041 132.522C1.18572 132.522 1.10103 132.494 1.01634 132.437L0.141237 131.621C0.0847788 131.565 0.0283203 131.48 0.0283203 131.368C0.0283203 131.255 0.0565496 131.171 0.141237 131.115L16.6271 114.06C16.7683 113.92 16.9941 113.92 17.1353 114.06L18.0104 114.876C18.0668 114.933 18.1233 115.017 18.1233 115.13C18.1233 115.242 18.095 115.327 18.0104 115.383L1.52447 132.437C1.43978 132.465 1.3551 132.522 1.27041 132.522ZM0.903427 131.312L1.27041 131.649L17.2764 115.102L16.9094 114.764L0.903427 131.312Z" fill="#F0F0F0"/>
<path d="M48.5937 114.242L47.7195 115.082L64.2081 132.147L65.0823 131.308L48.5937 114.242Z" fill="#F0F0F0"/>
<path d="M64.2215 132.522C64.1368 132.522 64.0239 132.493 63.9675 132.409L47.4816 115.355C47.4251 115.299 47.3687 115.186 47.3687 115.102C47.3687 115.017 47.3969 114.933 47.4816 114.848L48.3567 114.032C48.4978 113.891 48.7237 113.891 48.8648 114.032L65.3507 131.086C65.4071 131.143 65.4636 131.255 65.4636 131.34C65.4636 131.424 65.4354 131.508 65.3507 131.593L64.4756 132.409C64.3909 132.465 64.3062 132.522 64.2215 132.522ZM48.2155 115.102L64.2215 131.649L64.5885 131.311L48.5825 114.764L48.2155 115.102Z" fill="#F0F0F0"/>
</svg>
