<svg width="137" height="137" viewBox="0 0 137 137" fill="none" xmlns="http://www.w3.org/2000/svg">
<path d="M15.2981 90.6942C27.2412 119.568 61.145 134.005 90.2492 122.584L91.2538 122.165L92.2583 121.746C113.215 112.587 127.111 91.3923 127.139 68.4944C127.167 68.4385 127.167 68.3548 127.139 68.2989C127.083 50.0922 118.321 32.6954 103.755 21.8049C87.8215 9.88117 66.3073 7.06081 47.8067 14.3211L46.7742 14.7121L45.7697 15.103C17.1956 27.6131 3.29924 61.7925 15.2981 90.6942ZM15.9957 46.9647L18.4792 47.9979L27.4365 51.7118L21.5208 57.6318L11.838 67.3216C11.9775 60.2567 13.3727 53.4432 15.9957 46.9647ZM86.5938 108.761L90.2492 99.9093L93.235 92.6769L109.308 86.003V108.761H86.5938ZM69.014 125.46L62.5681 119.01L52.9411 109.376L69.014 102.73L78.5573 106.695L85.0869 109.404L75.4599 119.037L69.014 125.46ZM12.0054 68.4385L18.4513 61.988L28.0783 52.3541L34.7474 68.4385L33.0453 72.5713L28.0783 84.523L18.4513 74.8891L12.0054 68.4385ZM28.8596 85.0814L33.0732 74.917L35.2497 69.6672L39.7702 80.5856L44.2907 91.5041L40.3841 89.8844L28.8596 85.0814ZM39.7702 56.3194L35.2497 67.2099L28.8596 51.7677L44.2907 45.373L39.7702 56.3194ZM35.752 68.4385L40.6074 56.6545L45.4906 44.8983L69.014 35.1527L80.7896 40.0395L92.5374 44.9262L102.276 68.4665L92.5374 92.0067L69.014 101.752L57.2384 96.8655L45.4627 91.9788L42.5328 84.9139L35.752 68.4385ZM81.1245 39.1459L70.2139 34.6221L85.645 28.2275L92.0351 43.6696L81.1245 39.1459ZM102.778 69.6393L109.168 85.0814L93.7373 91.4761L102.778 69.6393ZM56.9035 97.7033L67.8141 102.227L52.383 108.622L45.9929 93.1795L56.9035 97.7033ZM98.2578 56.3194L93.7373 45.4009L109.168 51.7956L102.778 67.2378L98.2578 56.3194ZM45.9929 43.6696L52.383 28.2275L67.8141 34.6221L45.9929 43.6696ZM70.2418 102.227L92.063 93.1795L85.6729 108.622L85.059 108.37L70.2418 102.227ZM27.7714 86.0309V108.091C22.916 103.037 19.0652 97.2006 16.3306 90.778L27.7714 86.0309ZM28.7201 86.0309L40.5516 90.9456L44.793 92.7048L51.4622 108.789H28.7201V86.0309ZM103.281 68.4385L109.95 52.3541L126.023 68.4385L109.95 84.523L103.281 68.4385ZM110.257 50.8462V28.786C115.14 33.8403 118.963 39.6765 121.697 46.127L110.257 50.8462ZM109.308 50.8462L93.235 44.2002L86.5658 28.1158H109.28V50.8462H109.308ZM85.0869 27.4735L69.014 34.1474L63.5168 31.8576L52.9411 27.4735L69.014 11.3891L75.4599 17.8396L85.0869 27.4735ZM46.1603 40.8493L44.793 44.1723L28.7201 50.8183V28.0878H51.4343L46.1603 40.8493ZM21.5208 79.2453L27.4365 85.1652L15.9957 89.9124C13.3727 83.4339 11.9775 76.5924 11.838 69.5555L21.5208 79.2453ZM51.4343 109.683L46.6905 121.132C40.2446 118.395 34.4405 114.542 29.3619 109.683H51.4343ZM47.5556 121.495L52.2993 110.046L58.215 115.966L67.8978 125.656C60.8659 125.516 54.0294 124.12 47.5556 121.495ZM89.9144 121.718C83.608 124.203 76.9389 125.516 70.1581 125.656L79.8409 115.966L85.7566 110.046L90.5004 121.495L89.9144 121.718ZM91.8956 120.88L91.3096 121.132L86.5938 109.683H108.638C103.755 114.402 98.1183 118.172 91.8956 120.88ZM110.229 86.0309L121.67 90.778C118.935 97.2285 115.084 103.037 110.229 108.091V86.0309ZM122.032 89.9124L110.592 85.1652L126.19 69.5555C126.051 76.5924 124.655 83.4339 122.032 89.9124ZM110.592 51.6839L122.032 46.9368C124.655 53.4152 126.051 60.2567 126.19 67.2936L110.592 51.6839ZM86.5938 27.1663L91.3375 15.7174C97.7555 18.4539 103.588 22.2796 108.666 27.1663H86.5938ZM90.4725 15.3823L85.7287 26.8313L79.813 20.8834L70.1302 11.1936C77.1621 11.3332 83.9707 12.7574 90.4725 15.3823ZM48.1136 15.1589C54.4479 12.6736 61.0892 11.3612 67.8699 11.2215L52.2714 26.8313L47.5276 15.4102L48.1136 15.1589ZM46.1324 15.9687L46.6905 15.7174L51.4343 27.1384H29.3898C34.2731 22.4471 39.9098 18.6773 46.1324 15.9687ZM27.7993 50.8462L16.3585 46.0991C19.0931 39.6485 22.9439 33.8123 27.7993 28.758V50.8462Z" fill="#F0F0F0"/>
<path d="M69.4327 126.857C61.5915 126.857 53.7225 125.265 46.1883 122.054C31.8734 115.966 20.7675 104.852 14.9634 90.8062C9.13135 76.7602 9.13135 61.0667 14.9634 46.6019C20.7954 32.165 31.6781 20.8557 45.6023 14.7682L47.6115 13.9304C66.3353 6.58634 87.9053 9.49047 103.922 21.47C118.6 32.4443 127.39 49.897 127.446 68.1875C127.474 68.2992 127.474 68.4109 127.446 68.5225C127.39 91.3926 113.298 112.866 92.37 122.026L90.3609 122.863C83.636 125.544 76.5762 126.857 69.4327 126.857ZM46.579 121.467C60.6986 127.443 76.1855 127.75 90.1377 122.249L92.1468 121.411C112.852 112.364 126.776 91.1133 126.804 68.4946C126.804 68.4667 126.804 68.4388 126.832 68.3829C126.832 68.355 126.804 68.3271 126.804 68.2712C126.748 50.2042 118.042 32.919 103.532 22.0564C87.71 10.2165 66.3911 7.36822 47.9184 14.6006L45.9093 15.4384C32.1803 21.4421 21.4651 32.556 15.6889 46.7695C15.7168 46.7136 15.8005 46.6578 15.8563 46.6299C15.94 46.6019 16.0237 46.6019 16.1353 46.6299L27.5761 51.377C27.6877 51.4328 27.7715 51.5166 27.7994 51.6283C27.8273 51.74 27.7994 51.8517 27.7157 51.9355L12.1171 67.5452C12.0055 67.6569 11.866 67.6569 11.7265 67.629C11.5869 67.5731 11.5032 67.4335 11.5032 67.2939C11.6148 60.8434 12.8147 54.5604 14.9913 48.5846C9.88477 62.4071 10.108 77.235 15.6331 90.5549C21.3256 104.322 32.1245 115.212 46.1046 121.272C39.8261 118.535 34.1057 114.737 29.1388 109.934C29.0272 109.823 28.9993 109.683 29.0551 109.543C29.1109 109.404 29.2504 109.32 29.3899 109.32H51.4623C51.5739 109.32 51.6855 109.376 51.7413 109.488C51.7971 109.571 51.825 109.711 51.7692 109.823L47.0255 121.272C46.9976 121.355 46.9138 121.439 46.8301 121.467C46.7464 121.495 46.6627 121.495 46.579 121.467ZM30.2549 110.046C35.0545 114.514 40.5237 118.116 46.5232 120.685L50.9321 110.046H30.2549ZM16.1912 47.4117C13.7635 53.4713 12.452 59.866 12.2287 66.4282L26.8227 51.7959L16.1912 47.4117ZM70.1582 125.991C70.0187 125.991 69.8791 125.907 69.8233 125.767C69.7675 125.628 69.7954 125.488 69.907 125.377L85.5056 109.767C85.5893 109.683 85.7009 109.655 85.8125 109.683C85.9241 109.711 86.0358 109.795 86.0637 109.879L90.8074 121.328C90.8353 121.411 90.8353 121.495 90.8074 121.607C90.7795 121.718 90.6958 121.774 90.6121 121.802L90.054 122.026C83.6918 124.539 76.9947 125.879 70.1582 125.991ZM85.6172 110.66L71.0232 125.265C77.4691 125.041 83.7755 123.729 89.7749 121.383L90.0261 121.272L85.6172 110.66ZM67.8979 125.991C60.866 125.851 53.9736 124.455 47.444 121.802C47.3603 121.774 47.2766 121.691 47.2487 121.607C47.2208 121.523 47.2208 121.411 47.2487 121.328L51.9924 109.879C52.0482 109.767 52.132 109.683 52.2436 109.683C52.3552 109.655 52.4668 109.683 52.5505 109.767L68.1491 125.377C68.2607 125.488 68.2886 125.628 68.2328 125.767C68.1491 125.907 68.0374 125.991 67.8979 125.991ZM48.0021 121.3C54.0853 123.729 60.4754 125.069 67.005 125.293L52.3831 110.688L48.0021 121.3ZM69.0141 125.823C68.9304 125.823 68.8188 125.795 68.763 125.712L52.69 109.627C52.6063 109.543 52.5784 109.432 52.6063 109.32C52.6342 109.208 52.718 109.097 52.8296 109.069L68.9025 102.423C68.9862 102.395 69.0699 102.395 69.1815 102.423L85.2544 109.069C85.366 109.125 85.4498 109.208 85.4777 109.32C85.5056 109.432 85.4777 109.543 85.3939 109.627L69.321 125.712C69.2094 125.795 69.1257 125.823 69.0141 125.823ZM53.5551 109.516L69.0141 124.986L84.4731 109.516L69.0141 103.121L53.5551 109.516ZM91.3376 121.467C91.2818 121.467 91.2539 121.467 91.1981 121.439C91.1143 121.411 91.0585 121.328 91.0027 121.244L86.259 109.795C86.2032 109.683 86.2311 109.571 86.2869 109.46C86.3427 109.376 86.4543 109.292 86.5659 109.292H108.61C108.75 109.292 108.889 109.376 108.945 109.516C109.001 109.655 108.973 109.795 108.862 109.906C103.95 114.654 98.2858 118.423 92.0073 121.16L91.4213 121.411C91.4213 121.467 91.3655 121.467 91.3376 121.467ZM87.124 110.046L91.5329 120.685L91.784 120.574C97.6998 117.977 103.085 114.43 107.801 110.046H87.124ZM109.308 109.125H86.5659C86.4543 109.125 86.3427 109.069 86.2869 108.957C86.2311 108.873 86.2032 108.734 86.259 108.622L92.9281 92.5375C92.956 92.4537 93.0397 92.3979 93.1235 92.342L109.196 85.6681C109.308 85.6123 109.42 85.6402 109.531 85.696C109.643 85.7519 109.699 85.8636 109.699 85.9753V108.734C109.671 108.957 109.503 109.125 109.308 109.125ZM87.124 108.426H108.973V86.5617L93.5141 92.9843L87.124 108.426ZM51.4344 109.097H28.7202C28.5249 109.097 28.3854 108.929 28.3854 108.762V86.0311C28.3854 85.9194 28.4412 85.8077 28.5528 85.7519C28.6365 85.696 28.776 85.6681 28.8876 85.724L44.9605 92.3699C45.0443 92.3979 45.1001 92.4816 45.1559 92.5654L51.825 108.65C51.8808 108.762 51.8529 108.873 51.7971 108.985C51.6576 109.041 51.546 109.097 51.4344 109.097ZM29.0551 108.399H50.9042L44.5141 92.9284L29.0551 86.5338V108.399ZM52.3831 108.957C52.2436 108.957 52.1041 108.873 52.0482 108.734L45.6581 93.2915C45.6023 93.1518 45.6302 93.0122 45.7419 92.9005C45.8535 92.7888 45.993 92.7609 46.1325 92.8167L57.0431 97.3405L67.9537 101.864C68.0932 101.92 68.177 102.032 68.177 102.199C68.177 102.367 68.0932 102.479 67.9537 102.534L52.5226 108.929C52.4668 108.957 52.4389 108.957 52.3831 108.957ZM46.6348 93.822L52.5784 108.147L66.8934 102.199L46.6348 93.822ZM85.6451 108.957C85.5893 108.957 85.5614 108.957 85.5056 108.929L70.0745 102.534C69.9349 102.479 69.8512 102.367 69.8512 102.199C69.8512 102.032 69.9349 101.92 70.0745 101.864L91.8957 92.8167C92.0073 92.7609 92.1747 92.7888 92.2863 92.9005C92.3979 93.0122 92.4258 93.1518 92.37 93.2915L85.9799 108.734C85.9241 108.873 85.7846 108.957 85.6451 108.957ZM71.1348 102.227L85.4498 108.175L91.3934 93.8499L71.1348 102.227ZM110.257 108.426C110.201 108.426 110.173 108.426 110.117 108.399C109.978 108.343 109.894 108.231 109.894 108.063V86.0032C109.894 85.8915 109.95 85.7798 110.061 85.724C110.145 85.6681 110.285 85.6402 110.396 85.696L121.837 90.4432C121.921 90.4711 122.004 90.5549 122.032 90.6386C122.06 90.7224 122.06 90.8341 122.032 90.9179C119.298 97.3963 115.419 103.26 110.536 108.343C110.424 108.399 110.34 108.426 110.257 108.426ZM110.592 86.5338V107.198C115.056 102.395 118.628 96.9495 121.223 90.9458L110.592 86.5338ZM27.7715 108.426C27.6877 108.426 27.5761 108.399 27.5203 108.315C22.6092 103.233 18.7584 97.3684 16.0237 90.89C15.9958 90.8062 15.9958 90.6945 16.0237 90.6107C16.0516 90.5269 16.1353 90.4432 16.2191 90.4152L27.6598 85.6681C27.7715 85.6123 27.8831 85.6402 27.9947 85.696C28.1063 85.7519 28.1621 85.8636 28.1621 85.9753V108.036C28.1621 108.175 28.0784 108.315 27.9389 108.371C27.8831 108.426 27.8273 108.426 27.7715 108.426ZM16.805 90.9458C19.3723 96.9216 22.944 102.395 27.4366 107.198V86.5338L16.805 90.9458ZM69.0141 102.06C68.9583 102.06 68.9304 102.06 68.8746 102.032L45.3512 92.2862C45.2675 92.2582 45.2117 92.1745 45.1559 92.0907L35.4173 68.5505C35.3893 68.4667 35.3893 68.3829 35.4173 68.2712L45.1559 44.731C45.1838 44.6472 45.2675 44.5635 45.3512 44.5355L68.8746 34.7899C68.9583 34.762 69.042 34.762 69.1536 34.7899L92.677 44.5355C92.7607 44.5635 92.8165 44.6472 92.8723 44.731L102.611 68.2712C102.639 68.355 102.639 68.4388 102.611 68.5505L92.8723 92.0907C92.8444 92.1745 92.7607 92.2582 92.677 92.2862L69.1536 102.032C69.0978 102.06 69.0699 102.06 69.0141 102.06ZM45.7419 91.6998L69.0141 101.334L92.2584 91.6998L101.885 68.4109L92.2584 45.1499L69.0141 35.516L45.7698 45.1499L36.1428 68.4388L45.7419 91.6998ZM93.7653 91.8115C93.6815 91.8115 93.5978 91.7835 93.5141 91.6998C93.4025 91.5881 93.3746 91.4484 93.4304 91.3088L102.471 69.472C102.583 69.2207 103.002 69.2207 103.113 69.472L109.503 84.9141C109.587 85.0817 109.503 85.3051 109.308 85.3609L93.8769 91.7556C93.849 91.8115 93.7932 91.8115 93.7653 91.8115ZM102.778 70.561L94.3792 90.8341L108.694 84.8862L102.778 70.561ZM44.2908 91.8115C44.235 91.8115 44.2071 91.8115 44.1513 91.7835L28.7202 85.3889C28.5528 85.3051 28.4691 85.1096 28.5249 84.9421L34.915 69.4999C35.0266 69.2486 35.4452 69.2486 35.5568 69.4999L44.5978 91.3367C44.6536 91.4764 44.6257 91.616 44.5141 91.7277C44.4583 91.7835 44.3745 91.8115 44.2908 91.8115ZM29.3062 84.8862L43.6211 90.8341L35.2498 70.561L29.3062 84.8862ZM122.032 90.2477C121.977 90.2477 121.949 90.2477 121.893 90.2198L110.452 85.4726C110.34 85.4168 110.257 85.333 110.229 85.2213C110.201 85.1096 110.229 84.9979 110.313 84.9141L125.911 69.3044C126.023 69.1927 126.162 69.1648 126.302 69.2207C126.441 69.2765 126.525 69.4161 126.525 69.5558C126.385 76.6206 124.99 83.5179 122.339 90.0243C122.311 90.1081 122.228 90.1918 122.144 90.2198C122.144 90.2477 122.088 90.2477 122.032 90.2477ZM111.205 85.0538L121.837 89.4658C124.265 83.4062 125.604 77.0116 125.827 70.4493L111.205 85.0538ZM15.9958 90.2477C15.94 90.2477 15.9121 90.2477 15.8563 90.2198C15.7726 90.1918 15.6889 90.1081 15.661 90.0243C13.038 83.5179 11.6148 76.6206 11.4753 69.5558C11.4753 69.4161 11.559 69.2765 11.6986 69.2207C11.8102 69.1648 11.9776 69.1927 12.0892 69.3044L21.772 78.9942L27.6877 84.9141C27.7715 84.9979 27.7994 85.1096 27.7715 85.2213C27.7436 85.3609 27.6598 85.4447 27.5482 85.4726L16.1074 90.2198C16.0795 90.2477 16.0237 90.2477 15.9958 90.2477ZM12.2008 70.4214C12.4241 76.9836 13.7635 83.3783 16.1912 89.4379L26.8227 85.0258L12.2008 70.4214ZM28.0784 84.8583C27.9947 84.8583 27.911 84.8304 27.8273 84.7466L11.7544 68.6622C11.6148 68.5226 11.6148 68.2992 11.7544 68.1595L27.8273 52.0751C27.911 51.9913 28.0226 51.9634 28.1342 51.9913C28.2458 52.0193 28.3575 52.103 28.3854 52.1868L35.0266 68.2712C35.0545 68.355 35.0545 68.4388 35.0266 68.5505L28.3854 84.6349C28.3295 84.7466 28.2458 84.8304 28.1342 84.8304C28.1342 84.8583 28.1063 84.8583 28.0784 84.8583ZM12.5078 68.4388L27.9668 83.9089L34.3569 68.4388L27.9668 52.9687L12.5078 68.4388ZM109.95 84.8583C109.922 84.8583 109.894 84.8583 109.894 84.8583C109.782 84.8304 109.671 84.7466 109.643 84.6628L102.974 68.5784C102.946 68.4946 102.946 68.4109 102.974 68.2992L109.643 52.2147C109.699 52.103 109.782 52.0193 109.894 52.0193C110.006 52.0193 110.117 52.0193 110.201 52.103L126.274 68.1875C126.33 68.2433 126.385 68.355 126.385 68.4388C126.385 68.5226 126.358 68.6063 126.274 68.6901L110.201 84.7745C110.117 84.8304 110.033 84.8583 109.95 84.8583ZM103.671 68.4388L110.061 83.9089L125.52 68.4388L110.061 52.9687L103.671 68.4388ZM126.19 67.6569C126.106 67.6569 126.023 67.629 125.939 67.5452L110.34 51.9355C110.257 51.8517 110.229 51.74 110.257 51.6283C110.285 51.5166 110.368 51.4049 110.48 51.377L121.921 46.6299C122.004 46.6019 122.116 46.6019 122.2 46.6299C122.284 46.6578 122.367 46.7416 122.395 46.8253C125.046 53.3317 126.441 60.229 126.581 67.2939C126.581 67.4335 126.497 67.5731 126.358 67.629C126.302 67.6569 126.246 67.6569 126.19 67.6569ZM111.205 51.8238L125.799 66.4561C125.576 59.8939 124.237 53.4993 121.809 47.4397L111.205 51.8238ZM35.2498 67.5731C35.1103 67.5731 34.9708 67.4893 34.915 67.3497L28.5249 51.9076C28.4412 51.74 28.5249 51.5166 28.7202 51.4608L44.1513 45.0661C44.2629 45.0102 44.4304 45.0382 44.542 45.1499C44.6536 45.2616 44.6815 45.4012 44.6257 45.5408L40.1052 56.4592L39.7703 56.3196L40.1052 56.4592L35.5847 67.3777C35.501 67.4893 35.3893 67.5731 35.2498 67.5731ZM29.3062 51.9634L35.2219 66.2886L43.6211 46.0155L29.3062 51.9634ZM102.778 67.5731C102.639 67.5731 102.499 67.4893 102.444 67.3497L97.923 56.4313L93.4025 45.5129C93.3467 45.3733 93.3746 45.2336 93.4862 45.1219C93.5978 45.0102 93.7374 44.9823 93.8769 45.0382L109.308 51.4328C109.392 51.4608 109.447 51.5445 109.503 51.6283C109.559 51.7121 109.531 51.7959 109.503 51.9076L103.113 67.3497C103.057 67.4893 102.918 67.5731 102.778 67.5731ZM98.5927 56.18L102.778 66.3165L108.722 51.9913L94.4071 46.0434L98.5927 56.18ZM109.308 51.1815C109.252 51.1815 109.224 51.1815 109.168 51.1536L93.0956 44.5076C93.0118 44.4797 92.956 44.3959 92.9002 44.3121L86.259 28.2277C86.2311 28.116 86.2311 28.0043 86.3148 27.8926C86.3706 27.8088 86.4822 27.7251 86.5938 27.7251H109.308C109.503 27.7251 109.643 27.8926 109.643 28.0602V50.7906C109.643 50.9023 109.587 51.014 109.475 51.0698C109.448 51.1815 109.392 51.1815 109.308 51.1815ZM93.5141 43.9212L108.973 50.3159V28.4511H87.124L93.5141 43.9212ZM28.7202 51.1815C28.6644 51.1815 28.5807 51.1536 28.5249 51.1257C28.4133 51.0698 28.3575 50.9581 28.3575 50.8464V28.0881C28.3575 27.8926 28.5249 27.753 28.6923 27.753H51.4064C51.5181 27.753 51.6297 27.8088 51.6855 27.9205C51.7413 28.0043 51.7692 28.1439 51.7134 28.2556L45.0722 44.3401C45.0443 44.4238 44.9605 44.5076 44.8768 44.5355L28.8039 51.1815C28.8039 51.1815 28.7481 51.1815 28.7202 51.1815ZM29.0551 28.4511V50.3159L44.5141 43.9212L45.8256 40.7378L50.9042 28.4511H29.0551ZM27.7994 51.1815C27.7436 51.1815 27.7157 51.1815 27.6598 51.1536L16.2191 46.4065C16.1353 46.3785 16.0516 46.2948 16.0237 46.211C15.9958 46.1272 15.9958 46.0155 16.0237 45.9318C18.7863 39.4254 22.665 33.5613 27.5482 28.507C27.6319 28.4232 27.7715 28.3953 27.911 28.4511C28.0505 28.507 28.1342 28.6187 28.1342 28.7862V50.8464C28.1342 50.9581 28.0784 51.0698 27.9668 51.1257C27.9389 51.1815 27.8552 51.1815 27.7994 51.1815ZM16.805 45.9038L27.4366 50.3159V29.6519C22.9719 34.4269 19.4002 39.9001 16.805 45.9038ZM110.257 51.1815C110.201 51.1815 110.117 51.1536 110.061 51.1257C109.95 51.0698 109.894 50.9581 109.894 50.8464V28.7862C109.894 28.6466 109.978 28.507 110.117 28.4511C110.257 28.3953 110.396 28.4232 110.508 28.5349C115.419 33.645 119.27 39.5092 122.004 45.9597C122.032 46.0434 122.032 46.1551 122.004 46.2389C121.977 46.3227 121.893 46.4065 121.809 46.4344L110.368 51.1815C110.34 51.1815 110.285 51.1815 110.257 51.1815ZM110.592 29.6519V50.3159L121.223 45.9038C118.656 39.9001 115.084 34.4548 110.592 29.6519ZM92.0352 44.0329C91.9794 44.0329 91.9515 44.0329 91.8957 44.005L80.9851 39.4812L70.0745 34.9575C69.9349 34.9016 69.8512 34.7899 69.8512 34.6224C69.8512 34.4548 69.9349 34.3431 70.0745 34.2873L85.5056 27.8926C85.7009 27.8368 85.8962 27.8926 85.952 28.0881L92.3421 43.5303C92.3979 43.6699 92.37 43.8095 92.2584 43.9212C92.2305 44.005 92.1468 44.0329 92.0352 44.0329ZM81.2641 38.839L91.3934 43.0276L85.4498 28.7024L71.1348 34.6503L81.2641 38.839ZM45.993 44.0329C45.9093 44.0329 45.8256 44.005 45.7419 43.9212C45.6302 43.8095 45.6023 43.6699 45.6581 43.5303L52.0482 28.0881C52.132 27.9205 52.3273 27.8368 52.4947 27.8926L67.9258 34.2873C68.0653 34.3431 68.1491 34.4548 68.1491 34.6224C68.1491 34.7899 68.0653 34.9016 67.9258 34.9575L46.1046 44.005C46.0767 44.005 46.0488 44.0329 45.993 44.0329ZM52.5784 28.7024L46.6348 43.0276L66.8934 34.6224L52.5784 28.7024ZM69.0141 34.4828C68.9583 34.4828 68.9304 34.4828 68.8746 34.4548L52.8017 27.7809C52.69 27.7251 52.6063 27.6413 52.5784 27.5296C52.5505 27.4179 52.5784 27.3062 52.6621 27.2224L68.7351 11.138C68.7909 11.0822 68.9025 11.0263 68.9862 11.0263C69.0699 11.0263 69.1815 11.0542 69.2373 11.138L85.3102 27.2224C85.394 27.3062 85.4219 27.4179 85.3939 27.5296C85.366 27.6413 85.2823 27.753 85.1707 27.7809L69.0978 34.4548C69.0978 34.4828 69.0699 34.4828 69.0141 34.4828ZM53.5551 27.3621L69.0141 33.7847L84.4731 27.3621L69.0141 11.892L53.5551 27.3621ZM108.638 27.5296H86.5938C86.4822 27.5296 86.3706 27.4738 86.3148 27.3621C86.2311 27.2783 86.2311 27.1387 86.259 27.027L91.0027 15.578C91.0306 15.4942 91.1143 15.4104 91.1981 15.3825C91.2818 15.3546 91.3934 15.3546 91.4771 15.3825C97.9509 18.1191 103.811 22.0006 108.889 26.9153C109.001 27.027 109.029 27.1666 108.973 27.3062C108.917 27.4458 108.778 27.5296 108.638 27.5296ZM87.124 26.8315H107.773C102.974 22.3357 97.5044 18.7614 91.5329 16.1923L87.124 26.8315ZM51.4344 27.5296H29.3899C29.2504 27.5296 29.1109 27.4458 29.0551 27.3062C28.9993 27.1666 29.0272 27.027 29.1388 26.9153C34.0778 22.1681 39.7424 18.3704 45.993 15.6618L46.5511 15.4104C46.6348 15.3825 46.7464 15.3825 46.8301 15.4104C46.9138 15.4384 46.9697 15.5221 47.0255 15.6059L51.7692 27.027C51.825 27.1387 51.7971 27.2504 51.7413 27.3621C51.6576 27.4458 51.546 27.5296 51.4344 27.5296ZM30.2549 26.8315H50.9042L46.4953 16.1923L46.2441 16.304C40.3563 18.8731 34.9708 22.4194 30.2549 26.8315ZM85.7288 27.1666C85.6451 27.1666 85.5614 27.1387 85.4777 27.0549L69.8791 11.4452C69.7954 11.3614 69.7675 11.1939 69.8233 11.0822C69.8791 10.9425 70.0187 10.8588 70.1582 10.8588C77.1901 10.9984 84.0824 12.3946 90.6121 15.0474C90.6958 15.0753 90.7795 15.1591 90.8074 15.2429C90.8353 15.3267 90.8353 15.4384 90.8074 15.5221L86.0637 26.9711C86.0079 27.0828 85.9241 27.1666 85.8125 27.1666C85.7846 27.1666 85.7567 27.1666 85.7288 27.1666ZM71.0232 11.5848L85.6172 26.2172L90.0261 15.5501C83.9429 13.1486 77.5528 11.8082 71.0232 11.5848ZM52.2994 27.1666C52.2715 27.1666 52.2436 27.1666 52.2436 27.1666C52.132 27.1387 52.0203 27.0549 51.9924 26.9711L47.2487 15.5501C47.2208 15.4663 47.2208 15.3825 47.2487 15.2708C47.2766 15.1591 47.3603 15.1033 47.444 15.0753L48.0021 14.8519C54.3643 12.3667 61.0335 11.0263 67.8979 10.8867C68.0095 10.9146 68.177 10.9705 68.2328 11.1101C68.2886 11.2497 68.2607 11.3893 68.1491 11.501L52.5505 27.1107C52.4668 27.1387 52.3831 27.1666 52.2994 27.1666ZM48.0021 15.578L52.411 26.2172L67.005 11.6127C60.5591 11.8361 54.2527 13.1486 48.2253 15.4942L48.0021 15.578Z" fill="#F0F0F0"/>
</svg>
