<svg width="87" height="127" viewBox="0 0 87 127" fill="none" xmlns="http://www.w3.org/2000/svg">
<path d="M3.60116 86.2199C4.08242 96.4957 7.81924 106.546 16.1422 113.078C20.1055 116.569 25.7673 118.596 30.8063 119.947C30.8347 119.975 30.863 119.975 30.8913 119.975C34.7413 120.989 38.9311 121.664 43.4889 122.002C43.5172 122.002 43.5172 122.002 43.5455 122.002C48.1033 121.664 52.2931 120.989 56.1431 119.975C60.8991 119.497 67.3536 116.231 70.8922 113.078C79.2152 106.546 82.952 96.4957 83.4332 86.2199C84.141 70.2291 78.649 54.1539 71.6566 39.9649C65.1172 26.7331 56.3696 13.3887 43.8003 5.05547C43.6871 4.99917 43.319 4.99917 43.2624 5.05547C24.6066 17.8931 12.8866 40.528 6.88504 61.727C4.6203 69.6661 3.23314 77.943 3.60116 86.2199ZM7.56446 62.656L14.5002 68.3148L16.0289 69.5816L7.90417 80.3078L4.45044 84.8686C4.30889 78.1401 5.35634 70.6796 7.56446 62.656ZM27.6357 21.3278L34.0053 27.1554L35.3641 28.3941L25.7956 33.0112L18.0672 36.7555C20.9547 31.2657 24.2669 25.973 27.6357 21.3278ZM59.3704 21.3278C62.7392 25.9448 66.023 31.2376 68.9389 36.7555L60.5594 32.7015L51.642 28.3941L54.671 25.607L59.3704 21.3278ZM70.1562 112.233L59.9649 110.769L54.6144 110.009L59.1156 98.6635L70.6091 95.3133L70.3544 105.589L70.1562 112.233ZM16.68 105.308L16.4253 95.3133L27.9188 98.6635L32.42 110.009L16.8782 112.233L16.68 105.308ZM20.2753 66.2033L28.5699 57.0818C24.8614 64.3171 22.7382 72.4814 22.0588 80.5612L17.1896 69.5816L20.2753 66.2033ZM38.4498 44.6664C40.0918 42.8083 41.8186 41.0347 43.4889 39.2048C47.8485 43.9345 52.2364 48.4952 55.6336 53.985C60.5311 61.8959 63.5601 72.0028 64.1546 82.4193C63.6168 93.793 56.5395 103.393 44.5929 104.913C39.016 105.617 32.3067 101.76 28.5982 97.9596C24.5217 93.8212 23.1345 88.078 22.8514 82.4193C23.6441 68.2021 28.9946 55.3363 38.4498 44.6664C39.8087 43.1462 36.2134 47.2283 38.4498 44.6664ZM32.4483 102.126C35.2792 103.844 38.5348 105.195 41.8186 105.758L37.0344 108.01L33.2976 109.756L29.4192 99.9866C30.3817 100.775 31.4008 101.507 32.4483 102.126ZM47.5088 105.223C51.1324 104.21 54.6993 102.436 57.5869 100.015L53.7085 109.784L45.1874 105.786C45.9801 105.617 46.7728 105.42 47.5088 105.223ZM61.72 95.1162C63.73 91.7942 64.6359 87.9372 64.9473 84.0803L70.3827 94.3842L66.844 95.4259L60.163 97.3684C60.7292 96.7209 61.2954 95.8482 61.72 95.1162ZM22.5684 87.7402C23.2478 91.203 24.6066 94.6658 26.8714 97.3966L16.6517 94.4124L22.0871 84.1085C22.1437 85.2909 22.3419 86.5578 22.5684 87.7402ZM64.9473 80.5612C64.2679 72.4532 62.1447 64.3171 58.4362 57.0818L69.8165 69.5816L64.9473 80.5612ZM21.8889 82.4193L15.8024 94.0182L4.70522 86.051L16.5668 70.3699L21.8889 82.4193ZM33.8071 110.516L43.4889 105.955L53.1707 110.516L51.8684 111.895L43.4889 120.876L33.8071 110.516ZM65.1171 82.4193L70.4393 70.3699L82.3009 86.051L71.2036 94.0182L65.1171 82.4193ZM56.4545 53.5627C56.4545 53.5627 56.4545 53.5345 56.4545 53.5627L52.4629 34.1373L51.4721 29.3232L69.5334 38.0505L69.6466 46.8623L69.8731 68.2866L56.4545 53.5627ZM50.6228 29.6328L55.124 51.5075C51.8967 46.7779 47.9618 42.7239 44.1117 38.5291L46.4047 35.4042L50.6228 29.6328ZM42.9227 38.501C39.101 42.6957 35.1377 46.7497 31.9104 51.4794L36.4116 29.6047L39.6671 34.0528L42.9227 38.501ZM17.4444 38.0505L35.5057 29.3232L30.5516 53.5345L17.133 68.2584L17.3595 46.8623L17.4444 38.0505ZM42.3565 121.017C38.4782 120.679 34.8263 120.06 31.4858 119.215L33.3259 111.332L42.3565 121.017ZM53.7085 111.332L55.5486 119.215C52.2081 120.06 48.5562 120.679 44.6496 121.017L53.7085 111.332ZM50.3397 28.4223L46.3198 33.9121L43.4889 37.769L36.6664 28.4223L43.4889 6.91356L47.4522 19.4134L50.3397 28.4223ZM10.1689 91.1185L15.1796 94.7221L8.78176 99.5925L7.59277 100.493C5.89421 96.552 4.87508 92.0475 4.56368 87.0927L10.1689 91.1185ZM7.96079 101.338L15.5194 95.5948L15.944 111.754C12.5469 108.911 9.88582 105.42 7.96079 101.338ZM32.4483 110.938L30.5799 118.962C25.4842 117.582 21.068 115.583 17.5859 113.05L32.4483 110.938ZM56.4262 118.962L54.5578 110.938L69.4202 113.05C65.9381 115.583 61.5219 117.554 56.4262 118.962ZM71.0621 111.754L71.4867 95.5948L79.0453 101.338C77.1486 105.42 74.4592 108.911 71.0621 111.754ZM79.4133 100.493L78.2243 99.5925L71.8264 94.7221L76.8372 91.1185L82.4424 87.0927C82.1593 92.0475 81.1119 96.552 79.4133 100.493ZM82.5556 84.8404L70.9772 69.5535L72.2511 68.5118L79.4416 62.6279C81.6781 70.6796 82.6972 78.1401 82.5556 84.8404ZM79.1585 61.6989L76.7806 63.6414L70.8073 68.54L70.6375 51.5639L70.4959 39.7397C74.1478 47.0031 77.1203 54.548 79.1585 61.6989ZM58.8042 20.5958L51.0475 27.6903L44.3382 6.54757C47.7919 9.05317 53.0574 13.811 58.8042 20.5958ZM42.6679 6.57572L39.8087 15.5846L35.9586 27.6903L28.2019 20.5958C33.3542 14.5148 38.0818 9.89775 42.6679 6.57572ZM16.3969 51.0853L16.1988 68.54L10.3671 63.7822L7.81924 61.6989C9.85751 54.5762 12.8583 47.0313 16.4819 39.7397L16.3969 51.0853Z" fill="#F0F0F0"/>
<path d="M43.5457 122.368C43.4891 122.368 43.4325 122.368 43.4042 122.368C38.9596 122.059 34.7133 121.355 30.8066 120.341C30.7783 120.341 30.75 120.341 30.7217 120.313C24.0407 118.539 19.1998 116.287 15.9159 113.359C8.30073 107.363 3.79956 97.7346 3.26169 86.2483C2.92197 78.7033 3.99773 70.6516 6.57387 61.6427C10.7353 46.947 21.0399 20.0048 43.0645 4.77413C43.2343 4.60521 43.8005 4.63337 43.9987 4.74598C44.027 4.74598 44.027 4.77413 44.0553 4.77413C54.6996 11.8405 63.8152 23.2987 71.9965 39.7962C80.5742 57.1383 84.4243 72.3126 83.8298 86.2201C83.2919 97.7346 78.7908 107.363 71.1473 113.359C67.7218 116.372 61.2107 119.806 56.2 120.313C52.3499 121.327 48.0752 122.002 43.6024 122.34C43.5457 122.368 43.5457 122.368 43.5457 122.368ZM30.9481 119.637H30.9764C34.8265 120.651 39.0446 121.327 43.5174 121.664C47.962 121.327 52.1801 120.651 56.0584 119.637C60.9559 119.131 67.3255 115.781 70.666 112.824C78.1396 106.941 82.5559 97.5094 83.0938 86.1919C83.6883 72.3971 79.8665 57.3072 71.3454 40.1059C63.1924 23.7209 54.1334 12.3472 43.6024 5.33718C43.5741 5.33718 43.4891 5.33718 43.4325 5.36534C21.5495 20.4834 11.3581 47.2285 7.22498 61.8116C4.67715 70.7361 3.62971 78.7033 3.94111 86.1919C4.47898 97.4812 8.86692 106.941 16.3406 112.796C19.5678 115.64 24.3238 117.864 30.8915 119.609C30.8915 119.609 30.9198 119.637 30.9481 119.637ZM44.6498 121.355C44.5083 121.355 44.395 121.27 44.3384 121.158C44.2818 121.017 44.3101 120.876 44.395 120.764L53.454 111.079C53.5389 110.995 53.6805 110.938 53.7937 110.966C53.9069 110.995 54.0202 111.107 54.0485 111.22L55.8886 119.103C55.9169 119.3 55.8036 119.469 55.6338 119.525C52.265 120.398 48.5848 120.989 44.6781 121.327C44.6781 121.355 44.6498 121.355 44.6498 121.355ZM53.5106 112.036L45.5274 120.566C48.9245 120.229 52.1234 119.694 55.0959 118.934L53.5106 112.036ZM42.3568 121.355H42.3284C38.4218 121.017 34.7416 120.398 31.3728 119.553C31.1746 119.497 31.0614 119.328 31.118 119.131L32.9581 111.248C32.9864 111.135 33.0713 111.023 33.2129 110.995C33.3261 110.966 33.4677 110.995 33.5526 111.107L42.6115 120.792C42.7248 120.904 42.7248 121.045 42.6682 121.186C42.6115 121.298 42.4983 121.355 42.3568 121.355ZM31.8823 118.962C34.8548 119.694 38.0821 120.257 41.4509 120.595L33.4677 112.064L31.8823 118.962ZM43.5174 121.242C43.4042 121.242 43.3193 121.214 43.2627 121.13L33.5809 110.769C33.496 110.685 33.4677 110.572 33.496 110.46C33.5243 110.347 33.5809 110.263 33.6941 110.206L43.3759 105.646C43.4891 105.589 43.5741 105.589 43.6873 105.646L53.3691 110.206C53.4823 110.263 53.5389 110.347 53.5672 110.46C53.5955 110.572 53.5672 110.685 53.4823 110.769L43.8005 121.13C43.6873 121.186 43.6024 121.242 43.5174 121.242ZM34.4019 110.629L43.5174 120.369L52.6047 110.629L43.5174 106.349L34.4019 110.629ZM30.5801 119.3C30.5518 119.3 30.5235 119.3 30.4952 119.3C25.2863 117.864 20.87 115.865 17.388 113.331C17.2748 113.247 17.2181 113.106 17.2465 112.965C17.2748 112.824 17.388 112.712 17.5295 112.712L32.3919 110.6C32.5051 110.572 32.6184 110.629 32.7033 110.713C32.7882 110.797 32.8165 110.91 32.7882 111.023L30.9198 119.018C30.8915 119.103 30.8349 119.187 30.75 119.243C30.7217 119.3 30.6367 119.3 30.5801 119.3ZM18.5204 113.275C21.7476 115.471 25.7109 117.216 30.3253 118.511L31.9956 111.332L18.5204 113.275ZM56.4265 119.3C56.3698 119.3 56.3132 119.271 56.2566 119.243C56.1717 119.187 56.1151 119.103 56.0867 119.018L54.2183 110.995C54.19 110.882 54.2183 110.769 54.3033 110.685C54.3882 110.6 54.5014 110.572 54.6147 110.572L69.477 112.684C69.6186 112.712 69.7318 112.796 69.7601 112.937C69.7884 113.078 69.7318 113.219 69.6186 113.303C66.1365 115.837 61.7203 117.836 56.5114 119.271C56.4831 119.3 56.4548 119.3 56.4265 119.3ZM55.011 111.332L56.6812 118.511C61.324 117.216 65.2872 115.443 68.4862 113.275L55.011 111.332ZM16.8784 112.571C16.7935 112.571 16.7086 112.543 16.652 112.487C16.567 112.43 16.5387 112.318 16.5387 112.233L16.1141 95.3134C16.1141 95.2008 16.1707 95.0882 16.2556 95.0319C16.3406 94.9756 16.4538 94.9475 16.567 94.9756L28.0606 98.3258C28.1738 98.3539 28.2588 98.4384 28.2871 98.5229L32.7882 109.868C32.8165 109.981 32.8165 110.094 32.7599 110.178C32.7033 110.263 32.6184 110.347 32.5051 110.347L16.9634 112.571C16.9067 112.571 16.8784 112.571 16.8784 112.571ZM16.7935 95.7921L17.0483 105.308L17.2181 111.839L31.939 109.756L27.6643 98.9452L16.7935 95.7921ZM70.1564 112.571C70.1281 112.571 70.1281 112.571 70.0998 112.571L54.558 110.347C54.4448 110.319 54.3599 110.263 54.3033 110.178C54.2466 110.094 54.2466 109.981 54.2749 109.868L58.7761 98.5229C58.8044 98.4102 58.8894 98.3539 59.0026 98.3258L70.4961 94.9756C70.6094 94.9475 70.7226 94.9756 70.8075 95.0319C70.8925 95.0882 70.9491 95.2008 70.9491 95.3134L70.5245 112.233C70.5245 112.346 70.4678 112.43 70.4112 112.487C70.298 112.543 70.2414 112.571 70.1564 112.571ZM55.0959 109.728L69.8167 111.811L70.2414 95.7639L59.3989 98.9452L55.0959 109.728ZM15.9442 112.121C15.8593 112.121 15.7744 112.093 15.7178 112.036C12.2923 109.165 9.57465 105.617 7.64962 101.507C7.593 101.366 7.62131 101.169 7.76286 101.085L15.3214 95.3416C15.4347 95.2571 15.5762 95.2571 15.6894 95.3134C15.8027 95.3698 15.8876 95.4824 15.8876 95.6231L16.3122 111.783C16.3122 111.924 16.2273 112.036 16.1141 112.121C16.0575 112.121 16.0008 112.121 15.9442 112.121ZM8.41397 101.451C10.1691 105.111 12.5754 108.32 15.5762 110.966L15.2082 96.2988L8.41397 101.451ZM71.0623 112.121C71.0057 112.121 70.9491 112.121 70.9208 112.092C70.8075 112.036 70.7226 111.895 70.7226 111.755L71.1473 95.595C71.1473 95.4542 71.2322 95.3416 71.3454 95.2853C71.4587 95.229 71.6002 95.2571 71.7134 95.3134L79.272 101.057C79.4136 101.169 79.4419 101.338 79.3853 101.479C77.4602 105.589 74.7708 109.136 71.3171 112.008C71.2322 112.092 71.1473 112.121 71.0623 112.121ZM71.8267 96.2988L71.4587 110.966C74.4594 108.32 76.8657 105.111 78.6209 101.451L71.8267 96.2988ZM53.7088 110.122C53.6521 110.122 53.5955 110.122 53.5672 110.094L45.0461 106.096C44.9046 106.04 44.8197 105.871 44.848 105.73C44.8763 105.589 44.9895 105.448 45.1311 105.42C45.8954 105.28 46.7164 105.082 47.3958 104.885L47.4807 105.223L47.3958 104.885C51.1326 103.844 54.5863 102.042 57.3323 99.7334C57.4456 99.6208 57.6438 99.6208 57.757 99.7053C57.8985 99.7897 57.9268 99.9586 57.8702 100.128L53.9919 109.897C53.9636 109.981 53.8786 110.065 53.7937 110.094C53.7937 110.094 53.7654 110.122 53.7088 110.122ZM46.32 105.899L53.5389 109.277L56.7945 101.085C54.1617 103.055 51.0194 104.604 47.6506 105.533C47.1976 105.674 46.773 105.786 46.32 105.899ZM33.2978 110.122C33.2412 110.122 33.2129 110.122 33.1563 110.094C33.0713 110.065 32.9864 109.981 32.9581 109.897L29.108 100.128C29.0514 99.9868 29.108 99.8179 29.2213 99.7053C29.3628 99.6208 29.5327 99.6208 29.6459 99.7334C30.4952 100.437 31.4577 101.141 32.6184 101.845C34.0055 102.689 35.4493 103.421 36.8931 103.985C33.5809 102.633 30.4952 100.409 28.3154 98.2132C24.7201 94.5533 22.8234 89.4014 22.4837 82.4476C23.2763 68.4275 28.2871 55.9559 37.431 45.3141C37.431 45.3141 37.4876 45.2578 37.5725 45.1734C37.6008 45.1171 37.6574 45.0889 37.714 45.0326C37.9122 44.8074 38.0537 44.6385 38.1953 44.4977C38.1953 44.4977 38.1953 44.4977 38.2236 44.4695C38.2236 44.4414 38.2519 44.4414 38.2519 44.4132L38.5067 44.1036C39.4692 43.0337 40.4883 41.9639 41.4509 40.9223C42.0454 40.2748 42.6398 39.6554 43.2343 39.0079C43.291 38.9234 43.4042 38.8953 43.4891 38.8953C43.6024 38.8953 43.6873 38.9234 43.7439 39.0079L44.8763 40.2185C48.783 44.4414 52.8029 48.8051 55.9452 53.8444C60.871 61.8116 63.9284 71.9466 64.5229 82.4476C63.9284 94.8912 56.1151 103.844 44.6498 105.308C42.6965 105.561 40.6016 105.28 38.5633 104.604C39.6957 104.97 40.7997 105.251 41.8755 105.42C42.017 105.448 42.1586 105.561 42.1586 105.73C42.1869 105.871 42.102 106.04 41.9604 106.096L33.4393 110.094C33.3827 110.094 33.3544 110.122 33.2978 110.122ZM30.2404 101.085L33.496 109.277L40.6865 105.899C37.8839 105.28 34.9964 104.097 32.2787 102.436C31.5143 101.986 30.8632 101.535 30.2404 101.085ZM38.7898 44.8355C38.7615 44.8637 38.7615 44.8918 38.7332 44.8918C29.2213 55.618 24.0124 68.2305 23.2197 82.4476C23.5311 89.1761 25.3995 94.1873 28.8532 97.7064C32.675 101.62 39.3277 105.223 44.5649 104.576C55.6904 103.168 63.249 94.4689 63.8152 82.4195C63.2207 72.0874 60.2199 62.0369 55.3507 54.1822C52.265 49.1992 48.4149 45.0607 44.3667 40.6689L43.5174 39.7399C43.0079 40.3029 42.4983 40.8378 41.9887 41.3727C40.913 42.4988 39.8372 43.6813 38.7898 44.8355ZM79.4136 100.831C79.3286 100.831 79.272 100.803 79.1871 100.747L71.6002 94.9475C71.5153 94.8912 71.4587 94.7785 71.4587 94.6659C71.4587 94.5533 71.5153 94.4407 71.6002 94.3844L82.2162 86.755C82.3294 86.6705 82.471 86.6705 82.5842 86.7269C82.6974 86.7832 82.7824 86.9239 82.7541 87.0647C82.4426 92.0477 81.3952 96.6085 79.6967 100.578C79.64 100.691 79.5551 100.747 79.4702 100.775C79.4702 100.831 79.4419 100.831 79.4136 100.831ZM72.4212 94.7222L79.272 99.9305C80.7724 96.3269 81.7066 92.2448 82.0463 87.7967L72.4212 94.7222ZM7.593 100.831C7.56469 100.831 7.53638 100.831 7.50807 100.831C7.39484 100.803 7.30991 100.719 7.2816 100.634C5.58304 96.6648 4.5356 92.104 4.2242 87.121C4.2242 86.9802 4.28082 86.8676 4.39406 86.7832C4.50729 86.7269 4.64884 86.7269 4.76208 86.8113L15.4064 94.4407C15.4913 94.497 15.5479 94.6096 15.5479 94.7222C15.5479 94.8349 15.4913 94.9475 15.4064 95.0038L7.81947 100.803C7.73455 100.831 7.67793 100.831 7.593 100.831ZM4.96024 87.7967C5.29995 92.2448 6.23416 96.3269 7.73455 99.9305L14.5854 94.7222L4.96024 87.7967ZM60.1633 97.7627C60.05 97.7627 59.9368 97.7064 59.8802 97.5938C59.7953 97.4531 59.7953 97.2841 59.8802 97.1715C60.4747 96.4677 61.0409 95.5668 61.4089 94.9475C63.1641 92.0196 64.2398 88.3597 64.6078 84.0805C64.6078 83.9116 64.7494 83.799 64.8909 83.7708C65.0325 83.7427 65.2023 83.8271 65.2589 83.9397L70.6943 94.2436C70.7509 94.3281 70.7509 94.4407 70.6943 94.5533C70.666 94.6378 70.5811 94.7222 70.4678 94.7504L60.2482 97.7346C60.2199 97.7346 60.1916 97.7627 60.1633 97.7627ZM62.0317 95.3134C61.7769 95.7357 61.4372 96.2706 61.0975 96.7774L69.8733 94.2155L65.2023 85.3192C64.7494 89.1761 63.6736 92.5545 62.0317 95.3134ZM26.8433 97.7627C26.815 97.7627 26.7867 97.7627 26.7301 97.7627L16.5104 94.7785C16.4255 94.7222 16.3406 94.6378 16.2839 94.5533C16.2556 94.4689 16.2556 94.3563 16.2839 94.2436L21.7193 83.9397C21.8042 83.799 21.9458 83.7427 22.0873 83.7708C22.2289 83.799 22.3704 83.9397 22.3704 84.0805C22.4554 85.2066 22.6252 86.4735 22.88 87.6841C23.616 91.4284 25.0598 94.7222 27.0981 97.1997C27.2113 97.3123 27.2113 97.4812 27.1264 97.622C27.0698 97.7064 26.9565 97.7627 26.8433 97.7627ZM17.1332 94.1873L25.9091 96.7492C24.1539 94.2999 22.88 91.2313 22.2006 87.7967C22.0307 86.9521 21.9175 86.1075 21.8042 85.2911L17.1332 94.1873ZM71.2322 94.3563C71.2039 94.3563 71.1756 94.3563 71.1473 94.3563C71.034 94.3281 70.9491 94.2718 70.9208 94.1873L64.8343 82.5884C64.7777 82.5039 64.7777 82.3913 64.8343 82.2787L70.1564 70.2293C70.2131 70.1167 70.3263 70.0323 70.4395 70.0323C70.5528 70.0323 70.6943 70.0604 70.7509 70.173L82.6125 85.8541C82.6691 85.9386 82.6974 86.023 82.6691 86.1075C82.6408 86.192 82.6125 86.2764 82.5276 86.3327L71.4304 94.2999C71.3737 94.3563 71.2888 94.3563 71.2322 94.3563ZM65.5137 82.4195L71.3454 93.5117L81.8198 85.9949L70.5245 71.0739L65.5137 82.4195ZM15.8027 94.3563C15.7178 94.3563 15.6611 94.3281 15.6045 94.2999L4.50729 86.3327C4.39406 86.2764 4.36575 86.192 4.33744 86.1075C4.33744 86.023 4.33744 85.9104 4.39406 85.8541L16.2556 70.173C16.3406 70.0604 16.4538 70.0323 16.567 70.0323C16.6803 70.0323 16.7935 70.1167 16.8501 70.2293L22.1723 82.2787C22.2289 82.3632 22.2006 82.4758 22.1723 82.5884L16.0858 94.1873C16.0292 94.2718 15.9442 94.3563 15.8593 94.3563C15.8593 94.3563 15.831 94.3563 15.8027 94.3563ZM5.18671 85.9949L15.6611 93.5117L21.4928 82.4195L16.4821 71.0739L5.18671 85.9949ZM82.5559 85.2066C82.4427 85.2066 82.3294 85.1503 82.2728 85.0658L70.6943 69.7789C70.5811 69.6381 70.6094 69.4129 70.7509 69.3003L79.2154 62.4029C79.3003 62.3184 79.4419 62.3184 79.5551 62.3465C79.6683 62.3747 79.7533 62.4592 79.7816 62.5999C82.018 70.6235 83.0655 78.1403 82.9239 84.8969C82.9239 85.0377 82.8107 85.1785 82.6691 85.2348C82.6408 85.2066 82.5842 85.2066 82.5559 85.2066ZM71.487 69.61L82.2445 83.799C82.2728 77.5209 81.282 70.6235 79.272 63.2474L71.487 69.61ZM4.45067 85.2066C4.42236 85.2066 4.36575 85.2066 4.33744 85.1785C4.19589 85.1221 4.08265 85.0095 4.08265 84.8406C3.94111 78.084 4.98855 70.5672 7.22498 62.5436C7.25329 62.431 7.33822 62.3465 7.45145 62.2902C7.56469 62.2621 7.67793 62.2902 7.79117 62.3465L16.2556 69.244C16.3972 69.3566 16.4255 69.5818 16.3122 69.7226L4.73377 85.0095C4.67715 85.1503 4.56391 85.2066 4.45067 85.2066ZM7.76286 63.2756C5.7529 70.6516 4.76208 77.549 4.79038 83.8271L15.5479 69.6381L7.76286 63.2756ZM22.059 80.9274C21.9175 80.9274 21.8042 80.8429 21.7476 80.7303L16.8784 69.7507C16.8218 69.6381 16.8501 69.4692 16.9351 69.3847L19.9925 66.0064L28.2871 56.8849C28.4003 56.7441 28.5985 56.716 28.74 56.8286C28.8816 56.9412 28.9382 57.1101 28.8532 57.2791C25.3146 64.1765 23.0782 72.2563 22.3987 80.6177C22.3987 80.7866 22.2572 80.8992 22.1156 80.9274C22.1156 80.9274 22.0873 80.9274 22.059 80.9274ZM17.6145 69.6381L21.8326 79.1819C22.5686 72.0593 24.4087 65.2181 27.183 59.1371L17.6145 69.6381ZM64.9475 80.9274C64.9192 80.9274 64.9192 80.9274 64.8909 80.9274C64.7211 80.8992 64.6078 80.7585 64.6078 80.6177C63.9001 72.2282 61.6637 64.1765 58.125 57.2509C58.0401 57.082 58.0967 56.9131 58.2382 56.8005C58.3798 56.6878 58.578 56.716 58.6912 56.8568L70.0715 69.3566C70.1564 69.4692 70.1847 69.61 70.1281 69.7226L65.2589 80.7022C65.2306 80.8429 65.0891 80.9274 64.9475 80.9274ZM59.8236 59.1371C62.5979 65.2181 64.438 72.0874 65.174 79.1819L69.3921 69.6381L59.8236 59.1371ZM70.8075 68.878C70.7509 68.878 70.6943 68.878 70.666 68.8498C70.5528 68.7935 70.4678 68.6809 70.4678 68.5402L70.1564 39.7399C70.1564 39.571 70.2697 39.4302 70.4395 39.402C70.5811 39.3457 70.7792 39.4302 70.8359 39.5991C74.4878 46.8907 77.4885 54.5201 79.5268 61.6146C79.5551 61.7553 79.5268 61.8961 79.4136 61.9806L71.034 68.8217C70.9491 68.8498 70.8925 68.878 70.8075 68.878ZM70.8642 41.2601L71.1473 67.78L78.7625 61.5583C76.8657 54.9987 74.148 48.0168 70.8642 41.2601ZM16.199 68.878C16.1141 68.878 16.0292 68.8498 15.9725 68.7935L7.62131 61.9524C7.50807 61.868 7.47976 61.7272 7.50807 61.5864C9.54634 54.4638 12.5471 46.8625 16.199 39.571C16.2839 39.4302 16.4538 39.3457 16.5953 39.3739C16.7652 39.402 16.8784 39.5428 16.8784 39.7117L16.7652 51.0854L16.567 68.5402C16.567 68.6809 16.4821 68.7935 16.3689 68.8498C16.3122 68.878 16.2556 68.878 16.199 68.878ZM8.24411 61.5583L15.8593 67.78L16.1424 41.2601C12.8585 48.0168 10.1408 54.9987 8.24411 61.5583ZM17.1332 68.6528C17.0766 68.6528 17.0483 68.6528 16.9917 68.6246C16.8501 68.5683 16.7652 68.4276 16.7652 68.2868L17.0766 38.0507C17.0766 37.9099 17.1615 37.7973 17.2748 37.741L35.3361 29.0137C35.4493 28.9574 35.5908 28.9574 35.7041 29.0418C35.8173 29.1263 35.8739 29.267 35.8456 29.3797L30.8915 53.591C30.8915 53.6473 30.8632 53.7037 30.8066 53.76L17.388 68.512C17.3314 68.5965 17.2181 68.6528 17.1332 68.6528ZM17.8126 38.2759L17.5012 67.3577L30.2404 53.3658L35.053 29.9427L17.8126 38.2759ZM69.8733 68.6528C69.7884 68.6528 69.6752 68.6246 69.6186 68.5402L56.2 53.8163C56.2 53.8163 56.2 53.8163 56.2 53.7881C56.1717 53.76 56.1434 53.7318 56.1434 53.6755C56.1434 53.6473 56.1434 53.6473 56.1151 53.6192L51.1609 29.4078C51.1326 29.267 51.1892 29.1544 51.3025 29.07C51.4157 28.9855 51.5573 28.9574 51.6705 29.0418L69.7318 37.7692C69.845 37.8255 69.93 37.9381 69.93 38.0789L70.2697 68.3149C70.2697 68.4557 70.1847 68.5965 70.0432 68.6528C69.9583 68.6246 69.93 68.6528 69.8733 68.6528ZM56.7945 53.394L69.5336 67.3577L69.2222 38.2759L52.0102 29.9427L56.7945 53.394ZM55.0959 51.8456C54.9827 51.8456 54.8694 51.7893 54.8128 51.6766C52.1234 47.7071 48.8396 44.1599 45.6689 40.7252C45.0744 40.0777 44.4516 39.402 43.8571 38.7545C43.7439 38.6419 43.7439 38.4448 43.8288 38.3041L50.34 29.4078C50.4249 29.2952 50.5664 29.2389 50.708 29.267C50.8495 29.2952 50.9628 29.4078 50.9911 29.5486L55.4639 51.4233C55.4922 51.5922 55.4073 51.7611 55.2658 51.8174C55.2092 51.8456 55.1525 51.8456 55.0959 51.8456ZM44.5649 38.473C45.1028 39.0642 45.6406 39.6554 46.1785 40.2466C49.0094 43.3153 51.897 46.4402 54.4165 49.903L50.4249 30.4776L44.5649 38.473ZM31.9106 51.8456C31.854 51.8456 31.8257 51.8456 31.7691 51.8174C31.6276 51.7611 31.5143 51.5922 31.5709 51.4233L36.0438 29.5486C36.0721 29.4078 36.1853 29.2952 36.3269 29.267C36.4401 29.2389 36.61 29.2952 36.6949 29.4078L43.206 38.3041C43.3193 38.4448 43.291 38.6138 43.1777 38.7545C42.5266 39.4583 41.9038 40.1622 41.2527 40.866C38.1104 44.2725 34.8831 47.7916 32.1937 51.7048C32.1371 51.7893 32.0239 51.8456 31.9106 51.8456ZM36.5817 30.4776L32.5901 49.903C35.0813 46.4965 37.9405 43.3997 40.7148 40.3592C41.281 39.7399 41.8755 39.0924 42.4417 38.473L36.5817 30.4776ZM43.5174 38.107C43.4042 38.107 43.291 38.0507 43.2343 37.9663L36.4118 28.6477C36.3552 28.5632 36.3269 28.4506 36.3552 28.338L43.1777 6.82928C43.2627 6.54775 43.7722 6.54775 43.8571 6.82928L50.708 28.338C50.7363 28.4506 50.708 28.5632 50.6514 28.6477L43.8005 37.9663C43.7156 38.0507 43.6307 38.107 43.5174 38.107ZM37.0629 28.3662L43.5174 37.1498L49.9719 28.3662L43.5174 8.09616L37.0629 28.3662ZM18.0391 37.1217C17.9542 37.1217 17.8409 37.0935 17.7843 37.0091C17.6711 36.8964 17.6428 36.7275 17.7277 36.5868C20.6436 31.1251 23.9557 25.7761 27.3245 21.1309C27.3812 21.0464 27.4661 20.9901 27.5793 20.9901C27.6643 20.9901 27.7775 21.0183 27.8624 21.0746L35.5908 28.1409C35.6758 28.2254 35.7041 28.338 35.7041 28.4506C35.6758 28.5632 35.6192 28.6758 35.5059 28.704L18.209 37.0654C18.1523 37.0935 18.0957 37.1217 18.0391 37.1217ZM27.6926 21.8629C24.6069 26.1421 21.5778 30.9844 18.8884 35.9674L34.7416 28.3098L27.6926 21.8629ZM68.9674 37.1217C68.9108 37.1217 68.8542 37.1217 68.8259 37.0935L51.529 28.7321C51.3874 28.6477 51.3308 28.5632 51.3025 28.4506C51.3025 28.338 51.3308 28.2254 51.4157 28.1409L59.1441 21.0746C59.2291 21.0183 59.314 20.962 59.4272 20.9901C59.5405 20.9901 59.6254 21.0464 59.682 21.1309C63.0508 25.7479 66.363 31.097 69.2789 36.6149C69.3638 36.7557 69.3355 36.9246 69.2222 37.0372C69.1373 37.0654 69.0524 37.1217 68.9674 37.1217ZM52.2933 28.3098L68.1465 35.9674C65.4288 30.9562 62.3997 26.1139 59.3423 21.8629L52.2933 28.3098ZM35.9306 28.0565C35.8456 28.0565 35.7607 28.0283 35.7041 27.972L27.9473 20.8494C27.8341 20.7368 27.8058 20.5115 27.919 20.3708C33.0996 14.2335 37.8556 9.61641 42.4417 6.29438C42.5549 6.20992 42.7248 6.20992 42.8663 6.29438C42.9796 6.37884 43.0362 6.54775 43.0079 6.68852L36.2986 27.8031C36.2703 27.9157 36.157 28.0002 36.0438 28.0283C36.0155 28.0283 35.9872 28.0565 35.9306 28.0565ZM28.6834 20.5678L35.7607 27.043L41.9604 7.50495C37.799 10.7144 33.411 14.9936 28.6834 20.5678ZM51.076 28.0565C51.0477 28.0565 51.0194 28.0565 50.9911 28.0565C50.8778 28.0283 50.7929 27.9439 50.7363 27.8313L44.027 6.68852C43.9704 6.54775 44.027 6.37884 44.1685 6.29438C44.2818 6.20992 44.4516 6.20992 44.5932 6.29438C46.6031 7.75832 52.0668 12.0938 59.1158 20.3989C59.2291 20.5397 59.2291 20.7649 59.0875 20.8775L51.3025 27.9439C51.2459 28.0002 51.1609 28.0565 51.076 28.0565ZM45.0178 7.50495L51.2459 27.0711L58.3232 20.596C52.2933 13.4733 47.4524 9.36303 45.0178 7.50495Z" fill="#F0F0F0"/>
</svg>
