<svg width="96" height="96" viewBox="0 0 96 96" fill="none" xmlns="http://www.w3.org/2000/svg">
<g clip-path="url(#clip0_14_689)">
<path d="M48.1441 73.2138L24.733 71.0025L22.3774 48.2163L24.733 24.8052L47.3749 22.8823L70.9062 24.9735L73.5502 48L70.9062 71.1467L48.1441 73.2138ZM25.6704 70.0651L48.1441 72.2043L69.9929 70.2093L72.5407 48L69.9929 25.9109L47.3749 23.8918L25.6704 25.7426L23.387 48.2163L25.6704 70.0651Z" fill="#F0F0F0"/>
<path d="M48.1442 73.5022H48.1202L24.709 71.2909C24.5648 71.2669 24.4446 71.1707 24.4446 71.0265L22.0891 48.2403L24.4446 24.7571C24.4687 24.6129 24.5648 24.4927 24.709 24.4927L47.351 22.5698L70.9304 24.661C71.0746 24.685 71.1948 24.7811 71.1948 24.9254L73.8387 47.9519L71.1948 71.1707C71.1707 71.3149 71.0746 71.4111 70.9304 71.4351L48.1682 73.5263C48.1682 73.5022 48.1442 73.5022 48.1442 73.5022ZM25.0215 70.714L48.1442 72.9013L70.6419 70.8342L73.2378 47.9279L70.6419 25.2138L47.351 23.1707L25.0215 25.0936L22.69 48.2644L25.0215 70.714ZM48.1682 72.4927L25.6464 70.3535C25.5022 70.3295 25.3821 70.2333 25.3821 70.0891L23.0986 48.2403L25.3821 25.7185C25.4061 25.5743 25.5022 25.4542 25.6464 25.4542L47.351 23.6034L70.017 25.6224C70.1612 25.6464 70.2814 25.7426 70.2814 25.8868L72.8292 47.9759L70.2814 70.2574C70.2574 70.4016 70.1612 70.4977 70.017 70.5218L48.1682 72.4927ZM25.9349 69.7766L48.1682 71.8918L69.7045 69.9209L72.2283 47.9519L69.7045 26.1752L47.327 24.1802L25.9349 26.031L23.6755 48.2403L25.9349 69.7766Z" fill="#F0F0F0"/>
<path d="M88.9575 89.1257L47.952 73.2619L6.53784 88.7652L22.0651 48.1442L6.89838 7.4512L47.5674 22.5458L89.1257 7.01855L73.5984 47.8799L88.9575 89.1257ZM47.952 72.1563L48.1443 72.2284L87.2028 87.3471L72.4687 47.9039L72.5408 47.7116L87.323 8.77319L47.5434 23.6275L47.3751 23.5554L8.62898 9.1818L23.1708 48.1683L23.0987 48.3365L8.29247 87.0106L47.952 72.1563Z" fill="#F0F0F0"/>
<path d="M88.9574 89.4141C88.9093 89.4141 88.8853 89.4141 88.8613 89.3901L47.9519 73.5503L6.63391 89.0536C6.51373 89.1017 6.39355 89.0776 6.32144 88.9815C6.24933 88.9094 6.20126 88.7652 6.24933 88.669L21.7285 48.1683L6.60987 7.54733C6.5618 7.45118 6.58584 7.30697 6.68198 7.23486C6.77812 7.13872 6.8983 7.11468 6.99445 7.16275L47.5433 22.2334L88.9814 6.75414C89.1016 6.70607 89.2218 6.7301 89.2939 6.82625C89.366 6.92239 89.4141 7.04257 89.366 7.13872L73.8868 47.9039L89.2218 89.0055C89.2699 89.1257 89.2458 89.2459 89.1497 89.318C89.1256 89.3901 89.0535 89.4141 88.9574 89.4141ZM47.9519 72.9494C48 72.9494 48.024 72.9494 48.048 72.9735L88.4286 88.5969L73.2859 48C73.2618 47.9279 73.2618 47.8558 73.2859 47.7837L88.5728 7.52329L47.6635 22.8343C47.5913 22.8583 47.5192 22.8583 47.4471 22.8343L7.40306 7.95594L22.3535 48.0481C22.3775 48.1202 22.3775 48.1923 22.3535 48.2644L7.06656 88.2604L47.8557 72.9735C47.8798 72.9494 47.9279 72.9494 47.9519 72.9494ZM87.2268 87.6355C87.1787 87.6355 87.1547 87.6355 87.1307 87.6114L47.9759 72.4687L8.41258 87.299C8.2924 87.347 8.17222 87.323 8.10011 87.2269C8.028 87.1547 7.97993 87.0105 8.028 86.9144L22.8342 48.1683L8.34047 9.27792C8.31643 9.18178 8.34047 9.0616 8.41258 8.96546C8.50872 8.89335 8.6289 8.86931 8.72504 8.89335L47.5433 23.315L87.2508 8.48473C87.371 8.43666 87.4912 8.4607 87.5633 8.55684C87.6354 8.65299 87.6835 8.77317 87.6354 8.86931L72.8052 47.8798L87.4912 87.2509C87.5393 87.3711 87.5152 87.4912 87.4191 87.5634C87.371 87.6114 87.2989 87.6355 87.2268 87.6355ZM47.9519 71.8678C48 71.8678 48.024 71.8678 48.048 71.8918L48.2403 71.964L86.698 86.8423L72.2043 48.024C72.1802 47.9519 72.1802 47.8798 72.2043 47.8077L72.2764 47.6154L86.8422 9.30196L47.6635 23.9399C47.5913 23.964 47.5192 23.964 47.4471 23.9399L47.2789 23.8678L9.13366 9.68654L23.4351 48.0481C23.4591 48.1202 23.4591 48.1923 23.4351 48.2644L23.363 48.4327L8.82119 86.5058L47.8557 71.8678C47.9038 71.8678 47.9279 71.8678 47.9519 71.8678Z" fill="#F0F0F0"/>
<path d="M16.4166 91.6976L15.4792 91.313L23.7716 71.6275L4.56682 79.968L4.1582 79.0306L25.6945 69.6805L16.4166 91.6976Z" fill="#F0F0F0"/>
<path d="M16.4165 92.01C16.3685 92.01 16.3444 92.01 16.2964 91.986L15.359 91.5773C15.2868 91.5533 15.2388 91.4812 15.1907 91.4091C15.1667 91.337 15.1667 91.2408 15.1907 91.1687L23.1947 72.1802L4.68695 80.2083C4.5187 80.2804 4.35044 80.2083 4.30237 80.0641L3.89376 79.1267C3.86972 79.0546 3.86972 78.9824 3.89376 78.8863C3.9178 78.8142 3.9899 78.7421 4.06201 78.7181L25.5983 69.368C25.6945 69.32 25.8387 69.344 25.9348 69.4401C26.031 69.5363 26.055 69.6565 26.0069 69.7766L16.6809 91.8177C16.6329 91.9379 16.5367 92.01 16.4165 92.01ZM15.8637 91.1447L16.2483 91.3129L25.1176 70.2574L4.54273 79.1988L4.71099 79.5834L23.6514 71.363C23.7475 71.315 23.8918 71.339 23.9879 71.4351C24.084 71.5313 24.1081 71.6515 24.06 71.7716L15.8637 91.1447Z" fill="#F0F0F0"/>
<path d="M78.9585 91.986L69.9209 69.969L91.7697 79.1748L91.3611 80.1122L71.7957 71.8678L79.9199 91.5774L78.9585 91.986Z" fill="#F0F0F0"/>
<path d="M78.9585 92.2744C78.9105 92.2744 78.8864 92.2744 78.8383 92.2504C78.7662 92.2263 78.7182 92.1542 78.6701 92.0821L69.6085 70.0651C69.5604 69.9449 69.5845 69.8247 69.6806 69.7286C69.7768 69.6324 69.8969 69.6084 70.0171 69.6565L91.8659 78.8623C91.938 78.8863 91.9861 78.9584 92.0341 79.0305C92.0582 79.1027 92.0582 79.1748 92.0341 79.2709L91.6255 80.2083C91.5534 80.3525 91.3852 80.4246 91.2409 80.3766L72.3486 72.3966L80.1844 91.4332C80.2565 91.5774 80.1844 91.7697 80.0161 91.8177L79.0787 92.2023C79.0547 92.2744 79.0066 92.2744 78.9585 92.2744ZM70.4738 70.5218L79.1268 91.5774L79.5114 91.4091L71.5074 71.9639C71.4593 71.8438 71.4833 71.7236 71.5795 71.6274C71.6756 71.5313 71.7958 71.5073 71.916 71.5553L91.2169 79.6795L91.3852 79.2949L70.4738 70.5218Z" fill="#F0F0F0"/>
<path d="M69.969 26.0311L79.2469 4.08618L80.1843 4.49479L71.8678 24.1082L91.3611 15.96L91.7697 16.8974L69.969 26.0311Z" fill="#F0F0F0"/>
<path d="M69.969 26.3195C69.8969 26.3195 69.8247 26.2954 69.7526 26.2233C69.6565 26.1272 69.6325 26.007 69.6805 25.8868L78.9584 3.96594C78.9825 3.89383 79.0546 3.84576 79.1267 3.79769C79.1988 3.77365 79.2949 3.77365 79.3671 3.79769L80.3045 4.2063C80.4487 4.27841 80.5208 4.44666 80.4727 4.59088L72.4447 23.5553L91.2649 15.6955C91.4091 15.6475 91.6014 15.6955 91.6495 15.8638L92.0341 16.8012C92.0581 16.8733 92.0581 16.9454 92.0341 17.0416C92.01 17.1137 91.9379 17.1858 91.8658 17.2098L70.0651 26.3435C70.0411 26.3195 69.993 26.3195 69.969 26.3195ZM79.3911 4.49474L70.5218 25.4542L91.361 16.7291L91.2168 16.3445L72.012 24.3726C71.8918 24.4206 71.7717 24.3966 71.6755 24.3004C71.5794 24.2043 71.5553 24.0841 71.6034 23.9639L79.7997 4.61492L79.3911 4.49474Z" fill="#F0F0F0"/>
<path d="M25.7666 25.6465L4.1582 17.0416L4.54278 16.0802L23.8437 23.7957L15.4792 4.49479L16.4166 4.08618L25.7666 25.6465Z" fill="#F0F0F0"/>
<path d="M25.7666 25.9589C25.7185 25.9589 25.6945 25.9589 25.6464 25.9349L4.06201 17.306C3.9899 17.2819 3.9178 17.2339 3.89376 17.1377C3.86972 17.0656 3.86972 16.9935 3.89376 16.8973L4.27834 15.9599C4.35044 15.8157 4.5187 15.7436 4.66291 15.7917L23.2668 23.2188L15.1907 4.61492C15.1667 4.54282 15.1667 4.47071 15.1907 4.37456C15.2147 4.30245 15.2868 4.23035 15.359 4.20631L16.2964 3.7977C16.4406 3.72559 16.6329 3.7977 16.6809 3.94191L26.031 25.5023C26.079 25.6224 26.055 25.7426 25.9829 25.8388C25.9108 25.9349 25.8387 25.9589 25.7666 25.9589ZM4.56677 16.8733L25.1897 25.1177L16.2483 4.49474L15.8637 4.663L24.1081 23.6755C24.1562 23.7957 24.1321 23.9159 24.06 24.012C23.9639 24.1082 23.8437 24.1322 23.7235 24.0841L4.71099 16.4647L4.56677 16.8733Z" fill="#F0F0F0"/>
<path d="M20.094 12.9315L19.7095 11.9941L48.2403 0.408691L48.4326 0.4808L76.4346 11.7777L76.05 12.7392L48.2403 1.51435L20.094 12.9315Z" fill="#F0F0F0"/>
<path d="M20.0701 13.2439C19.9499 13.2439 19.8297 13.1718 19.7816 13.0516L19.4211 12.1142C19.3971 12.0421 19.3971 11.97 19.4211 11.8738C19.4451 11.8017 19.5172 11.7537 19.5894 11.7056L48.1202 0.1202C48.1923 0.0961638 48.2644 0.0961638 48.3365 0.1202L48.5288 0.192308L76.5308 11.4893C76.675 11.5614 76.7471 11.7296 76.699 11.8738L76.3144 12.8112C76.2904 12.8833 76.2183 12.9555 76.1462 12.9795C76.0741 13.0035 75.9779 13.0035 75.9058 12.9795L48.2403 1.82676L20.1903 13.2199C20.1662 13.2199 20.1181 13.2439 20.0701 13.2439ZM20.0941 12.1623L20.2624 12.5468L48.1442 1.22586C48.2163 1.20182 48.2884 1.20182 48.3605 1.22586L75.9058 12.3305L76.0741 11.9459L48.2403 0.721101L20.0941 12.1623Z" fill="#F0F0F0"/>
<path d="M84.0061 76.0262L83.0447 75.6416L94.558 47.231L83.3331 19.7577L84.2705 19.3732L95.6636 47.231L84.0061 76.0262Z" fill="#F0F0F0"/>
<path d="M84.0061 76.3386C83.958 76.3386 83.934 76.3386 83.8859 76.3145L82.9485 75.93C82.8764 75.9059 82.8043 75.8338 82.7802 75.7617C82.7562 75.6896 82.7562 75.6175 82.7802 75.5213L94.2454 47.2069L83.0446 19.8779C82.9725 19.7337 83.0446 19.5414 83.2129 19.4933L84.1503 19.1087C84.2224 19.0847 84.3185 19.0847 84.3907 19.1087C84.4628 19.1328 84.5349 19.2049 84.5589 19.277L95.952 47.1348C95.976 47.2069 95.976 47.279 95.952 47.3511L84.2945 76.1703C84.2224 76.2665 84.1263 76.3386 84.0061 76.3386ZM83.4532 75.4733L83.8378 75.6415L95.3511 47.2309L84.1022 19.7577L83.7176 19.926L94.8223 47.1107C94.8463 47.1828 94.8463 47.2549 94.8223 47.3271L83.4532 75.4733Z" fill="#F0F0F0"/>
<path d="M47.9519 95.5914L47.7596 95.5193L19.1567 83.8137L19.5413 82.8523L47.9519 94.4857L75.8338 82.9965L76.2183 83.9339L47.9519 95.5914Z" fill="#F0F0F0"/>
<path d="M47.952 95.9038C47.9039 95.9038 47.8799 95.9038 47.8318 95.8798L47.6395 95.8077L19.0366 84.1021C18.8924 84.03 18.8203 83.8618 18.8683 83.7176L19.2529 82.7802C19.277 82.708 19.3491 82.6359 19.4212 82.6119C19.4933 82.5879 19.5894 82.5879 19.6615 82.6119L47.976 94.1973L75.7377 82.7321C75.9059 82.66 76.0742 82.7321 76.1222 82.9003L76.5068 83.8377C76.5309 83.9099 76.5309 84.006 76.5068 84.0781C76.4828 84.1502 76.4107 84.2223 76.3386 84.2464L48.0722 95.8798C48.0481 95.9038 48.0001 95.9038 47.952 95.9038ZM19.5414 83.6454L47.952 95.2789L75.8338 83.7656L75.6656 83.3811L48.0722 94.7741C48.0001 94.7982 47.9279 94.7982 47.8318 94.7741L19.7096 83.2609L19.5414 83.6454Z" fill="#F0F0F0"/>
<path d="M11.369 76.1704L0.336426 48.4568L0.408534 48.2645L11.369 19.6376L12.3304 19.9981L1.41805 48.4328L12.3304 75.7858L11.369 76.1704Z" fill="#F0F0F0"/>
<path d="M11.369 76.4588C11.2489 76.4588 11.1287 76.3867 11.0806 76.2665L0.0480563 48.5529C0.0240203 48.4808 0.0240203 48.4087 0.0480563 48.3366L0.120165 48.1443L11.0806 19.5414C11.1287 19.4693 11.1767 19.3972 11.2489 19.3731C11.321 19.3491 11.4171 19.3491 11.4892 19.3731L12.4507 19.7337C12.5949 19.7817 12.691 19.974 12.6189 20.1182L1.75462 48.4327L12.6189 75.6656C12.691 75.8098 12.5949 76.0021 12.4507 76.0502L11.4892 76.4347C11.4411 76.4588 11.4171 76.4588 11.369 76.4588ZM0.648958 48.4327L11.5373 75.7617L11.9219 75.6175L1.15371 48.5529C1.12968 48.4808 1.12968 48.4087 1.15371 48.3366L11.9459 20.1904L11.5373 20.0221L0.648958 48.4327Z" fill="#F0F0F0"/>
<path d="M48.0001 95.7116C37.7607 95.7116 10.9365 93.1638 6.89845 89.1257C3.34111 85.5684 0.264495 57.6145 0.312568 48C0.36064 38.1693 3.43725 11.1287 7.28302 7.28296C11.273 3.29297 37.953 0.336536 48.0722 0.3125C48.0962 0.3125 48.1203 0.3125 48.1684 0.3125C57.8308 0.3125 85.1118 3.29297 88.9335 7.1147C92.6351 10.7922 95.6876 38.0491 95.7357 47.5914C95.7838 57.0616 92.611 85.6645 89.1498 89.1257C84.4628 93.7406 57.8068 95.7116 48.0001 95.7116ZM48.1443 1.32201C48.1203 1.32201 48.0722 1.32201 48.0482 1.32201C37.0397 1.34605 11.5374 4.4467 7.98007 7.98C4.56695 11.3931 1.37015 37.2319 1.32208 47.976C1.27401 58.0952 4.51888 85.28 7.61953 88.3806C11.2009 91.962 36.631 94.678 48.0001 94.678C58.1914 94.678 84.2224 92.5388 88.3807 88.3806C91.2169 85.5443 94.7262 58.624 94.6781 47.5674C94.63 37.0636 91.3371 10.9605 88.1644 7.81175C84.7993 4.4467 58.7202 1.32201 48.1443 1.32201Z" fill="#F0F0F0"/>
<path d="M47.9998 96C37.7364 96 10.792 93.4041 6.68184 89.318C3.07643 85.7126 -0.0482571 57.6144 -0.000184972 47.976C0.0478871 38.0971 3.14854 10.9364 7.04238 7.04256C11.0804 3.00451 37.9047 0.0240361 48.0479 0H48.144C58.0229 0 85.2076 2.98047 89.1015 6.87431C92.8511 10.5999 95.9277 37.977 95.9758 47.5433C96.0239 57.0616 92.803 85.7847 89.2938 89.2939C84.6067 94.005 57.8546 96 47.9998 96ZM48.0479 0.600901C42.6157 0.600901 33.3138 1.41813 25.4059 2.59589C15.5511 4.03806 9.18159 5.79269 7.47503 7.47521C5.84058 9.10966 4.13402 15.4792 2.64378 25.4061C1.46601 33.3861 0.624753 42.664 0.57668 47.976C0.552644 52.9755 1.36987 62.5418 2.5236 70.7621C3.91769 80.7852 5.60022 87.3951 7.09045 88.8853C8.79701 90.5919 15.2146 92.2744 25.1415 93.5964C34.2272 94.8222 43.3368 95.3751 47.9758 95.3751C57.7585 95.3751 84.2943 93.4522 88.8611 88.8613C90.3273 87.3951 91.9618 80.7131 93.3799 70.5218C94.5577 62.1332 95.3749 52.4707 95.3509 47.5433C95.3268 42.4717 94.4856 33.0496 93.3318 25.1658C91.9137 15.359 90.2071 8.84527 88.6448 7.30696C84.9432 3.58137 57.6864 0.600901 48.144 0.600901H48.0479ZM47.9998 94.9905C36.6067 94.9905 11.0324 92.2263 7.40292 88.6209C4.27823 85.4722 0.961257 58.1432 1.03337 48C1.08144 37.1838 4.30227 11.2489 7.7875 7.78768C11.3689 4.18227 36.9913 1.05759 48.0719 1.03355H48.1681C58.9603 1.03355 84.9432 4.15824 88.4044 7.61943C91.6012 10.8162 94.9422 37.0396 94.9903 47.5914C95.0384 58.696 91.481 85.7366 88.6208 88.6209C84.3664 92.8032 58.2151 94.9905 47.9998 94.9905ZM48.0479 1.61042C42.3994 1.61042 33.2417 2.42764 25.2617 3.60541C15.9357 4.9995 9.71038 6.65799 8.19611 8.17226C6.72991 9.63846 5.09546 15.8638 3.67733 25.2619C2.47553 33.338 1.63427 42.4477 1.61023 47.976C1.56216 57.7827 4.83106 85.1838 7.81153 88.1642C9.3258 89.6785 15.5752 91.2889 24.9252 92.5628C32.809 93.6445 42.0869 94.3655 47.9998 94.3655C58.1671 94.3655 84.0779 92.2504 88.1641 88.1642C90.9042 85.4241 94.4134 58.3115 94.3654 47.5674C94.3173 37.3761 91.0003 11.0806 87.9718 8.02804C84.6548 4.71107 58.5997 1.61042 48.1681 1.61042H48.0479Z" fill="#F0F0F0"/>
</g>
<defs>
<clipPath id="clip0_14_689">
<rect width="96" height="96" fill="white"/>
</clipPath>
</defs>
</svg>
