<svg width="69" height="130" viewBox="0 0 69 130" fill="none" xmlns="http://www.w3.org/2000/svg">
<g clip-path="url(#clip0_14_765)">
<path d="M68.5793 64.9859C69.1962 51.9491 64.2335 38.8275 58.1775 27.5723C54.9532 21.5771 51.1681 15.7516 46.7382 10.5482C43.6541 6.95671 39.2803 1.86643 34.6261 0.36763C34.598 0.36763 34.57 0.339351 34.5419 0.339351C34.5139 0.339351 34.4859 0.339351 34.4578 0.339351C34.4298 0.339351 34.4018 0.311071 34.3737 0.339351C34.3457 0.339351 34.3176 0.36763 34.2896 0.36763C34.2616 0.36763 34.2616 0.36763 34.2335 0.36763L34.2055 0.395909C23.6915 5.57102 16.2055 17.5615 10.8223 27.5723C4.76624 38.8275 -0.196372 51.9491 0.420451 64.9576V64.9859V65.0141C-0.224409 78.5034 5.10269 92.1057 11.5233 103.672C14.8036 109.582 18.6167 115.351 23.1307 120.413C25.6821 123.27 30.4205 128.954 34.4298 129.632C34.4859 129.632 34.5419 129.632 34.598 129.632C38.6074 129.01 43.3737 123.213 45.8971 120.413C50.4111 115.351 54.2242 109.611 57.5046 103.672C63.9251 92.134 69.2522 78.5034 68.5793 64.9859ZM20.9719 116.398C18.1962 112.806 15.4765 108.734 13.0373 104.492L16.7102 106.132L27.3924 110.94L25.1494 112.834L20.9719 116.398ZM47.9999 13.6023C50.8036 17.1938 53.5233 21.2943 55.9625 25.5079L50.7476 23.1608L41.6354 19.0603L43.57 17.3918L47.9999 13.6023ZM56.6074 103.163L55.2896 103.757L41.4391 110.007L45.6167 91.0028L56.9158 79.4366L56.6634 100.222L56.6074 103.163ZM12.3924 103.163L12.3363 100.222L12.084 79.4366L23.3831 91.0028L27.5606 110.007L13.6821 103.757L12.3924 103.163ZM12.3924 26.8653L14.0747 26.1018L27.5887 19.9935L23.3831 39.0254L12.084 50.5917L12.3363 29.8064L12.3924 26.8653ZM34.0373 126.352L28.7662 110.911L34.0373 104.209V126.352ZM52.1494 74.318C52.4298 72.8192 52.6541 71.2921 52.7943 69.7651L56.7756 78.1923L56.2148 78.7579L47.5513 87.6376C49.7662 83.4805 51.3083 78.871 52.1494 74.318ZM36.8971 99.7977C36.084 100.59 35.2709 101.353 34.4859 102.173C34.2055 101.89 33.841 101.551 33.4765 101.155L33.3083 100.985C23.9719 91.8512 17.7756 81.2747 16.9625 67.9269C17.0186 67.0502 17.1027 66.1453 17.2709 65.099C17.4952 64.3072 17.0186 62.8649 16.9905 62.0165C17.4111 54.8619 19.3737 47.7072 22.9625 41.514C26.0186 36.2258 30.2803 32.0687 34.5139 27.7986C34.8223 28.0814 35.1588 28.4207 35.5513 28.8166L35.7195 28.9863C45.056 38.1205 51.2522 48.697 52.0373 62.0448C52.0092 62.9497 51.8971 63.8547 51.7289 64.9293C51.7289 64.9859 51.7289 65.0141 51.7289 65.0707C51.8971 66.0888 51.9812 67.022 52.0373 67.9552C51.2522 80.5395 45.7008 91.0594 36.8971 99.7977C36.4485 100.278 38.9999 97.705 36.8971 99.7977ZM12.1962 78.164L16.1775 69.7368C16.7662 75.9017 18.5046 82.1231 21.3924 87.581L12.7289 78.7013L12.1962 78.164ZM16.8223 55.7102C16.5419 57.209 16.3176 58.7361 16.1775 60.2632L12.1962 51.8643L12.7569 51.2987L21.4205 42.419C19.2335 46.5195 17.6915 51.1573 16.8223 55.7102ZM25.4578 93.7742C27.6728 96.6304 30.112 99.2038 32.6915 101.721L32.8317 101.862C33.2522 102.258 33.5606 102.597 33.869 102.908L28.4859 109.752L24.7849 92.9258C25.0092 93.2369 25.2335 93.4914 25.4578 93.7742ZM56.8036 51.836L52.8223 60.2349C52.2335 54.0983 50.4952 47.8486 47.6074 42.3907L56.2709 51.2704L56.8036 51.836ZM43.5139 36.1975C41.327 33.3979 38.8877 30.7962 36.3363 28.3076L36.1681 28.1662C35.7476 27.7703 35.4391 27.4309 35.1307 27.1199L40.5139 20.248L44.2148 37.0742C43.9905 36.7631 43.7382 36.5086 43.5139 36.1975ZM32.6915 28.2793C29.8597 31.0224 27.1401 33.8786 24.7849 37.0742L25.57 33.4544L28.4859 20.248L33.869 27.1199C33.5326 27.4592 33.1681 27.8268 32.6915 28.2793C32.299 28.6752 33.1681 27.8268 32.6915 28.2793ZM34.9625 104.209L40.2335 110.911L34.9625 126.352V104.209ZM35.1307 102.88C38.299 99.6563 41.5233 96.5739 44.2148 92.9258L42.4765 100.816L40.5139 109.752L38.6915 107.433L35.1307 102.88ZM56.6074 26.8653L56.6354 29.8064L56.8877 50.5917L45.5887 39.0254L41.4111 20.0218L54.9251 26.1301L56.6074 26.8653ZM34.9625 25.7907V3.64803L40.2335 19.0885L34.9625 25.7907ZM34.0373 25.7907L28.7662 19.0885L34.0373 3.64803V25.7907ZM16.0373 62.1579C16.0933 63.0629 16.1775 63.9395 16.3457 64.9859C16.2055 65.9191 16.0933 66.8806 16.0373 67.8421L11.5233 77.3722L1.48587 64.9859L11.5233 52.5995L16.0373 62.1579ZM52.9345 67.8421C52.8784 66.9371 52.7943 66.0039 52.6261 65.0141C52.7943 63.9678 52.8784 63.0629 52.9345 62.1862L57.4485 52.6561L67.4859 65.0424L57.4485 77.4288L52.9345 67.8421ZM20.9719 13.6023L25.4298 17.3918L27.3644 19.0603L18.2522 23.1608L13.0373 25.5362C15.4485 21.2943 18.1962 17.1938 20.9719 13.6023ZM47.9999 116.398L43.57 112.608L41.6354 110.94L52.3176 106.132L55.9905 104.492C53.5233 108.706 50.8036 112.806 47.9999 116.398ZM67.6821 63.7416L64.0653 59.2734L58.0373 51.836L65.0747 46.4629C66.9251 52.7126 67.7943 58.5099 67.6821 63.7416ZM64.7943 45.5014L57.841 50.8179L57.6447 34.5856L57.5887 28.449C60.5887 34.1049 63.084 39.9587 64.7943 45.5014ZM47.4391 12.8671L40.9905 18.3816L36.3644 4.80748L35.327 1.7816C39.056 3.90254 43.57 8.03132 47.4391 12.8671ZM33.6728 1.7816L32.6354 4.80748L28.0092 18.3816L21.5606 12.8671C25.4298 8.03132 29.9438 3.90254 33.6728 1.7816ZM11.4391 28.4207L11.355 36.452L11.1868 50.8179L4.2055 45.5014C5.91578 39.9587 8.4111 34.0766 11.4391 28.4207ZM3.92512 46.4629L10.9625 51.836L7.93447 55.5688L1.28961 63.7416C1.2055 58.5099 2.07466 52.7126 3.92512 46.4629ZM1.28961 66.2584L7.93447 74.4312L10.9625 78.164L3.92512 83.5371C2.07466 77.3156 1.2055 71.5184 1.28961 66.2584ZM4.2055 84.4986L11.1588 79.1821L11.327 93.4631L11.4111 101.579C8.41111 95.9234 5.91578 90.0413 4.2055 84.4986ZM21.5606 117.133L28.0092 111.618L33.6728 128.218C29.9438 126.097 25.4298 121.969 21.5606 117.133ZM35.327 128.218L40.9905 111.618L47.4391 117.133C43.57 121.969 39.0279 126.097 35.327 128.218ZM57.5606 101.579L57.6167 95.3013L57.813 79.1821L64.7662 84.4986C63.084 90.0413 60.5887 95.8951 57.5606 101.579ZM65.0747 83.5371L58.0373 78.164L64.0653 70.7266L67.6821 66.2584C67.7943 71.5184 66.9251 77.3156 65.0747 83.5371Z" fill="#F0F0F0"/>
<path d="M34.5139 130C34.4578 130 34.4018 130 34.3457 129.972C30.5606 129.35 26.355 124.57 23.5513 121.431L22.8504 120.64C18.7569 116.087 14.9438 110.6 11.2149 103.87C3.28027 89.5889 -0.476735 76.4956 0.0559751 65.0142C-0.476735 53.759 2.94383 41.4575 10.5139 27.431C15.8691 17.4767 23.4111 5.37311 34.0934 0.113154C34.1214 0.0848743 34.1494 0.0848743 34.2055 0.056595C34.2335 0.056595 34.2616 0.056595 34.2896 0.056595C34.3177 0.056595 34.3457 0.0283157 34.3737 0.0283157C34.4018 3.63421e-05 34.4578 0.0283157 34.5139 0.0283157C34.57 0.0283157 34.6261 0.0283157 34.7102 0.056595C34.7382 0.056595 34.7663 0.0848743 34.7663 0.0848743C39.5606 1.66852 44.0466 6.90019 47.0186 10.3785C51.112 15.1295 54.9532 20.8702 58.4859 27.4593C66.056 41.5141 69.4765 53.8156 68.9438 65.0425H68.6074H68.9438C69.5046 76.5239 65.7476 89.5889 57.813 103.898C54.084 110.6 50.2709 116.087 46.1494 120.696L45.4205 121.516C42.7849 124.486 38.4111 129.434 34.6261 130.057C34.598 130 34.542 130 34.5139 130ZM34.3737 0.735298C23.8878 5.91041 16.4298 17.8726 11.1307 27.742C3.61672 41.6837 0.224199 53.8438 0.75691 64.9576C0.224199 76.4107 3.92513 89.3627 11.8036 103.531C15.5046 110.205 19.2896 115.662 23.355 120.187L24.056 120.979C26.6074 123.863 30.8971 128.699 34.4578 129.293C38.0186 128.727 42.3083 123.892 44.8877 121.007L45.6167 120.187C49.7102 115.634 53.4672 110.176 57.1681 103.531C65.0466 89.3344 68.7756 76.3825 68.2149 65.0425C68.2149 65.0425 68.2149 65.0142 68.2149 64.9859V64.9576C68.7476 53.8438 65.355 41.6837 57.841 27.742C54.3363 21.2095 50.4952 15.5254 46.4578 10.8027C43.542 7.38094 39.1121 2.2341 34.5139 0.735298H34.4859H34.4578H34.4298C34.4298 0.735298 34.4018 0.735298 34.3737 0.735298ZM35.327 128.558C35.2429 128.558 35.1588 128.53 35.1027 128.473C34.9906 128.388 34.9625 128.218 34.9906 128.077L40.6541 111.477C40.6821 111.364 40.7663 111.279 40.8784 111.251C40.9906 111.223 41.1027 111.251 41.1868 111.336L47.6354 116.85C47.7756 116.963 47.8036 117.19 47.6915 117.331C43.8223 122.167 39.2522 126.352 35.4952 128.501C35.4392 128.558 35.3831 128.558 35.327 128.558ZM41.1307 112.241L35.9438 127.427C39.3924 125.249 43.4298 121.488 46.9064 117.19L41.1307 112.241ZM33.6728 128.558C33.6167 128.558 33.5606 128.53 33.5046 128.501C29.7476 126.352 25.1775 122.167 21.3083 117.331C21.1962 117.19 21.1962 116.963 21.3644 116.85L27.813 111.336C27.8971 111.251 28.0373 111.223 28.1214 111.251C28.2335 111.279 28.3177 111.364 28.3457 111.477L34.0092 128.077C34.0653 128.218 34.0092 128.36 33.8971 128.473C33.841 128.53 33.7569 128.558 33.6728 128.558ZM22.0653 117.19C25.57 121.516 29.5793 125.249 33.056 127.427L27.8691 112.241L22.0653 117.19ZM34.0373 126.72C33.8971 126.72 33.7569 126.635 33.7008 126.493L28.4298 111.053C28.4018 110.94 28.4018 110.827 28.4859 110.714L33.7569 104.011C33.841 103.898 34.0092 103.842 34.1494 103.898C34.2896 103.955 34.3737 104.068 34.3737 104.238V126.38C34.3737 126.55 34.2616 126.691 34.0934 126.72C34.0653 126.72 34.0373 126.72 34.0373 126.72ZM29.1588 110.968L33.6728 124.231V105.199L29.1588 110.968ZM34.9625 126.72C34.9345 126.72 34.9345 126.72 34.9064 126.72C34.7382 126.691 34.6261 126.55 34.6261 126.38V104.238C34.6261 104.096 34.7102 103.955 34.8504 103.898C34.9906 103.842 35.1588 103.898 35.2429 104.011L40.5139 110.714C40.598 110.798 40.598 110.94 40.57 111.053L35.299 126.493C35.2429 126.607 35.1027 126.72 34.9625 126.72ZM35.299 105.227V124.259L39.813 110.996L35.299 105.227ZM47.9999 116.765C47.9158 116.765 47.8317 116.737 47.7756 116.68L41.3831 111.223C41.299 111.138 41.2429 111.025 41.2709 110.912C41.299 110.798 41.355 110.685 41.4672 110.629L55.7943 104.181C55.9345 104.124 56.1027 104.153 56.1868 104.266C56.299 104.379 56.299 104.549 56.2429 104.69C53.7756 108.96 51.0279 113.089 48.2522 116.652C48.1962 116.737 48.112 116.765 47.9999 116.794C48.0279 116.765 48.0279 116.765 47.9999 116.765ZM42.2803 111.025L47.9719 115.889C50.4392 112.693 52.8784 109.045 55.1214 105.256L42.2803 111.025ZM20.9719 116.765H20.9438C20.8597 116.765 20.7756 116.709 20.6915 116.624C17.9438 113.089 15.1681 108.932 12.7289 104.662C12.6448 104.52 12.6728 104.351 12.7849 104.238C12.8971 104.124 13.0373 104.096 13.1775 104.153L27.5046 110.6C27.6167 110.657 27.7008 110.742 27.7008 110.883C27.7008 111.025 27.6728 111.109 27.5887 111.194L21.1962 116.652C21.1401 116.737 21.056 116.765 20.9719 116.765ZM13.8784 105.256C16.1214 109.045 18.5606 112.693 21.0279 115.889L26.7195 111.025L13.8784 105.256ZM27.5887 110.346C27.5326 110.346 27.4765 110.346 27.4485 110.318L12.2522 103.474C12.1401 103.417 12.056 103.304 12.056 103.163L11.7756 79.4366C11.7756 79.2952 11.8597 79.1538 11.9999 79.0973C12.1401 79.0407 12.2803 79.069 12.3924 79.1821L23.6915 90.7484C23.7476 90.8049 23.7756 90.8615 23.7756 90.918L27.9532 109.95C27.9812 110.091 27.9251 110.205 27.841 110.289C27.7289 110.318 27.6448 110.346 27.5887 110.346ZM12.7289 102.937L27.084 109.413L23.0747 91.1726L12.4765 80.3133L12.7289 102.937ZM41.4111 110.346C41.327 110.346 41.2429 110.318 41.1868 110.261C41.0747 110.176 41.0466 110.035 41.0747 109.922L45.2522 90.8898C45.2522 90.8332 45.3083 90.7766 45.3363 90.7201L56.6354 79.1821C56.7195 79.069 56.8877 79.0407 57.0279 79.0973C57.1681 79.1538 57.2522 79.2952 57.2522 79.4366L56.9719 103.163C56.9719 103.304 56.8877 103.417 56.7756 103.474L41.5793 110.318C41.5233 110.346 41.4672 110.346 41.4111 110.346ZM45.9251 91.1726L41.9158 109.413L56.2709 102.937L56.5233 80.3133L45.9251 91.1726ZM28.4859 110.091C28.4578 110.091 28.4298 110.091 28.4018 110.091C28.2616 110.063 28.1775 109.95 28.1494 109.809L24.4485 92.9824C24.4205 92.8128 24.5046 92.6431 24.6448 92.5865C24.813 92.53 24.9812 92.5582 25.0653 92.6996C25.2055 92.8693 25.3457 93.039 25.4859 93.2087L25.7382 93.5197C27.6448 96.0083 29.8597 98.4403 32.9438 101.41L33.084 101.551C33.5046 101.947 33.7849 102.258 34.0934 102.569C34.2055 102.682 34.2616 102.937 34.1494 103.078L28.7663 109.95C28.6821 110.063 28.598 110.091 28.4859 110.091ZM25.4578 94.3398L28.6821 108.96L33.4205 102.937C33.1681 102.682 32.9158 102.428 32.6074 102.117L32.4672 101.975C29.4952 99.0908 27.3363 96.7153 25.4578 94.3398ZM40.5139 110.091C40.4018 110.091 40.3177 110.035 40.2335 109.95L34.8504 103.078C34.7382 102.937 34.7382 102.739 34.8784 102.597L36.2242 101.24C38.8878 98.5534 41.6635 95.7821 43.9345 92.6714C44.0466 92.53 44.2149 92.5017 44.355 92.5582C44.4952 92.6148 44.5793 92.7845 44.5513 92.9541L40.8504 109.78C40.8223 109.922 40.7102 110.007 40.598 110.035C40.57 110.091 40.542 110.091 40.5139 110.091ZM35.5793 102.908L40.3177 108.932L43.5139 94.3681C41.4111 97.0264 38.9999 99.4301 36.6728 101.777L35.5793 102.908ZM34.4859 102.541C34.4018 102.541 34.2896 102.513 34.2335 102.428C33.9532 102.145 33.5887 101.806 33.2242 101.41L33.056 101.24C22.7382 91.1443 17.355 80.2567 16.6261 67.9552C16.6821 67.022 16.7663 66.1171 16.9345 65.0707C17.0747 64.59 16.9345 63.8547 16.7943 63.176C16.7102 62.7518 16.6541 62.3842 16.6261 62.0448C17.0747 54.5226 19.1494 47.3679 22.6261 41.3444C25.5139 36.3672 29.5233 32.295 33.4205 28.3642L34.2335 27.5441C34.3737 27.4027 34.598 27.4027 34.7382 27.5441C35.0186 27.8269 35.355 28.1662 35.7476 28.5339L35.9158 28.7035C46.2335 38.7993 51.6167 49.6868 52.3457 61.9883C52.3177 62.9215 52.2055 63.8264 52.0373 64.9293C52.2055 66.0322 52.2896 66.9937 52.3457 67.8704C51.6448 79.5215 46.8223 90.0131 37.9625 99.1473C37.9345 99.1756 37.7663 99.3453 37.57 99.5432C37.4578 99.6563 37.3457 99.7695 37.1775 99.9391C37.1494 99.9674 37.1494 99.9674 37.1214 99.9957L36.2803 100.816C35.7476 101.325 35.2429 101.834 34.7382 102.343C34.6821 102.484 34.598 102.541 34.4859 102.541ZM34.4859 28.3359L33.9251 28.9015C29.8878 32.9737 26.0747 36.848 23.2429 41.7403C19.8223 47.679 17.7756 54.6922 17.327 62.0731C17.327 62.2994 17.4111 62.667 17.4672 63.0629C17.6074 63.8264 17.7476 64.6465 17.5793 65.2121C17.4392 66.2019 17.355 67.0786 17.299 67.9552C18.0279 80.0305 23.327 90.7766 33.5326 100.731L33.7008 100.901C33.9812 101.183 34.2335 101.438 34.4859 101.664C34.9064 101.24 35.355 100.788 35.8036 100.363L36.6167 99.5715C45.9251 90.3242 50.9719 79.6911 51.6728 67.8987C51.6448 67.0503 51.5326 66.1454 51.3644 65.099C51.3363 65.0142 51.3363 64.9293 51.3644 64.8162C51.5326 63.7699 51.6167 62.8649 51.6448 61.9883C50.9158 49.913 45.6167 39.1669 35.4111 29.2126L35.2429 29.0429C34.9906 28.8167 34.7382 28.5621 34.4859 28.3359ZM11.4392 101.947C11.327 101.947 11.1868 101.89 11.1307 101.749C8.1027 96.0649 5.60738 90.1545 3.8971 84.6117C3.84102 84.4703 3.8971 84.3289 4.00925 84.2158L10.9625 78.8993C11.0747 78.8145 11.2149 78.8145 11.327 78.871C11.4392 78.9276 11.5233 79.0407 11.5233 79.1821L11.7756 101.579C11.7756 101.749 11.6635 101.89 11.5233 101.919C11.4952 101.947 11.4672 101.947 11.4392 101.947ZM4.62607 84.64C6.19616 89.6455 8.41112 94.962 11.0747 100.137L10.8504 79.9174L4.62607 84.64ZM57.5606 101.947C57.5326 101.947 57.5046 101.947 57.4765 101.947C57.3083 101.919 57.2242 101.777 57.2242 101.608L57.4765 79.1821C57.4765 79.0407 57.5606 78.9276 57.6728 78.871C57.7849 78.8145 57.9251 78.8145 58.0373 78.8993L64.9906 84.2158C65.1027 84.3007 65.1588 84.4703 65.1027 84.6117C63.3924 90.1262 60.8971 96.0649 57.8691 101.749C57.813 101.862 57.7008 101.947 57.5606 101.947ZM58.1775 79.8891L57.9532 100.109C60.6167 94.9337 62.8317 89.6172 64.4018 84.6117L58.1775 79.8891ZM47.5793 87.9487C47.4952 87.9487 47.4391 87.9204 47.3831 87.8921C47.2429 87.779 47.1868 87.6094 47.2709 87.4397C49.3457 83.4806 50.9158 78.9276 51.813 74.2332C52.1214 72.6496 52.3177 71.1225 52.4578 69.7085C52.4578 69.5389 52.598 69.4258 52.7382 69.3975C52.9064 69.3692 53.0466 69.454 53.1027 69.5954L57.112 77.9944C57.1681 78.1358 57.1401 78.2772 57.056 78.3903L47.8317 87.8356C47.7756 87.9204 47.6915 87.9487 47.5793 87.9487ZM53.0186 71.0094C52.8784 72.084 52.7102 73.2152 52.4859 74.3746C51.7289 78.362 50.4952 82.2646 48.8691 85.7712L56.355 78.0792L53.0186 71.0094ZM21.3924 87.9487C21.3083 87.9487 21.2242 87.9204 21.1401 87.8356L11.9158 78.3903C11.8036 78.2772 11.7756 78.1358 11.8597 77.9944L15.841 69.5954C15.8971 69.454 16.0653 69.3692 16.2055 69.3975C16.3737 69.4258 16.4859 69.5671 16.4859 69.7085C17.0747 76.0431 18.8691 82.1514 21.6728 87.4397C21.7569 87.5811 21.7008 87.779 21.5606 87.8921C21.5606 87.9204 21.4765 87.9487 21.3924 87.9487ZM12.6167 78.0792L20.1027 85.7429C17.9999 81.2182 16.598 76.1845 15.9812 71.0094L12.6167 78.0792ZM65.0747 83.9048C64.9905 83.9048 64.9345 83.8765 64.8504 83.8199L57.813 78.4469C57.7289 78.3903 57.7008 78.3055 57.6728 78.2206C57.6448 78.1358 57.7008 78.0227 57.7569 77.9661L67.4018 66.0605C67.4859 65.9474 67.6541 65.9191 67.7943 65.9474C67.9345 66.004 68.0186 66.1171 68.0186 66.2868C68.1307 71.5467 67.2335 77.4005 65.3831 83.6502C65.355 83.7634 65.2709 83.8482 65.1588 83.8765C65.1307 83.8765 65.1027 83.9048 65.0747 83.9048ZM58.542 78.1075L64.8784 82.9433C66.5046 77.3157 67.3177 72.0557 67.3457 67.2482L58.542 78.1075ZM3.92513 83.9048C3.8971 83.9048 3.84102 83.9048 3.81298 83.8765C3.70083 83.8482 3.61672 83.7634 3.58869 83.6502C1.73822 77.4005 0.869059 71.5467 0.953171 66.2868C0.953171 66.1454 1.03728 66.004 1.17747 65.9474C1.31766 65.8908 1.45784 65.9474 1.56999 66.0605L11.2149 77.9378C11.2709 78.0227 11.299 78.1075 11.299 78.1923C11.299 78.2772 11.2429 78.362 11.1588 78.4186L4.1214 83.7916C4.06532 83.8765 3.98121 83.9048 3.92513 83.9048ZM1.65411 67.2482C1.68214 72.0557 2.49523 77.3157 4.1214 82.9433L10.4578 78.1075L1.65411 67.2482ZM57.4765 77.7399H57.4485C57.3363 77.7399 57.2242 77.655 57.1681 77.5419L52.6261 68.0118C52.598 67.9552 52.598 67.9269 52.598 67.8704C52.542 66.9655 52.4578 66.0605 52.3177 65.0707C52.3177 65.0425 52.3177 64.9859 52.3177 64.9576C52.4859 63.9113 52.57 63.0346 52.6261 62.158C52.6261 62.1014 52.6261 62.0731 52.6541 62.0166L57.1681 52.4864C57.2242 52.3733 57.3083 52.2885 57.4485 52.2885C57.5606 52.2885 57.6728 52.3168 57.7569 52.4016L67.7943 64.7879C67.9064 64.9293 67.9064 65.099 67.7943 65.2404L57.7569 77.6268C57.6728 77.6833 57.5887 77.7399 57.4765 77.7399ZM53.299 67.7573L57.5606 76.7218L67.0653 65.0142L57.5606 53.2783L53.299 62.2428C53.2429 63.0912 53.1588 63.9678 52.9906 64.9859C53.1307 65.9757 53.2429 66.8806 53.299 67.7573ZM11.5233 77.7399C11.4111 77.7399 11.327 77.6833 11.2429 77.5985L1.20551 65.2121C1.09336 65.0707 1.09336 64.9011 1.20551 64.7597L11.2429 52.3733C11.327 52.2885 11.4392 52.2319 11.5513 52.2602C11.6635 52.2602 11.7756 52.345 11.8317 52.4582L16.3457 61.9883C16.3737 62.0166 16.3737 62.0731 16.3737 62.1297C16.4298 63.0063 16.5139 63.883 16.6821 64.9293C16.6821 64.9576 16.6821 65.0142 16.6821 65.0425C16.542 66.004 16.4298 66.9655 16.3737 67.8704C16.3737 67.9269 16.3737 67.9552 16.3457 68.0118L11.8317 77.5419C11.7756 77.655 11.6915 77.7399 11.5513 77.7399H11.5233ZM1.93448 65.0142L11.4392 76.7218L15.7008 67.7573C15.7569 66.8806 15.841 65.9474 16.0092 64.9859C15.8691 63.9678 15.7569 63.0912 15.7008 62.2428L11.4392 53.2783L1.93448 65.0142ZM1.28962 64.081C1.26158 64.081 1.20551 64.081 1.17747 64.0527C1.03728 63.9961 0.953171 63.883 0.953171 63.7133C0.869059 58.4534 1.73822 52.5996 3.58869 46.3498C3.61672 46.2367 3.70083 46.1519 3.81298 46.1236C3.92513 46.0953 4.03728 46.1236 4.1214 46.1802L11.1588 51.5532C11.2429 51.6098 11.2709 51.6946 11.299 51.7795C11.327 51.8643 11.299 51.9774 11.2149 52.0623L1.56999 63.9678C1.51392 64.0527 1.40177 64.081 1.28962 64.081ZM4.1214 47.0568C2.49523 52.6844 1.68214 57.9444 1.65411 62.7518L10.4578 51.8926L4.1214 47.0568ZM67.6821 64.081C67.57 64.081 67.4859 64.0244 67.4018 63.9396L57.7569 52.034C57.7008 51.9491 57.6728 51.8643 57.6728 51.7795C57.6728 51.6946 57.7289 51.6098 57.813 51.5532L64.8504 46.1802C64.9345 46.1236 65.0466 46.0953 65.1588 46.1236C65.2709 46.1519 65.355 46.2367 65.3831 46.3498C67.2335 52.6278 68.1027 58.4534 68.0186 63.7133C68.0186 63.8547 67.9345 63.9961 67.7943 64.0527C67.7663 64.081 67.7382 64.081 67.6821 64.081ZM58.542 51.8926L67.3457 62.7518C67.3177 57.9444 66.5046 52.6844 64.8784 47.0568L58.542 51.8926ZM16.1775 60.6026C16.0373 60.6026 15.9251 60.5178 15.8691 60.4047L11.8878 52.0057C11.8317 51.8643 11.8597 51.7229 11.9438 51.6098L21.1681 42.1645C21.2803 42.0514 21.4765 42.0231 21.6167 42.1362C21.7569 42.2493 21.813 42.419 21.7289 42.5887C19.6261 46.5195 18.056 51.0725 17.1588 55.7668C16.8504 57.3788 16.6541 58.8776 16.5139 60.2633C16.5139 60.4329 16.3737 60.546 16.2335 60.5743C16.2335 60.6026 16.2055 60.6026 16.1775 60.6026ZM12.6167 51.9209L15.9812 58.9907C16.1214 57.9444 16.2896 56.8415 16.4859 55.6537C17.2429 51.6663 18.4765 47.7638 20.1027 44.2572L12.6167 51.9209ZM52.8223 60.6026C52.7943 60.6026 52.7943 60.6026 52.7663 60.6026C52.598 60.5743 52.4859 60.4329 52.4859 60.2915C51.8971 53.957 50.1027 47.8486 47.299 42.5887C47.2149 42.419 47.2709 42.2493 47.4111 42.1362C47.5513 42.0231 47.7476 42.0514 47.8597 42.1645L57.084 51.6098C57.1962 51.7229 57.2242 51.8643 57.1401 52.0057L53.1588 60.4047C53.0747 60.546 52.9345 60.6026 52.8223 60.6026ZM48.8971 44.2572C50.9999 48.7819 52.4018 53.8156 53.0186 58.9907L56.3831 51.9209L48.8971 44.2572ZM11.1588 51.1573C11.0747 51.1573 11.0186 51.129 10.9345 51.0725L3.98121 45.756C3.86906 45.6711 3.81298 45.5015 3.86906 45.3601C5.60738 39.8173 8.1027 33.9069 11.1027 28.2511C11.1868 28.1097 11.327 28.0248 11.4952 28.0814C11.6635 28.1097 11.7756 28.2511 11.7756 28.4207L11.5233 50.818C11.5233 50.9594 11.4392 51.0725 11.327 51.129C11.2709 51.1573 11.2149 51.1573 11.1588 51.1573ZM4.62607 45.3883L10.8223 50.111L11.0466 29.8913C8.41112 35.0098 6.19616 40.3263 4.62607 45.3883ZM57.813 51.1573C57.7569 51.1573 57.7008 51.1573 57.6728 51.129C57.5606 51.0725 57.4765 50.9594 57.4765 50.818L57.2242 28.4207C57.2242 28.2511 57.3363 28.1097 57.4765 28.0814C57.6167 28.0531 57.7849 28.1097 57.8691 28.2511C60.8971 33.9352 63.3924 39.8739 65.1027 45.3883C65.1588 45.5297 65.1027 45.6711 64.9906 45.7842L58.0373 51.1008C57.9812 51.129 57.8971 51.1573 57.813 51.1573ZM57.9251 29.8913L58.1494 50.111L64.3457 45.3883C62.8036 40.3829 60.5887 35.0381 57.9251 29.8913ZM56.8878 50.9311C56.8036 50.9311 56.6915 50.9028 56.6354 50.818L45.3363 39.2517C45.2803 39.1952 45.2242 39.0821 45.2242 38.9972L41.0466 20.0501C41.0466 19.937 41.1027 19.7956 41.1868 19.7107C41.299 19.6259 41.4392 19.5976 41.5513 19.6542L56.7476 26.4978C56.8597 26.5543 56.9438 26.6674 56.9438 26.8088L57.2242 50.5352C57.2242 50.6766 57.1401 50.818 56.9999 50.8745C56.9719 50.9311 56.9438 50.9311 56.8878 50.9311ZM45.9251 38.8558L56.5233 49.7151L56.2709 27.0916L41.9158 20.6157L45.9251 38.8558ZM12.1121 50.9311C12.056 50.9311 12.0279 50.9311 11.9719 50.9028C11.8317 50.8462 11.7476 50.7048 11.7476 50.5634L12.0279 26.8371C12.0279 26.6957 12.1121 26.5826 12.2242 26.526L27.4205 19.6824C27.5326 19.6259 27.6728 19.6542 27.7849 19.739C27.8971 19.7956 27.9532 19.937 27.9251 20.0783L23.7476 39.1103C23.7476 39.1669 23.6915 39.2234 23.6635 39.28L12.3644 50.8462C12.2803 50.9028 12.1962 50.9311 12.1121 50.9311ZM12.7289 27.0916L12.4765 49.7151L23.0747 38.8558L27.084 20.6157L12.7289 27.0916ZM44.2149 37.4418C44.1027 37.4418 43.9906 37.3853 43.9345 37.3005C43.8223 37.1308 43.6821 36.9894 43.57 36.8197C43.4578 36.6783 43.3457 36.5369 43.2335 36.3955C41.327 33.9352 39.1401 31.5315 36.084 28.5621L35.9158 28.3925C35.4952 27.9966 35.1868 27.6572 34.8504 27.3461C34.7382 27.233 34.7102 27.0068 34.8223 26.8654L40.2055 19.9935C40.2896 19.8804 40.4298 19.8521 40.57 19.8804C40.7102 19.9087 40.7943 20.0218 40.8223 20.1632L44.5233 36.9894C44.5513 37.1591 44.4672 37.3287 44.327 37.3853C44.299 37.4136 44.2709 37.4418 44.2149 37.4418ZM35.5793 27.0916C35.8317 27.3461 36.084 27.6006 36.3924 27.9117L36.5606 28.0814C39.5046 30.9659 41.6635 33.3131 43.5139 35.6885L40.2896 21.0964L35.5793 27.0916ZM24.7849 37.4418C24.7289 37.4418 24.6728 37.4418 24.6448 37.4136C24.5046 37.357 24.4205 37.1873 24.4485 37.0177L28.1494 20.1915C28.1775 20.0501 28.2896 19.9652 28.4018 19.937C28.542 19.9087 28.6821 19.9652 28.7663 20.0501L34.1494 26.9219C34.2616 27.0633 34.2616 27.2613 34.1214 27.4027L33.9532 27.5724C33.7008 27.8269 33.4205 28.1097 33.084 28.449L33.0279 28.5056C32.9999 28.5339 32.9719 28.5621 32.9438 28.5621C30.6167 30.8245 27.6167 33.8504 25.0653 37.3005C24.9812 37.3853 24.8971 37.4418 24.7849 37.4418ZM28.6541 21.0681L25.4578 35.6037C27.7569 32.6909 30.3083 30.1175 32.327 28.138L32.4111 28.0531L32.4392 28.0248C32.4392 28.0248 32.4392 28.0248 32.4672 27.9966C32.8036 27.6572 33.084 27.3744 33.3644 27.1199L28.6541 21.0681ZM34.0373 26.1584C33.9251 26.1584 33.841 26.1018 33.7569 26.017L28.4859 19.3148C28.4018 19.23 28.4018 19.0886 28.4298 18.9755L33.7008 3.53495C33.7569 3.36527 33.9251 3.25216 34.0934 3.30872C34.2616 3.337 34.3737 3.47839 34.3737 3.64807V25.7908C34.3737 25.9322 34.2896 26.0736 34.1494 26.1301C34.0934 26.1584 34.0653 26.1584 34.0373 26.1584ZM29.1588 19.032L33.6728 24.7727V5.76902L29.1588 19.032ZM34.9625 26.1584C34.9345 26.1584 34.8784 26.1584 34.8504 26.1301C34.7102 26.0736 34.6261 25.9604 34.6261 25.7908V3.64807C34.6261 3.47839 34.7382 3.337 34.9064 3.30872C35.0747 3.28044 35.2429 3.36527 35.299 3.53495L40.57 18.9755C40.598 19.0886 40.598 19.2017 40.5139 19.3148L35.2429 26.017C35.1868 26.1018 35.0747 26.1584 34.9625 26.1584ZM35.327 5.76902V24.7727L39.841 19.032L35.327 5.76902ZM13.0373 25.8756C12.9532 25.8756 12.841 25.8473 12.7849 25.7625C12.6728 25.6494 12.6728 25.4797 12.7289 25.3383C15.1681 21.0964 17.9158 16.9676 20.7195 13.3762C20.7756 13.2913 20.8597 13.263 20.9719 13.2348C21.056 13.2065 21.1681 13.263 21.2242 13.3196L27.6167 18.7775C27.7008 18.8623 27.7569 18.9755 27.7289 19.0886C27.7008 19.2017 27.6448 19.3148 27.5326 19.3714L13.1775 25.8473C13.1214 25.8756 13.0653 25.8756 13.0373 25.8756ZM21.0279 14.1114C18.5606 17.3353 16.0934 20.9833 13.8784 24.7444L26.7195 18.9472L21.0279 14.1114ZM55.9625 25.8756C55.9064 25.8756 55.8784 25.8756 55.8223 25.8473L41.4952 19.3714C41.3831 19.3148 41.299 19.23 41.299 19.0886C41.299 18.9472 41.327 18.8623 41.4111 18.7775L47.8036 13.3196C47.8877 13.263 47.9719 13.2065 48.056 13.2348C48.1401 13.2348 48.2242 13.2913 48.3083 13.3762C51.056 16.9676 53.8317 21.0964 56.2709 25.3383C56.355 25.4797 56.327 25.6494 56.2149 25.7625C56.1588 25.8473 56.0466 25.8756 55.9625 25.8756ZM42.2803 18.9755L55.1214 24.7727C52.9064 21.0116 50.4392 17.3353 47.9719 14.1397L42.2803 18.9755ZM40.9625 18.7209C40.9345 18.7209 40.9064 18.7209 40.8784 18.7209C40.7663 18.6927 40.6821 18.6078 40.6541 18.4947L34.9906 1.89475C34.9345 1.75335 34.9906 1.61196 35.1027 1.49884C35.2149 1.414 35.3831 1.38572 35.4952 1.47056C39.2522 3.61979 43.8223 7.80513 47.6915 12.6409C47.8036 12.7823 47.8036 13.0085 47.6634 13.1499L41.2149 18.6644C41.1307 18.6927 41.0466 18.7209 40.9625 18.7209ZM35.9719 2.57345L41.1588 17.7594L46.9625 12.8106C43.4298 8.51211 39.4205 4.75096 35.9719 2.57345ZM28.0092 18.7209C27.9251 18.7209 27.841 18.6927 27.7849 18.6361L21.3363 13.1216C21.1962 13.0085 21.1681 12.7823 21.2803 12.6409C25.1494 7.80513 29.7195 3.61979 33.4765 1.47056C33.5887 1.38572 33.7569 1.414 33.8691 1.49884C33.9812 1.58368 34.0092 1.75335 33.9812 1.89475L28.3177 18.4947C28.2896 18.6078 28.2055 18.6927 28.0934 18.7209C28.0934 18.7209 28.0373 18.7209 28.0092 18.7209ZM22.0653 12.8106L27.8691 17.7594L33.056 2.57345C29.5793 4.75096 25.542 8.51211 22.0653 12.8106Z" fill="#F0F0F0"/>
</g>
<defs>
<clipPath id="clip0_14_765">
<rect width="69" height="130" fill="white"/>
</clipPath>
</defs>
</svg>
