<svg width="93" height="93" viewBox="0 0 93 93" fill="none" xmlns="http://www.w3.org/2000/svg">
<path d="M0.404541 92.2181C0.404541 92.3799 0.539363 92.5417 0.701149 92.5956C0.728113 92.5956 0.755077 92.5956 0.782042 92.5956H92.2181C92.2451 92.5956 92.272 92.5956 92.299 92.5956C92.4608 92.5686 92.5956 92.3799 92.5956 92.2181V0.782042C92.5956 0.620256 92.4608 0.45847 92.299 0.404541C92.272 0.404541 92.2451 0.404541 92.2181 0.404541H0.782042C0.593291 0.404541 0.404541 0.593291 0.404541 0.782042V92.2181ZM75.2575 82.1604L74.6913 82.0795L48.482 78.8708L75.2575 75.5811V82.1604ZM82.6188 74.7722H76.0395L79.3292 47.3764L80.8122 59.7261L82.6188 74.7722ZM46.4866 14.6417L75.2845 18.174L78.682 46.4866L75.2845 74.7991L46.4866 78.3315L17.7156 74.8261L14.3181 46.5136L17.7156 18.201L19.3335 18.0123L46.4866 14.6417ZM25.3735 76.4979L44.5182 78.8438L17.7426 82.1334V75.5541L25.3735 76.4979ZM79.3292 45.5968L76.0395 18.228H82.6188L79.3292 45.5968ZM75.2575 10.8397V17.419L74.6374 17.3381L48.482 14.1294L67.6266 11.7835L75.2575 10.8397ZM44.5182 14.1294L17.7426 17.419V10.8397L25.3466 11.7835L44.5182 14.1294ZM13.671 45.5968L12.188 33.2471L10.3813 18.228H16.9606L13.671 45.5968ZM13.671 47.3764L15.4506 62.0989L16.9606 74.7722H10.3813L13.671 47.3764ZM46.4866 79.3831L69.5141 82.2143H23.486L46.4866 79.3831ZM76.0125 75.5272H82.8345L91.2743 91.2204L76.0125 82.3492V75.5272ZM82.6727 68.9209L79.9763 46.5136L82.6727 24.1062V68.9209ZM82.8345 17.473H76.0125V10.624L86.2859 4.66491L91.2743 1.75276L82.8345 17.473ZM46.4866 13.6171L23.486 10.7858H69.5141L46.4866 13.6171ZM16.9876 10.624V17.473H10.1656L1.72579 1.77972L7.73884 5.25812L16.9876 10.624ZM10.3274 24.0792L13.0238 46.4866L10.3274 68.894V24.0792ZM1.72579 91.2204L10.1656 75.5272H16.9876V82.3761L9.00616 87.014L1.72579 91.2204ZM4.04473 90.762L17.473 82.9693H75.5272L84.5872 88.2274L90.816 91.8406H2.15722L4.04473 90.762ZM91.8406 90.7351L86.7983 81.3515L83.4008 75.0418V17.9314L86.7983 11.6217L91.8406 2.23812V90.7351ZM88.2274 2.66955L75.5272 10.0578H17.473L2.15722 1.15954H90.816L88.2274 2.66955ZM1.15954 2.26508L6.20187 11.6217L9.59938 17.9314V75.0418L6.20187 81.3515L1.15954 90.7351V2.26508Z" fill="#F0F0F0"/>
<path d="M92.218 93H0.781966C0.755001 93 0.62018 93 0.566251 92.973C0.269643 92.8921 0 92.5416 0 92.218V0.781966C0 0.377501 0.377501 0 0.781966 0H92.218C92.245 0 92.2989 0 92.3259 0C92.3529 0 92.3798 0 92.4068 0C92.7304 0.080893 93 0.431429 93 0.755001V92.218C93 92.5686 92.7304 92.8921 92.4068 92.973C92.3798 92.973 92.245 93 92.218 93ZM91.0586 92.1911H92.218V90.8968C92.1641 91.0046 92.0832 91.1125 91.9484 91.1395C91.8405 91.1664 91.7327 91.1395 91.6518 91.0855C91.7057 91.2473 91.6787 91.4091 91.5709 91.5439C91.463 91.6518 91.3282 91.6787 91.1934 91.6518C91.2473 91.7327 91.2743 91.8675 91.2473 91.9753C91.1934 92.0562 91.1395 92.1371 91.0586 92.1911ZM0.80893 92.1911H1.94143C1.86054 92.1371 1.80661 92.0562 1.77965 91.9484C1.75268 91.8405 1.77965 91.7057 1.83357 91.6248C1.69875 91.6518 1.56393 91.6248 1.45607 91.517C1.34822 91.4091 1.29429 91.2203 1.37518 91.0586C1.29429 91.1125 1.18643 91.1395 1.07857 91.1125C0.970716 91.0855 0.889823 91.0046 0.835894 90.9237L0.80893 92.1911ZM3.66715 91.4361H89.3328L75.4192 83.3468H17.5807L3.66715 91.4361ZM10.4082 75.9316L2.77733 90.1687L16.61 82.1334V75.9316H10.4082ZM76.4169 82.1334L90.2496 90.1687L82.5918 75.9316H76.4169V82.1334ZM1.56393 3.88286V89.1441L9.16787 74.9609V18.0391L1.56393 3.88286ZM83.8321 74.9609L91.4361 89.1171V3.88286L83.8321 18.0391V74.9609ZM75.3384 82.5378H75.5271C75.581 82.5378 75.608 82.5378 75.6619 82.5648C75.635 82.5109 75.608 82.43 75.608 82.376C75.581 82.403 75.5541 82.43 75.5271 82.4569C75.4732 82.5109 75.4193 82.5378 75.3384 82.5378ZM17.419 82.376C17.419 82.4569 17.392 82.5109 17.365 82.5918C17.392 82.5918 17.4459 82.5648 17.4729 82.5648H17.6616C17.6077 82.5378 17.5268 82.5109 17.4999 82.4839C17.4459 82.43 17.419 82.403 17.419 82.376ZM69.7298 82.5378H75.1226L69.7567 81.8907C69.8646 81.9716 69.9185 82.1064 69.9185 82.2412C69.9185 82.376 69.8376 82.4839 69.7298 82.5378ZM17.8774 82.5378H23.2702C23.1624 82.4839 23.0815 82.3491 23.0815 82.2143C23.0815 82.0794 23.1354 81.9446 23.2433 81.8637L17.8774 82.5378ZM30.0922 81.8098H62.9078L46.4865 79.7875L30.0922 81.8098ZM51.7985 78.8707L74.853 81.7019V76.0394L51.7985 78.8707ZM18.147 76.0394V81.7019L41.2015 78.8707L18.147 76.0394ZM44.7608 78.5471C44.8687 78.628 44.9226 78.7359 44.9226 78.8707C44.9226 79.0055 44.8687 79.1134 44.7608 79.1943L46.4326 78.9785C46.4595 78.9785 46.5135 78.9785 46.5404 78.9785L48.2122 79.1943C48.1313 79.1134 48.0504 79.0055 48.0504 78.8707C48.0504 78.7359 48.1044 78.628 48.2122 78.5471L46.5404 78.7628L44.7608 78.5471ZM18.0661 74.4485L46.5404 77.9539L74.9069 74.4485L78.2775 46.4326L74.9339 18.5515L46.5135 15.0461L18.0661 18.5515L14.7225 46.5404L18.0661 74.4485ZM17.1224 75.1496C17.2572 75.2035 17.3381 75.2844 17.392 75.4192C17.419 75.3653 17.4459 75.3384 17.4999 75.2844C17.5268 75.2575 17.5807 75.2305 17.6077 75.2035C17.4729 75.1766 17.365 75.0687 17.3381 74.9339C17.3111 74.9878 17.2841 75.0148 17.2572 75.0417C17.2032 75.0957 17.1763 75.1226 17.1224 75.1496ZM75.4192 75.2035C75.4462 75.2305 75.5001 75.2575 75.5271 75.2844C75.5541 75.3114 75.608 75.3653 75.635 75.4192C75.6619 75.3114 75.7698 75.2035 75.9046 75.1496C75.8507 75.1226 75.8237 75.0957 75.7698 75.0417C75.7428 75.0148 75.7159 74.9609 75.6889 74.9339C75.635 75.0687 75.5541 75.1766 75.4192 75.2035ZM82.8344 75.1226C82.9153 75.1226 82.9693 75.1496 83.0232 75.1766C83.0232 75.1496 82.9962 75.0957 82.9962 75.0417V74.853C82.9962 74.9069 82.9423 74.9878 82.9153 75.0148C82.9153 75.0687 82.8884 75.0957 82.8344 75.1226ZM9.9768 74.88V75.0687C9.9768 75.1226 9.9768 75.1496 9.94984 75.1766C10.0038 75.1496 10.0847 75.1226 10.1386 75.1226C10.1116 75.0957 10.0847 75.0687 10.0577 75.0417C10.0307 74.9878 10.0038 74.9339 9.9768 74.88ZM9.9768 69.1096V74.6642L10.6509 69.1635C10.57 69.2714 10.4622 69.3253 10.3004 69.3253C10.1656 69.2983 10.0577 69.2174 9.9768 69.1096ZM82.3491 69.1635L83.0232 74.6642V69.1366C82.9693 69.2444 82.8344 69.3253 82.6996 69.3253C82.5648 69.2983 82.43 69.2714 82.3491 69.1635ZM76.4978 74.3676H82.1603L79.3291 50.7738L76.4978 74.3676ZM10.8397 74.3676H16.5022L13.6709 50.7738L10.8397 74.3676ZM82.2682 30.8472L80.3807 46.5674L82.2682 62.2067V30.8472ZM10.7318 30.8202V62.1528L12.6193 46.4595L10.7318 30.8202ZM79.0325 45.8663L79.1134 46.4595L79.0325 47.1606C79.1673 46.9719 79.5178 46.9449 79.6796 47.1337L79.5987 46.5404L79.6526 45.8394C79.5178 46.0551 79.1673 46.0551 79.0325 45.8663ZM13.3473 45.8663L13.4282 46.4595L13.3473 47.1606C13.4822 46.9719 13.8327 46.9449 13.9945 47.1337L13.9136 46.5404L13.9945 45.8394C13.9136 45.9472 13.8057 46.0012 13.6709 46.0012C13.5361 46.0012 13.4282 45.9472 13.3473 45.8663ZM10.8397 18.6324L13.6709 42.2262L16.5022 18.6324H10.8397ZM76.4978 18.6324L79.3291 42.2262L82.1603 18.6324H76.4978ZM9.9768 18.3357V23.8904C10.0307 23.7825 10.1656 23.7017 10.3004 23.7017C10.4352 23.7017 10.57 23.7556 10.6239 23.8634L9.9768 18.3357ZM82.6727 23.6747C82.6996 23.6747 82.6996 23.6747 82.6727 23.6747C82.8344 23.6747 82.9423 23.7556 83.0232 23.8634V18.3357L82.3491 23.8365C82.43 23.7556 82.5648 23.6747 82.6727 23.6747ZM9.94984 17.8234C9.94984 17.8504 9.9768 17.9043 9.9768 17.9313V18.12C9.9768 18.0661 10.0307 17.9852 10.0577 17.9582C10.0847 17.9313 10.1116 17.9043 10.1386 17.8774C10.0847 17.8774 10.0307 17.8504 9.94984 17.8234ZM82.8344 17.8774C82.8614 17.9043 82.8884 17.9313 82.9153 17.9582C82.9693 18.0122 82.9962 18.0661 82.9962 18.12V17.9313C82.9962 17.8774 82.9962 17.8504 83.0232 17.7965C82.9962 17.8504 82.9153 17.8774 82.8344 17.8774ZM75.4192 17.7965C75.5541 17.8234 75.635 17.9313 75.6889 18.0661C75.7159 18.0122 75.7428 17.9852 75.7698 17.9582C75.7967 17.9313 75.8507 17.8774 75.9046 17.8504C75.7967 17.7965 75.6889 17.7156 75.635 17.5807C75.608 17.6347 75.581 17.6616 75.5271 17.7156C75.5001 17.7425 75.4462 17.7695 75.4192 17.7965ZM17.1224 17.8504C17.1763 17.8774 17.2302 17.9043 17.2572 17.9582C17.2841 17.9852 17.3111 18.0122 17.3381 18.0661C17.365 17.9313 17.4729 17.8504 17.6077 17.7965C17.5538 17.7695 17.5268 17.7425 17.4729 17.7156C17.4459 17.6886 17.419 17.6347 17.392 17.5807C17.3381 17.7156 17.2572 17.8234 17.1224 17.8504ZM76.4169 17.0684H82.5918L90.2496 2.83126L76.4169 10.8666V17.0684ZM10.4082 17.0684H16.5831V10.8666L2.77733 2.83126L10.4082 17.0684ZM51.7985 14.1293L74.853 16.9606V11.2981L51.7985 14.1293ZM18.147 11.2981V16.9606L41.2015 14.1293L18.147 11.2981ZM44.7608 13.8057C44.8687 13.8866 44.9226 13.9945 44.9226 14.1293C44.9226 14.2641 44.8687 14.372 44.7608 14.4529L46.4326 14.2372C46.4595 14.2372 46.5135 14.2372 46.5404 14.2372L48.2122 14.4529C48.1313 14.372 48.0504 14.2641 48.0504 14.1293C48.0504 13.9945 48.1044 13.8866 48.2122 13.8057L46.5404 14.0215C46.5135 14.0215 46.4595 14.0215 46.4326 14.0215L44.7608 13.8057ZM30.0922 11.1902L46.4865 13.2125L62.8808 11.1902H30.0922ZM17.8774 10.4352L23.2163 11.0823C23.1354 11.0284 23.0815 10.8936 23.0815 10.7588C23.0815 10.6239 23.1624 10.5161 23.2702 10.4352H17.8774ZM69.7298 10.4352C69.8376 10.4891 69.9185 10.6239 69.9185 10.7588C69.9185 10.8936 69.8646 11.0284 69.7837 11.1093L75.1226 10.4622H69.7298V10.4352ZM17.3381 10.4352C17.365 10.4891 17.392 10.57 17.392 10.6509C17.419 10.6239 17.4459 10.597 17.4729 10.57C17.5268 10.4891 17.5807 10.4622 17.6347 10.4352H17.4729C17.419 10.4352 17.392 10.4352 17.3381 10.4352ZM75.3653 10.4352C75.4193 10.4622 75.4732 10.4891 75.5271 10.5161C75.5541 10.5431 75.581 10.57 75.608 10.597C75.608 10.5161 75.635 10.4622 75.6619 10.4082C75.635 10.4082 75.581 10.4352 75.5271 10.4352H75.3653ZM17.5807 9.62627H75.4192L88.0116 2.29197L89.3059 1.53697H3.66715L17.5807 9.62627ZM0.781966 0.80893V2.10322C0.835894 1.99536 0.916787 1.8875 1.05161 1.86054C1.15947 1.83357 1.26732 1.86054 1.34822 1.91447C1.29429 1.75268 1.34822 1.5909 1.45607 1.48304C1.56393 1.37518 1.69875 1.34822 1.83357 1.37518C1.77965 1.29429 1.75268 1.15947 1.77965 1.05161C1.80661 0.943752 1.86054 0.862859 1.9684 0.80893H0.781966ZM91.8405 1.86054C91.8675 1.86054 91.8944 1.86054 91.9484 1.86054C92.0562 1.8875 92.1371 1.9684 92.1911 2.04929V0.80893H91.0316C91.1125 0.862859 91.1934 0.943752 91.2204 1.05161C91.2473 1.15947 91.2204 1.29429 91.1664 1.37518C91.3012 1.34822 91.4361 1.37518 91.5439 1.48304C91.6518 1.5909 91.7057 1.77965 91.6518 1.91447C91.7057 1.8875 91.7866 1.86054 91.8405 1.86054Z" fill="#F0F0F0"/>
</svg>
