<svg width="87" height="119" viewBox="0 0 87 119" fill="none" xmlns="http://www.w3.org/2000/svg">
<path d="M43.5 118.631C19.7052 118.631 0.371826 92.098 0.371826 59.5143C0.371826 26.9022 19.7338 0.369385 43.5 0.369385C67.2663 0.369385 86.6568 26.9022 86.6568 59.5143C86.6568 92.098 67.2949 118.631 43.5 118.631ZM43.5 1.56251C20.3916 1.56251 1.57301 27.5556 1.57301 59.5143C1.57301 91.4446 20.3916 117.438 43.5 117.438C66.6085 117.438 85.4271 91.4446 85.4271 59.5143C85.4271 27.5556 66.6085 1.56251 43.5 1.56251Z" fill="#F0F0F0"/>
<path d="M43.5 119C19.5049 119 0 92.2967 0 59.5142C0 26.7033 19.5049 0 43.5 0C67.4951 0 87 26.7033 87 59.5142C87 92.2967 67.4951 119 43.5 119ZM43.5 0.710193C19.9053 0.710193 0.71499 27.0726 0.71499 59.5142C0.71499 91.9274 19.9053 118.29 43.5 118.29C67.0947 118.29 86.285 91.9274 86.285 59.5142C86.285 27.0726 67.0947 0.710193 43.5 0.710193ZM43.5 117.778C20.1913 117.778 1.22978 91.6434 1.22978 59.5142C1.22978 27.3567 20.1913 1.22153 43.5 1.22153C66.8087 1.22153 85.7702 27.3851 85.7702 59.5142C85.7702 91.6434 66.8087 117.778 43.5 117.778ZM43.5 1.90332C20.5917 1.90332 1.94477 27.7544 1.94477 59.5142C1.94477 91.2457 20.5917 117.068 43.5 117.068C66.4083 117.068 85.0552 91.2457 85.0552 59.5142C85.0552 27.7544 66.4083 1.90332 43.5 1.90332Z" fill="#F0F0F0"/>
</svg>
