<svg width="83" height="128" viewBox="0 0 83 128" fill="none" xmlns="http://www.w3.org/2000/svg">
<g clip-path="url(#clip0_14_773)">
<path d="M70.6185 19.0027C60.9377 3.91685 43.1238 -5.53856 26.4327 4.68185L25.7347 5.11025L25.0064 5.56925C0.242967 22.4605 -3.55045 61.6285 3.55083 88.3424C6.6766 100.123 12.4123 112.027 21.8503 119.983C31.8649 128.459 45.2784 130.234 56.598 123.318L57.296 122.859L58.0243 122.4C76.1113 110.068 82.545 84.854 82.5753 64.0459C82.6057 63.9847 82.6057 63.8929 82.5753 63.8317C82.545 48.3175 79.055 32.1607 70.6185 19.0027C66.7644 13.0051 74.4422 24.9697 70.6185 19.0027ZM54.0488 108.232L58.7527 90.5456L69.6777 83.477V108.232H54.0488ZM52.7135 108.875L41.5457 126.317L30.3475 108.875L31.1062 108.385L41.5154 101.653L41.8492 101.868L52.7135 108.875ZM30.3475 19.1251L41.5154 1.68305L52.6832 19.1251L51.8942 19.6147L41.485 26.3467L38.4503 24.3883L30.3475 19.1251ZM65.338 85.0682L59.1168 89.0768L65.247 65.9737L69.5867 82.3142L65.338 85.0682ZM69.617 45.6859L65.2773 62.0263L59.1472 38.9233L69.617 45.6859ZM64.7614 63.9847L57.9029 89.8724L41.5457 100.429L25.1885 89.8418L18.33 63.9541L25.1885 38.0665L41.5154 27.5401L57.8726 38.0971L64.7614 63.9847ZM42.4561 26.9281L53.0777 20.0431L57.4781 36.6283L42.4561 26.9281ZM25.5527 36.6589L29.953 20.0737L40.5746 26.9281L25.5527 36.6589ZM23.9139 38.9233L17.7837 62.0263L13.4441 45.6859L17.6927 42.9319L23.9139 38.9233ZM40.5746 101.041L29.9227 107.926L25.5223 91.3412L40.5746 101.041ZM12.655 46.6957L17.2375 63.9847L12.655 81.2738L6.61591 71.849L1.57825 63.9847L6.61591 56.1205L12.655 46.6957ZM13.4137 82.2836L17.7534 65.9431L23.8836 89.0462L22.5179 88.1588L13.4137 82.2836ZM42.4561 101.041L57.5084 91.3106L53.108 107.896L44.5501 102.357L42.4561 101.041ZM70.7095 44.5231V21.0223C73.987 26.4691 76.5666 32.6809 78.4177 39.5353L70.7095 44.5231ZM69.6777 44.5231L58.7527 37.4545L54.0488 19.7677H69.6777V44.5231ZM24.2781 37.4545L13.353 44.5231V19.7677H28.9819L24.2781 37.4545ZM12.1391 82.3754L4.33986 87.3938C2.57971 80.4782 1.6086 73.226 1.48721 65.7289L12.1391 82.3754ZM12.3516 83.4464V106.947C9.07404 101.5 6.49452 95.2886 4.64333 88.4342L12.3516 83.4464ZM13.353 83.4464L23.2463 89.8418L24.2781 90.515L28.9819 108.202H13.353V83.4464ZM70.3757 81.2738L65.7932 63.9847L70.3757 46.6957L75.8686 55.2637L81.4828 64.0153L75.8686 72.7364L70.3757 81.2738ZM74.7457 51.6223L70.8916 45.6247L78.6909 40.6063C80.4814 47.5219 81.4221 54.7741 81.5739 62.2711L74.7457 51.6223ZM69.2528 18.7579H54.0488L57.3567 6.36485C61.757 9.33306 65.7629 13.4947 69.2528 18.7579ZM56.4463 5.78345L53.1991 18.0541L50.225 13.4029L42.4561 1.28525C47.2814 1.43825 51.9852 2.93765 56.4463 5.78345ZM40.5746 1.25465L39.7856 2.47865L29.8316 18.0235L26.5845 5.78345L26.979 5.53865C31.3187 2.84585 35.9011 1.43825 40.5746 1.25465ZM25.5527 6.42605L25.674 6.33425L28.9819 18.7273H13.7779C17.2375 13.5559 21.213 9.39426 25.5527 6.42605ZM12.3516 44.5231L4.64333 39.5353C6.49452 32.6503 9.10439 26.4385 12.3516 21.0223V44.5231ZM4.33986 40.5757L12.1391 45.6247L1.48721 62.2711C1.6086 54.7741 2.57971 47.4913 4.33986 40.5757ZM13.7779 109.242H28.9819L25.674 121.666C21.2737 118.667 17.2678 114.505 13.7779 109.242ZM26.5845 122.217L29.8316 109.946L32.5629 114.23L40.5746 126.715C35.7494 126.562 31.0455 125.032 26.5845 122.217ZM42.4561 126.715L50.4678 114.23L53.1991 109.946L56.4463 122.186L56.0517 122.431C51.7121 125.124 47.1296 126.562 42.4561 126.715ZM57.4781 121.543L57.3567 121.605L54.0488 109.212H69.2528C65.8236 114.414 61.8481 118.575 57.4781 121.543ZM70.7095 83.4464L78.4177 88.4342C76.5666 95.2886 73.987 101.531 70.7095 106.947V83.4464ZM78.6909 87.3938L71.5289 82.7732L70.8916 82.3754L74.7457 76.3778L81.5739 65.7595C81.4221 73.226 80.451 80.5088 78.6909 87.3938Z" fill="#F0F0F0"/>
<path d="M41.6367 128C34.6568 128 27.6465 125.399 21.6074 120.289C10.9858 111.292 5.73575 98.012 3.18657 88.4342C3.18657 88.4035 3.18657 88.373 3.18657 88.3424C-4.27888 60.3433 0.758783 21.6648 24.7939 5.26322L26.2202 4.34522C43.0023 -5.9058 60.1789 3.48842 69.708 16.983C69.7383 17.0136 69.7383 17.0442 69.7686 17.0748L69.799 17.0442C69.799 17.0748 69.9507 17.3196 70.3149 17.8704C70.4666 18.1152 70.6487 18.4212 70.8915 18.7578C71.1343 19.125 71.3164 19.431 71.4681 19.6758C71.8323 20.2266 71.984 20.4714 71.984 20.502H72.0144C80.9668 35.4655 82.9394 52.1425 82.9697 63.7399C83.0001 63.8623 83.0001 63.9847 82.9697 64.1377C82.9697 72.1855 81.9683 84.3031 77.4465 96.5432C73.1372 108.171 66.6732 116.984 58.2367 122.737L57.5083 123.196C57.5083 123.196 57.478 123.226 57.4476 123.226L56.78 123.655C52.0458 126.562 46.8564 128 41.6367 128ZM40.9994 0.765015C36.2955 0.765015 31.4703 2.05022 26.6451 4.98782L25.2491 5.90582C1.51746 22.0932 -3.42915 60.4045 3.94525 88.2199C3.94525 88.2505 3.94525 88.2812 3.94525 88.3118C6.46408 97.6754 11.6535 110.833 22.093 119.677C32.3807 128.367 45.5211 129.622 56.4158 122.982L57.1138 122.523C57.1138 122.523 57.1442 122.523 57.1442 122.492L57.8118 122.064C63.5171 118.177 82.1504 102.48 82.1807 64.0459C82.1807 64.0153 82.1807 63.9541 82.2111 63.9235C82.2111 63.8929 82.1807 63.8623 82.1807 63.8011C82.1504 51.8671 80.0867 34.4251 70.2846 19.1556C67.705 15.1776 64.4579 11.4444 60.6948 8.41503C63.942 11.1384 66.916 14.535 69.5562 18.5436C69.6473 18.666 69.6473 18.819 69.5866 18.9414C69.5259 19.0638 69.4045 19.1556 69.2527 19.1556H54.0487C53.9273 19.1556 53.8059 19.0944 53.7452 19.0026C53.6846 18.9108 53.6542 18.7884 53.6846 18.666L56.9924 6.27302C57.0228 6.15062 57.1138 6.05882 57.2352 6.02822C57.2655 5.99762 57.3262 5.99762 57.3566 5.99762C57.1745 5.87522 56.9924 5.75282 56.8103 5.66102C56.8407 5.75282 56.8407 5.81402 56.8407 5.90582L53.5935 18.1764C53.5632 18.3294 53.4418 18.4212 53.29 18.4518C53.108 18.4212 52.9562 18.36 52.8955 18.2376L42.1526 1.46882C42.0919 1.34642 42.0615 1.19342 42.1526 1.07102C42.2133 0.948615 42.365 0.887415 42.4864 0.887415C43.3968 0.918015 44.2769 1.00981 45.1873 1.13222C43.7913 0.887415 42.3953 0.765015 40.9994 0.765015ZM54.5343 18.36H68.5244C65.2772 13.617 61.6052 9.76143 57.569 6.94622L54.5343 18.36ZM43.1844 1.68302L53.0776 17.1054L56.0516 5.93642C51.8941 3.39662 47.5847 1.95842 43.1844 1.68302ZM40.5745 127.113C35.6582 126.929 30.8937 125.399 26.3719 122.553C26.2202 122.461 26.1595 122.278 26.2202 122.125L29.4674 109.854C29.4977 109.701 29.6191 109.609 29.7708 109.579C29.9226 109.548 30.0743 109.609 30.135 109.762L40.878 126.531C40.9387 126.654 40.969 126.807 40.878 126.929C40.8476 127.051 40.7262 127.113 40.5745 127.113ZM27.0092 122.033C31.1061 124.573 35.4458 126.011 39.8462 126.286L29.9529 110.864L27.0092 122.033ZM42.456 127.113C42.3346 127.113 42.1829 127.051 42.1222 126.929C42.0615 126.807 42.0615 126.654 42.1222 126.531L52.8652 109.762C52.9562 109.64 53.0776 109.579 53.2293 109.579C53.3811 109.609 53.5025 109.701 53.5328 109.854L56.78 122.094C56.8103 122.247 56.7496 122.431 56.6283 122.523L56.2337 122.767C51.8637 125.491 47.2206 126.929 42.456 127.113ZM53.0473 110.895L43.154 126.317C47.524 126.042 51.7727 124.634 55.8696 122.125L56.0213 122.033L53.0473 110.895ZM41.5153 126.715C41.3939 126.715 41.2725 126.654 41.2118 126.531L30.044 109.089C29.9833 108.997 29.9833 108.906 29.9833 108.814C30.0136 108.722 30.0743 108.63 30.135 108.569L30.8937 108.079L41.3028 101.347C41.4242 101.256 41.576 101.256 41.6974 101.347L52.8652 108.569C52.9562 108.63 53.0169 108.722 53.0169 108.814C53.0473 108.906 53.0169 109.028 52.9562 109.089L41.7884 126.531C41.758 126.654 41.6367 126.715 41.5153 126.715ZM30.8634 108.997L41.5153 125.613L52.1672 108.997L41.5153 102.112L30.8634 108.997ZM25.7043 122.033C25.6436 122.033 25.5526 122.002 25.4919 121.972C21.0308 118.942 16.9643 114.75 13.4743 109.456C13.3833 109.334 13.3833 109.181 13.444 109.059C13.5047 108.936 13.6261 108.844 13.7778 108.844H28.9818C29.1032 108.844 29.2246 108.906 29.2853 108.997C29.346 109.089 29.3763 109.212 29.346 109.334L26.0381 121.758C26.0078 121.88 25.9167 121.972 25.7953 122.002C25.7953 122.002 25.7346 122.033 25.7043 122.033ZM14.4758 109.609C17.7229 114.352 21.395 118.208 25.4615 121.023L28.4963 109.609H14.4758ZM57.3566 122.002C57.2959 122.002 57.2655 122.002 57.2352 121.972C57.1138 121.941 57.0228 121.819 56.9924 121.727L53.6846 109.334C53.6542 109.212 53.6846 109.089 53.7452 108.997C53.8059 108.906 53.9273 108.844 54.0487 108.844H69.2527C69.4045 108.844 69.5259 108.936 69.5866 109.059C69.6473 109.181 69.6473 109.334 69.5562 109.456C66.0663 114.689 62.0908 118.881 57.6601 121.88L57.5387 121.941C57.478 122.002 57.4173 122.002 57.3566 122.002ZM54.5343 109.609L57.569 121.023C61.6052 118.208 65.2772 114.383 68.5244 109.609H54.5343ZM69.6776 108.6H54.0487C53.9273 108.6 53.8059 108.538 53.7452 108.447C53.6846 108.355 53.6542 108.232 53.6846 108.11L58.3884 90.4231C58.4187 90.3314 58.4794 90.2396 58.5401 90.209L69.4652 83.1403C69.5866 83.0791 69.7383 83.0485 69.8597 83.1403C69.9811 83.2015 70.0721 83.3239 70.0721 83.4769V108.232C70.0721 108.416 69.89 108.6 69.6776 108.6ZM54.5343 107.835H69.3134V84.1501L59.0864 90.7598L54.5343 107.835ZM28.9818 108.6H13.3529C13.1405 108.6 12.9888 108.416 12.9888 108.232V83.4769C12.9888 83.3239 13.0798 83.2015 13.2012 83.1403C13.3226 83.0791 13.4743 83.0791 13.5957 83.1403L24.5511 90.209C24.6421 90.2701 24.6725 90.3314 24.7028 90.4231L29.4067 108.11C29.437 108.232 29.4067 108.355 29.346 108.447C29.2246 108.538 29.1032 108.6 28.9818 108.6ZM13.7171 107.835H28.4963L23.9745 90.7598L13.7171 84.1501V107.835ZM29.9529 108.294C29.8922 108.294 29.8619 108.294 29.8315 108.263C29.7102 108.232 29.6191 108.11 29.5888 108.018L25.1884 91.433C25.1581 91.28 25.2187 91.127 25.3401 91.0352C25.4615 90.9434 25.6436 90.9434 25.765 91.0352L40.8173 100.766C40.9387 100.827 40.9994 100.95 40.9994 101.103C40.9994 101.256 40.9387 101.347 40.8173 101.439L30.1654 108.324C30.1047 108.294 30.0136 108.294 29.9529 108.294ZM26.1595 92.1674L30.1654 107.314L39.8765 101.041L26.1595 92.1674ZM53.0776 108.294C53.0169 108.294 52.9259 108.263 52.8652 108.232L42.2436 101.347C42.1222 101.286 42.0615 101.164 42.0615 101.011C42.0615 100.858 42.1222 100.766 42.2436 100.674L57.2959 90.9434C57.4173 90.8516 57.5994 90.8821 57.7208 90.9434C57.8421 91.0352 57.9028 91.1882 57.8725 91.3412L53.4721 107.926C53.4418 108.049 53.3507 108.141 53.2293 108.171C53.1687 108.294 53.1383 108.294 53.0776 108.294ZM43.154 101.041L52.8652 107.314L56.9014 92.198L43.154 101.041ZM70.7094 107.345C70.6791 107.345 70.6487 107.345 70.6184 107.345C70.4666 107.284 70.3453 107.161 70.3453 106.978V83.4769C70.3453 83.3239 70.4363 83.2015 70.5577 83.1403C70.6791 83.0791 70.8308 83.0791 70.9522 83.1403L78.6604 88.1282C78.8122 88.2199 78.8729 88.4035 78.8122 88.5565C76.961 95.4416 74.3511 101.715 71.0736 107.192C70.9522 107.284 70.8308 107.345 70.7094 107.345ZM71.0736 84.1501V105.57C73.9566 100.521 76.263 94.8296 77.9624 88.6177L71.0736 84.1501ZM12.3515 107.345C12.2301 107.345 12.1087 107.284 12.0176 107.161C8.74013 101.684 6.13026 95.4416 4.27907 88.5565C4.24873 88.4035 4.30942 88.2199 4.43081 88.1282L12.139 83.1403C12.2604 83.0791 12.4122 83.0485 12.5336 83.1403C12.6549 83.2015 12.746 83.3239 12.746 83.4769V106.978C12.746 107.161 12.6246 107.314 12.4729 107.345C12.4122 107.345 12.3818 107.345 12.3515 107.345ZM5.0681 88.6177C6.76756 94.8296 9.07395 100.521 11.957 105.57V84.1501L5.0681 88.6177ZM41.5153 100.827C41.4546 100.827 41.3635 100.797 41.3028 100.766L24.9456 90.1784C24.8546 90.1171 24.8242 90.056 24.7939 89.9641L17.905 64.1071C17.905 64.0459 17.905 63.9847 17.905 63.9235L24.7939 38.0359C24.8242 37.9441 24.8849 37.8523 24.9456 37.8217L41.3028 27.2647C41.4242 27.1729 41.576 27.1729 41.6974 27.2647L58.0546 37.8217C58.1456 37.8829 58.176 37.9441 58.2063 38.0359L65.0952 63.9235C65.0952 63.9847 65.0952 64.0459 65.0952 64.1071L58.2063 89.9948C58.176 90.0866 58.1153 90.1784 58.0546 90.209L41.6974 100.766C41.667 100.797 41.6063 100.827 41.5153 100.827ZM25.4919 89.6276L41.5153 100.001L57.5387 89.6581L64.3365 64.0153L57.5387 38.3725L41.5153 28.0297L25.4919 38.3419L18.6941 63.9847L25.4919 89.6276ZM59.1471 89.444C59.056 89.444 58.9953 89.4134 58.9346 89.3828C58.8133 89.2909 58.7526 89.138 58.7829 88.985L64.9131 65.8819C64.9434 65.7289 65.0952 65.6065 65.2772 65.6065C65.4593 65.6065 65.6111 65.7289 65.6414 65.8819L69.9811 82.2223C70.0114 82.3753 69.9507 82.5589 69.8293 82.6507L65.5504 85.4047L59.3595 89.4134C59.2685 89.4134 59.2078 89.444 59.1471 89.444ZM65.2772 67.4425L59.754 88.2199L69.1617 82.1305L65.2772 67.4425ZM23.9138 89.444C23.8531 89.444 23.7621 89.4134 23.7014 89.3828L13.2315 82.6201C13.0798 82.5283 13.0191 82.3447 13.0798 82.1917L17.4195 65.8513C17.5105 65.5147 18.0568 65.5147 18.1478 65.8513L24.278 88.9544C24.3083 89.1074 24.2476 89.2604 24.1262 89.3522C24.0655 89.4134 23.9745 89.444 23.9138 89.444ZM13.8688 82.1305L23.2765 88.2199L17.7533 67.4425L13.8688 82.1305ZM78.6908 87.7915C78.6301 87.7915 78.539 87.7609 78.4783 87.7303L70.6791 82.7119C70.588 82.6507 70.5273 82.5589 70.5273 82.4671C70.497 82.3753 70.5273 82.2529 70.588 82.1917L81.24 65.5453C81.331 65.3923 81.5131 65.3311 81.6648 65.3923C81.8165 65.4535 81.9379 65.6065 81.9379 65.7595C81.8165 73.2871 80.8454 80.6005 79.0549 87.5162C79.0246 87.6385 78.9335 87.7304 78.8122 87.7609C78.7818 87.7609 78.7211 87.7915 78.6908 87.7915ZM71.4074 82.2529L71.7109 82.4365L78.4176 86.7818C79.9957 80.4781 80.9061 73.8685 81.1186 67.0753L71.4074 82.2529ZM4.33977 87.7915C4.27907 87.7915 4.24873 87.7915 4.18803 87.7609C4.06664 87.7304 3.9756 87.6079 3.94525 87.5162C2.15476 80.5699 1.18364 73.2565 1.06225 65.7595C1.06225 65.5759 1.18364 65.4229 1.33538 65.3923C1.48712 65.3311 1.6692 65.4229 1.76024 65.5453L12.4122 82.1917C12.4729 82.2835 12.4729 82.3753 12.4729 82.4671C12.4425 82.5589 12.3818 82.6507 12.3211 82.7119L4.5522 87.7303C4.49151 87.7609 4.43081 87.7915 4.33977 87.7915ZM1.91198 67.0753C2.12441 73.8379 3.03483 80.4781 4.61289 86.7818L11.6535 82.2529L1.91198 67.0753ZM12.6549 81.6715C12.5336 81.6715 12.4122 81.6103 12.3515 81.4879L1.27469 64.1989C1.18364 64.0765 1.18364 63.9235 1.27469 63.7705L12.3515 46.4815C12.4425 46.3591 12.5942 46.2979 12.7156 46.2979C12.8674 46.3285 12.9888 46.4203 13.0191 46.5733L17.6016 63.8623C17.6016 63.9235 17.6016 63.9847 17.6016 64.0459L13.0191 81.3961C12.9888 81.5491 12.8674 81.6409 12.7156 81.6715C12.6853 81.6715 12.6853 81.6715 12.6549 81.6715ZM2.03337 63.9847L12.5336 80.3557L16.8732 63.9847L12.5336 47.6137L2.03337 63.9847ZM70.3756 81.6715C70.3453 81.6715 70.3453 81.6715 70.3149 81.6715C70.1632 81.6409 70.0418 81.5491 70.0114 81.3961L65.429 64.1071C65.429 64.0459 65.429 63.9847 65.429 63.9235L70.0114 46.6345C70.0418 46.4815 70.1632 46.3897 70.3149 46.3591C70.4666 46.3285 70.6184 46.3897 70.6791 46.5427L81.7559 63.8317C81.8469 63.9541 81.8469 64.1071 81.7559 64.2601L70.6791 81.5491C70.6487 81.6103 70.5273 81.6715 70.3756 81.6715ZM66.1877 63.9847L70.5273 80.3557L81.0275 63.9847L70.5273 47.6137L66.1877 63.9847ZM1.48712 62.6383C1.45677 62.6383 1.42642 62.6383 1.36573 62.6077C1.21399 62.5465 1.0926 62.3935 1.0926 62.2405C1.21399 54.7435 2.18511 47.4301 3.9756 40.4839C4.00595 40.3615 4.09699 40.2697 4.21838 40.2391C4.33977 40.1779 4.46116 40.2085 4.5522 40.2697L12.3515 45.3187C12.4425 45.3799 12.5032 45.4717 12.5032 45.5635C12.5336 45.6553 12.5032 45.7777 12.4425 45.8389L1.82094 62.4547C1.7299 62.5771 1.60851 62.6383 1.48712 62.6383ZM4.58255 41.1877C3.00448 47.5219 2.09406 54.1315 1.88163 60.8941L11.5928 45.7165L4.58255 41.1877ZM81.5434 62.6383C81.422 62.6383 81.3006 62.5771 81.24 62.4547L70.588 45.8083C70.5273 45.7165 70.5273 45.6247 70.5273 45.5329C70.5577 45.4411 70.6184 45.3493 70.6791 45.2881L78.4783 40.2697C78.5694 40.2085 78.7211 40.1779 78.8122 40.2391C78.9032 40.3003 79.0246 40.3921 79.0549 40.4839C80.8454 47.3995 81.8165 54.7129 81.9379 62.2405C81.9379 62.4241 81.8165 62.5771 81.6648 62.6077C81.6345 62.6383 81.6041 62.6383 81.5434 62.6383ZM71.4074 45.7471L75.0491 51.4081L81.1489 60.8941C80.9365 54.1009 80.0261 47.4913 78.448 41.1877L71.4074 45.7471ZM17.7533 62.4241C17.5712 62.4241 17.4195 62.3017 17.3891 62.1487L13.0495 45.8083C13.0191 45.6553 13.0798 45.4717 13.2012 45.3799L23.671 38.6173C23.7924 38.5255 23.9745 38.5561 24.0959 38.6173C24.2476 38.7091 24.3083 38.8621 24.278 39.0151L18.1175 62.1181C18.0871 62.3017 17.9354 62.4241 17.7533 62.4241ZM13.8688 45.8695L17.7533 60.5575L23.2765 39.7801L13.8688 45.8695ZM65.2772 62.4241C65.0952 62.4241 64.9434 62.3017 64.9131 62.1487L58.7829 39.0457C58.7526 38.8927 58.8133 38.7397 58.9346 38.6479C59.056 38.5561 59.2381 38.5561 59.3595 38.6479L69.8293 45.4105C69.9811 45.5023 70.0418 45.6859 69.9811 45.8389L65.6414 62.1793C65.6111 62.3017 65.4593 62.4241 65.2772 62.4241ZM59.754 39.7801L65.2772 60.5575L69.1617 45.8695L59.754 39.7801ZM69.6776 44.9209C69.6169 44.9209 69.5259 44.8903 69.4652 44.8597L58.5401 37.7911C58.4491 37.7299 58.4187 37.6687 58.3884 37.5769L53.6846 19.89C53.6542 19.7676 53.6846 19.6452 53.7452 19.5534C53.8059 19.4616 53.9273 19.4004 54.0487 19.4004H69.6776C69.89 19.4004 70.0418 19.584 70.0418 19.7676V44.5231C70.0418 44.6761 69.9507 44.7985 69.8293 44.8597C69.8293 44.8903 69.7686 44.9209 69.6776 44.9209ZM59.0864 37.2403L69.3134 43.8499V20.1654H54.5343L59.0864 37.2403ZM13.3529 44.9209C13.2922 44.9209 13.2315 44.9209 13.1708 44.8597C13.0495 44.7985 12.9584 44.6761 12.9584 44.5231V19.7676C12.9584 19.5534 13.1405 19.4004 13.3226 19.4004H28.9515C29.0729 19.4004 29.1942 19.4616 29.2549 19.5534C29.3156 19.6452 29.346 19.7676 29.3156 19.89L24.6118 37.5769C24.5814 37.6687 24.5208 37.7605 24.4601 37.7911L13.535 44.8597C13.5047 44.8903 13.4136 44.9209 13.3529 44.9209ZM13.7171 20.1654V43.8499L23.9442 37.2403L28.4659 20.1654H13.7171ZM12.3515 44.9209C12.2908 44.9209 12.1997 44.8903 12.139 44.8597L4.43081 39.8719C4.27907 39.7801 4.21838 39.5965 4.27907 39.4435C6.16061 32.5279 8.77048 26.2549 12.048 20.8386C12.1087 20.6856 12.2604 20.6244 12.4425 20.655C12.5942 20.7162 12.7156 20.8386 12.7156 21.0222V44.5231C12.7156 44.6761 12.6246 44.7985 12.5032 44.8597C12.4729 44.8903 12.4122 44.9209 12.3515 44.9209ZM5.0681 39.3823L11.957 43.8499V22.4298C9.1043 27.4483 6.76756 33.1399 5.0681 39.3823ZM70.7094 44.9209C70.6487 44.9209 70.588 44.9209 70.5273 44.8597C70.4059 44.7985 70.3149 44.6761 70.3149 44.5231V21.0222C70.3149 20.8386 70.4363 20.6856 70.588 20.655C70.7398 20.6244 70.9219 20.6856 71.0129 20.8386C74.2904 26.2855 76.9003 32.5585 78.7818 39.4435C78.8122 39.5965 78.7515 39.7801 78.6301 39.8719L70.9219 44.8597C70.8308 44.8903 70.7701 44.9209 70.7094 44.9209ZM71.0736 22.4298V43.8193L77.9624 39.3517C76.263 33.1705 73.9566 27.4789 71.0736 22.4298ZM57.5083 37.0567C57.4476 37.0567 57.3566 37.0261 57.2959 36.9955L42.2436 27.2647C42.1222 27.2035 42.0615 27.0811 42.0615 26.9281C42.0615 26.7751 42.1222 26.6833 42.2436 26.5915L52.8652 19.7064C52.9562 19.6452 53.108 19.6452 53.199 19.6758C53.3204 19.7064 53.4114 19.8288 53.4418 19.9206L57.8421 36.5059C57.8725 36.6589 57.8118 36.8119 57.6904 36.9037C57.6601 37.0261 57.569 37.0567 57.5083 37.0567ZM43.154 26.9281L56.871 35.8021L52.8348 20.655L43.154 26.9281ZM25.5526 37.0261C25.4615 37.0261 25.4008 36.9955 25.3401 36.9649C25.1884 36.8731 25.1581 36.7201 25.1884 36.5671L29.5888 19.9818C29.6191 19.8594 29.7102 19.7676 29.8315 19.737C29.9226 19.6758 30.044 19.6758 30.1654 19.737L40.7869 26.5915C40.9083 26.6527 40.969 26.7751 40.969 26.9281C40.969 27.0811 40.9083 27.1729 40.7869 27.2647L25.7346 36.9955C25.7043 37.0261 25.6133 37.0261 25.5526 37.0261ZM30.1957 20.6856L26.1595 35.8021L39.8765 26.9281L30.1957 20.6856ZM41.5153 26.7139C41.4546 26.7139 41.3635 26.6833 41.3028 26.6527L30.135 19.431C30.044 19.3698 29.9833 19.278 29.9833 19.1862C29.9529 19.0944 29.9833 18.972 30.044 18.9108L41.2118 1.46882C41.3635 1.25462 41.6974 1.25462 41.8491 1.46882L53.0169 18.9108C53.0776 19.0026 53.0776 19.0944 53.0776 19.1862C53.0776 19.278 52.9866 19.3698 52.9259 19.431L52.1672 19.9206L41.758 26.6527C41.667 26.6833 41.576 26.7139 41.5153 26.7139ZM30.8634 19.0026L41.5153 25.8877L52.1672 19.0026L41.5153 2.38682L30.8634 19.0026ZM28.9818 19.125H13.7778C13.6261 19.125 13.5047 19.0332 13.444 18.9108C13.3833 18.819 13.3833 18.666 13.4743 18.5436C16.9339 13.311 20.9398 9.11883 25.3401 6.12002L25.4919 6.02822C25.5829 5.96702 25.7346 5.93642 25.8257 5.99762C25.9471 6.02822 26.0381 6.12002 26.0685 6.24242L29.346 18.666C29.3763 18.7884 29.346 18.9108 29.2853 19.0026C29.2246 19.0944 29.1032 19.125 28.9818 19.125ZM14.5061 18.36H28.4963L25.4615 6.94622C21.4253 9.79203 17.7533 13.617 14.5061 18.36ZM29.8315 18.4212C29.8012 18.4212 29.8012 18.4212 29.7708 18.4212C29.6191 18.3906 29.4977 18.2988 29.4674 18.1458L26.2202 5.90582C26.1595 5.72222 26.2506 5.53862 26.3719 5.44682L26.7665 5.20202C31.1972 2.50922 35.8403 1.04041 40.5745 0.887415C40.6959 0.887415 40.8476 0.948615 40.9083 1.07102C40.969 1.19342 40.969 1.34642 40.9083 1.46882L30.1654 18.2376C30.0743 18.3294 29.9529 18.4212 29.8315 18.4212ZM27.0092 5.93642L29.9833 17.0748L39.8765 1.65242C35.5065 1.95842 31.2275 3.36602 27.161 5.84462L27.0092 5.93642Z" fill="#F0F0F0"/>
</g>
<defs>
<clipPath id="clip0_14_773">
<rect width="83" height="128" fill="white"/>
</clipPath>
</defs>
</svg>
