<svg width="96" height="87" viewBox="0 0 96 87" fill="none" xmlns="http://www.w3.org/2000/svg">
<g clip-path="url(#clip0_14_684)">
<path d="M1.32404 35.1998L1.3495 35.301C1.3495 35.3263 1.37497 35.3263 1.37497 35.3516C1.40043 35.4276 1.4259 35.5288 1.45136 35.63L1.50229 35.7818C1.50229 35.8324 1.52775 35.8577 1.55322 35.959L1.57868 36.0349L1.65507 36.2373C1.80786 36.7687 1.98611 37.3002 2.16436 37.8316L2.31714 38.2365L2.34261 38.3377L2.419 38.5401L2.44446 38.616L2.67364 39.2234C2.75003 39.4005 2.80096 39.603 2.87736 39.7801L3.66675 41.7286C3.66675 41.7286 3.69221 41.8045 3.69221 41.8298L3.94685 42.3866L3.99778 42.4878L4.1251 42.7661L4.17603 42.842L5.65295 45.8028C5.67842 45.8534 5.70388 45.8787 5.72934 45.9546L6.36595 47.0427C6.62059 47.4729 6.9007 47.9031 7.20627 48.3333L7.2572 48.4092C7.35905 48.5864 7.48637 48.7382 7.58823 48.89L7.94473 49.3455C7.94473 49.3708 7.97019 49.3961 7.99566 49.4215L9.14155 50.8386C9.26887 50.9904 9.39619 51.1169 9.52351 51.2434C16.0169 59.2653 22.6121 66.9328 30.7352 73.3857C33.027 75.3595 35.3697 77.308 37.8142 79.1047L38.9856 79.9398C39.3166 80.1928 39.6476 80.4206 40.0041 80.6483L47.8726 86.2661C47.9999 86.342 48.1527 86.342 48.28 86.2661L56.1484 80.6483C56.3776 80.4965 56.5813 80.3447 56.8105 80.1928L58.7713 78.7757C61.0376 77.055 63.2275 75.233 65.3919 73.3857C65.4429 73.3604 65.4683 73.3098 65.4938 73.2845C69.237 70.0454 73.2859 66.781 76.6217 63.1117C80.0848 59.2653 83.3442 55.2164 86.6291 51.2181C86.7564 51.0916 86.8837 50.9398 87.011 50.7879L88.1569 49.3961C88.1824 49.3708 88.1824 49.3708 88.1824 49.3455C88.2079 49.2949 88.2588 49.2443 88.2588 49.2443C88.3097 49.1684 88.3606 49.0925 88.4116 49.0166L88.5389 48.8647C88.6407 48.7129 88.7681 48.5358 88.8699 48.3839L88.5898 48.1815L88.9718 48.2574C89.2519 47.8525 89.5065 47.4223 89.7612 46.9921L90.5506 45.5497C90.627 45.3979 90.7034 45.2714 90.7797 45.1195L91.289 44.1326L91.3145 44.0567L92.0784 42.4372L92.1293 42.3359L92.4858 41.5009L92.5113 41.4249L93.1734 39.7801C93.2243 39.6536 93.2752 39.5523 93.3007 39.4258L93.5553 38.7173L93.6063 38.5907L93.7081 38.3124L93.7336 38.2365L93.8864 37.781C93.9373 37.6544 93.9882 37.5026 94.0137 37.3761C94.0137 37.3761 94.0137 37.3508 94.0392 37.3508L94.3702 36.2879L94.0392 36.1867H94.3957L94.4466 36.0096C94.4466 35.9843 94.472 35.959 94.472 35.9337L94.141 35.8071L94.4975 35.8324L94.523 35.7312L94.2429 35.6553L94.5484 35.63L94.6503 35.301V35.2757L94.6758 35.1745C95.898 30.7967 95.0323 25.6091 94.4466 21.1806C93.9882 17.7897 92.8933 15.3604 91.0344 12.4249C89.7102 10.3246 88.3352 7.49039 86.3999 5.84554C82.8349 2.83419 77.3856 0.151819 72.5983 0.683233C72.5983 0.683233 72.5983 0.683233 72.5729 0.683233C70.1028 0.607316 67.6073 0.80976 65.1882 1.18934C62.9219 1.54362 60.2227 1.72075 58.4148 3.21377C54.7734 6.17451 50.5463 9.31238 47.949 13.26C46.2683 10.7548 43.7983 8.65444 41.5575 6.68061C40.106 5.41534 38.3744 3.36561 36.6174 2.55583C32.976 0.733843 27.3994 0.556706 23.3251 0.683233C23.3251 0.683233 23.3251 0.683233 23.2996 0.683233C18.6397 0.177125 12.5283 2.91011 9.19247 6.22512C7.91926 7.43978 6.95163 9.4136 5.98399 10.856C4.58346 12.9817 2.49539 15.6387 2.01157 18.1946C1.0694 23.4581 -0.152884 29.9616 1.32404 35.1998ZM2.75003 18.0427C3.69221 15.2338 7.8938 9.18585 9.2434 7.26264L12.8848 21.6867L12.8339 21.6614L2.75003 18.0427ZM83.2169 21.6614L83.1405 21.6867L86.7819 7.26264C88.1569 9.18585 92.3585 15.2085 93.3007 18.0427L83.2169 21.6614ZM75.7049 63.0105L65.3156 68.1981L52.8381 74.4232L69.5681 55.849L79.7792 48.1309L76.7744 59.0628L75.7049 63.0105ZM77.411 35.8577L80.0084 47.1187L70.1028 54.5838L71.9108 49.9782L77.411 35.8577ZM42.9325 73.1073L28.5198 57.1143L47.567 68.7801L44.5622 74.904L42.9325 73.1073ZM16.0169 47.1187L18.6397 35.8577L24.14 49.9782L25.9224 54.5838L19.0471 49.3961L16.0169 47.1187ZM75.2975 39.4258L69.0843 55.3682L48.0254 68.2487L26.9665 55.3682L20.7532 39.4258L18.9198 34.6684L22.1537 19.308L48.0508 18.068L73.9479 19.308L77.1819 34.6684L75.2975 39.4258ZM51.4885 74.904L48.4837 68.7548L62.4126 60.2269L67.5309 57.089L65.0864 59.7967L51.4885 74.904ZM67.862 18.3211L50.7246 17.486L67.3018 14.0698L73.1076 18.5742L67.862 18.3211ZM39.2911 17.7897L22.9177 18.5742L28.7235 14.0698L45.3007 17.486L39.2911 17.7897ZM74.3553 18.6754L68.0911 13.8167L86.1453 7.00958L82.4275 21.7626L74.3553 18.6754ZM13.8524 22.4206L21.3898 19.5105L18.436 33.5297L17.7484 31.9101L13.8524 22.4206ZM2.13889 35.0733L13.2922 22.8508L18.2068 34.6937L15.4567 46.5872L2.13889 35.0733ZM20.3458 63.0105L16.2461 48.1056L26.4572 55.8237L43.1872 74.3979L24.3182 64.9843L20.3458 63.0105ZM48.0254 69.4127L51.0301 75.5366L48.0254 84.8996L45.0206 75.5366L48.0254 69.4127ZM77.6148 33.5297L74.6609 19.5105L82.1983 22.4206L78.2768 31.8848L77.6148 33.5297ZM63.8896 14.0951L60.732 14.753L48.0254 17.3595L32.5686 14.171L32.1612 14.0951L48.0254 14.2469L63.8896 14.0951ZM27.9596 13.8167L21.6954 18.6754L13.6232 21.7879L9.90547 7.00958L27.9596 13.8167ZM51.5394 76.1946L53.3983 78.1937L55.3845 80.37L48.6874 85.1527L51.5394 76.1946ZM80.6195 46.6126L77.8694 34.719L78.6843 32.7452L82.784 22.8761L90.4487 31.2775L93.9118 35.0986L93.3007 35.63L80.6195 46.6126ZM8.47948 49.0166C8.47948 49.0166 8.40308 48.9407 8.40308 48.9153L8.35216 48.8394L8.12298 48.5105C7.99566 48.3586 7.8938 48.2068 7.79194 48.0297L7.71555 47.9031C7.46091 47.5235 7.20627 47.144 6.95163 46.7138C6.95163 46.6885 6.92616 46.6885 6.92616 46.6885L6.31502 45.6256C6.28956 45.5497 6.23863 45.4991 6.21316 45.4485L4.8381 42.7155C4.81263 42.6649 4.78717 42.589 4.71078 42.4625L3.4885 39.527C3.43757 39.4258 3.4121 39.2993 3.36118 39.1728L2.7755 37.5279C2.62271 37.0724 2.46993 36.5916 2.31714 36.1361L15.0747 47.2199L10.1601 50.4084L9.82908 50.6108C9.77815 50.5349 9.70176 50.4843 9.65083 50.4084L8.47948 49.0166ZM10.262 51.1422L15.4312 47.8019L19.3272 61.9476C16.2206 58.4049 13.2158 54.7862 10.262 51.1422ZM38.5527 78.877C38.5018 78.8263 38.4508 78.801 38.3999 78.7504L38.1962 78.5986C35.7516 76.8019 33.4344 74.8534 31.1426 72.9049L31.0662 72.829C27.9596 70.1466 24.9548 67.3883 21.9755 64.6047L44.1039 75.6379L40.1315 79.9904C39.9787 79.8892 39.8514 79.7879 39.724 79.712L38.5527 78.877ZM44.5113 76.1946L47.3888 85.1527L40.6917 80.37L44.5113 76.1946ZM67.1235 70.9564C66.436 71.5637 65.723 72.1963 64.9591 72.829C64.9336 72.8543 64.9081 72.8796 64.8827 72.9049C62.7182 74.7775 60.5028 76.5995 58.2365 78.3202L57.6508 78.7504C57.5999 78.7757 57.549 78.8263 57.498 78.8516L56.3522 79.6614C56.2248 79.7626 56.0721 79.8639 55.9447 79.9398L51.9469 75.5872L74.0752 64.5541C72.3691 66.1989 69.8227 68.5523 67.1235 70.9564C66.436 71.5637 69.8227 68.5523 67.1235 70.9564ZM83.3951 54.0777C80.4922 57.5698 78.2514 60.2269 76.7235 61.9476L80.6195 47.8019L85.7888 51.1422C85.3813 51.623 84.4901 52.7365 83.3951 54.0777C80.4922 57.5698 84.4901 52.7365 83.3951 54.0777ZM93.6827 36.3386C93.6572 36.3892 93.6572 36.4398 93.6572 36.4651L93.4535 37.0977V37.123C93.4026 37.2495 93.3516 37.4014 93.3007 37.6038L93.1479 38.034L93.4789 38.1352L93.1224 38.1099L93.0206 38.3883L93.3516 38.5148H92.9951L92.715 39.2487C92.6896 39.3499 92.6386 39.4511 92.5877 39.5776L92.3585 40.1597C92.3331 40.2103 92.3076 40.2609 92.2821 40.3368L91.5182 42.1335L91.8238 42.26L91.4673 42.2094C91.3909 42.3866 91.289 42.5637 91.2126 42.7408L90.7033 43.8036L90.6524 43.8796L90.1941 44.7906C90.0922 44.9424 90.0158 45.0942 89.9394 45.2461L89.1246 46.7138C88.8699 47.1187 88.6153 47.5489 88.3606 47.9284L88.2588 48.055C88.1569 48.2068 88.0551 48.3586 87.9277 48.5358L87.8004 48.7129C87.7495 48.7888 87.6986 48.8394 87.6222 48.9407C87.6222 48.9407 87.5713 49.0166 87.5458 49.0166C87.5458 49.0166 87.5458 49.0419 87.5203 49.0419L86.3999 50.4337C86.349 50.5096 86.2726 50.5602 86.2216 50.6361L85.8906 50.4084L80.976 47.2199L93.7336 36.1361L93.6827 36.3386ZM94.2174 34.39L83.2678 22.3953L88.7426 20.4215L93.4535 18.726C93.7591 20.7251 95.1341 29.8604 94.2174 34.39ZM85.967 6.35164L68.0148 13.1335L72.8784 1.36648H73.0312C79.4991 1.36648 84.541 5.16229 85.967 6.35164ZM72.14 1.36648L68.524 10.0968L67.3272 13.007L60.0699 3.03664C63.9405 1.9232 68.0911 1.26526 72.14 1.36648ZM59.4333 3.3403L66.7161 13.3865L48.6365 13.5637C50.801 10.3752 57.9309 4.55496 59.4333 3.3403ZM47.4142 13.5637L29.3092 13.3865L36.5919 3.3403C38.1198 4.55496 45.2498 10.3752 47.4142 13.5637ZM35.9808 3.03664L28.7235 13.0323L27.5267 10.1222L23.9108 1.36648C27.9596 1.26526 32.1102 1.9232 35.9808 3.03664ZM23.0195 1.36648H23.1723L28.036 13.1335L10.0837 6.35164C11.5097 5.16229 16.5262 1.36648 23.0195 1.36648ZM2.59725 18.7007L7.30812 20.3961L12.7829 22.37L1.80786 34.39C0.891148 29.8604 2.29168 20.7251 2.59725 18.7007Z" fill="#F0F0F0"/>
<path d="M48.0254 87C47.8471 87 47.6434 86.9493 47.4906 86.8481L39.5967 81.205C39.2657 80.9773 38.9092 80.7495 38.5781 80.4965L37.4068 79.6614C34.733 77.6876 32.2121 75.5366 30.3023 73.8918C21.7972 67.1352 14.8455 58.8856 9.01422 51.6483L8.65772 51.294L7.4609 49.8516C7.43544 49.8263 7.40997 49.801 7.38451 49.7504L7.02801 49.2949C6.92615 49.1431 6.8243 48.9912 6.69698 48.8394L6.59512 48.7129C6.28955 48.2827 6.00944 47.8272 5.7548 47.3717L5.1182 46.2582L5.01634 46.0811L3.3357 42.7155C3.3357 42.6902 3.31024 42.6649 3.28477 42.6143L3.0556 42.0575C3.0556 42.0322 3.03013 42.0069 3.03013 41.9816L1.78239 38.8185V38.7932C1.78239 38.7678 1.78239 38.7678 1.75692 38.7425L1.50228 38.034C1.32403 37.5026 1.14578 36.9459 0.967532 36.4144L0.891139 36.212C0.840211 36.0096 0.814747 35.9843 0.814747 35.9336L0.687426 35.5288L1.2731 35.2251L0.661962 35.4022C-0.789497 30.2652 0.305463 23.9136 1.19671 18.8272L1.32403 18.1186C1.78239 15.8411 3.31024 13.6396 4.63438 11.7164C4.91448 11.3115 5.19459 10.9066 5.44923 10.527C5.70387 10.1221 5.95851 9.66663 6.23862 9.23644C6.97708 7.99647 7.76647 6.70589 8.75957 5.76959C11.9171 2.60642 18.0795 -0.480841 23.3506 0.0758784H23.376C29.411 -0.126565 33.9946 0.531376 36.9484 1.99909C38.3235 2.60642 39.6476 3.89699 40.819 5.03574C41.2519 5.46593 41.6593 5.84551 42.0413 6.19979L42.6269 6.70589C44.5368 8.37605 46.4975 10.1221 48.0254 12.1466C50.3681 8.93277 53.7548 6.22509 56.7596 3.79577L58.1092 2.70764C59.8153 1.31584 62.158 0.986873 64.246 0.683208L65.1882 0.531376C67.9893 0.101184 70.4338 -0.0506486 72.7002 -3.78266e-05H72.7256C77.8694 -0.556757 83.4206 2.40398 86.9092 5.3394C88.4625 6.65528 89.6593 8.70502 90.7288 10.5017C91.0344 11.0331 91.3654 11.5645 91.6455 12.0453C93.4535 14.9048 94.6503 17.4101 95.1341 21.0541L95.2614 22.0663C95.8471 26.3176 96.5092 31.1256 95.3378 35.2757C95.3124 35.3263 95.2614 35.4781 95.236 35.5288L95.2105 35.7059C95.2105 35.7312 95.2105 35.7312 95.2105 35.7565C95.2105 35.7818 95.2105 35.8071 95.185 35.8324C95.185 35.9336 95.1596 36.0349 95.1086 36.1108L95.0577 36.2373C95.0577 36.2626 95.0323 36.3132 95.0323 36.3385L94.7012 37.4014C94.7012 37.4267 94.7012 37.4267 94.6758 37.452C94.6248 37.5785 94.5994 37.705 94.5484 37.8569L93.1479 41.5514C93.1479 41.5767 93.1224 41.5767 93.1224 41.6021L92.7405 42.4877C92.7405 42.513 92.715 42.5383 92.715 42.5383L91.1362 45.7268L90.2705 47.2198C89.9903 47.6753 89.7357 48.1055 89.4556 48.5104C89.4301 48.5357 89.4301 48.561 89.4047 48.561C89.4047 48.5863 89.3792 48.6116 89.3537 48.637C89.2264 48.8394 89.1246 48.9912 88.9972 49.1431L88.7681 49.4467C88.7426 49.472 88.6662 49.5733 88.6407 49.5986L86.0434 52.7364C83.1405 56.3045 80.1357 59.9738 77.0036 63.4406C74.2535 66.5026 70.9941 69.2609 67.862 71.9179C67.1744 72.5 66.4869 73.082 65.8248 73.664L65.6975 73.7652C63.1002 75.9921 61.0376 77.6623 59.0768 79.1553L57.1161 80.5724C56.8869 80.7495 56.6577 80.9014 56.4285 81.0279L48.5856 86.6457C48.4073 86.9493 48.2036 87 48.0254 87ZM47.8726 85.5575L48.0254 85.6588L48.1781 85.5575L48.1527 85.5322C48.1017 85.5322 48.0763 85.5575 48.0254 85.5575C47.9744 85.5575 47.949 85.5575 47.898 85.5575C47.898 85.5322 47.8726 85.5575 47.8726 85.5575ZM51.8195 77.4092L49.8588 83.5078L54.4169 80.2434L51.8195 77.4092ZM41.6338 80.2687L46.1919 83.5331L44.2312 77.4345L41.6338 80.2687ZM45.7081 75.5872L48.0254 82.8246L50.3426 75.5872L48.0254 70.8551L45.7081 75.5872ZM38.9346 78.3455L40.0296 79.13L43.0598 75.815L25.6423 67.1352C27.7813 69.109 29.6657 70.7792 31.4736 72.3481C33.7399 74.2966 36.0826 76.2705 38.5781 78.0924L38.9346 78.3455ZM52.9909 75.815L56.0466 79.13L57.1415 78.3455C57.1925 78.3202 57.2689 78.2696 57.3198 78.219L57.8545 77.8141C59.8407 76.3211 61.9543 74.6003 64.4752 72.4493C65.2646 71.7661 65.9521 71.1841 66.6142 70.5767C67.9893 69.3621 69.288 68.1727 70.4084 67.1605L52.9909 75.815ZM43.4163 72.6771L44.4349 73.7905L46.7776 69.0078L31.932 59.9232L43.4163 72.6771ZM49.2986 69.0078L51.6413 73.7905L64.1442 59.9232L49.2986 69.0078ZM78.7097 49.7504L69.9755 56.3298L55.5628 72.3481L75.1702 62.5802L78.7097 49.7504ZM20.8805 62.5802L40.488 72.3481L25.9734 56.2539L17.341 49.7504L20.8805 62.5802ZM27.5012 54.938L48.0254 67.4895L68.575 54.938L76.4943 34.6178L73.4132 19.9153L48.0254 18.6754L22.663 19.9153L19.5819 34.6178L27.5012 54.938ZM11.2041 51.2687C13.7251 54.3813 15.915 57.0383 17.9776 59.4171L15.0492 48.7888L11.2041 51.2687ZM81.0015 48.7888L78.0731 59.3918C79.1171 58.1518 80.3904 56.6588 81.8163 54.938C81.8418 54.9127 81.8418 54.9127 81.8673 54.8874C81.8927 54.8621 81.9182 54.8115 81.9437 54.7862C82.3002 54.3307 82.5803 54.0017 82.8094 53.7486C82.8349 53.7233 82.8604 53.698 82.8604 53.6727C82.8604 53.6727 82.8604 53.6727 82.8858 53.6474L84.8211 51.2687L81.0015 48.7888ZM16.7299 46.8403L24.5219 52.7111L18.7925 37.9834L16.7299 46.8403ZM77.2582 38.0087L71.5033 52.7364L79.2954 46.8656L77.2582 38.0087ZM8.93782 48.561C8.96329 48.5863 8.96329 48.6116 8.98875 48.6116L9.95639 49.7757L14.0307 47.1439L3.66674 38.1605L4.0487 39.198L5.42377 42.513L7.48636 46.4101C7.76647 46.8656 7.99565 47.2452 8.25029 47.6247C8.42854 47.9031 8.5304 48.0549 8.65772 48.2068L8.8869 48.5357C8.91236 48.4851 8.91236 48.5104 8.93782 48.561ZM82.0201 47.1439L86.0943 49.7757L87.0365 48.6116C87.062 48.5357 87.1129 48.4851 87.1638 48.4598C87.2147 48.4092 87.2402 48.3586 87.2657 48.3333L87.393 48.1308C87.4949 47.979 87.5967 47.8272 87.6986 47.6753L87.8004 47.5235C88.0551 47.1439 88.3097 46.739 88.5389 46.3342L89.3792 44.8664C89.4556 44.7399 89.532 44.5628 89.6339 44.3856L90.8561 41.8551C90.8561 41.8551 90.8561 41.8551 90.8561 41.8298C90.8561 41.8045 90.8561 41.8045 90.8816 41.7792L92.333 38.1858C92.333 38.1858 92.333 38.1858 92.333 38.1605C92.333 38.1352 92.3585 38.1099 92.3585 38.0593L82.0201 47.1439ZM88.1569 49.2696L88.2078 49.2949L88.1569 49.2696C88.1569 49.2443 88.1569 49.2696 88.1569 49.2696ZM6.18769 45.4738L6.23862 45.4485L6.18769 45.4738ZM3.0556 35.0226L15.0747 45.4485L17.5447 34.7696L13.0885 24.0401L3.0556 35.0226ZM78.5315 34.7696L81.0015 45.4485L92.9951 35.0226L82.9877 24.0401L78.5315 34.7696ZM3.10652 19.561C2.67363 22.4206 1.83331 28.8481 2.24074 32.9729L11.6625 22.6483L3.10652 19.561ZM84.3628 22.6483L93.7845 32.9729C94.1919 28.7722 93.3262 22.1422 92.9187 19.561L84.3628 22.6483ZM75.5267 20.5226L77.8185 31.3787L81.3834 22.7748L75.5267 20.5226ZM14.6673 22.7748L18.2323 31.3787L20.524 20.5226L14.6673 22.7748ZM10.8222 8.04708L14.0816 20.9275L21.3643 18.1186L26.6609 14.0192L10.8222 8.04708ZM74.6864 18.1186L81.9691 20.9275L85.2285 8.04708L69.3898 14.0192L74.6864 18.1186ZM87.062 8.75563L84.0572 20.6745L92.4858 17.6378C91.4418 15.1832 88.5643 10.9319 87.062 8.75563ZM3.59034 17.6631L11.9935 20.6998L8.98875 8.78094C7.38451 11.0584 4.60891 15.2085 3.59034 17.6631ZM67.9129 17.6884L71.1468 17.8403L67.149 14.753L55.7665 17.1064L67.9129 17.6884ZM28.9018 14.7783L24.9039 17.8656L39.2657 17.1823L40.2842 17.1317L28.9018 14.7783ZM38.68 14.7783L48.0254 16.7015L57.3707 14.7783L48.0254 14.8542L38.68 14.7783ZM30.5569 12.7792L46.1155 12.931C43.6455 9.9956 38.4763 5.71898 36.7447 4.27658L30.5569 12.7792ZM59.3315 4.25127C57.5744 5.69368 52.4307 9.97029 49.9606 12.9057L65.5193 12.7539L59.3315 4.25127ZM11.3569 6.14918L26.8901 12.02L22.7649 1.99909C17.5447 2.10031 13.3431 4.68146 11.3569 6.14918ZM73.2858 1.99909L69.1606 12.02L84.6938 6.14918C82.7076 4.68146 78.506 2.10031 73.2858 1.99909ZM61.1394 3.41619L67.1744 11.7417L71.1978 1.99909C67.9893 1.99909 64.6025 2.47989 61.1394 3.41619ZM24.8529 1.99909L28.8763 11.7417L34.9113 3.41619C31.4482 2.47989 28.0614 1.99909 24.8529 1.99909Z" fill="#F0F0F0"/>
</g>
<defs>
<clipPath id="clip0_14_684">
<rect width="96" height="87" fill="white"/>
</clipPath>
</defs>
</svg>
