<svg width="99" height="99" viewBox="0 0 99 99" fill="none" xmlns="http://www.w3.org/2000/svg">
<g clip-path="url(#clip0_14_609)">
<path d="M5.19118 77.4949L4.5769 76.5989L17.0159 68.0992L17.6302 68.9953L5.19118 77.4949Z" fill="#F0F0F0"/>
<path d="M5.19121 77.8278C5.08883 77.8278 4.98646 77.7766 4.93527 77.6998L4.321 76.8037C4.26981 76.7269 4.24421 76.6501 4.26981 76.5733C4.2954 76.4965 4.34659 76.4197 4.39778 76.3685L16.8368 67.8433C16.9903 67.7409 17.1695 67.7921 17.2719 67.9201L17.8861 68.8161C17.9373 68.8929 17.9629 68.9697 17.9373 69.0466C17.9117 69.1234 17.8605 69.2002 17.8094 69.2514L5.37038 77.751C5.31919 77.8022 5.2424 77.8278 5.19121 77.8278ZM5.01205 76.7013L5.268 77.0597L17.1951 68.9185L16.9391 68.5601L5.01205 76.7013Z" fill="#F0F0F0"/>
<path d="M29.3274 80.9289L19.9373 93.501L20.7984 94.1445L30.1886 81.5724L29.3274 80.9289Z" fill="#F0F0F0"/>
<path d="M20.8039 94.4686C20.7271 94.4686 20.6759 94.443 20.5991 94.4174L19.7289 93.7774C19.6009 93.675 19.5497 93.4701 19.6521 93.3421L29.0453 80.7719C29.0965 80.6951 29.1733 80.6695 29.2501 80.6439C29.3269 80.6439 29.4293 80.6439 29.4805 80.6951L30.3507 81.3352C30.4786 81.4376 30.5298 81.6424 30.4275 81.7704L21.0342 94.3406C21.0086 94.4174 20.9318 94.4686 20.8551 94.4686C20.8295 94.4686 20.8295 94.4686 20.8039 94.4686ZM20.3944 93.4445L20.7527 93.7005L29.762 81.6424L29.4037 81.3864L20.3944 93.4445Z" fill="#F0F0F0"/>
<path d="M70.4345 81.4001L69.5847 82.0997L79.6205 94.2958L80.4702 93.5962L70.4345 81.4001Z" fill="#F0F0F0"/>
<path d="M79.6204 94.6222H79.5948C79.5181 94.6222 79.4413 94.571 79.3901 94.5198L69.357 82.3336C69.2546 82.2056 69.2546 82.0008 69.4082 81.8728L70.2528 81.1815C70.3296 81.1303 70.4064 81.1047 70.4832 81.1047C70.5599 81.1047 70.6367 81.1559 70.6879 81.2071L80.721 93.3933C80.8234 93.5213 80.8234 93.7261 80.6698 93.8542L79.8252 94.5454C79.774 94.5966 79.6972 94.6222 79.6204 94.6222ZM70.0481 82.1544L79.6716 93.8542L80.03 93.5725L70.4064 81.8728L70.0481 82.1544Z" fill="#F0F0F0"/>
<path d="M94.6955 78.8774L82.3589 68.7137L83.0499 67.8689L95.3866 78.0326L94.6955 78.8774Z" fill="#F0F0F0"/>
<path d="M94.6956 79.2103C94.6188 79.2103 94.542 79.1847 94.4908 79.1335L82.1798 68.9698C82.0518 68.8674 82.0262 68.6626 82.1286 68.509L82.8197 67.6641C82.8709 67.5873 82.9476 67.5617 83.0244 67.5361C83.1012 67.5361 83.2036 67.5617 83.2548 67.6129L95.5658 77.7766C95.6938 77.879 95.7194 78.0838 95.617 78.2375L94.9259 79.0823C94.8747 79.1591 94.7979 79.1847 94.7212 79.2103C94.6956 79.2103 94.6956 79.2103 94.6956 79.2103ZM82.8197 68.6626L94.6444 78.4167L94.9259 78.0838L83.1012 68.3298L82.8197 68.6626Z" fill="#F0F0F0"/>
<path d="M94.3318 19.2128L82.2646 27.9919L82.912 28.8822L94.9791 20.103L94.3318 19.2128Z" fill="#F0F0F0"/>
<path d="M82.8965 29.1854C82.7941 29.1854 82.6917 29.1342 82.6405 29.0574L82.0007 28.1869C81.9495 28.1101 81.9239 28.0333 81.9495 27.9565C81.9495 27.8797 82.0007 27.8029 82.0775 27.7517L94.1325 18.9449C94.2605 18.8425 94.4653 18.8681 94.5676 19.0217L95.2075 19.8921C95.2587 19.9689 95.2843 20.0457 95.2587 20.1225C95.2587 20.1993 95.2075 20.2761 95.1307 20.3273L83.0757 29.1086C83.0501 29.1598 82.9733 29.1854 82.8965 29.1854ZM82.7173 28.0589L82.9733 28.4173L94.5165 20.0201L94.2605 19.6617L82.7173 28.0589Z" fill="#F0F0F0"/>
<path d="M79.6254 4.4549L69.8518 16.2706L70.6998 16.9724L80.4734 5.15669L79.6254 4.4549Z" fill="#F0F0F0"/>
<path d="M70.6879 17.2808C70.6111 17.2808 70.5343 17.2552 70.4831 17.204L69.6385 16.5128C69.5617 16.4616 69.5361 16.3848 69.5361 16.308C69.5361 16.2312 69.5617 16.1288 69.6129 16.0776L79.3901 4.2754C79.4924 4.1474 79.6972 4.12179 79.8508 4.2242L80.6954 4.91543C80.7722 4.96664 80.7978 5.04344 80.7978 5.12024C80.7978 5.19705 80.7722 5.29945 80.721 5.35065L70.9438 17.1528C70.8671 17.2296 70.7903 17.2808 70.6879 17.2808ZM70.304 16.2312L70.6623 16.5128L80.0299 5.19705L79.6716 4.91543L70.304 16.2312Z" fill="#F0F0F0"/>
<path d="M21.2023 4.08942L20.3035 4.72461L28.5588 16.4125L29.4577 15.7773L21.2023 4.08942Z" fill="#F0F0F0"/>
<path d="M28.5591 16.7432C28.4567 16.7432 28.3543 16.692 28.3031 16.6152L20.0361 4.91538C20.0105 4.83858 19.9849 4.76177 19.9849 4.68497C20.0105 4.60817 20.0361 4.53136 20.1128 4.48016L21.0086 3.84013C21.1622 3.73772 21.3414 3.76333 21.4438 3.91693L29.7108 15.6167C29.762 15.6935 29.7876 15.7703 29.762 15.8471C29.7364 15.9239 29.7108 16.0007 29.634 16.0519L28.7382 16.692C28.687 16.7176 28.6358 16.7432 28.5591 16.7432ZM20.7527 4.81298L28.6358 15.9751L28.9942 15.7191L21.111 4.55696L20.7527 4.81298Z" fill="#F0F0F0"/>
<path d="M17.2464 28.8526L5.44727 19.4569L6.11273 18.6121L17.9118 28.0077L17.2464 28.8526Z" fill="#F0F0F0"/>
<path d="M17.2464 29.1598C17.1696 29.1598 17.1184 29.1342 17.0416 29.083L5.24247 19.7129C5.16569 19.6361 5.1145 19.5593 5.1145 19.4825C5.1145 19.4057 5.1401 19.3033 5.19129 19.2521L5.88234 18.4072C5.98472 18.2792 6.18948 18.2536 6.34304 18.356L18.1422 27.7517C18.2189 27.8029 18.2445 27.8797 18.2701 27.9565C18.2701 28.0333 18.2445 28.1357 18.1934 28.1869L17.5023 29.0318C17.4255 29.1342 17.3231 29.1598 17.2464 29.1598ZM5.88234 19.4057L17.1952 28.4173L17.4767 28.0589L6.16388 19.0473L5.88234 19.4057Z" fill="#F0F0F0"/>
<path d="M50.2122 98.6927C35.2393 98.6927 21.1111 98.6927 10.9244 88.401C1.04492 78.4165 1.04492 64.4895 1.04492 49.7688V49.5128C1.04492 34.5104 1.04492 20.3529 11.4363 10.1124C21.2903 0.409568 34.9322 0.332764 49.3932 0.332764C49.5211 0.332764 49.6491 0.332764 49.8027 0.332764H50.2122C65.1339 0.332764 79.2365 0.332763 89.372 10.4965C99.3795 20.5577 99.3795 34.6128 99.3795 49.5128V50.2296C99.3795 64.6431 99.3795 78.2629 89.7559 88.145C79.4413 98.6927 64.5708 98.6927 50.2122 98.6927ZM49.3676 1.40802C34.5483 1.40802 21.7254 1.48482 12.1786 10.8805C2.0943 20.8138 2.0943 34.7408 2.0943 49.5128V49.7688C2.0943 64.8991 2.0943 77.9557 11.6667 87.633C21.5462 97.6175 35.4441 97.6175 50.1866 97.6175C64.3404 97.6175 78.955 97.6175 88.9369 87.377C98.2789 77.8277 98.2533 65.0271 98.2533 50.2296V49.5128C98.2533 34.2032 98.2533 20.993 88.5529 11.2645C78.7502 1.40802 64.8523 1.40802 50.161 1.40802H49.7515C49.6491 1.40802 49.5211 1.40802 49.3676 1.40802Z" fill="#F0F0F0"/>
<path d="M50.2122 99C35.1881 99 20.9831 99 10.6941 88.6059C0.712158 78.519 0.712158 64.5407 0.712158 49.7688V49.5128C0.712158 34.4337 0.712158 20.225 11.206 9.88208C21.239 0 34.9322 0 49.3931 0H50.2122C65.2106 0 79.3644 0 89.6023 10.2661C99.7122 20.4298 99.7122 34.5361 99.7122 49.5128V50.2296C99.7122 64.7199 99.7122 78.391 89.9862 88.3755C79.5692 99 64.6475 99 50.2122 99ZM49.3931 0.640031C35.0601 0.640031 21.495 0.640031 11.6411 10.3429C1.35202 20.481 1.35202 34.5873 1.35202 49.5128V49.7688C1.35202 64.4127 1.35202 78.263 11.1292 88.1707C21.2135 98.3856 35.2905 98.3856 50.1866 98.3856C64.494 98.3856 79.2877 98.3856 89.4999 87.9147C99.0467 78.135 99.0467 64.5663 99.0467 50.2296V49.5128C99.0467 34.6897 99.0467 20.6858 89.116 10.7269C79.0829 0.640031 65.057 0.640031 50.1866 0.640031H49.3931ZM50.2122 97.9248C35.4185 97.9248 21.4182 97.9248 11.4619 87.8379C1.78713 78.0582 1.81273 64.9503 1.81273 49.7432V49.4872C1.81273 34.6641 1.81273 20.6602 11.9738 10.6245C21.6997 1.04965 35.1369 1.04965 49.3675 1.04965H50.2122C64.9803 1.04965 78.9293 1.04965 88.8344 10.9829C98.6372 20.8138 98.6372 34.1009 98.6372 49.4616V50.1784C98.6372 65.0528 98.6372 77.9046 89.2184 87.5563C79.1085 97.9248 64.4172 97.9248 50.2122 97.9248ZM49.3675 1.71528C34.6506 1.71528 21.9557 1.71528 12.4089 11.1109C2.427 20.9418 2.427 34.8177 2.427 49.5128V49.7688C2.427 64.8223 2.427 77.8278 11.897 87.4026C21.6997 97.2847 35.5464 97.2847 50.2122 97.2847C64.2892 97.2847 78.8525 97.2847 88.7321 87.1466C97.9717 77.6742 97.9717 64.9504 97.9717 50.204V49.4872C97.9717 34.2545 97.9717 21.121 88.3737 11.4694C78.6478 1.71528 64.8523 1.71528 50.2122 1.71528H49.3675Z" fill="#F0F0F0"/>
<path d="M12.1273 88.2987L11.1035 87.9403L23.8752 48.7448L11.2315 10.7013L12.2553 10.3429L25.0014 48.7448L24.9502 48.924L12.1273 88.2987Z" fill="#F0F0F0"/>
<path d="M12.1273 88.6059C12.1017 88.6059 12.0505 88.6059 12.0249 88.5803L11.0011 88.2475C10.8219 88.1963 10.7451 88.0171 10.7963 87.8379L23.5425 48.7448L10.9243 10.8038C10.8731 10.6245 10.9499 10.4453 11.1291 10.3941L12.1528 10.0613C12.2296 10.0357 12.332 10.0357 12.4088 10.0613C12.4856 10.1125 12.5368 10.1637 12.5624 10.2405L25.3085 48.6424C25.3341 48.7192 25.3341 48.7704 25.3085 48.8472L25.2573 49.0264L12.4344 88.3755C12.4088 88.4523 12.3576 88.5291 12.2808 88.5547C12.2296 88.6059 12.1784 88.6059 12.1273 88.6059ZM11.4874 87.7355L11.9225 87.8635L24.6686 48.7192L12.0505 10.7525L11.641 10.9062L24.1567 48.6424C24.1823 48.7192 24.1823 48.7704 24.1567 48.8472L11.4874 87.7355Z" fill="#F0F0F0"/>
<path d="M88.4761 88.2987L75.5764 48.7448L75.6276 48.5656L88.3481 10.3429L89.3719 10.7013L76.7282 48.7448L89.4999 87.9403L88.4761 88.2987Z" fill="#F0F0F0"/>
<path d="M88.4761 88.6059C88.4249 88.6059 88.3737 88.6059 88.3225 88.5803C88.2457 88.5291 88.1945 88.4779 88.1689 88.4011L75.2948 48.8471C75.2692 48.7959 75.2692 48.7191 75.2948 48.6423L75.346 48.4631L88.041 10.2405C88.0921 10.0869 88.2713 9.98446 88.4505 10.0357L89.4743 10.3685C89.551 10.3941 89.6278 10.4453 89.6534 10.5221C89.7046 10.5989 89.7046 10.6757 89.679 10.7781L77.0609 48.7191L89.807 87.8122C89.8582 87.9914 89.7814 88.1706 89.6022 88.2218L88.5785 88.5547C88.5273 88.6059 88.5017 88.6059 88.4761 88.6059ZM75.9091 48.7447L88.6552 87.889L89.0903 87.761L76.421 48.8727C76.3954 48.7959 76.3954 48.7447 76.421 48.6679L88.9624 10.9061L88.5529 10.7525L75.9091 48.7447Z" fill="#F0F0F0"/>
<path d="M88.9369 88.5291L49.7259 75.7541L11.6923 88.4011L11.334 87.3771L49.7259 74.6021L49.9051 74.6533L89.2696 87.5051L88.9369 88.5291Z" fill="#F0F0F0"/>
<path d="M88.9113 88.862C88.8857 88.862 88.8345 88.862 88.8089 88.8364L49.7259 76.087L11.7947 88.7084C11.6411 88.7596 11.462 88.6828 11.3852 88.5036L11.0525 87.4795C11.0269 87.4027 11.0269 87.3003 11.0781 87.2235C11.1036 87.1467 11.1804 87.0955 11.2572 87.0699L49.6492 74.3205C49.7003 74.2949 49.7771 74.2949 49.8539 74.3205L50.0331 74.3717L89.3976 87.1979C89.5768 87.2491 89.6535 87.4283 89.6024 87.6075L89.2696 88.6316C89.244 88.7084 89.1928 88.7852 89.1161 88.8108C89.0137 88.8364 88.9625 88.862 88.9113 88.862ZM49.7259 75.4469C49.7515 75.4469 49.8027 75.4469 49.8283 75.4725L88.7065 88.1451L88.8345 87.7099L49.7003 74.9605L11.7435 87.5819L11.8971 88.0171L49.6492 75.4725C49.6747 75.4469 49.7003 75.4469 49.7259 75.4469Z" fill="#F0F0F0"/>
<path d="M49.7259 24.0139L11.334 11.2645L11.6923 10.2404L49.7259 22.8874L88.9369 10.1124L89.2696 11.1365L49.7259 24.0139Z" fill="#F0F0F0"/>
<path d="M49.7259 24.3467C49.7003 24.3467 49.6491 24.3467 49.6235 24.3211L11.2316 11.5717C11.1548 11.5461 11.1036 11.4949 11.0524 11.4181C11.0012 11.3413 11.0012 11.2645 11.0268 11.1621L11.3596 10.1381C11.4107 9.98444 11.5899 9.88204 11.7691 9.93324L49.7259 22.5291L88.8089 9.77963C88.8857 9.75403 88.988 9.75403 89.0648 9.80523C89.1416 9.85644 89.1928 9.90764 89.2184 9.98444L89.5511 11.0085C89.6023 11.1877 89.5255 11.3669 89.3464 11.4181L49.8283 24.3211C49.8027 24.3467 49.7515 24.3467 49.7259 24.3467ZM11.7435 11.0597L49.7259 23.6811L88.8601 10.9317L88.7065 10.4965L49.8283 23.1947C49.7515 23.2203 49.7003 23.2203 49.6235 23.1947L11.897 10.6501L11.7435 11.0597Z" fill="#F0F0F0"/>
<path d="M98.2789 49.8455L82.4102 29.0573L49.8283 23.7835L18.0142 29.1853L1.88954 49.2055L1.04492 48.5399L17.4255 28.1869L49.8283 22.6826H49.9051L83.0245 28.0589L83.1525 28.2381L99.1491 49.1799L98.2789 49.8455Z" fill="#F0F0F0"/>
<path d="M98.2789 50.1528C98.1765 50.1528 98.0742 50.1016 98.023 50.0248L82.2311 29.339L49.8283 24.0907L18.1678 29.467L2.11992 49.4104C2.06873 49.4872 1.99195 49.5128 1.91517 49.5384C1.83838 49.564 1.736 49.5128 1.68481 49.4616L0.840191 48.7703C0.712218 48.6679 0.686624 48.4631 0.789002 48.3095L17.1696 27.9565C17.2208 27.9053 17.2975 27.8541 17.3743 27.8541L49.7771 22.3499C49.8027 22.3499 49.8539 22.3499 49.8795 22.3499L49.9819 22.3755L83.0757 27.7517C83.1525 27.7773 83.2293 27.8029 83.2805 27.8797L83.4084 28.0589L99.4051 49.0008C99.4563 49.0776 99.4819 49.1544 99.4563 49.2312C99.4563 49.308 99.4051 49.3848 99.3283 49.436L98.4581 50.1016C98.4069 50.1272 98.3557 50.1528 98.2789 50.1528ZM49.8283 23.4507C49.8539 23.4507 49.8539 23.4507 49.8795 23.4507L82.4614 28.7246C82.5382 28.7502 82.615 28.7758 82.6662 28.8526L98.3301 49.3848L98.6884 49.1032L82.8198 28.3405L49.8027 22.9899L17.5535 28.4686L1.48006 48.4887L1.83838 48.7703L17.7582 28.9806C17.8094 28.9294 17.8862 28.8782 17.963 28.8782L49.8027 23.4763C49.8027 23.4507 49.8027 23.4507 49.8283 23.4507Z" fill="#F0F0F0"/>
<path d="M49.8283 75.114L17.4255 69.6097L17.2975 69.4305L1.04492 49.2567L1.88954 48.5655L18.0142 68.5857L49.8283 74.0131L82.4102 68.7137L98.2789 47.951L99.1491 48.6167L83.0245 69.7377L82.7942 69.7633L49.8283 75.114Z" fill="#F0F0F0"/>
<path d="M49.8283 75.4212C49.8027 75.4212 49.8027 75.4212 49.7771 75.4212L17.3487 69.917C17.2719 69.917 17.1952 69.8658 17.144 69.8146L17.0416 69.6354L0.789002 49.436C0.686624 49.308 0.712218 49.1032 0.840191 48.9751L1.68481 48.2839C1.7616 48.2327 1.83838 48.2071 1.91517 48.2071C1.99195 48.2071 2.06873 48.2583 2.11992 48.3351L18.1678 68.2785L49.8283 73.6547L82.2311 68.4065L98.023 47.7207C98.1254 47.5671 98.3301 47.5415 98.4837 47.6695L99.3539 48.3351C99.4307 48.3863 99.4563 48.4631 99.4819 48.5399C99.4819 48.6167 99.4819 48.7191 99.4307 48.7703L83.3061 69.8914C83.2549 69.9682 83.1781 69.9938 83.1013 70.0194L82.8966 70.045L49.9307 75.3956C49.8539 75.4212 49.8539 75.4212 49.8283 75.4212ZM17.5791 69.3025L49.8283 74.7812L82.8454 69.4305L98.714 48.6679L98.3557 48.3863L82.6918 68.9185C82.6406 68.9953 82.5638 69.0209 82.487 69.0465L49.9051 74.3204C49.8795 74.3204 49.8283 74.3204 49.8027 74.3204L17.963 68.9185C17.8862 68.9185 17.8094 68.8673 17.7582 68.8161L1.83838 49.0263L1.48006 49.308L17.5791 69.3025Z" fill="#F0F0F0"/>
<path d="M49.7514 97.9503L29.3781 81.5655L23.8752 49.1544L23.9008 49.052L29.2757 15.9495L50.3913 0.819214L51.0311 1.71526L30.2739 16.564L24.9758 49.1544L30.4019 80.9767L50.4169 97.1055L49.7514 97.9503Z" fill="#F0F0F0"/>
<path d="M49.7514 98.2832C49.6746 98.2832 49.5978 98.2576 49.5467 98.2064L29.1989 81.8216C29.1477 81.7704 29.0966 81.6936 29.0966 81.6168L23.5681 49.2056C23.5681 49.18 23.5681 49.1288 23.5681 49.1032L23.5937 49.0008L28.9686 15.8728C28.9686 15.796 29.0198 15.7192 29.0966 15.668L50.2121 0.537639C50.3401 0.435234 50.5448 0.460836 50.6472 0.614443L51.2871 1.51049C51.3383 1.58729 51.3639 1.66409 51.3383 1.7409C51.3383 1.8177 51.2871 1.89451 51.2103 1.94571L30.5554 16.7176L25.3085 49.1544L30.6834 80.8231L50.6216 96.8751C50.7496 96.9775 50.7752 97.1823 50.6728 97.3359L49.9818 98.1808C49.9306 98.2576 49.8538 98.2832 49.777 98.3088C49.7514 98.2832 49.7514 98.2832 49.7514 98.2832ZM29.6852 81.412L49.7002 97.5152L49.9818 97.1567L30.1971 81.2328C30.1459 81.1816 30.0947 81.1048 30.0947 81.0279L24.6687 49.2056C24.6687 49.18 24.6687 49.1288 24.6687 49.1032L29.9412 16.5128C29.9412 16.436 29.9924 16.3592 30.0691 16.308L50.5704 1.63849L50.3145 1.28008L29.5573 16.1288L24.208 49.1544L29.6852 81.412Z" fill="#F0F0F0"/>
<path d="M50.4426 97.9504L49.7771 97.1056L69.7921 80.9768L75.1926 49.1545L69.9201 16.5641L49.1628 1.71538L49.8027 0.819336L70.9183 15.9497L70.9695 16.1801L76.3187 49.1545L70.7903 81.5657L70.6367 81.6937L50.4426 97.9504Z" fill="#F0F0F0"/>
<path d="M50.4426 98.2832H50.417C50.3402 98.2832 50.2634 98.232 50.2123 98.1552L49.5212 97.3104C49.4188 97.1824 49.4444 96.9776 49.5724 96.8496L69.5106 80.7976L74.8855 49.1288L69.6386 16.7433L48.9837 1.97134C48.9069 1.92014 48.8557 1.84334 48.8557 1.76653C48.8301 1.68973 48.8557 1.58732 48.9069 1.53612L49.5468 0.640078C49.6492 0.48647 49.8539 0.460869 49.9819 0.563274L71.0975 15.6936C71.1743 15.7448 71.2254 15.8216 71.2254 15.8984L71.251 16.1288L76.6003 49.1032C76.6003 49.1288 76.6003 49.18 76.6003 49.2056L71.0975 81.6168C71.0975 81.6936 71.0463 81.7704 70.9695 81.8216L70.8159 81.9496L50.6218 98.2064C50.5962 98.2576 50.5194 98.2832 50.4426 98.2832ZM50.2123 97.1568L50.4938 97.5152L70.5088 81.412L75.986 49.1544L70.6368 16.1288L49.8795 1.28011L49.6236 1.63853L70.1249 16.308C70.2017 16.3592 70.2528 16.436 70.2528 16.5128L75.5253 49.1032C75.5253 49.1288 75.5253 49.18 75.5253 49.2056L70.1249 81.0536C70.1249 81.1304 70.0737 81.2072 70.0225 81.2584L50.2123 97.1568Z" fill="#F0F0F0"/>
</g>
<defs>
<clipPath id="clip0_14_609">
<rect width="99" height="99" fill="white"/>
</clipPath>
</defs>
</svg>
