<svg width="116" height="118" viewBox="0 0 116 118" fill="none" xmlns="http://www.w3.org/2000/svg">
<g clip-path="url(#clip0_14_501)">
<path d="M58.5683 100.536L77.4729 99.0112L58.658 115.428L58.5683 100.536ZM38.3176 98.8019L57.312 100.536L57.4316 115.398L38.3176 98.8019ZM47.2614 80.6503L57.1923 85.9732L57.282 97.5758L47.2614 80.6503ZM58.4785 85.9732L68.7983 80.441L58.5683 97.6655L58.4785 85.9732ZM36.8818 97.3964L27.6389 70.184L45.1077 79.514L56.7735 99.2205L36.8818 97.3964ZM70.952 79.2748L88.2114 70.0046L78.8787 97.5758L59.1067 99.1906L70.952 79.2748ZM17.5884 75.4172L26.1732 69.8551L34.7581 95.1536L17.5884 75.4172ZM89.6173 69.7355L98.4115 75.4172L80.9726 95.3929L89.6173 69.7355ZM88.4507 49.8196L88.6003 68.3898L72.1784 77.1815L88.4507 49.8196ZM27.1603 68.4795L27.3996 49.6103L43.8514 77.3908L27.1603 68.4795ZM6.87977 47.9656L25.5451 68.7188L16.9303 74.3107L6.87977 47.9656ZM90.2454 68.629L109.12 47.9656L99.0696 74.3406L90.2454 68.629ZM89.5874 33.1333L100.745 26.6442L89.707 45.2443L89.5874 33.1333ZM15.2552 26.6143L26.3228 33.1333L26.1732 45.0649L15.2552 26.6143ZM89.707 47.6964L102.33 26.4349L110.167 44.9154L89.8865 67.104L89.707 47.6964ZM5.83284 44.9154L13.64 26.4349L26.1134 47.4871L25.904 67.2834L5.83284 44.9154ZM16.1526 25.6873H37.3305L26.9509 32.0269L16.1526 25.6873ZM46.0051 78.5571L27.3996 47.1582L27.5791 33.1333L39.7833 25.6873H76.1268L88.331 33.1333L88.4507 47.3675L70.0546 78.3477L57.8504 84.8967L46.0051 78.5571ZM78.5497 25.6873H99.8473L88.9293 32.0269L78.5497 25.6873ZM103.168 25.2089L114.115 18.8394L110.616 42.7324L103.168 25.2089ZM1.88442 18.7497L12.8323 25.179L5.38416 42.7025L1.88442 18.7497ZM57.9401 14.5931L74.033 24.4015H41.8473L57.9401 14.5931ZM90.724 8.46279L113.487 17.7628L102.509 24.1323L90.724 8.46279ZM2.51257 17.6432L25.1263 8.31327L13.4904 24.1024L2.51257 17.6432ZM59.6152 14.1146L88.5703 7.68529L101.163 24.4015H76.4558L59.6152 14.1146ZM27.2202 7.59558L56.265 14.1146L39.4244 24.4015H14.8365L27.2202 7.59558ZM30.0917 6.9377L57.312 1.79426V13.068L30.0917 6.9377ZM58.5683 1.79426L85.7287 7.05732L58.5683 13.068V1.79426ZM57.9401 0.358887L27.0108 6.24992L26.7116 6.19011L26.5322 6.36953L0.358887 17.1349L4.42696 44.9154L4.36714 45.1546L4.54661 45.364L16.0329 75.477L35.8349 98.2636L35.9246 98.5626L36.134 98.5926L58.0299 117.641L79.5966 98.8318L79.806 98.8019L79.8958 98.5327L99.8174 75.6863L111.393 45.4238L111.603 45.1845L111.513 44.9752L115.581 17.2844L89.1985 6.51905L89.0788 6.27982L88.8096 6.33963L57.9401 0.358887Z" fill="#F0F0F0"/>
<path d="M58.0599 118C57.9701 118 57.8804 117.97 57.8206 117.91L36.0145 98.9513H35.9248C35.7752 98.9513 35.6555 98.8317 35.5957 98.7121L35.5359 98.5028L15.7638 75.776C15.7339 75.7461 15.704 75.7162 15.704 75.6564L4.21769 45.5732L4.06813 45.3938C3.97839 45.2742 3.94848 45.1546 4.0083 45.0051L4.06813 44.8555L5.31627e-05 17.1946C-0.0298592 17.0451 0.0598778 16.8657 0.239352 16.8059L26.3229 6.07045L26.4126 5.95084C26.4725 5.83122 26.622 5.77141 26.7716 5.80132L27.0109 5.86113L57.8804 0C57.9402 0 57.9701 0 58.03 0L88.8097 5.98074L89.0191 5.92093C89.1687 5.89103 89.3183 5.95084 89.408 6.07045L89.4977 6.19007L115.791 16.8956C115.94 16.9554 116.03 17.1348 116.03 17.2843L111.992 44.8855L112.052 45.0051C112.111 45.1247 112.082 45.2742 111.992 45.3938L111.812 45.5732L100.266 75.776C100.236 75.8059 100.236 75.8657 100.206 75.8956L80.3446 98.6822L80.2847 98.8915C80.2249 99.0411 80.1053 99.1308 79.9557 99.1308H79.866L58.3889 117.88C58.2394 117.97 58.1496 118 58.0599 118ZM36.2239 98.2337C36.2837 98.2337 36.3435 98.2636 36.4034 98.3234L58.0599 117.133L79.3874 98.5327C79.4472 98.4729 79.507 98.443 79.5668 98.443L79.5967 98.3832C79.5967 98.3234 79.6267 98.2935 79.6566 98.2636L99.5483 75.4769L111.094 45.2742C111.124 45.2443 111.124 45.1845 111.154 45.1546L111.214 45.0948C111.184 45.035 111.184 44.9752 111.184 44.9154L115.192 17.4937L89.079 6.84795C89.0191 6.81804 88.9593 6.78814 88.9294 6.72833V6.69843H88.8995C88.8397 6.69843 88.8097 6.69843 88.7499 6.69843L57.9402 0.747593L27.0707 6.60872C27.0109 6.60872 26.9511 6.60872 26.9211 6.60872H26.8314C26.8015 6.63862 26.7417 6.69843 26.6818 6.72833L0.777774 17.3741L4.81594 44.8855C4.81594 44.9453 4.81594 45.0051 4.78603 45.0649V45.0948L4.81594 45.1247C4.84585 45.1546 4.87576 45.1845 4.87576 45.2443L16.3322 75.2975L36.1042 98.0542C36.1341 98.0841 36.1641 98.144 36.1641 98.1739L36.2239 98.2337ZM58.688 115.787C58.6282 115.787 58.5684 115.787 58.5385 115.757C58.4188 115.697 58.3291 115.578 58.3291 115.428L58.2393 100.536C58.2393 100.327 58.3889 100.177 58.5983 100.147L77.5029 98.6224C77.6525 98.5925 77.802 98.7121 77.8618 98.8616C77.9217 99.0112 77.8917 99.1906 77.7721 99.2803L58.9572 115.697C58.8675 115.757 58.7778 115.787 58.688 115.787ZM58.9572 100.865L59.047 114.591L76.3961 99.4597L58.9572 100.865ZM57.4018 115.757C57.3121 115.757 57.2223 115.727 57.1625 115.668L38.0485 99.071C37.9289 98.9513 37.899 98.8018 37.9588 98.6523C38.0186 98.5028 38.1682 98.4131 38.3477 98.4131L57.342 100.147C57.5215 100.177 57.671 100.327 57.671 100.506L57.7907 115.368C57.7907 115.518 57.7009 115.638 57.5813 115.697C57.5215 115.757 57.4616 115.757 57.4018 115.757ZM39.4245 99.2803L57.0129 114.561L56.9232 100.865L39.4245 99.2803ZM59.1068 99.5793C58.9872 99.5793 58.8675 99.5195 58.7778 99.3999C58.7179 99.2803 58.7179 99.1308 58.7778 99.0112L70.6231 79.0953C70.653 79.0355 70.7128 78.9757 70.7726 78.9458L88.032 69.7055C88.1816 69.6457 88.3311 69.6457 88.4508 69.7653C88.5704 69.8849 88.6004 70.0345 88.5704 70.184L79.2677 97.7552C79.2079 97.9047 79.0882 97.9944 78.9387 97.9944L59.1068 99.5793C59.1367 99.5793 59.1367 99.5793 59.1068 99.5793ZM71.2213 79.5737L59.8247 98.7719L78.6396 97.2468L87.5833 70.812L71.2213 79.5737ZM56.7736 99.5793H56.7437L36.852 97.7851C36.7025 97.7851 36.5828 97.6655 36.523 97.5459L27.2801 70.3335C27.2203 70.184 27.2801 70.0345 27.3997 69.9148C27.5194 69.8251 27.669 69.7952 27.8185 69.855L45.2873 79.185C45.3471 79.2149 45.407 79.2747 45.4369 79.3345L57.1027 99.0411C57.1625 99.1607 57.1625 99.3102 57.1027 99.4298C57.0129 99.5195 56.8933 99.5793 56.7736 99.5793ZM37.1512 97.0375L56.0558 98.7719L44.8087 79.7831L28.2672 70.9316L37.1512 97.0375ZM58.5684 98.0542C58.5385 98.0542 58.5086 98.0542 58.4786 98.0542C58.3291 98.0243 58.2094 97.8748 58.2094 97.6954L58.1197 86.003C58.1197 85.8535 58.2094 85.7339 58.3291 85.6741L68.6189 80.1419C68.7685 80.0522 68.948 80.0821 69.0676 80.2017C69.1873 80.3213 69.2172 80.5008 69.1274 80.6503L58.8974 97.8748C58.8077 97.9645 58.688 98.0542 58.5684 98.0542ZM58.8675 86.2124L58.9273 96.3497L67.7814 81.4577L58.8675 86.2124ZM57.2822 97.9645C57.1625 97.9645 57.0429 97.9047 56.9531 97.7851L46.9325 80.8596C46.8428 80.7101 46.8727 80.5307 46.9923 80.411C47.112 80.2914 47.2914 80.2615 47.441 80.3512L57.3719 85.6741C57.4915 85.7339 57.5813 85.8535 57.5813 86.003L57.671 97.6057C57.671 97.7851 57.5514 97.9346 57.4018 97.9645C57.342 97.9645 57.3121 97.9645 57.2822 97.9645ZM48.2785 81.6371L56.9232 96.2002L56.8335 86.2124L48.2785 81.6371ZM80.9727 95.7516C80.9129 95.7516 80.8531 95.7217 80.7932 95.6918C80.6437 95.6021 80.5539 95.4227 80.6138 95.2433L89.2285 69.5859C89.2584 69.4663 89.3482 69.3766 89.4678 69.3467C89.5576 69.3168 89.7071 69.3168 89.7969 69.3766L98.5911 75.0583C98.6808 75.1181 98.7406 75.2078 98.7706 75.3274C98.7706 75.447 98.7406 75.5368 98.6808 75.6265L81.2419 95.6021C81.1821 95.7217 81.0924 95.7516 80.9727 95.7516ZM89.7969 70.3036L81.9299 93.7481L97.8433 75.5068L89.7969 70.3036ZM34.7881 95.5124C34.6684 95.5124 34.5787 95.4825 34.5189 95.3928L17.3193 75.6564C17.2595 75.5667 17.2296 75.4769 17.2296 75.3573C17.2296 75.2377 17.3193 75.148 17.409 75.0882L26.0238 69.5261C26.1135 69.4663 26.2332 69.4663 26.3528 69.4962C26.4725 69.5261 26.5622 69.6158 26.5921 69.7354L35.1769 95.034C35.2368 95.2134 35.1769 95.3928 34.9975 95.4825C34.9077 95.5124 34.8479 95.5124 34.7881 95.5124ZM18.1568 75.4769L33.8309 93.4491L25.9939 70.3933L18.1568 75.4769ZM57.8505 85.2554C57.7907 85.2554 57.7308 85.2554 57.671 85.2255L45.8556 78.9159C45.7958 78.886 45.736 78.8262 45.7061 78.7663L27.1006 47.3675C27.0707 47.3077 27.0408 47.2478 27.0408 47.188L27.2203 33.1632C27.2203 33.0436 27.2801 32.924 27.3997 32.8343L39.604 25.3882C39.6638 25.3583 39.7236 25.3284 39.8134 25.3284H76.1269C76.1867 25.3284 76.2765 25.3583 76.3363 25.3882L88.5405 32.8343C88.6602 32.8941 88.72 33.0137 88.72 33.1632L88.8397 47.3974C88.8397 47.4572 88.8097 47.517 88.7798 47.5768L70.3838 78.557C70.3538 78.6168 70.294 78.6766 70.2342 78.7065L58.03 85.2554C57.9701 85.2255 57.9103 85.2554 57.8505 85.2554ZM46.2744 78.258L57.8206 84.4481L69.7556 78.0487L88.032 47.2478L87.9124 33.3127L75.9774 26.0461H39.9031L27.9681 33.3127L27.7886 47.0385L46.2744 78.258ZM43.8515 77.7795C43.7917 77.7795 43.7319 77.7795 43.672 77.7496L26.981 68.8383C26.8613 68.7785 26.7716 68.629 26.7716 68.5094L27.0109 49.6401C27.0109 49.4607 27.1305 49.3411 27.2801 49.2813C27.4297 49.2215 27.6091 49.3112 27.6989 49.4607L44.1506 77.2413C44.2404 77.3908 44.2105 77.5702 44.0908 77.6898C44.0609 77.7197 43.9413 77.7795 43.8515 77.7795ZM27.5493 68.2402L42.8644 76.4339L27.7587 50.9559L27.5493 68.2402ZM72.2084 77.5403C72.1187 77.5403 71.999 77.5104 71.9392 77.4207C71.8195 77.3011 71.7896 77.1216 71.8794 76.9721L88.1218 49.6102C88.2115 49.4607 88.3611 49.4009 88.5405 49.4308C88.6901 49.4607 88.8097 49.6102 88.8097 49.7897L88.9593 68.3599C88.9593 68.5094 88.8696 68.629 88.7499 68.6888L72.3281 77.4805C72.3281 77.5403 72.2682 77.5403 72.2084 77.5403ZM88.0919 51.1353L73.2254 76.1946L88.2414 68.1505L88.0919 51.1353ZM16.9304 74.6994C16.9005 74.6994 16.8407 74.6994 16.8108 74.6695C16.6911 74.6396 16.6313 74.5499 16.5715 74.4602L6.52094 48.1151C6.46112 47.9356 6.52094 47.7562 6.6705 47.6665C6.82006 47.5768 7.02945 47.6067 7.1491 47.7263L25.8144 68.4795C25.8742 68.5692 25.934 68.6589 25.9041 68.7785C25.9041 68.8981 25.8144 68.9878 25.7247 69.0476L17.1099 74.6396C17.08 74.6695 17.0202 74.6994 16.9304 74.6994ZM7.95673 49.7299L17.1398 73.7425L25.0068 68.6589L7.95673 49.7299ZM99.0697 74.6994C99.0098 74.6994 98.9201 74.6695 98.8603 74.6396L90.0362 68.9579C89.9464 68.8981 89.8866 68.8084 89.8567 68.6888C89.8268 68.5692 89.8866 68.4795 89.9464 68.3898L108.821 47.7263C108.941 47.6067 109.15 47.5768 109.3 47.6665C109.449 47.7562 109.509 47.9356 109.449 48.1151L99.3987 74.4901C99.3688 74.6097 99.2791 74.6695 99.1594 74.6994C99.1295 74.6695 99.0996 74.6994 99.0697 74.6994ZM90.8139 68.5393L98.8902 73.7425L108.073 49.6401L90.8139 68.5393ZM25.9041 67.6721C25.7845 67.6721 25.6947 67.6422 25.6349 67.5525L5.59366 45.1845C5.50392 45.0649 5.47401 44.9154 5.53383 44.7957L13.341 26.3153C13.4008 26.1956 13.5204 26.1059 13.67 26.076C13.8195 26.0461 13.9392 26.1358 14.0289 26.2554L26.5024 47.3077C26.5323 47.3675 26.5622 47.4273 26.5622 47.4871L26.2631 67.2833C26.2631 67.4328 26.1733 67.5824 26.0238 67.6422C25.9939 67.6422 25.934 67.6721 25.9041 67.6721ZM6.28164 44.8555L25.5452 66.3264L25.7845 47.6067L13.7298 27.2722L6.28164 44.8555ZM89.8866 67.4927C89.8567 67.4927 89.7969 67.4927 89.7669 67.4627C89.6174 67.4029 89.5276 67.2833 89.5276 67.1039L89.3482 47.6665C89.3482 47.6067 89.3781 47.5469 89.408 47.4871L102.031 26.2255C102.091 26.1059 102.24 26.0162 102.39 26.0461C102.539 26.0461 102.659 26.1358 102.719 26.2854L110.556 44.7658C110.616 44.8855 110.586 45.0649 110.496 45.1546L90.2156 67.3431C90.096 67.4627 89.9763 67.4927 89.8866 67.4927ZM90.0661 47.7861L90.2455 66.147L109.718 44.8555L102.27 27.2722L90.0661 47.7861ZM89.6772 45.633C89.6473 45.633 89.6174 45.633 89.5875 45.633C89.4379 45.6031 89.3183 45.4536 89.3183 45.2742L89.1986 33.1632C89.1986 33.0436 89.2584 32.8941 89.3781 32.8343L100.535 26.3452C100.685 26.2554 100.864 26.2854 100.984 26.405C101.104 26.5246 101.134 26.704 101.044 26.8535L90.0062 45.4536C89.9464 45.5433 89.8268 45.633 89.6772 45.633ZM89.9464 33.3426L90.0362 43.8986L99.6679 27.6908L89.9464 33.3426ZM26.1733 45.4237C26.0537 45.4237 25.934 45.3639 25.8443 45.2443L14.9263 26.7937C14.8366 26.6741 14.8665 26.4648 14.9861 26.3452C15.1058 26.2255 15.2852 26.1956 15.4348 26.2854L26.5024 32.8044C26.622 32.8642 26.6818 32.9838 26.6818 33.1333L26.5323 45.0649C26.5323 45.2443 26.4126 45.3639 26.2631 45.4237C26.2332 45.4237 26.2032 45.4237 26.1733 45.4237ZM16.3023 27.6609L25.8144 43.7192L25.934 33.3426L16.3023 27.6609ZM110.616 43.1211C110.466 43.1211 110.317 43.0314 110.257 42.8819L102.809 25.3583C102.749 25.1789 102.809 24.9995 102.958 24.8799L113.906 18.5104C114.026 18.4506 114.175 18.4506 114.295 18.5104C114.415 18.6001 114.475 18.7197 114.445 18.8692L110.945 42.7623C110.915 42.9417 110.795 43.0613 110.616 43.0912C110.646 43.1211 110.616 43.1211 110.616 43.1211ZM103.646 25.3882L110.436 41.3867L113.607 19.5869L103.646 25.3882ZM5.38427 43.0912C5.38427 43.0912 5.35436 43.0912 5.32445 43.0912C5.14497 43.0613 5.02532 42.9417 4.99541 42.7623L1.52558 18.8094C1.49567 18.6898 1.55549 18.5403 1.67514 18.4506C1.79479 18.3609 1.94435 18.3609 2.064 18.4506L13.0119 24.8799C13.1615 24.9696 13.2512 25.1789 13.1615 25.3583L5.71331 42.8819C5.68339 43.0015 5.53383 43.0912 5.38427 43.0912ZM2.36313 19.4673L5.56375 41.3269L12.3538 25.3284L2.36313 19.4673ZM88.9294 32.3857C88.8696 32.3857 88.8097 32.3558 88.72 32.3259L78.3703 25.9863C78.2208 25.8966 78.161 25.7172 78.2208 25.5677C78.2507 25.4181 78.4003 25.2985 78.5797 25.2985H99.8773C100.057 25.2985 100.206 25.4181 100.236 25.5677C100.266 25.7172 100.206 25.8966 100.057 25.9863L89.1388 32.3259C89.079 32.3857 89.0191 32.3857 88.9294 32.3857ZM79.8959 26.0461L88.9593 31.5783L98.4714 26.0461H79.8959ZM26.9511 32.3857C26.8912 32.3857 26.8314 32.3558 26.7716 32.3259L15.9732 26.0162C15.8237 25.9265 15.7638 25.7471 15.7938 25.5976C15.8536 25.4181 16.0031 25.2985 16.1527 25.2985H37.3306C37.5101 25.2985 37.6597 25.4181 37.6896 25.5677C37.7494 25.7172 37.6597 25.8966 37.54 25.9863L27.1604 32.3259C27.0707 32.3857 27.0109 32.3857 26.9511 32.3857ZM17.5287 26.0461L26.9511 31.5783L36.0145 26.0461H17.5287ZM101.164 24.7902H76.456C76.3961 24.7902 76.3064 24.7603 76.2466 24.7304L59.4059 14.4435C59.2863 14.3538 59.1965 14.2043 59.2265 14.0547C59.2564 13.9052 59.376 13.7856 59.5256 13.7557L88.4807 7.32641C88.6004 7.2965 88.7798 7.35631 88.8696 7.47592L101.463 24.1921C101.552 24.3117 101.552 24.4612 101.493 24.5808C101.433 24.7005 101.313 24.7902 101.164 24.7902ZM76.5756 24.0426H100.416L88.4209 8.13381L60.6323 14.294L76.5756 24.0426ZM74.0331 24.7902H41.8474C41.6679 24.7902 41.5184 24.6706 41.4884 24.521C41.4286 24.3715 41.5184 24.1921 41.638 24.1024L57.7308 14.294C57.8505 14.2342 58.0001 14.2342 58.1197 14.294L74.2125 24.1024C74.3621 24.1921 74.4219 24.3715 74.3621 24.521C74.3621 24.6706 74.2125 24.7902 74.0331 24.7902ZM43.1934 24.0426H72.7169L57.9701 15.0416L43.1934 24.0426ZM39.4245 24.7902H14.8366C14.687 24.7902 14.5674 24.7005 14.5075 24.5808C14.4477 24.4612 14.4477 24.3117 14.5374 24.1921L26.9211 7.38621C27.0109 7.2666 27.1604 7.20679 27.31 7.2367L56.3549 13.7557C56.5044 13.7856 56.6241 13.9052 56.654 14.0547C56.6839 14.2043 56.6241 14.3538 56.4745 14.4435L39.6339 24.7304C39.5441 24.7603 39.4843 24.7902 39.4245 24.7902ZM15.5844 24.0426H39.3348L55.3079 14.294L27.3997 8.01419L15.5844 24.0426ZM102.51 24.4911C102.39 24.4911 102.27 24.4313 102.21 24.3416L90.425 8.67207C90.3353 8.55246 90.3353 8.34313 90.425 8.22352C90.5147 8.074 90.6942 8.0441 90.8737 8.1039L113.637 17.404C113.757 17.4638 113.846 17.5834 113.876 17.7329C113.876 17.8824 113.816 18.002 113.697 18.0917L102.719 24.4612C102.659 24.4911 102.599 24.4911 102.51 24.4911ZM91.8309 9.32995L102.599 23.6538L112.62 17.8226L91.8309 9.32995ZM13.4905 24.4911C13.4307 24.4911 13.3709 24.4612 13.311 24.4313L2.3033 17.9721C2.18365 17.8824 2.12383 17.7628 2.12383 17.6133C2.12383 17.4638 2.21357 17.3441 2.36313 17.2843L24.9768 7.95438C25.1264 7.92448 25.3059 7.95438 25.3956 8.1039C25.4854 8.22352 25.5153 8.43284 25.3956 8.55246L13.7896 24.3416C13.7298 24.4313 13.6102 24.4911 13.4905 24.4911ZM3.35023 17.703L13.4008 23.6239L24.0196 9.18044L3.35023 17.703ZM58.5684 13.4268C58.4786 13.4268 58.3889 13.3969 58.3291 13.3371C58.2393 13.2772 58.1795 13.1576 58.1795 13.038V1.79422C58.1795 1.67461 58.2393 1.5849 58.3291 1.49519C58.4188 1.43538 58.5086 1.40547 58.6282 1.40547L85.7886 6.63862C85.9681 6.66853 86.0877 6.81804 86.0877 6.99747C86.0877 7.17689 85.9681 7.32641 85.7886 7.35631L58.6282 13.367C58.6282 13.4268 58.5983 13.4268 58.5684 13.4268ZM58.9572 2.24278V12.5895L83.8742 7.05727L58.9572 2.24278ZM57.3121 13.4268C57.2822 13.4268 57.2522 13.4268 57.2223 13.4268L30.0021 7.32641C29.8226 7.2965 29.703 7.14698 29.703 6.96756C29.703 6.78814 29.8226 6.63862 30.0021 6.60872L57.2223 1.46528C57.342 1.43538 57.4317 1.46528 57.5215 1.55499C57.6112 1.6148 57.6411 1.73441 57.6411 1.85403V13.1277C57.6411 13.2473 57.5813 13.337 57.4915 13.4268C57.4915 13.3969 57.4018 13.4268 57.3121 13.4268ZM31.9464 6.96756L56.9531 12.5895V2.24278L31.9464 6.96756Z" fill="#F0F0F0"/>
</g>
<defs>
<clipPath id="clip0_14_501">
<rect width="116" height="118" fill="white"/>
</clipPath>
</defs>
</svg>
