<svg width="104" height="104" viewBox="0 0 104 104" fill="none" xmlns="http://www.w3.org/2000/svg">
<g clip-path="url(#clip0_14_551)">
<path d="M22.6392 103.651L22.4778 103.489L0.349609 81.361V22.6392L22.6661 0.349609H81.3879L81.5492 0.510933L103.677 22.6392L103.651 81.361L81.361 103.651H22.6392ZM1.47888 80.877L23.1231 102.521H80.9039L102.521 80.9039V23.1231L80.877 1.47888H23.1231L1.47888 23.0962V80.877Z" fill="#F0F0F0"/>
<path d="M22.6391 104C22.5584 104 22.4778 103.973 22.3971 103.892L22.2358 103.731L0.0806618 81.576C0.0268873 81.5222 0 81.4416 0 81.3609V22.6391C0 22.5584 0.0268873 22.4778 0.107549 22.3971L22.424 0.107549C22.4778 0.0268873 22.5584 0 22.6391 0H81.3609C81.4416 0 81.5222 0.0268873 81.6029 0.107549L81.7642 0.268873L103.919 22.3971C103.973 22.4509 104.027 22.5584 104.027 22.6391L104 81.3609C104 81.4416 103.973 81.5222 103.892 81.6029L81.6029 103.892C81.5491 103.946 81.4416 104 81.3609 104H22.6391ZM0.672182 81.2265L22.7735 103.328H81.2265L103.328 81.2265L103.355 22.8004L81.2534 0.699069H22.7735L0.672182 22.7735V81.2265ZM23.1231 102.844C23.0424 102.844 22.9348 102.817 22.8811 102.736L1.23681 81.092C1.18304 81.0383 1.12927 80.9307 1.12927 80.8501V23.0962C1.12927 23.0155 1.15615 22.9349 1.23681 22.8542L22.8811 1.23681C22.9348 1.18304 23.0155 1.12927 23.1231 1.12927H80.9038C80.9845 1.12927 81.092 1.15615 81.1458 1.23681L102.79 22.8811C102.844 22.9349 102.898 23.0424 102.898 23.1231L102.871 80.8769C102.871 80.9576 102.844 81.0383 102.763 81.1189L81.1458 102.736C81.092 102.79 80.9845 102.844 80.9038 102.844H23.1231ZM1.82833 80.7425L23.2575 102.172H80.7425L102.172 80.7425L102.199 23.2575L80.7694 1.82834H23.2575L1.82833 23.2575V80.7425Z" fill="#F0F0F0"/>
<path d="M76.3867 94.9121H27.6132L27.4519 94.7508L9.08789 76.3867V27.6132L27.6401 9.08789H76.4136L76.575 9.24921L94.939 27.6132L94.9659 76.3867L76.3867 94.9121ZM28.0972 93.7559H75.9297L93.8097 75.8759L93.7828 28.0434L75.9028 10.2172H28.0703L10.2172 28.0703L10.244 75.9028L28.0972 93.7559Z" fill="#F0F0F0"/>
<path d="M76.3867 95.2615H27.6132C27.5325 95.2615 27.4518 95.2347 27.3712 95.154L27.2098 94.9927L8.84583 76.6287C8.79206 76.5749 8.73828 76.4673 8.73828 76.3867V27.6132C8.73828 27.5325 8.76517 27.4518 8.84583 27.3712L27.3981 8.84583C27.4518 8.79206 27.5325 8.73828 27.64 8.73828H76.4136C76.4942 8.73828 76.5749 8.76517 76.6555 8.84583L76.8169 9.00715L95.1809 27.3712C95.2347 27.4249 95.2884 27.5325 95.2884 27.6132L95.3153 76.3867C95.3153 76.4673 95.2884 76.548 95.2078 76.6287L76.6555 95.154C76.548 95.2347 76.4673 95.2615 76.3867 95.2615ZM27.7745 94.5625H76.2522L94.6162 76.2253L94.5894 27.7207L76.2522 9.41046H27.7745L9.41046 27.7476L9.43735 76.2522L27.7745 94.5625ZM75.9027 94.1054H28.0702C27.9896 94.1054 27.882 94.0785 27.8283 93.9978L9.9751 76.1447C9.92132 76.0909 9.86755 75.9834 9.86755 75.9027L9.89443 28.0702C9.89443 27.9896 9.92132 27.9089 10.002 27.8283L27.882 9.94821C27.9358 9.89443 28.0165 9.84066 28.124 9.84066H75.9565C76.0371 9.84066 76.1447 9.86755 76.1985 9.94821L94.0516 27.8014C94.1054 27.8551 94.1592 27.9627 94.1592 28.0433L94.1861 75.8758C94.1861 75.9565 94.1592 76.0371 94.0785 76.1178L76.1985 93.9978C76.0909 94.0785 76.0103 94.1054 75.9027 94.1054ZM28.2316 93.4332H75.7683L93.4601 75.7683L93.4332 28.2316L75.7683 10.5666H28.2316L10.5666 28.2316L10.5935 75.7952L28.2316 93.4332Z" fill="#F0F0F0"/>
<path d="M71.6815 86.6577H32.3185L32.1572 86.4964L17.3154 71.6546V32.3185L32.3185 17.3154H71.6815L71.8428 17.4768L86.6846 32.3185L86.6577 71.6546L71.6815 86.6577ZM32.8025 85.5285H71.2244L85.5285 71.1975L85.5553 32.8025L71.2244 18.4716H32.8025L18.4716 32.8025V71.1975L32.8025 85.5285Z" fill="#F0F0F0"/>
<path d="M71.6814 87.0072H32.3185C32.2378 87.0072 32.1571 86.9803 32.0765 86.8996L31.9151 86.7383L17.0734 71.8965C17.0196 71.8428 16.9658 71.7352 16.9658 71.6546V32.3185C16.9658 32.2378 16.9927 32.1571 17.0734 32.0765L32.0765 17.0734C32.1302 17.0196 32.2378 16.9658 32.3185 16.9658H71.6814C71.7621 16.9658 71.8428 16.9927 71.9234 17.0734L72.0847 17.2347L86.9265 32.0765C86.9803 32.1302 87.0341 32.2378 87.0341 32.3185L87.0072 71.6546C87.0072 71.7352 86.9803 71.8159 86.8996 71.8965L71.9234 86.8996C71.8696 86.9803 71.7621 87.0072 71.6814 87.0072ZM32.4798 86.335H71.547L86.335 71.547L86.3619 32.4798L71.5739 17.6918H32.4798L17.6918 32.4798V71.5201L32.4798 86.335ZM71.1975 85.851H32.8024C32.7218 85.851 32.6142 85.8242 32.5604 85.7435L18.2295 71.4126C18.1757 71.3588 18.122 71.2512 18.122 71.1706V32.8024C18.122 32.7218 18.1489 32.6411 18.2295 32.5604L32.5604 18.2295C32.6142 18.1757 32.7218 18.122 32.8024 18.122H71.2244C71.305 18.122 71.4126 18.1489 71.4663 18.2295L85.7973 32.5604C85.851 32.6142 85.9048 32.7218 85.9048 32.8024L85.8779 71.1975C85.8779 71.2781 85.851 71.3588 85.7704 71.4395L71.4663 85.7704C71.3857 85.8242 71.305 85.851 71.1975 85.851ZM32.9369 85.1789H71.063L85.1789 71.0361L85.2057 32.91L71.063 18.821H32.9369L18.821 32.9369V71.063L32.9369 85.1789Z" fill="#F0F0F0"/>
<path d="M37.3197 77.9464L26.054 66.6806V37.2928L37.3197 26.054H66.7075L77.9733 37.2928V66.6806L66.7075 77.9195L37.3197 77.9464ZM27.1832 66.2236L37.7768 76.8171H66.2236L76.8172 66.2504V37.7768L66.2236 27.1832H37.7768L27.1832 37.7499V66.2236Z" fill="#F0F0F0"/>
<path d="M37.3196 78.2959C37.239 78.2959 37.1583 78.269 37.0777 78.1883L25.8119 66.9494C25.7581 66.8957 25.7043 66.7881 25.7043 66.7075V37.2928C25.7043 37.2121 25.7312 37.1314 25.8119 37.0508L37.0777 25.8119C37.1314 25.7581 37.2121 25.7043 37.3196 25.7043H66.7074C66.7881 25.7043 66.8956 25.7312 66.9494 25.8119L78.2152 37.0777C78.269 37.1314 78.3227 37.239 78.3227 37.3197V66.7075C78.3227 66.7881 78.2959 66.8688 78.2152 66.9494L66.9494 78.1883C66.8956 78.2421 66.815 78.2959 66.7074 78.2959H37.3196ZM26.3765 66.573L37.4272 77.6237H66.5461L77.5968 66.573V37.4541L66.5461 26.4034H37.4541L26.4034 37.4541V66.573H26.3765ZM37.7767 77.1666C37.6961 77.1666 37.5885 77.1397 37.5347 77.0591L26.9412 66.4655C26.8874 66.4117 26.8605 66.331 26.8605 66.2235V37.7767C26.8605 37.6961 26.8874 37.6154 26.968 37.5348L37.5616 26.968C37.6154 26.9143 37.6961 26.8605 37.8036 26.8605H66.2504C66.331 26.8605 66.4386 26.8874 66.4923 26.968L77.0859 37.5616C77.1397 37.6154 77.1935 37.723 77.1935 37.8036V66.2504C77.1935 66.331 77.1666 66.4117 77.0859 66.4924L66.4923 77.0591C66.4386 77.1128 66.3579 77.1666 66.2504 77.1666H37.7767ZM27.5327 66.0891L37.9112 76.4944H66.089L76.4675 66.1159V37.9112L66.089 27.5058H37.9112L27.5327 37.8843V66.0891Z" fill="#F0F0F0"/>
<path d="M80.4957 0.504771L66.1003 26.4336L67.0877 26.9817L81.483 1.05292L80.4957 0.504771Z" fill="#F0F0F0"/>
<path d="M67.0837 27.3174C67.03 27.3174 66.9762 27.3174 66.9224 27.2637L65.9276 26.699C65.8469 26.6453 65.7932 26.5915 65.7663 26.4839C65.7394 26.4033 65.7663 26.2957 65.7932 26.242L80.2047 0.322618C80.3123 0.161294 80.5005 0.10752 80.6618 0.188182L81.6567 0.752814C81.7373 0.806589 81.7911 0.860364 81.818 0.967913C81.8449 1.04857 81.818 1.15612 81.7911 1.2099L67.3795 27.1292C67.3257 27.2637 67.2182 27.3174 67.0837 27.3174ZM66.546 26.2957L66.9493 26.5108L81.0382 1.18301L80.6349 0.967913L66.546 26.2957Z" fill="#F0F0F0"/>
<path d="M77.5429 37.938L76.9783 36.9432L102.602 22.2358L103.166 23.2307L77.5429 37.938Z" fill="#F0F0F0"/>
<path d="M77.543 38.2606C77.5161 38.2606 77.4892 38.2606 77.4623 38.2606C77.3816 38.2337 77.301 38.18 77.2472 38.0993L76.6826 37.1045C76.6019 36.9432 76.6557 36.7281 76.817 36.6474L102.414 21.9401C102.494 21.8863 102.575 21.8863 102.656 21.9132C102.736 21.9401 102.817 21.9938 102.871 22.0745L103.435 23.0693C103.516 23.2306 103.462 23.4457 103.301 23.5264L77.7043 38.2337C77.6774 38.2606 77.5967 38.2606 77.543 38.2606ZM77.4354 37.0776L77.6774 37.4809L102.709 23.1231L102.467 22.7198L77.4354 37.0776Z" fill="#F0F0F0"/>
<path d="M23.3335 0.583222L22.3506 1.13916L36.8314 26.7417L37.8143 26.1858L23.3335 0.583222Z" fill="#F0F0F0"/>
<path d="M36.8356 27.0755C36.8087 27.0755 36.7818 27.0755 36.7549 27.0755C36.6742 27.0486 36.5936 26.9948 36.5398 26.9142L22.0476 1.31749C21.9669 1.15616 22.0207 0.941064 22.182 0.860402L23.1768 0.295769C23.2575 0.241994 23.3381 0.241994 23.4188 0.268882C23.4995 0.295769 23.5801 0.349544 23.6339 0.430205L38.1262 26.0269C38.2068 26.1882 38.153 26.4033 37.9917 26.484L36.9969 27.0486C36.9431 27.0755 36.8893 27.0755 36.8356 27.0755ZM22.8004 1.26371L36.9431 26.2958L37.3464 26.0538L23.2037 1.04861L22.8004 1.26371Z" fill="#F0F0F0"/>
<path d="M1.25336 22.3765L0.679443 23.3801L26.1443 37.9415L26.7182 36.9379L1.25336 22.3765Z" fill="#F0F0F0"/>
<path d="M26.1345 38.2605C26.0807 38.2605 26.0269 38.2337 25.9732 38.2068L0.510915 23.6608C0.349591 23.5801 0.295816 23.365 0.403366 23.2037L0.967998 22.2088C1.02177 22.1282 1.07555 22.0744 1.15621 22.0475C1.23687 22.0206 1.34442 22.0475 1.42508 22.0744L26.8873 36.6473C27.0487 36.728 27.1024 36.9431 27.0218 37.1044L26.4571 38.0992C26.4034 38.1799 26.3496 38.2337 26.242 38.2605C26.2152 38.2605 26.1883 38.2605 26.1345 38.2605ZM1.15621 23.2574L26.0269 37.4808L26.2689 37.0775L1.37131 22.8541L1.15621 23.2574Z" fill="#F0F0F0"/>
<path d="M1.18304 81.7643L0.618408 80.7694L26.2958 65.9814L26.8604 66.9763L1.18304 81.7643Z" fill="#F0F0F0"/>
<path d="M1.18302 82.1138C1.07547 82.1138 0.967919 82.0601 0.887257 81.9525L0.322624 80.9577C0.26885 80.877 0.26885 80.7964 0.295737 80.7157C0.322624 80.635 0.376399 80.5544 0.457061 80.5006L26.1344 65.7126C26.2957 65.6319 26.484 65.6857 26.5915 65.847L27.1561 66.8419C27.2099 66.9225 27.2099 67.0032 27.183 67.0838C27.1561 67.1645 27.1024 67.2452 27.0217 67.2989L1.34434 82.087C1.29057 82.087 1.23679 82.1138 1.18302 82.1138ZM1.07547 80.9039L1.31745 81.3072L26.4302 66.8419L26.1882 66.4385L1.07547 80.9039Z" fill="#F0F0F0"/>
<path d="M37.0002 77.1771L22.1277 102.772L23.104 103.339L37.9765 77.7444L37.0002 77.1771Z" fill="#F0F0F0"/>
<path d="M23.1231 103.677C23.0693 103.677 23.0155 103.651 22.9617 103.624L21.9669 103.059C21.8056 102.978 21.7518 102.763 21.8325 102.602L36.7011 77.0052C36.7549 76.9246 36.8087 76.8708 36.9162 76.8439C36.9969 76.817 37.1044 76.8439 37.1582 76.8708L38.153 77.4354C38.3144 77.5161 38.3681 77.7312 38.2875 77.8925L23.3919 103.516C23.3382 103.597 23.2844 103.651 23.1768 103.677C23.1768 103.677 23.1499 103.677 23.1231 103.677ZM22.5853 102.656L22.9886 102.898L37.5078 77.8656L37.1044 77.6236L22.5853 102.656Z" fill="#F0F0F0"/>
<path d="M80.6618 103.14L66.0352 77.5966L67.03 77.032L81.6567 102.575L80.6618 103.14Z" fill="#F0F0F0"/>
<path d="M80.6618 103.462C80.5543 103.462 80.4467 103.408 80.3661 103.301L65.7394 77.758C65.6856 77.6773 65.6856 77.5967 65.7125 77.516C65.7394 77.4353 65.7931 77.3547 65.8738 77.3009L66.8686 76.7363C67.03 76.6556 67.2182 76.7094 67.3257 76.8707L81.9524 102.414C82.0062 102.494 82.0062 102.575 81.9793 102.656C81.9524 102.736 81.8986 102.817 81.818 102.871L80.8231 103.435C80.7694 103.462 80.7156 103.462 80.6618 103.462ZM66.4922 77.7042L80.7962 102.656L81.1996 102.414L66.8955 77.4622L66.4922 77.7042Z" fill="#F0F0F0"/>
<path d="M77.704 65.8693L77.1416 66.8486L102.743 81.5507L103.306 80.5714L77.704 65.8693Z" fill="#F0F0F0"/>
<path d="M102.736 81.8718C102.683 81.8718 102.629 81.8449 102.575 81.818L76.9784 67.1107C76.8171 67.03 76.7633 66.8149 76.8439 66.6536L77.4086 65.6588C77.4624 65.5781 77.5161 65.5244 77.6237 65.4975C77.7043 65.4706 77.785 65.4975 77.8657 65.5244L103.462 80.2317C103.624 80.3124 103.677 80.5275 103.597 80.6888L103.032 81.6836C102.978 81.7643 102.925 81.818 102.817 81.8449C102.79 81.8718 102.763 81.8718 102.736 81.8718ZM77.5968 66.7074L102.629 81.0652L102.844 80.6619L77.8119 66.3041L77.5968 66.7074Z" fill="#F0F0F0"/>
</g>
<defs>
<clipPath id="clip0_14_551">
<rect width="104" height="104" fill="white"/>
</clipPath>
</defs>
</svg>
