<svg width="16" height="16" viewBox="0 0 16 16" fill="none" xmlns="http://www.w3.org/2000/svg">
<rect width="16" height="16" rx="8" fill="#202020"/>
<path d="M8.11629 6.52846C7.21747 5.62426 6.08632 4.96006 4.76855 4.64377L4.84282 4.14516C5.77402 4.36098 6.60238 4.74052 7.33744 5.22983L7.56595 5.38053L7.49359 5.12192C7.19461 4.06144 7.43836 2.85211 8.11629 2C8.79231 2.85211 9.03796 4.06144 8.73899 5.12192L8.66663 5.38053L8.89514 5.22983C9.6302 4.74052 10.4605 4.35354 11.3898 4.13958L11.464 4.63819C10.1463 4.95448 9.01511 5.62426 8.11629 6.52846Z" fill="#B58150"/>
<path d="M5.11899 11.7954L5.68837 6.55253L5.82357 6.63253C6.65003 7.11998 7.32225 7.81953 7.76595 8.65862L7.78499 8.69583L7.77166 8.7349C7.49554 9.55352 7.3889 10.668 7.46126 11.6317C7.69168 11.6261 7.9221 11.6224 8.15252 11.6224C8.35627 11.6224 8.56003 11.6261 8.76379 11.6298C8.83806 10.668 8.72951 9.55352 8.45339 8.7349L8.44006 8.69583L8.45911 8.65862C8.9028 7.82139 9.57502 7.11998 10.4015 6.63253L10.5367 6.55253L11.1061 11.7861C11.5936 11.8401 12.0753 11.9071 12.5533 11.9871L11.6031 5.50879C10.1958 5.87531 8.9885 6.73114 8.19631 7.9293L8.11062 8.05768L8.02493 7.9293C7.23084 6.73114 6.02352 5.87531 4.61816 5.50879L3.66602 12.0001C4.14399 11.9182 4.62768 11.8512 5.11518 11.7954H5.11899Z" fill="#B58150"/>
</svg>
