<svg width="74" height="73" viewBox="0 0 74 73" fill="none" xmlns="http://www.w3.org/2000/svg">
<g clip-path="url(#clip0_14_397)">
<path d="M37 72C56.8823 72 73 55.8823 73 36C73 16.1178 56.8823 0 37 0C17.1177 0 1 16.1178 1 36C1 55.8823 17.1177 72 37 72Z" fill="white"/>
<path d="M48.9878 35.0888C48.9209 31.5569 51.4288 30.121 53.4518 29.0316C54.8897 28.2724 55.9263 30.1705 56.0768 31.8704C56.1604 32.7452 55.943 34.7588 57.4645 33.6034C61.1762 30.7646 63.7343 34.016 66.6769 34.8743C67.981 35.2539 68.9006 36.1617 69.9037 34.5442C70.305 33.884 71.0072 33.6364 71.7094 34.1811C72.3113 34.6597 72.6791 35.551 72.2946 36.0461C69.887 39.248 71.5422 43.1761 70.2381 46.5761C69.8201 47.6654 69.5526 48.8372 68.4826 49.4974C67.3791 50.1741 66.1753 50.9003 64.8712 50.0916C63.6339 49.3323 63.8011 48.144 64.2358 46.9722C64.9213 45.1237 64.7709 44.2324 62.2964 44.4635C61.4103 44.546 60.3904 42.9286 59.3705 42.1363C57.5648 40.7169 55.7926 39.6276 54.2711 42.5655C53.7193 43.6217 52.6995 44.3975 51.3452 43.9848C50.1581 43.6217 49.8405 42.5324 49.7569 41.4761C49.5897 39.182 49.9575 36.8218 48.9878 35.0888Z" fill="#E6E6E6"/>
<path d="M53.9033 13.1872C53.92 14.7551 53.0171 15.6794 51.2783 15.2833C49.8405 14.9532 48.2521 14.6891 47.2991 13.3027C45.9114 11.2892 43.9218 10.596 41.5477 11.0251C40.4609 11.2231 39.558 11.0086 39.2738 9.96879C38.789 8.15328 39.6416 6.58533 40.6615 5.14943C41.1798 4.42323 41.9824 4.07663 42.7682 4.80283C43.7713 5.7436 45.4934 5.54554 46.1956 7.04746C46.948 8.63191 48.3524 8.76395 49.7736 7.98823C52.5657 6.43679 53.3014 7.65814 53.2847 10.2989C53.2679 11.1901 53.6525 12.0979 53.9033 13.1872Z" fill="#E7E7E7"/>
<path d="M68.1148 24.2783C68.1649 26.6385 63.3498 30.1704 61.2431 29.1637C59.822 28.487 58.5011 28.1074 56.9964 27.8928C55.4916 27.6782 54.9901 26.3084 54.8229 25.0375C54.6557 23.7336 55.6421 23.1395 56.8292 23.156C58.6182 23.189 59.0362 22.2152 58.9191 20.7133C58.869 20.1356 58.869 19.5415 58.9191 18.9638C59.0362 17.9075 58.4343 16.3561 60.2232 16.2405C62.0791 16.125 61.6444 17.6764 61.7447 18.7657C61.8116 19.4589 61.6945 20.1851 61.8617 20.8453C62.3132 22.7269 62.7144 24.7239 65.4731 23.0569C67.0615 22.1327 67.8974 22.8094 68.1148 24.2783Z" fill="#E7E7E7"/>
<path d="M49.155 63.0807C46.7641 62.8662 43.9385 63.9225 43.972 59.9944C43.9887 57.4856 45.2259 55.8187 47.4329 56.3138C49.807 56.8585 53.6525 55.9342 53.92 60.0934C54.1875 64.104 50.9941 62.7176 49.155 63.0807Z" fill="#E7E7E7"/>
<path d="M31.2318 52.1546C31.2318 49.0023 32.3688 48.21 34.8767 49.6294C36.2309 50.3886 37.5852 50.9168 39.0899 51.3294C40.5445 51.7255 41.4975 52.9139 41.0294 54.5643C40.5613 56.2148 39.1401 56.0827 37.8193 55.9342C36.6656 55.7857 35.4953 55.34 34.3584 55.3896C31.7501 55.4886 31.0145 54.1682 31.2318 52.1546Z" fill="#E6E6E6"/>
<path d="M51.5291 54.6469C49.0881 54.6964 47.6837 53.8216 47.6168 51.4945C47.5499 48.8537 49.4727 49.0353 51.2616 49.0353C51.4957 49.0353 51.7298 49.0023 51.9639 49.0353C53.6191 49.3489 55.9932 48.045 56.6453 50.7023C56.9964 52.1382 53.3516 54.6964 51.5291 54.6469Z" fill="#E7E7E7"/>
<path d="M12.4057 49.0353C10.4663 48.8867 8.40981 48.3586 8.47669 45.0742C8.52684 43.0936 9.27922 41.8888 11.1518 41.6082C12.8906 41.3441 15.3316 44.612 15.5323 47.1042C15.6995 49.1178 14.3786 49.0353 12.4057 49.0353Z" fill="#E6E6E6"/>
<path d="M60.9088 60.8691C58.5848 61.0177 57.5816 60.8526 57.498 59.1691C57.3643 56.1653 58.9693 53.343 60.9589 53.2275C63.0656 53.1119 64.0353 54.0692 63.8681 56.1323C63.6842 58.6575 62.7981 60.6215 60.9088 60.8691Z" fill="#E7E7E7"/>
<path d="M26.216 6.33778C28.2558 6.22224 30.329 6.53583 30.3959 8.97852C30.4795 11.7843 27.5536 12.1474 25.8482 12.329C24.1094 12.5105 22.2201 10.629 22.2201 8.71444C22.2368 6.51933 24.31 6.20574 26.216 6.33778Z" fill="#E7E7E7"/>
<path d="M38.0533 19.6075C36.6656 19.4259 34.5088 19.3929 34.2747 17.2308C34.1075 15.7124 35.5621 14.1445 37.1505 14.359C38.9896 14.6066 40.7953 15.8444 40.9792 17.924C41.1297 19.4094 39.6751 19.6075 38.0533 19.6075Z" fill="#E7E7E7"/>
<path d="M19.8292 48.3586C21.3841 48.4741 22.9223 49.4644 23.0393 51.1479C23.1229 52.2867 22.2033 53.9867 20.4478 53.8546C18.3244 53.7061 17.4885 51.9896 17.2042 50.2566C16.9702 48.7382 18.2576 48.3916 19.8292 48.3586Z" fill="#E7E7E7"/>
<path d="M29.8776 59.5652C31.4994 59.4992 32.7366 60.0109 32.5694 61.8594C32.4524 63.1302 31.9675 64.6487 30.329 64.3186C28.8075 64.0215 26.3665 64.236 26.4836 61.7769C26.5839 60.0604 28.1889 59.4827 29.8776 59.5652Z" fill="#E7E7E7"/>
<path d="M31.2485 6.22227C31.2318 4.80288 31.5829 3.54852 33.3217 3.59804C35.0271 3.63105 35.3782 5.01744 35.4116 6.3048C35.4618 7.75721 34.5589 8.86302 33.1211 8.94554C31.2986 9.04457 31.2819 7.54264 31.2485 6.22227Z" fill="#E9E9E8"/>
<path d="M10.2657 27.9423C8.96162 27.7113 8.44332 26.8695 8.57708 25.7142C8.74427 24.3278 9.5468 23.2715 11.0181 23.288C12.1216 23.288 12.5897 24.3938 12.4727 25.2851C12.3389 26.5229 11.8206 27.7443 10.2657 27.9423Z" fill="#E9E9E8"/>
<path d="M10.8676 25.5162L3.62808 22.5618C5.35018 18.5347 7.79121 14.8872 10.8676 11.7348V25.5162ZM22.4875 3.73004L22.8554 3.5815L25.8481 10.728H11.8707C14.9805 7.79018 18.5418 5.43002 22.4875 3.73004ZM23.7415 3.2184C27.7542 1.66697 31.9507 0.841734 36.2643 0.759211L26.3832 10.5134L23.3904 3.36694L23.7415 3.2184ZM50.5594 3.36694L47.5666 10.5134L43.8215 6.81641L37.7022 0.759211C42.1328 0.841734 46.4631 1.71648 50.5594 3.36694ZM48.1017 10.7445L51.1111 3.59801C55.1907 5.29799 58.8689 7.70766 62.0791 10.7445H48.1017ZM63.3163 26.0608L70.5558 23.1065C72.211 27.1501 73.0971 31.4248 73.1807 35.8151L63.3163 26.0608ZM70.5558 49.9265L63.3163 46.9557L73.1974 37.2014C73.0971 41.6082 72.211 45.8829 70.5558 49.9265ZM63.0822 47.5003L70.3217 50.4547C68.5829 54.4818 66.1586 58.1293 63.0822 61.2817V47.5003ZM51.479 69.2865L51.1111 69.435L48.1184 62.2885H62.0791C58.9692 65.2263 55.408 67.5865 51.479 69.2865ZM50.2083 69.7981C46.1956 71.3495 41.9991 72.1748 37.6855 72.2573L43.8048 66.2001L47.5499 62.503L50.5427 69.6496L50.2083 69.7981ZM23.3904 69.6496L26.3832 62.503L30.1283 66.2001L36.2643 72.2573C31.817 72.1748 27.5034 71.3 23.3904 69.6496ZM25.8481 62.2885L22.8387 69.435C18.7591 67.735 15.0809 65.3253 11.8707 62.2885H25.8481ZM6.88836 43.2586L10.6335 46.9557L3.39401 49.9265C1.73879 45.8829 0.852664 41.6082 0.769067 37.2179L6.88836 43.2586ZM22.5043 19.2939L21.6349 21.3735L11.4528 25.5327V11.3057H25.8481L22.5043 19.2939ZM47.1486 10.9261L36.9665 15.0852L33.4889 13.6658L26.7844 10.9261L36.9665 0.874743L41.0461 4.90187L47.1486 10.9261ZM62.497 25.5162L52.3149 21.357L48.1017 11.3057H62.497V25.5162ZM63.0822 25.5162V11.7348C66.1753 14.9037 68.5996 18.5347 70.3217 22.5618L63.0822 25.5162ZM58.685 36.5083L62.8983 26.4569L73.0804 36.5083L62.8983 46.5596L58.685 36.5083ZM11.4528 47.5003L18.943 50.5537L21.6349 51.6595L25.8481 61.7108H11.4528V47.5003ZM10.8676 47.5003V61.2817C7.77449 58.1128 5.35018 54.4818 3.62808 50.4547L10.8676 47.5003ZM37.7356 57.6177L51.5458 51.9731L47.4997 61.6118L47.1152 61.4468L37.7356 57.6177ZM22.3872 21.0434L26.4333 11.4047L36.1974 15.3988L22.3872 21.0434ZM55.5083 28.9326L52.6493 22.1162L62.4134 26.1103L58.3673 35.749L55.5083 28.9326ZM29.3091 54.7954L36.2142 57.6177L26.45 61.6118L22.404 51.9731L29.3091 54.7954ZM58.3673 37.2675L62.4134 46.9062L52.6493 50.9003L58.3673 37.2675ZM44.6575 18.2211L37.7523 15.3988L47.5165 11.4047L51.5626 21.0434L44.6575 18.2211ZM15.9001 36.5083L18.9932 29.1472L22.0863 21.7861L36.9833 15.6959L44.4401 18.7493L51.8802 21.8026L58.0497 36.5083L51.8802 51.2139L36.9833 57.3041L29.5264 54.2507L22.0696 51.1974L20.2137 46.7741L15.9001 36.5083ZM18.4582 28.9326L15.5992 35.749L11.5364 26.1103L21.3005 22.1162L18.4582 28.9326ZM11.5531 46.9062L14.2115 40.5519L15.5824 37.2675L18.4415 44.0839L21.3005 50.9003L18.826 49.8935L11.5531 46.9062ZM0.886103 36.5083L4.96563 32.4811L11.0682 26.4569L15.2815 36.5083L14.1947 39.0995L11.0682 46.5596L4.96563 40.5354L0.886103 36.5083ZM36.9833 72.1418L32.9037 68.1146L26.8012 62.0904L36.9833 57.9313L43.0357 60.407L47.1654 62.0904L41.0628 68.1146L36.9833 72.1418ZM48.1017 61.7108L50.4256 56.1818L52.3149 51.6595L62.497 47.5003V61.7108H48.1017ZM3.39401 23.09L4.96563 23.7337L10.6335 26.0608L6.88836 29.7579L0.769067 35.7985C0.852664 31.4083 1.73879 27.1336 3.39401 23.09ZM2.95931 50.4217C10.5332 68.4612 32.0009 77.4728 50.4256 70.3262L51.061 70.0622L51.6963 69.7981C64.9548 64.071 73.7492 50.8178 73.7659 36.5248C73.7993 36.4917 73.7993 36.4422 73.7659 36.3927C73.7325 25.021 68.1816 14.1445 58.9525 7.34456C48.8707 -0.0990312 35.2444 -1.86503 23.5242 2.65724L22.8888 2.92132L22.2535 3.18539C4.1631 11.0086 -4.64801 32.3656 2.95931 50.4217Z" fill="#B5936C"/>
<path d="M37.2508 73C32.2851 73 27.3027 71.9932 22.5377 70.0127C13.4758 66.2001 6.45365 59.2847 2.77539 50.5042C-0.919596 41.7402 -0.919596 31.9365 2.77539 22.9085C6.47037 13.8969 13.3588 6.83294 22.1699 3.03687L23.4406 2.50873C35.2779 -2.06306 48.9376 -0.264054 59.0863 7.21255C68.3823 14.062 73.9498 24.9715 73.9833 36.3927C74.0167 36.4753 74 36.5413 73.9833 36.6073C73.9498 50.8838 65.0384 64.3021 51.7799 70.0127L50.5092 70.5408C46.2458 72.1748 41.7483 73 37.2508 73ZM36.9164 0.412637C32.4021 0.412637 27.8879 1.22136 23.6077 2.87183L22.3371 3.38347C13.6263 7.14653 6.82148 14.128 3.15993 23.0405C-0.501611 31.9695 -0.501611 41.6577 3.15993 50.3227C6.80476 59.0041 13.7433 65.8535 22.7049 69.6166C31.6665 73.3796 41.4975 73.5612 50.3588 70.1282L51.6294 69.6166C64.7374 63.972 73.5486 50.6858 73.5653 36.5413C73.5653 36.5083 73.5653 36.4918 73.582 36.4753C73.582 36.4588 73.5653 36.4423 73.5653 36.4258C73.5318 25.1201 68.0312 14.326 58.8355 7.54264C52.4821 2.83882 44.7243 0.412637 36.9164 0.412637ZM36.2643 72.4554C31.8002 72.3728 27.4365 71.4981 23.3068 69.8476C23.2566 69.8311 23.2065 69.7816 23.1898 69.7321C23.173 69.6826 23.173 69.6166 23.1898 69.5671L26.1825 62.4206C26.216 62.3545 26.2661 62.305 26.333 62.305C26.3999 62.2885 26.4668 62.305 26.5169 62.3545L36.3981 72.1088C36.465 72.1748 36.4817 72.2573 36.4482 72.3398C36.4315 72.4059 36.3479 72.4554 36.2643 72.4554ZM23.6579 69.5506C27.5201 71.069 31.5829 71.9107 35.746 72.0428L26.4668 62.8827L23.6579 69.5506ZM37.6855 72.4554C37.6019 72.4554 37.5183 72.4059 37.4848 72.3233C37.4514 72.2408 37.4681 72.1583 37.535 72.0923L47.4161 62.338C47.4663 62.2885 47.5332 62.272 47.6001 62.2885C47.6669 62.305 47.7338 62.3545 47.7505 62.404L50.7433 69.5506C50.76 69.6001 50.76 69.6661 50.7433 69.7156C50.7266 69.7651 50.6764 69.8146 50.6263 69.8311L50.2752 69.9797C46.2625 71.5476 42.0325 72.3728 37.6855 72.4554C37.7022 72.4554 37.6855 72.4554 37.6855 72.4554ZM47.4997 62.8662L38.2205 72.0263C42.3167 71.8942 46.3294 71.069 50.1414 69.6001L50.3086 69.534L47.4997 62.8662ZM36.9833 72.3563C36.9331 72.3563 36.8662 72.3398 36.8328 72.2903L26.6507 62.239C26.6005 62.1895 26.5838 62.1235 26.6005 62.0574C26.6172 61.9914 26.6674 61.9254 26.7343 61.9089L36.9164 57.7497C36.9665 57.7332 37.0167 57.7332 37.0836 57.7497L47.2657 61.9089C47.3326 61.9419 47.3827 61.9914 47.3994 62.0574C47.4161 62.1235 47.3994 62.1895 47.3493 62.239L37.117 72.2903C37.0836 72.3233 37.0334 72.3563 36.9833 72.3563ZM27.169 62.173L36.9833 71.8612L46.7975 62.173L36.9833 58.1624L27.169 62.173ZM22.8387 69.6331C22.8052 69.6331 22.7885 69.6331 22.7551 69.6166C18.6588 67.9166 14.9471 65.4904 11.7203 62.4206C11.6534 62.3545 11.6367 62.272 11.6701 62.1895C11.7035 62.107 11.7871 62.0574 11.8707 62.0574H25.8314C25.8983 62.0574 25.9652 62.0905 25.9986 62.1565C26.0321 62.206 26.0488 62.2885 26.0153 62.3545L23.0058 69.501C22.9891 69.5506 22.939 69.6001 22.8888 69.6166C22.9055 69.6331 22.8721 69.6331 22.8387 69.6331ZM12.4058 62.4866C15.4487 65.3089 18.9263 67.5535 22.7383 69.1544L25.5472 62.4866H12.4058ZM51.1111 69.6331C51.0275 69.6331 50.9439 69.5836 50.9105 69.501L47.9177 62.3545C47.8843 62.2885 47.901 62.2225 47.9345 62.1565C47.9679 62.107 48.0348 62.0574 48.1016 62.0574H62.0623C62.1459 62.0574 62.2295 62.107 62.263 62.1895C62.2964 62.272 62.2797 62.3545 62.2128 62.4206C59.0863 65.3749 55.5083 67.7516 51.5458 69.4515L51.178 69.6001C51.1613 69.6331 51.1279 69.6331 51.1111 69.6331ZM48.4193 62.4866L51.2114 69.1544L51.3786 69.0884C55.1238 67.471 58.5513 65.2594 61.544 62.4866H48.4193ZM62.497 61.9089H48.1016C48.0348 61.9089 47.9679 61.8759 47.9345 61.8099C47.901 61.7604 47.8843 61.6778 47.9177 61.6118L52.131 51.5605C52.1477 51.511 52.1979 51.4615 52.2481 51.445L62.4302 47.2858C62.497 47.2528 62.5639 47.2693 62.6308 47.3023C62.6977 47.3353 62.7311 47.4013 62.7311 47.4674V61.6778C62.7144 61.8264 62.6141 61.9089 62.497 61.9089ZM48.4193 61.4963H62.2964V47.7974L52.4821 51.8081L48.4193 61.4963ZM25.8481 61.9089H11.4528C11.3357 61.9089 11.2521 61.8099 11.2521 61.7109V47.5004C11.2521 47.4343 11.2856 47.3683 11.3524 47.3353C11.4026 47.3023 11.4862 47.2858 11.5531 47.3188L21.7352 51.478C21.7853 51.4945 21.8188 51.544 21.8522 51.5935L26.0655 61.6448C26.0989 61.7108 26.0822 61.7769 26.0488 61.8429C25.9819 61.8759 25.915 61.9089 25.8481 61.9089ZM11.6701 61.4963H25.5472L21.4844 51.8081L11.6701 47.7974V61.4963ZM26.45 61.8264C26.3664 61.8264 26.2828 61.7769 26.2494 61.6944L22.2033 52.0556C22.1699 51.9731 22.1866 51.8906 22.2535 51.8246C22.3204 51.7586 22.4039 51.7421 22.4875 51.7751L36.3145 57.4197C36.3981 57.4527 36.4482 57.5187 36.4482 57.6177C36.4482 57.7167 36.3981 57.7827 36.3145 57.8158L26.5504 61.8099C26.5002 61.8099 26.4668 61.8264 26.45 61.8264ZM22.7885 52.3527L26.5671 61.3477L35.6791 57.6177L22.7885 52.3527ZM47.5165 61.8264C47.483 61.8264 47.4663 61.8264 47.4329 61.8099L37.6687 57.8158C37.5852 57.7827 37.535 57.7167 37.535 57.6177C37.535 57.5187 37.5852 57.4527 37.6687 57.4197L51.479 51.7751C51.5458 51.7421 51.6462 51.7586 51.713 51.8246C51.7799 51.8906 51.7966 51.9731 51.7632 52.0556L47.7171 61.6944C47.7004 61.7439 47.6502 61.7934 47.6001 61.8099C47.5666 61.8099 47.5332 61.8264 47.5165 61.8264ZM38.2874 57.6177L47.3994 61.3312L51.178 52.3362L38.2874 57.6177ZM63.0822 61.4963C63.0488 61.4963 63.0321 61.4963 62.9986 61.4798C62.915 61.4468 62.8649 61.3808 62.8649 61.2817V47.5004C62.8649 47.4343 62.8983 47.3683 62.9652 47.3353C63.0153 47.3023 63.0989 47.2858 63.1658 47.3188L70.4053 50.2731C70.4555 50.2896 70.5056 50.3392 70.5223 50.3887C70.5391 50.4382 70.5391 50.5042 70.5223 50.5537C68.7835 54.6139 66.3258 58.2614 63.2327 61.4468C63.1993 61.4798 63.1324 61.4963 63.0822 61.4963ZM63.2996 47.8139V60.7701C66.1419 57.7662 68.4157 54.3333 70.0542 50.5702L63.2996 47.8139ZM10.8676 61.4963C10.8174 61.4963 10.7505 61.4798 10.7171 61.4303C7.62401 58.2449 5.16626 54.5809 3.42744 50.5372C3.41073 50.4877 3.41073 50.4217 3.42744 50.3722C3.44416 50.3227 3.49432 50.2731 3.54448 50.2566L10.784 47.2858C10.8509 47.2528 10.9177 47.2693 10.9846 47.3023C11.0515 47.3353 11.0849 47.4013 11.0849 47.4674V61.2487C11.0849 61.3312 11.0348 61.4138 10.9512 61.4468C10.9177 61.4963 10.8843 61.4963 10.8676 61.4963ZM3.89559 50.5702C5.53409 54.3333 7.80792 57.7662 10.6502 60.7701V47.8139L3.89559 50.5702ZM36.9833 57.5187C36.9498 57.5187 36.9331 57.5187 36.8997 57.5022L22.0027 51.412C21.9525 51.3955 21.9191 51.3459 21.8856 51.2964L15.7162 36.5908C15.6995 36.5413 15.6995 36.4918 15.7162 36.4258L21.8856 21.7201C21.9024 21.6706 21.9525 21.6211 22.0027 21.6046L36.8997 15.5144C36.9498 15.4979 37 15.4979 37.0668 15.5144L51.9638 21.6046C52.014 21.6211 52.0474 21.6706 52.0809 21.7201L58.2503 36.4258C58.267 36.4753 58.267 36.5248 58.2503 36.5908L52.0809 51.2964C52.0641 51.3459 52.014 51.3955 51.9638 51.412L37.0668 57.5022C37.0334 57.5022 37 57.5187 36.9833 57.5187ZM22.2368 51.0489L36.9833 57.0731L51.713 51.0489L57.8156 36.4918L51.713 21.9512L36.9833 15.927L22.2535 21.9512L16.1509 36.5083L22.2368 51.0489ZM52.6493 51.1149C52.5992 51.1149 52.549 51.0984 52.4988 51.0489C52.432 50.9828 52.4152 50.9003 52.4487 50.8178L58.1667 37.185C58.2336 37.0364 58.4844 37.0364 58.5513 37.185L62.5974 46.8237C62.6475 46.9227 62.5974 47.0547 62.4803 47.0877L52.7162 51.0819C52.6995 51.0984 52.666 51.1149 52.6493 51.1149ZM58.3674 37.8121L53.0339 50.5372L62.1459 46.8072L58.3674 37.8121ZM21.3172 51.1149C21.2838 51.1149 21.267 51.1149 21.2336 51.0984L11.4695 47.1043C11.3692 47.0547 11.319 46.9392 11.3524 46.8402L15.3985 37.2015C15.4654 37.0529 15.7162 37.0529 15.7831 37.2015L21.5011 50.8343C21.5345 50.9168 21.5178 50.9993 21.4509 51.0654C21.4175 51.0819 21.3673 51.1149 21.3172 51.1149ZM11.8206 46.7907L20.9326 50.5207L15.5992 37.8121L11.8206 46.7907ZM3.39401 50.1411C3.36057 50.1411 3.34385 50.1411 3.31041 50.1246C3.26025 50.1081 3.21009 50.0586 3.19337 50.0091C1.52143 45.9489 0.635307 41.6412 0.55171 37.218C0.55171 37.1354 0.601869 37.0529 0.685466 37.0199C0.752343 36.9869 0.852659 37.0034 0.919537 37.0694L10.8007 46.8237C10.8509 46.8732 10.8676 46.9392 10.8676 47.0052C10.8509 47.0712 10.8007 47.1373 10.7338 47.1538L3.49432 50.1246C3.44416 50.1246 3.42744 50.1411 3.39401 50.1411ZM0.986414 37.7296C1.12017 41.8558 1.97286 45.8664 3.51104 49.6625L10.2657 46.8897L6.7546 43.4072L0.986414 37.7296ZM70.5558 50.1411C70.5223 50.1411 70.5056 50.1411 70.4722 50.1246L63.2327 47.1538C63.1658 47.1208 63.1157 47.0712 63.0989 47.0052C63.0822 46.9392 63.0989 46.8732 63.1491 46.8237L73.0303 37.0694C73.0971 37.0034 73.1807 36.9869 73.2643 37.0199C73.3479 37.0529 73.3981 37.1354 73.3981 37.218C73.3145 41.6412 72.4284 45.9324 70.7564 50.0091C70.7397 50.0586 70.6895 50.1081 70.6394 50.1246C70.6059 50.1246 70.5892 50.1411 70.5558 50.1411ZM63.6841 46.8897L70.4388 49.6625C71.9769 45.8499 72.8296 41.8393 72.9634 37.7296L63.6841 46.8897ZM11.0515 46.7577C11.0013 46.7577 10.9512 46.7411 10.901 46.6916L0.718904 36.6403C0.635307 36.5578 0.635307 36.4258 0.718904 36.3432L10.901 26.2919C10.9512 26.2424 11.018 26.2259 11.0849 26.2424C11.1518 26.2589 11.2187 26.3084 11.2354 26.3579L15.4487 36.4092C15.4654 36.4588 15.4654 36.5083 15.4487 36.5743L11.2354 46.6256C11.202 46.6916 11.1518 46.7411 11.0849 46.7411C11.0849 46.7577 11.0682 46.7577 11.0515 46.7577ZM1.17033 36.5083L10.9846 46.1965L15.0474 36.5083L10.9846 26.8201L1.17033 36.5083ZM62.8983 46.7577C62.8816 46.7577 62.8649 46.7577 62.8649 46.7577C62.798 46.7411 62.7311 46.6916 62.7144 46.6421L58.5011 36.5908C58.4844 36.5413 58.4844 36.4918 58.5011 36.4258L62.7144 26.3744C62.7478 26.3084 62.798 26.2589 62.8649 26.2589C62.9317 26.2424 62.9986 26.2589 63.0488 26.3084L73.2309 36.3597C73.2643 36.3927 73.2978 36.4588 73.2978 36.5083C73.2978 36.5578 73.281 36.6073 73.2309 36.6568L63.0488 46.7081C62.9986 46.7411 62.9485 46.7577 62.8983 46.7577ZM58.9024 36.5083L62.9652 46.1965L72.7795 36.5083L62.9652 26.8366L58.9024 36.5083ZM73.1807 36.0131C73.1306 36.0131 73.0804 35.9966 73.0303 35.9471L63.1491 26.1929C63.0989 26.1434 63.0822 26.0773 63.0989 26.0113C63.1157 25.9453 63.1658 25.8793 63.2327 25.8628L70.4722 22.9085C70.5223 22.892 70.5892 22.892 70.6394 22.9085C70.6895 22.925 70.7397 22.9745 70.7564 23.024C72.4284 27.0841 73.3145 31.3918 73.3981 35.8151C73.3981 35.8976 73.3479 35.9801 73.2643 36.0131C73.2476 36.0131 73.2142 36.0131 73.1807 36.0131ZM63.6841 26.1269L72.9634 35.2869C72.8296 31.1608 71.9769 27.1667 70.4388 23.3541L63.6841 26.1269ZM0.769062 36.0131C0.735624 36.0131 0.718904 36.0131 0.685466 35.9966C0.601869 35.9636 0.55171 35.8811 0.55171 35.7986C0.635307 31.3753 1.52143 27.0676 3.19337 23.0075C3.21009 22.958 3.26025 22.9085 3.31041 22.892C3.36057 22.8754 3.41073 22.8754 3.4776 22.892L10.7171 25.8628C10.784 25.8958 10.8341 25.9453 10.8509 26.0113C10.8676 26.0773 10.8509 26.1434 10.8007 26.1929L0.919537 35.9471C0.869379 35.9966 0.819221 36.0131 0.769062 36.0131ZM3.51104 23.3706C1.97286 27.1667 1.12017 31.1773 0.986414 35.3034L10.2657 26.1434L3.51104 23.3706ZM15.5824 35.9636C15.4988 35.9636 15.4152 35.9141 15.3818 35.8316L11.3357 26.1929C11.2856 26.0939 11.3357 25.9618 11.4528 25.9288L21.2169 21.9347C21.3005 21.9017 21.3841 21.9182 21.4509 21.9842C21.5178 22.0502 21.5345 22.1327 21.5011 22.2153L15.7831 35.8481C15.7496 35.9141 15.666 35.9636 15.5824 35.9636ZM11.8206 26.2259L15.5992 35.2209L18.2743 28.8666L20.9494 22.5123L11.8206 26.2259ZM58.3674 35.9636C58.2838 35.9636 58.2002 35.9141 58.1667 35.8316L52.4487 22.1988C52.4152 22.1162 52.432 22.0337 52.4988 21.9677C52.5657 21.9017 52.6493 21.8852 52.7329 21.9182L62.497 25.9123C62.5472 25.9288 62.5806 25.9783 62.6141 26.0278C62.6475 26.0773 62.6308 26.1269 62.6141 26.1929L58.568 35.8316C58.5178 35.9141 58.4509 35.9636 58.3674 35.9636ZM53.0339 22.4958L55.709 28.8501L58.3674 35.2044L62.1459 26.2094L53.0339 22.4958ZM11.4528 25.7307C11.4193 25.7307 11.3692 25.7142 11.3357 25.6977C11.2688 25.6647 11.2354 25.5987 11.2354 25.5327V11.3057C11.2354 11.1902 11.3357 11.1076 11.436 11.1076H25.8314C25.8983 11.1076 25.9652 11.1406 25.9986 11.2067C26.0321 11.2562 26.0488 11.3387 26.0153 11.4047L22.6715 19.3765L21.8021 21.4395C21.7853 21.4891 21.7352 21.5386 21.685 21.5551L11.5363 25.7142C11.5029 25.7307 11.4862 25.7307 11.4528 25.7307ZM11.6701 11.5203V25.2191L21.4844 21.2085L25.5472 11.5203H11.6701ZM10.8676 25.7307C10.8341 25.7307 10.8174 25.7307 10.784 25.7142L3.54448 22.7599C3.49432 22.7434 3.44416 22.6939 3.42744 22.6444C3.41073 22.5949 3.41073 22.5288 3.42744 22.4793C5.16626 18.4192 7.62401 14.7552 10.7171 11.5863C10.784 11.5203 10.8676 11.5038 10.9512 11.5368C11.0348 11.5698 11.0849 11.6358 11.0849 11.7348V25.5162C11.0849 25.5822 11.0515 25.6482 10.9846 25.6812C10.9512 25.7142 10.9177 25.7307 10.8676 25.7307ZM3.89559 22.4463L10.6502 25.2026V12.2465C7.82464 15.2503 5.55081 18.6833 3.89559 22.4463ZM62.497 25.7307C62.4636 25.7307 62.4469 25.7307 62.4134 25.7142L52.2313 21.5551C52.1812 21.5386 52.1477 21.4891 52.1143 21.4395L47.9177 11.3882C47.8843 11.3222 47.901 11.2562 47.9345 11.1902C47.9679 11.1407 48.0348 11.0911 48.1016 11.0911H62.497C62.6141 11.0911 62.6977 11.1902 62.6977 11.2892V25.4997C62.6977 25.5657 62.6642 25.6317 62.5974 25.6647C62.5806 25.7142 62.5472 25.7307 62.497 25.7307ZM52.4821 21.2085L62.2964 25.2191V11.5203H48.4193L52.4821 21.2085ZM63.0822 25.7307C63.0488 25.7307 62.9986 25.7142 62.9652 25.6977C62.8983 25.6647 62.8649 25.5987 62.8649 25.5327V11.7348C62.8649 11.6523 62.915 11.5698 62.9986 11.5368C63.0822 11.5038 63.1658 11.5203 63.2327 11.5863C66.3425 14.7717 68.7835 18.4357 70.5223 22.4793C70.5391 22.5288 70.5391 22.5949 70.5223 22.6444C70.5056 22.6939 70.4555 22.7434 70.4053 22.7599L63.1658 25.7142C63.1491 25.7142 63.1157 25.7307 63.0822 25.7307ZM63.2996 12.2465V25.2026L70.0542 22.4463C68.4157 18.6833 66.1419 15.2668 63.2996 12.2465ZM51.5626 21.258C51.5291 21.258 51.5124 21.258 51.479 21.2415L37.652 15.5969C37.5684 15.5639 37.5183 15.4979 37.5183 15.3988C37.5183 15.2998 37.5684 15.2338 37.652 15.2008L47.4161 11.2067C47.5165 11.1572 47.6502 11.2067 47.6837 11.3222L51.7298 20.9609C51.7632 21.0434 51.7465 21.126 51.6796 21.192C51.6629 21.2415 51.6127 21.258 51.5626 21.258ZM38.2874 15.3988L51.178 20.6638L47.3994 11.6688L38.2874 15.3988ZM22.3872 21.258C22.3371 21.258 22.2869 21.2415 22.2368 21.192C22.1699 21.126 22.1532 21.0434 22.1866 20.9609L26.2327 11.3222C26.2828 11.2232 26.3999 11.1572 26.5002 11.2067L36.2643 15.2008C36.3479 15.2338 36.3981 15.2998 36.3981 15.3988C36.3981 15.4979 36.3479 15.5639 36.2643 15.5969L22.4541 21.2415C22.4541 21.2415 22.4207 21.258 22.3872 21.258ZM26.5504 11.6688L22.7718 20.6638L35.6624 15.3988L26.5504 11.6688ZM36.9665 15.2833C36.9331 15.2833 36.9164 15.2833 36.8829 15.2668L26.7176 11.1076C26.6507 11.0746 26.6005 11.0251 26.5838 10.9591C26.5671 10.8931 26.5838 10.8271 26.634 10.7775L36.8161 0.726225C36.8997 0.643702 37.0334 0.643702 37.117 0.726225L47.2991 10.7775C47.3493 10.8271 47.366 10.8931 47.3493 10.9591C47.3326 11.0251 47.2824 11.0911 47.2155 11.1076L37.0334 15.2668C37.0334 15.2833 37 15.2833 36.9665 15.2833ZM27.169 10.8601L36.9665 14.8542L46.7808 10.8436L36.9665 1.15535L27.169 10.8601ZM62.0791 10.9426H48.1184C48.0515 10.9426 47.9846 10.9096 47.9512 10.8436C47.9177 10.7941 47.901 10.7115 47.9345 10.6455L50.9439 3.499C50.9607 3.44949 51.0108 3.39998 51.061 3.38347C51.1111 3.36697 51.178 3.36697 51.2282 3.38347C55.3244 5.09995 59.0361 7.50963 62.263 10.5795C62.3298 10.6455 62.3466 10.728 62.3131 10.8106C62.2463 10.8931 62.1627 10.9426 62.0791 10.9426ZM48.4193 10.53H61.544C58.5011 7.72419 55.0235 5.47956 51.2114 3.86211L48.4193 10.53ZM25.8481 10.9426H11.8707C11.7871 10.9426 11.7035 10.8931 11.6701 10.8106C11.6534 10.728 11.6701 10.6455 11.737 10.596C14.8468 7.64167 18.4415 5.265 22.4039 3.54852L22.7718 3.39998C22.8219 3.38347 22.8721 3.38347 22.939 3.39998C22.9891 3.41648 23.0226 3.46599 23.056 3.51551L26.0488 10.662C26.0822 10.728 26.0655 10.7941 26.0321 10.8601C25.9819 10.9096 25.915 10.9426 25.8481 10.9426ZM12.4058 10.53H25.5305L22.7383 3.86211L22.5711 3.92812C18.8093 5.54558 15.3985 7.7737 12.4058 10.53ZM47.5666 10.728C47.5165 10.728 47.4663 10.7115 47.4161 10.662L37.535 0.907776C37.4681 0.841757 37.4514 0.759234 37.4848 0.676711C37.5183 0.594188 37.6019 0.544674 37.6855 0.544674C42.1495 0.627197 46.4966 1.50194 50.643 3.15241C50.6931 3.16891 50.7433 3.21842 50.76 3.26794C50.7767 3.31745 50.7767 3.38347 50.76 3.43298L47.7673 10.5795C47.7338 10.6455 47.6837 10.695 47.6168 10.695C47.6001 10.728 47.5833 10.728 47.5666 10.728ZM38.2038 0.990299L47.483 10.1504L50.2752 3.4825C46.4297 1.96407 42.3669 1.12234 38.2038 0.990299ZM26.3832 10.7115C26.3664 10.7115 26.3497 10.7115 26.3497 10.7115C26.2828 10.695 26.216 10.6455 26.1992 10.596L23.2065 3.44949C23.1563 3.35046 23.2065 3.21842 23.3235 3.18542L23.6746 3.03687C27.704 1.48544 31.934 0.643702 36.2643 0.561179C36.3479 0.561179 36.4315 0.610692 36.465 0.693216C36.4984 0.775739 36.4817 0.858262 36.4148 0.92428L26.5336 10.6785C26.5002 10.695 26.45 10.7115 26.3832 10.7115ZM23.6579 3.4825L26.45 10.1504L35.7293 0.990299C31.6331 1.12234 27.6204 1.94757 23.8084 3.41648L23.6579 3.4825Z" fill="#B5936C"/>
</g>
<defs>
<clipPath id="clip0_14_397">
<rect width="74" height="73" fill="white"/>
</clipPath>
</defs>
</svg>
