<svg width="73" height="73" viewBox="0 0 73 73" fill="none" xmlns="http://www.w3.org/2000/svg">
<g clip-path="url(#clip0_14_330)">
<path d="M36 72C55.8823 72 72 56.1061 72 36.5C72 16.8939 55.8823 1 36 1C16.1177 1 0 16.8939 0 36.5C0 56.1061 16.1177 72 36 72Z" fill="white"/>
<path d="M10.7166 25.501L3.57494 22.5467C5.27377 18.5196 7.68181 14.872 10.7166 11.7197V25.501ZM22.1796 3.71491L22.5424 3.56637L25.4947 10.7129H11.7062C14.774 7.77505 18.2871 5.41489 22.1796 3.71491ZM23.4166 3.20326C27.375 1.65183 31.5148 0.826597 35.7702 0.744074L26.0225 10.4983L23.0702 3.35181L23.4166 3.20326ZM49.872 3.35181L46.9197 10.4983L43.2252 6.80127L37.1886 0.744074C41.5593 0.826597 45.8312 1.70134 49.872 3.35181ZM47.4475 10.7294L50.4163 3.58287C54.4242 5.26634 58.0693 7.67602 61.236 10.7294H47.4475ZM62.4565 26.0457L69.5982 23.0914C71.2311 27.135 72.1052 31.4097 72.1877 35.7999L62.4565 26.0457ZM69.5982 49.9114L62.4565 46.9405L72.2042 37.1863C72.1052 41.593 71.2311 45.8677 69.5982 49.9114ZM62.2256 47.4852L69.3673 50.4395C67.652 54.4667 65.2604 58.1142 62.2256 61.2666V47.4852ZM50.7792 69.2713L50.4163 69.4199L47.464 62.2734H61.236C58.1683 65.2112 54.6552 67.5713 50.7792 69.2713ZM49.5257 69.783C45.5673 71.3344 41.4274 72.1596 37.1721 72.2421L43.2087 66.185L46.9032 62.4879L49.8556 69.6344L49.5257 69.783ZM23.0702 69.6344L26.0225 62.4879L29.7171 66.185L35.7702 72.2421C31.3829 72.1596 27.1276 71.2849 23.0702 69.6344ZM25.4947 62.2734L22.5259 69.4199C18.5015 67.7199 14.873 65.3102 11.7062 62.2734H25.4947ZM6.79116 43.2435L10.4857 46.9405L3.34403 49.9114C1.71118 45.8677 0.837028 41.593 0.754561 37.2028L6.79116 43.2435ZM22.196 19.2788L21.3384 21.3584L11.2939 25.5175V11.2905H25.4947L22.196 19.2788ZM46.5074 10.9109L36.4629 15.0701L33.0322 13.6507L26.4184 10.9109L36.4629 0.859606L40.4873 4.88674L46.5074 10.9109ZM61.6484 25.501L51.6039 21.3419L47.4475 11.2905H61.6484V25.501ZM62.2256 25.501V11.7197C65.2769 14.8885 67.6685 18.5196 69.3673 22.5467L62.2256 25.501ZM57.8879 36.4931L62.0442 26.4418L72.0887 36.4931L62.0442 46.5444L57.8879 36.4931ZM11.2939 47.4852L18.6829 50.5386L21.3384 51.6444L25.4947 61.6957H11.2939V47.4852ZM10.7166 47.4852V61.2666C7.66531 58.0977 5.27377 54.4667 3.57494 50.4395L10.7166 47.4852ZM37.2216 57.6025L50.8452 51.958L46.8537 61.5967L46.4744 61.4316L37.2216 57.6025ZM22.0806 21.0283L26.072 11.3896L35.7042 15.3837L22.0806 21.0283ZM54.7541 28.9175L51.9337 22.1011L61.5659 26.0952L57.5745 35.7339L54.7541 28.9175ZM28.9089 54.7803L35.7207 57.6025L26.0885 61.5967L22.0971 51.958L28.9089 54.7803ZM57.5745 37.2523L61.5659 46.891L51.9337 50.8852L57.5745 37.2523ZM44.0499 18.206L37.2381 15.3837L46.8702 11.3896L50.8617 21.0283L44.0499 18.206ZM15.6811 36.4931L18.7324 29.132L21.7837 21.771L36.4794 15.6808L43.8354 18.7341L51.175 21.7875L57.2611 36.4931L51.175 51.1987L36.4794 57.289L29.1233 54.2356L21.7672 51.1822L19.9364 46.759L15.6811 36.4931ZM18.2046 28.9175L15.3842 35.7339L11.3763 26.0952L21.0085 22.1011L18.2046 28.9175ZM11.3928 46.891L14.0153 40.5367L15.3678 37.2523L18.1881 44.0687L21.0085 50.8852L18.5675 49.8784L11.3928 46.891ZM0.870015 36.4931L4.89442 32.466L10.9145 26.4418L15.0709 36.4931L13.9988 39.0843L10.9145 46.5444L4.89442 40.5202L0.870015 36.4931ZM36.4794 72.1266L32.455 68.0995L26.4349 62.0753L36.4794 57.9161L42.45 60.3918L46.5239 62.0753L40.5038 68.0995L36.4794 72.1266ZM47.4475 61.6957L49.7401 56.1666L51.6039 51.6444L61.6484 47.4852V61.6957H47.4475ZM3.34403 23.0748L4.89442 23.7185L10.4857 26.0457L6.79116 29.7427L0.754561 35.7834C0.837028 31.3932 1.71118 27.1185 3.34403 23.0748ZM2.9152 50.4065C10.3867 68.4461 31.5643 77.4576 49.7401 70.3111L50.3669 70.047L50.9936 69.783C64.0729 64.0559 72.7485 50.8026 72.765 36.5096C72.7979 36.4766 72.7979 36.4271 72.765 36.3776C72.732 25.0059 67.2561 14.1293 58.1518 7.32942C48.2062 -0.114168 34.764 -1.88016 23.2021 2.64211L22.5754 2.90618L21.9486 3.17026C4.10273 10.9935 -4.58932 32.3504 2.9152 50.4065Z" fill="#B5936C"/>
<path d="M36.7433 72.9849C31.8447 72.9849 26.9297 71.9781 22.229 69.9975C13.2896 66.185 6.36235 59.2695 2.73379 50.4891C-0.911263 41.7251 -0.911263 31.9214 2.73379 22.8933C6.37884 13.8818 13.1741 6.8178 21.8662 3.02174L23.1197 2.49359C34.7971 -2.0782 48.2722 -0.279191 58.2837 7.19741C67.4541 14.0468 72.9464 24.9564 72.9794 36.3776C73.0124 36.4601 72.9959 36.5261 72.9794 36.5922C72.9464 50.8687 64.1554 64.2869 51.0761 69.9975L49.8226 70.5257C45.6168 72.1597 41.18 72.9849 36.7433 72.9849ZM36.4134 0.3975C31.9602 0.3975 27.507 1.20623 23.2846 2.85669L22.0311 3.36833C13.438 7.13139 6.7252 14.1129 3.11314 23.0254C-0.498927 31.9544 -0.498927 41.6426 3.11314 50.3075C6.70871 58.989 13.5535 65.8384 22.394 69.6014C31.2345 73.3645 40.9326 73.5461 49.6741 70.1131L50.9276 69.6014C63.8585 63.9569 72.5506 50.6706 72.5671 36.5261C72.5671 36.4931 72.5671 36.4766 72.5835 36.4601C72.5835 36.4436 72.5671 36.4271 72.5671 36.4106C72.5341 25.1049 67.1077 14.3109 58.0363 7.5275C51.7688 2.82368 44.1159 0.3975 36.4134 0.3975ZM35.7702 72.4402C31.3664 72.3577 27.0616 71.483 22.9877 69.8325C22.9383 69.816 22.8888 69.7665 22.8723 69.717C22.8558 69.6675 22.8558 69.6014 22.8723 69.5519L25.8246 62.4054C25.8576 62.3394 25.9071 62.2899 25.9731 62.2899C26.039 62.2734 26.105 62.2899 26.1545 62.3394L35.9021 72.0936C35.9681 72.1597 35.9846 72.2422 35.9516 72.3247C35.9351 72.3907 35.8526 72.4402 35.7702 72.4402ZM23.3341 69.5354C27.1441 71.0538 31.152 71.8956 35.2589 72.0276L26.105 62.8675L23.3341 69.5354ZM37.1721 72.4402C37.0896 72.4402 37.0072 72.3907 36.9742 72.3082C36.9412 72.2257 36.9577 72.1432 37.0237 72.0771L46.7713 62.3229C46.8208 62.2734 46.8867 62.2569 46.9527 62.2734C47.0187 62.2899 47.0847 62.3394 47.1012 62.3889L50.0535 69.5354C50.07 69.5849 50.07 69.651 50.0535 69.7005C50.037 69.75 49.9875 69.7995 49.938 69.816L49.5917 69.9645C45.6332 71.5325 41.4604 72.3577 37.1721 72.4402C37.1886 72.4402 37.1721 72.4402 37.1721 72.4402ZM46.8538 62.851L37.6999 72.0111C41.7408 71.8791 45.6992 71.0538 49.4597 69.5849L49.6247 69.5189L46.8538 62.851ZM36.4794 72.3412C36.4299 72.3412 36.3639 72.3247 36.3309 72.2752L26.2864 62.2239C26.237 62.1744 26.2205 62.1083 26.237 62.0423C26.2534 61.9763 26.3029 61.9103 26.3689 61.8938L36.4134 57.7346C36.4629 57.7181 36.5124 57.7181 36.5783 57.7346L46.6229 61.8938C46.6888 61.9268 46.7383 61.9763 46.7548 62.0423C46.7713 62.1083 46.7548 62.1744 46.7053 62.2239L36.6113 72.2752C36.5783 72.3082 36.5289 72.3412 36.4794 72.3412ZM26.7977 62.1578L36.4794 71.8461L46.161 62.1578L36.4794 58.1472L26.7977 62.1578ZM22.5259 69.6179C22.4929 69.6179 22.4764 69.6179 22.4435 69.6014C18.4026 67.9015 14.741 65.4753 11.5578 62.4054C11.4918 62.3394 11.4753 62.2569 11.5083 62.1744C11.5413 62.0918 11.6238 62.0423 11.7062 62.0423H25.4783C25.5442 62.0423 25.6102 62.0753 25.6432 62.1413C25.6762 62.1909 25.6927 62.2734 25.6597 62.3394L22.6909 69.4859C22.6744 69.5354 22.6249 69.5849 22.5754 69.6014C22.5919 69.6179 22.5589 69.6179 22.5259 69.6179ZM12.234 62.4714C15.2358 65.2937 18.6665 67.5384 22.427 69.1393L25.1979 62.4714H12.234ZM50.4164 69.6179C50.3339 69.6179 50.2514 69.5684 50.2184 69.4859L47.2661 62.3394C47.2331 62.2734 47.2496 62.2074 47.2826 62.1413C47.3156 62.0918 47.3816 62.0423 47.4475 62.0423H61.2196C61.302 62.0423 61.3845 62.0918 61.4175 62.1744C61.4505 62.2569 61.434 62.3394 61.368 62.4054C58.2837 65.3597 54.7541 67.7364 50.8452 69.4364L50.4823 69.5849C50.4658 69.6179 50.4328 69.6179 50.4164 69.6179ZM47.7609 62.4714L50.5153 69.1393L50.6802 69.0733C54.3748 67.4558 57.7559 65.2442 60.7083 62.4714H47.7609ZM61.6484 61.8938H47.4475C47.3816 61.8938 47.3156 61.8608 47.2826 61.7947C47.2496 61.7452 47.2331 61.6627 47.2661 61.5967L51.4225 51.5454C51.4389 51.4958 51.4884 51.4463 51.5379 51.4298L61.5824 47.2707C61.6484 47.2377 61.7144 47.2542 61.7803 47.2872C61.8463 47.3202 61.8793 47.3862 61.8793 47.4522V61.6627C61.8628 61.8112 61.7638 61.8938 61.6484 61.8938ZM47.7609 61.4812H61.4505V47.7823L51.7688 51.7929L47.7609 61.4812ZM25.4947 61.8938H11.2939C11.1784 61.8938 11.096 61.7947 11.096 61.6957V47.4852C11.096 47.4192 11.129 47.3532 11.1949 47.3202C11.2444 47.2872 11.3269 47.2707 11.3928 47.3037L21.4374 51.4628C21.4868 51.4793 21.5198 51.5289 21.5528 51.5784L25.7092 61.6297C25.7422 61.6957 25.7257 61.7617 25.6927 61.8278C25.6267 61.8608 25.5607 61.8938 25.4947 61.8938ZM11.4918 61.4812H25.1814L21.1735 51.7929L11.4918 47.7823V61.4812ZM26.0885 61.8112C26.006 61.8112 25.9236 61.7617 25.8906 61.6792L21.8992 52.0405C21.8662 51.958 21.8827 51.8755 21.9487 51.8094C22.0146 51.7434 22.0971 51.7269 22.1796 51.7599L28.9914 54.5822L35.8032 57.4045C35.8856 57.4375 35.9351 57.5035 35.9351 57.6026C35.9351 57.7016 35.8856 57.7676 35.8032 57.8006L26.171 61.7947C26.138 61.7947 26.105 61.8112 26.0885 61.8112ZM22.4764 52.3376L26.204 61.3326L35.1929 57.6026L28.8429 54.9618L22.4764 52.3376ZM46.8703 61.8112C46.8373 61.8112 46.8208 61.8112 46.7878 61.7947L37.1556 57.8006C37.0732 57.7676 37.0237 57.7016 37.0237 57.6026C37.0237 57.5035 37.0732 57.4375 37.1556 57.4045L50.7792 51.7599C50.8452 51.7269 50.9441 51.7434 51.0101 51.8094C51.0761 51.8755 51.0926 51.958 51.0596 52.0405L47.0682 61.6792C47.0517 61.7287 47.0022 61.7782 46.9527 61.7947C46.9197 61.7947 46.8868 61.8112 46.8703 61.8112ZM37.7659 57.6026L46.7548 61.3161L50.4823 52.3211L37.7659 57.6026ZM62.2257 61.4812C62.1927 61.4812 62.1762 61.4812 62.1432 61.4647C62.0607 61.4316 62.0112 61.3656 62.0112 61.2666V47.4852C62.0112 47.4192 62.0442 47.3532 62.1102 47.3202C62.1597 47.2872 62.2422 47.2707 62.3081 47.3037L69.4498 50.258C69.4993 50.2745 69.5488 50.324 69.5652 50.3735C69.5817 50.423 69.5817 50.4891 69.5652 50.5386C67.8499 54.5987 65.4254 58.2462 62.3741 61.4316C62.3411 61.4646 62.2751 61.4812 62.2257 61.4812ZM62.4401 47.7988V60.755C65.244 57.7511 67.4871 54.3181 69.1034 50.5551L62.4401 47.7988ZM10.7166 61.4812C10.6671 61.4812 10.6012 61.4647 10.5682 61.4151C7.51689 58.2297 5.09235 54.5657 3.37703 50.5221C3.36054 50.4726 3.36054 50.4065 3.37703 50.357C3.39353 50.3075 3.44301 50.258 3.49249 50.2415L10.6342 47.2707C10.7001 47.2377 10.7661 47.2542 10.8321 47.2872C10.898 47.3202 10.931 47.3862 10.931 47.4522V61.2336C10.931 61.3161 10.8816 61.3986 10.7991 61.4316C10.7661 61.4812 10.7331 61.4812 10.7166 61.4812ZM3.83885 50.5551C5.45521 54.3181 7.69832 57.7511 10.5022 60.755V47.7988L3.83885 50.5551ZM36.4794 57.5035C36.4464 57.5035 36.4299 57.5035 36.3969 57.487L21.7013 51.3968C21.6518 51.3803 21.6188 51.3308 21.5858 51.2813L15.4997 36.5757C15.4832 36.5261 15.4832 36.4766 15.4997 36.4106L21.5858 21.705C21.6023 21.6555 21.6518 21.606 21.7013 21.5895L36.3969 15.4992C36.4464 15.4827 36.4959 15.4827 36.5619 15.4992L51.2575 21.5895C51.307 21.606 51.34 21.6555 51.373 21.705L57.4591 36.4106C57.4755 36.4601 57.4755 36.5096 57.4591 36.5757L51.373 51.2813C51.3565 51.3308 51.307 51.3803 51.2575 51.3968L36.5619 57.487C36.5289 57.487 36.4959 57.5035 36.4794 57.5035ZM21.9322 51.0337L36.4794 57.0579L51.0101 51.0337L57.0302 36.4766L51.0101 21.9361L36.4794 15.9119L21.9487 21.9361L15.9285 36.4931L21.9322 51.0337ZM51.9337 51.0997C51.8843 51.0997 51.8348 51.0832 51.7853 51.0337C51.7193 50.9677 51.7028 50.8852 51.7358 50.8027L57.3766 37.1698C57.4426 37.0213 57.69 37.0213 57.7559 37.1698L61.7473 46.8085C61.7968 46.9076 61.7474 47.0396 61.6319 47.0726L51.9997 51.0667C51.9832 51.0832 51.9502 51.0997 51.9337 51.0997ZM57.5745 37.797L52.3131 50.5221L61.302 46.792L57.5745 37.797ZM21.025 51.0997C20.992 51.0997 20.9755 51.0997 20.9426 51.0832L11.3104 47.0891C11.2114 47.0396 11.1619 46.9241 11.1949 46.825L15.1863 37.1863C15.2523 37.0378 15.4997 37.0378 15.5657 37.1863L21.2065 50.8192C21.2394 50.9017 21.2229 50.9842 21.157 51.0502C21.124 51.0667 21.0745 51.0997 21.025 51.0997ZM11.6567 46.7755L20.6457 50.5056L15.3843 37.797L11.6567 46.7755ZM69.5982 50.126C69.5652 50.126 69.5488 50.126 69.5158 50.1095L62.3741 47.1386C62.3081 47.1056 62.2587 47.0561 62.2422 46.9901C62.2257 46.9241 62.2422 46.8581 62.2916 46.8085L72.0393 37.0543C72.1052 36.9883 72.1877 36.9718 72.2702 37.0048C72.3526 37.0378 72.4021 37.1203 72.4021 37.2028C72.3197 41.6261 71.4455 45.9173 69.7962 49.9939C69.7797 50.0434 69.7302 50.093 69.6807 50.1095C69.6477 50.1095 69.6147 50.126 69.5982 50.126ZM62.8194 46.8746L69.4828 49.6473C71.0002 45.8513 71.8413 41.8406 71.9733 37.7145L62.8194 46.8746ZM3.34405 50.126C3.31106 50.126 3.29457 50.126 3.26158 50.1095C3.2121 50.093 3.16262 50.0434 3.14613 49.9939C1.49678 45.9338 0.622628 41.6261 0.540161 37.2028C0.540161 37.1203 0.589641 37.0378 0.672108 37.0048C0.738082 36.9718 0.837043 36.9883 0.903016 37.0543L10.6506 46.8085C10.7001 46.8581 10.7166 46.9241 10.7166 46.9901C10.7001 47.0561 10.6506 47.1221 10.5847 47.1386L3.44301 50.1095C3.39353 50.1095 3.37703 50.126 3.34405 50.126ZM0.96899 37.7145C1.10094 41.8406 1.9421 45.8513 3.4595 49.6473L10.1229 46.8746L6.65923 43.3921L0.96899 37.7145ZM10.898 46.7425C10.8486 46.7425 10.7991 46.726 10.7496 46.6765L0.705095 36.6252C0.622628 36.5427 0.622628 36.4106 0.705095 36.3281L10.7496 26.2768C10.7991 26.2273 10.8651 26.2108 10.931 26.2273C10.997 26.2438 11.063 26.2933 11.0795 26.3428L15.2358 36.3941C15.2523 36.4436 15.2523 36.4931 15.2358 36.5592L11.0795 46.6105C11.0465 46.6765 10.997 46.726 10.931 46.726C10.931 46.7425 10.9145 46.7425 10.898 46.7425ZM1.15042 36.4931L10.8321 46.1814L14.84 36.4931L10.8321 26.8049L1.15042 36.4931ZM62.0442 46.7425C62.0277 46.7425 62.0112 46.7425 62.0112 46.7425C61.9453 46.726 61.8793 46.6765 61.8628 46.627L57.7065 36.5757C57.69 36.5261 57.69 36.4766 57.7065 36.4106L61.8628 26.3593C61.8958 26.2933 61.9453 26.2438 62.0112 26.2438C62.0772 26.2273 62.1432 26.2438 62.1927 26.2933L72.2372 36.3446C72.2702 36.3776 72.3032 36.4436 72.3032 36.4931C72.3032 36.5427 72.2867 36.5922 72.2372 36.6417L62.1927 46.693C62.1432 46.726 62.0937 46.7425 62.0442 46.7425ZM58.1023 36.4931L62.1102 46.1814L71.7919 36.4931L62.1102 26.8214L58.1023 36.4931ZM72.1877 35.998C72.1382 35.998 72.0887 35.9815 72.0393 35.932L62.2916 26.1777C62.2422 26.1282 62.2257 26.0622 62.2422 25.9962C62.2587 25.9302 62.3081 25.8642 62.3741 25.8476L69.5158 22.8933C69.5652 22.8768 69.6312 22.8768 69.6807 22.8933C69.7302 22.9098 69.7797 22.9593 69.7962 23.0089C71.4455 27.069 72.3197 31.3767 72.4021 35.7999C72.4021 35.8825 72.3526 35.965 72.2702 35.998C72.2537 35.998 72.2207 35.998 72.1877 35.998ZM62.8194 26.1117L71.9733 35.2718C71.8413 31.1456 71.0002 27.1515 69.4828 23.3389L62.8194 26.1117ZM0.754575 35.998C0.721588 35.998 0.705095 35.998 0.672108 35.9815C0.589641 35.9485 0.540161 35.866 0.540161 35.7834C0.622628 31.3602 1.49678 27.0525 3.14613 22.9923C3.16262 22.9428 3.2121 22.8933 3.26158 22.8768C3.31106 22.8603 3.36054 22.8603 3.42651 22.8768L10.5682 25.8476C10.6342 25.8807 10.6836 25.9302 10.7001 25.9962C10.7166 26.0622 10.7001 26.1282 10.6506 26.1777L0.903016 35.932C0.853536 35.9815 0.804056 35.998 0.754575 35.998ZM3.4595 23.3554C1.9421 27.1515 1.10094 31.1621 0.96899 35.2883L10.1229 26.1282L3.4595 23.3554ZM15.3678 35.9485C15.2853 35.9485 15.2028 35.899 15.1699 35.8164L11.1784 26.1777C11.129 26.0787 11.1784 25.9467 11.2939 25.9137L20.9261 21.9195C20.992 21.8865 21.091 21.903 21.157 21.9691C21.2229 22.0351 21.2394 22.1176 21.2065 22.2001L15.5657 35.833C15.5327 35.899 15.4502 35.9485 15.3678 35.9485ZM11.6567 26.2108L15.3843 35.2058L18.0232 28.8515L20.6622 22.4972L11.6567 26.2108ZM57.5745 35.9485C57.492 35.9485 57.4096 35.899 57.3766 35.8164L51.7358 22.1836C51.7028 22.1011 51.7193 22.0186 51.7853 21.9526C51.8513 21.8865 51.9338 21.87 52.0162 21.903L61.6484 25.8972C61.6979 25.9137 61.7309 25.9632 61.7638 26.0127C61.7968 26.0622 61.7803 26.1117 61.7638 26.1777L57.7724 35.8164C57.7229 35.899 57.657 35.9485 57.5745 35.9485ZM52.3131 22.4807L54.9521 28.835L57.5745 35.1893L61.302 26.1942L52.3131 22.4807ZM11.2939 25.7156C11.2609 25.7156 11.2114 25.6991 11.1784 25.6826C11.1125 25.6496 11.0795 25.5836 11.0795 25.5176V11.2906C11.0795 11.175 11.1784 11.0925 11.2774 11.0925H25.4783C25.5442 11.0925 25.6102 11.1255 25.6432 11.1915C25.6762 11.241 25.6927 11.3236 25.6597 11.3896L22.361 19.3613L21.5033 21.4244C21.4868 21.4739 21.4374 21.5234 21.3879 21.5399L11.3764 25.6991C11.3434 25.7156 11.3269 25.7156 11.2939 25.7156ZM11.4918 11.5051V25.204L21.1735 21.1933L25.1814 11.5051H11.4918ZM10.7166 25.7156C10.6836 25.7156 10.6671 25.7156 10.6342 25.6991L3.49249 22.7448C3.44301 22.7283 3.39353 22.6788 3.37703 22.6292C3.36054 22.5797 3.36054 22.5137 3.37703 22.4642C5.09235 18.4041 7.51689 14.74 10.5682 11.5711C10.6177 11.5051 10.7166 11.4886 10.7991 11.5216C10.8816 11.5546 10.931 11.6207 10.931 11.7197V25.5011C10.931 25.5671 10.898 25.6331 10.8321 25.6661C10.7991 25.6991 10.7661 25.7156 10.7166 25.7156ZM3.83885 22.4312L10.5022 25.1875V12.2313C7.71481 15.2352 5.4717 18.6681 3.83885 22.4312ZM61.6484 25.7156C61.6154 25.7156 61.5989 25.7156 61.5659 25.6991L51.5214 21.5399C51.4719 21.5234 51.4389 21.4739 51.406 21.4244L47.2661 11.3731C47.2331 11.3071 47.2496 11.241 47.2826 11.175C47.3156 11.1255 47.3816 11.076 47.4475 11.076H61.6484C61.7638 11.076 61.8463 11.175 61.8463 11.2741V25.4845C61.8463 25.5506 61.8133 25.6166 61.7473 25.6496C61.7309 25.6991 61.6979 25.7156 61.6484 25.7156ZM51.7688 21.1933L61.4505 25.204V11.5051H47.7609L51.7688 21.1933ZM62.2257 25.7156C62.1927 25.7156 62.1432 25.6991 62.1102 25.6826C62.0442 25.6496 62.0112 25.5836 62.0112 25.5176V11.7197C62.0112 11.6372 62.0607 11.5546 62.1432 11.5216C62.2257 11.4886 62.3081 11.5051 62.3741 11.5711C65.4419 14.7565 67.8499 18.4206 69.5652 22.4642C69.5817 22.5137 69.5817 22.5797 69.5652 22.6292C69.5488 22.6788 69.4993 22.7283 69.4498 22.7448L62.3081 25.6991C62.2916 25.6991 62.2586 25.7156 62.2257 25.7156ZM62.4401 12.2313V25.1875L69.1034 22.4312C67.4871 18.6681 65.244 15.2517 62.4401 12.2313ZM50.8617 21.2429C50.8287 21.2429 50.8122 21.2429 50.7792 21.2264L37.1391 15.5818C37.0567 15.5488 37.0072 15.4827 37.0072 15.3837C37.0072 15.2847 37.0567 15.2187 37.1391 15.1857L46.7713 11.1915C46.8868 11.142 47.0022 11.1915 47.0352 11.3071L51.0266 20.9458C51.0596 21.0283 51.0431 21.1108 50.9771 21.1768C50.9606 21.2264 50.9112 21.2429 50.8617 21.2429ZM37.7659 15.3837L50.4823 20.6487L46.7548 11.6537L37.7659 15.3837ZM22.0806 21.2429C22.0311 21.2429 21.9816 21.2264 21.9322 21.1768C21.8662 21.1108 21.8497 21.0283 21.8827 20.9458L25.8741 11.3071C25.9236 11.208 26.039 11.142 26.138 11.1915L35.7702 15.1857C35.8526 15.2187 35.9021 15.2847 35.9021 15.3837C35.9021 15.4827 35.8526 15.5488 35.7702 15.5818L22.1466 21.2264C22.1466 21.2264 22.1136 21.2429 22.0806 21.2429ZM26.1875 11.6537L22.46 20.6487L35.1764 15.3837L26.1875 11.6537ZM36.4629 15.2682C36.4299 15.2682 36.4134 15.2682 36.3804 15.2517L26.3524 11.0925C26.2864 11.0595 26.237 11.01 26.2205 10.944C26.204 10.8779 26.2205 10.8119 26.2699 10.7624L36.3145 0.711088C36.3969 0.628565 36.5289 0.628565 36.6113 0.711088L46.6558 10.7624C46.7053 10.8119 46.7218 10.8779 46.7053 10.944C46.6888 11.01 46.6394 11.076 46.5734 11.0925L36.5289 15.2517C36.5289 15.2682 36.4959 15.2682 36.4629 15.2682ZM26.7977 10.8449L36.4629 14.8391L46.1445 10.8284L36.4629 1.14021L26.7977 10.8449ZM61.2361 10.9275H47.464C47.398 10.9275 47.3321 10.8944 47.2991 10.8284C47.2661 10.7789 47.2496 10.6964 47.2826 10.6304L50.2514 3.48387C50.2679 3.43435 50.3174 3.38484 50.3669 3.36833C50.4164 3.35183 50.4823 3.35183 50.5318 3.36833C54.5727 5.08482 58.2342 7.49449 61.4175 10.5644C61.4835 10.6304 61.5 10.7129 61.467 10.7954C61.401 10.8779 61.3185 10.9275 61.2361 10.9275ZM47.7609 10.5148H60.7083C57.7065 7.70905 54.2758 5.46442 50.5153 3.84697L47.7609 10.5148ZM25.4947 10.9275H11.7062C11.6238 10.9275 11.5413 10.8779 11.5083 10.7954C11.4918 10.7129 11.5083 10.6304 11.5743 10.5809C14.6421 7.62653 18.1882 5.24986 22.0971 3.53338L22.46 3.38484C22.5094 3.36833 22.5589 3.36833 22.6249 3.38484C22.6744 3.40134 22.7074 3.45086 22.7403 3.50037L25.6927 10.6469C25.7257 10.7129 25.7092 10.7789 25.6762 10.8449C25.6267 10.8944 25.5607 10.9275 25.4947 10.9275ZM12.234 10.5148H25.1814L22.427 3.84697L22.262 3.91299C18.551 5.53044 15.1863 7.75857 12.234 10.5148ZM46.9197 10.7129C46.8703 10.7129 46.8208 10.6964 46.7713 10.6469L37.0237 0.892639C36.9577 0.826621 36.9412 0.744097 36.9742 0.661574C37.0072 0.579051 37.0896 0.529537 37.1721 0.529537C41.5759 0.61206 45.8642 1.48681 49.9545 3.13727C50.004 3.15377 50.0535 3.20329 50.07 3.2528C50.0865 3.30232 50.0865 3.36833 50.07 3.41785L47.1177 10.5644C47.0847 10.6304 47.0352 10.6799 46.9692 10.6799C46.9527 10.7129 46.9362 10.7129 46.9197 10.7129ZM37.6834 0.975162L46.8373 10.1352L49.5917 3.46736C45.7982 1.94894 41.7903 1.1072 37.6834 0.975162ZM26.0225 10.6964C26.006 10.6964 25.9896 10.6964 25.9896 10.6964C25.9236 10.6799 25.8576 10.6304 25.8411 10.5809L22.8888 3.43435C22.8393 3.33533 22.8888 3.20329 23.0042 3.17028L23.3506 3.02174C27.3255 1.4703 31.4984 0.628565 35.7702 0.546042C35.8526 0.546042 35.9351 0.595556 35.9681 0.678079C36.0011 0.760602 35.9846 0.843125 35.9186 0.909144L26.171 10.6634C26.138 10.6799 26.0885 10.6964 26.0225 10.6964ZM23.3341 3.46736L26.0885 10.1352L35.2424 0.975162C31.2015 1.1072 27.2431 1.93243 23.4825 3.40134L23.3341 3.46736Z" fill="#B5936C"/>
</g>
<defs>
<clipPath id="clip0_14_330">
<rect width="73" height="73" fill="white"/>
</clipPath>
</defs>
</svg>
