<svg width="73" height="73" viewBox="0 0 73 73" fill="none" xmlns="http://www.w3.org/2000/svg">
<g clip-path="url(#clip0_14_342)">
<path d="M37 73C56.8823 73 73 56.8823 73 37C73 17.1178 56.8823 1 37 1C17.1177 1 1 17.1178 1 37C1 56.8823 17.1177 73 37 73Z" fill="white"/>
<path d="M23.1238 14.6726C23.1238 12.2299 22.8269 9.49017 26.7028 11.8173C27.1317 12.0649 28.0058 11.5367 28.6821 11.4377C29.7871 11.2727 30.7437 11.8503 30.6613 12.8571C30.4798 14.9697 30.084 17.2473 27.9728 18.3366C24.6577 20.0696 23.1073 18.8318 23.1238 14.6726Z" fill="#E7E7E7"/>
<path d="M61.7349 41.7897C61.1741 43.5227 61.0587 45.6683 58.9475 45.3547C57.0013 45.0576 54.1314 45.2227 54.049 42.1198C53.9995 40.3538 54.7252 38.5878 57.0178 38.6208C59.2774 38.6703 60.8938 39.7761 61.7349 41.7897Z" fill="#E7E7E7"/>
<path d="M66.4686 24.0803C63.5328 25.0045 62.4113 23.6677 62.3783 21.0599C62.3618 19.723 62.0154 18.0561 63.9616 17.7095C65.9903 17.3629 70.1632 20.7628 69.9817 22.5783C69.7014 25.2356 67.8706 24.3774 66.4686 24.0803Z" fill="#E7E7E7"/>
<path d="M62.4442 47.0382C63.4668 45.7178 62.2628 42.3839 65.6769 42.9616C67.3427 43.2421 69.5529 43.4732 69.3055 46.1965C69.157 47.9459 66.0562 50.6527 64.4564 50.3721C63.2524 50.1576 62.2957 48.6722 62.4442 47.0382Z" fill="#E7E7E7"/>
<path d="M52.5646 63.7904C50.9812 63.84 49.8597 63.4438 49.7772 61.7604C49.6783 59.9944 52.4657 57.6837 54.6923 57.6342C56.2427 57.6012 56.6715 58.542 56.7045 59.8623C56.7869 62.8332 54.6758 63.4108 52.5646 63.7904Z" fill="#E6E6E6"/>
<path d="M10.7208 25.5162L3.57909 22.5618C5.27792 18.5347 7.68596 14.8872 10.7208 11.7348V25.5162ZM22.1837 3.74655L22.5466 3.59801L25.4989 10.7445H11.7104C14.7781 7.79019 18.2912 5.43002 22.1837 3.74655ZM23.4207 3.2184C27.3791 1.66697 31.519 0.841734 35.7743 0.759211L26.0267 10.5134L23.0743 3.36694L23.4207 3.2184ZM49.8762 3.36694L46.9239 10.5134L43.2293 6.81641L37.1927 0.759211C41.5635 0.858238 45.8353 1.71648 49.8762 3.36694ZM47.4517 10.7445L50.4205 3.59801C54.4284 5.28148 58.0734 7.69116 61.2402 10.7445H47.4517ZM62.4607 26.0608L69.6024 23.1065C71.2352 27.1501 72.1094 31.4248 72.1918 35.8151L62.4607 26.0608ZM69.6024 49.9265L62.4607 46.9557L72.2083 37.2014C72.1094 41.6082 71.2352 45.8829 69.6024 49.9265ZM62.2298 47.5003L69.3715 50.4547C67.6561 54.4818 65.2646 58.1293 62.2298 61.2817V47.5003ZM50.7833 69.2865L50.4205 69.435L47.4682 62.2885H61.2402C58.1724 65.2263 54.6593 67.5865 50.7833 69.2865ZM49.5298 69.7981C45.5714 71.3495 41.4316 72.1748 37.1762 72.2573L43.2128 66.2001L46.9074 62.503L49.8597 69.6496L49.5298 69.7981ZM23.0743 69.6661L26.0267 62.5196L29.7212 66.2166L35.7743 72.2738C31.387 72.1748 27.1152 71.3 23.0743 69.6661ZM25.4989 62.2885L22.5301 69.435C18.5057 67.735 14.8771 65.3253 11.7104 62.2885H25.4989ZM6.79531 43.2752L10.4898 46.9722L3.34818 49.943C1.71533 45.8994 0.841178 41.6247 0.758711 37.2345L6.79531 43.2752ZM22.2002 19.2939L21.3425 21.3735L11.298 25.5327V11.3057H25.4989L22.2002 19.2939ZM46.5115 10.9261L36.467 15.0852L33.0364 13.6658L26.4225 10.9261L36.467 0.874743L40.4914 4.90187L46.5115 10.9261ZM61.6525 25.5162L51.608 21.357L47.4517 11.3057H61.6525V25.5162ZM62.2298 25.5162V11.7348C65.2811 14.9037 67.6726 18.5347 69.3715 22.5618L62.2298 25.5162ZM57.892 36.5083L62.0484 26.4569L72.0929 36.5083L62.0484 46.5596L57.892 36.5083ZM11.298 47.5003L18.6871 50.5537L21.3425 51.6595L25.4989 61.7108H11.298V47.5003ZM10.7208 47.5003V61.2817C7.66947 58.1128 5.27792 54.4818 3.57909 50.4547L10.7208 47.5003ZM37.2257 57.6177L50.8493 51.9731L46.8579 61.6118L46.4785 61.4468L37.2257 57.6177ZM22.0847 21.0434L26.0762 11.4047L35.7083 15.3988L22.0847 21.0434ZM54.7583 28.9326L51.9379 22.1162L61.5701 26.1103L57.5786 35.749L54.7583 28.9326ZM28.913 54.7954L35.7248 57.6177L26.0926 61.6118L22.1012 51.9731L28.913 54.7954ZM57.5786 37.2675L61.5701 46.9062L51.9379 50.9003L57.5786 37.2675ZM44.054 18.2211L37.2422 15.3988L46.8744 11.4047L50.8658 21.0434L44.054 18.2211ZM15.6853 36.5083L18.7366 29.1472L21.7879 21.7861L36.4835 15.6959L43.8396 18.7493L51.1792 21.8026L57.2653 36.5083L51.1792 51.2139L36.4835 57.3041L29.1274 54.2507L21.7714 51.1974L19.9406 46.7741L15.6853 36.5083ZM18.2088 28.9326L15.3884 35.749L11.3805 26.1103L21.0127 22.1162L18.2088 28.9326ZM11.397 46.9062L14.0194 40.5519L15.3719 37.2675L18.1923 44.0839L21.0127 50.9003L18.5716 49.8935L11.397 46.9062ZM0.874165 36.5083L4.89857 32.4811L10.9187 26.4569L15.075 36.5083L14.0029 39.0995L10.9187 46.5596L4.89857 40.5354L0.874165 36.5083ZM36.4835 72.1418L32.4591 68.1146L26.439 62.0904L36.4835 57.9313L42.4541 60.407L46.528 62.0904L40.5079 68.1146L36.4835 72.1418ZM47.4517 61.7108L49.7443 56.1818L51.608 51.6595L61.6525 47.5003V61.7108H47.4517ZM3.34818 23.09L4.89857 23.7337L10.4898 26.0608L6.79531 29.7579L0.758711 35.8151C0.841178 31.4083 1.71533 27.1336 3.34818 23.09ZM2.91935 50.4217C10.3909 68.4612 31.5685 77.4728 49.7443 70.3262L50.371 70.0622L50.9978 69.7981C64.0771 64.071 72.7526 50.8178 72.7691 36.5248C72.8021 36.4917 72.8021 36.4422 72.7691 36.3927C72.7361 25.021 67.2603 14.1445 58.1559 7.34456C48.2104 -0.0990312 34.7682 -1.86503 23.2063 2.65724L22.5795 2.92132L21.9528 3.18539C4.10688 11.0086 -4.58517 32.3656 2.91935 50.4217Z" fill="#B5936C"/>
<path d="M36.7474 73C31.8489 73 26.9338 71.9932 22.2332 70.0127C13.2937 66.2001 6.3665 59.2847 2.73794 50.5042C-0.907113 41.7402 -0.907113 31.9365 2.73794 22.9085C6.38299 13.8969 13.1783 6.83294 21.8703 3.03687L23.1238 2.50873C34.8012 -2.06306 48.2764 -0.264054 58.2879 7.21255C67.4582 14.062 72.9506 24.9715 72.9835 36.3927C73.0165 36.4753 73 36.5413 72.9835 36.6073C72.9506 50.8838 64.1431 64.3021 51.0802 70.0127L49.8267 70.5408C45.6209 72.1748 41.1842 73 36.7474 73ZM36.4176 0.412637C31.9643 0.412637 27.5111 1.22136 23.2888 2.87183L22.0353 3.38347C13.4422 7.14653 6.72935 14.128 3.11729 23.057C-0.494776 31.986 -0.494776 41.6742 3.11729 50.3392C6.71286 59.0206 13.5576 65.87 22.3981 69.6331C31.2386 73.3961 40.9368 73.5777 49.6783 70.1447L50.9318 69.6331C63.8462 63.972 72.5547 50.6858 72.5712 36.5413C72.5712 36.5083 72.5712 36.4918 72.5877 36.4753C72.5877 36.4588 72.5712 36.4423 72.5712 36.4258C72.5382 25.1201 67.1119 14.326 58.0405 7.54264C51.773 2.83882 44.12 0.412637 36.4176 0.412637ZM35.7743 72.4719C31.3706 72.3894 27.0658 71.5146 22.9919 69.8641C22.9424 69.8476 22.8929 69.7981 22.8764 69.7486C22.8599 69.6991 22.8599 69.6331 22.8764 69.5836L25.8288 62.4371C25.8618 62.371 25.9112 62.3215 25.9772 62.3215C26.0432 62.305 26.1092 62.338 26.1586 62.371L35.9063 72.1253C35.9722 72.1913 35.9887 72.2738 35.9557 72.3563C35.9393 72.4224 35.8568 72.4719 35.7743 72.4719ZM23.3383 69.5506C27.1482 71.069 31.1562 71.9107 35.263 72.0428L26.1092 62.8827L23.3383 69.5506ZM37.1763 72.4719C37.0938 72.4719 37.0113 72.4224 36.9783 72.3398C36.9454 72.2573 36.9618 72.1748 37.0278 72.1088L46.7754 62.3545C46.8249 62.305 46.8909 62.2885 46.9569 62.305C47.0229 62.3215 47.0888 62.371 47.1053 62.4206L50.0576 69.5671C50.0741 69.6166 50.0741 69.6826 50.0576 69.7321C50.0412 69.7816 49.9917 69.8311 49.9422 69.8476L49.5958 69.9962C45.6374 71.5476 41.4646 72.3894 37.1763 72.4719C37.1928 72.4719 37.1763 72.4719 37.1763 72.4719ZM46.8579 62.8662L37.7041 72.0263C41.7449 71.8942 45.7034 71.069 49.4639 69.6001L49.6288 69.534L46.8579 62.8662ZM36.4835 72.3563C36.4341 72.3563 36.3681 72.3398 36.3351 72.2903L26.2906 62.239C26.2411 62.1895 26.2246 62.1235 26.2411 62.0574C26.2576 61.9914 26.3071 61.9254 26.3731 61.9089L36.4176 57.7497C36.467 57.7332 36.5165 57.7332 36.5825 57.7497L46.627 61.9089C46.693 61.9419 46.7425 61.9914 46.759 62.0574C46.7754 62.1235 46.759 62.1895 46.7095 62.239L36.6155 72.2903C36.5825 72.3233 36.533 72.3563 36.4835 72.3563ZM26.8019 62.173L36.4835 71.8612L46.1652 62.173L36.4835 58.1624L26.8019 62.173ZM22.5301 69.6496C22.4971 69.6496 22.4806 69.6496 22.4476 69.6331C18.4067 67.9331 14.7452 65.5069 11.5619 62.4371C11.496 62.371 11.4795 62.2885 11.5125 62.206C11.5454 62.1235 11.6279 62.074 11.7104 62.074H25.4989C25.5649 62.074 25.6308 62.107 25.6638 62.173C25.6968 62.2225 25.7133 62.305 25.6803 62.371L22.7115 69.5175C22.695 69.5671 22.6455 69.6166 22.5961 69.6331C22.5961 69.6331 22.5631 69.6496 22.5301 69.6496ZM12.2382 62.4866C15.24 65.3089 18.6706 67.5535 22.4311 69.1544L25.202 62.4866H12.2382ZM50.4205 69.6331C50.338 69.6331 50.2556 69.5836 50.2226 69.501L47.2703 62.3545C47.2373 62.2885 47.2538 62.2225 47.2867 62.1565C47.3197 62.107 47.3857 62.0574 47.4517 62.0574H61.2237C61.3062 62.0574 61.3886 62.107 61.4216 62.1895C61.4546 62.272 61.4381 62.3545 61.3722 62.4206C58.2879 65.3749 54.7583 67.7516 50.8493 69.4515L50.4865 69.6001C50.47 69.6331 50.437 69.6331 50.4205 69.6331ZM47.7651 62.4866L50.5195 69.1544L50.6844 69.0884C54.3789 67.471 57.7601 65.2594 60.7124 62.4866H47.7651ZM61.6525 61.9089H47.4517C47.3857 61.9089 47.3197 61.8759 47.2867 61.8099C47.2538 61.7604 47.2373 61.6778 47.2703 61.6118L51.4266 51.5605C51.4431 51.511 51.4926 51.4615 51.5421 51.445L61.5866 47.2858C61.6525 47.2528 61.7185 47.2693 61.7845 47.3023C61.8505 47.3353 61.8835 47.4013 61.8835 47.4674V61.6778C61.867 61.8264 61.768 61.9089 61.6525 61.9089ZM47.7651 61.4963H61.4546V47.7974L51.773 51.8081L47.7651 61.4963ZM25.4989 61.9089H11.298C11.1826 61.9089 11.1001 61.8099 11.1001 61.7109V47.5004C11.1001 47.4343 11.1331 47.3683 11.1991 47.3353C11.2486 47.3023 11.331 47.2858 11.397 47.3188L21.4415 51.478C21.491 51.4945 21.524 51.544 21.557 51.5935L25.7133 61.6448C25.7463 61.7108 25.7298 61.7769 25.6968 61.8429C25.6308 61.8759 25.5649 61.9089 25.4989 61.9089ZM11.496 61.4963H25.1855L21.1776 51.8081L11.496 47.7974V61.4963ZM26.0762 61.8264C25.9937 61.8264 25.9112 61.7769 25.8782 61.6944L21.8868 52.0556C21.8538 51.9731 21.8703 51.8906 21.9363 51.8246C22.0023 51.7586 22.0848 51.7421 22.1672 51.7751L35.7908 57.4197C35.8733 57.4527 35.9228 57.5187 35.9228 57.6177C35.9228 57.7167 35.8733 57.7827 35.7908 57.8158L26.1586 61.8099C26.1421 61.8099 26.1092 61.8264 26.0762 61.8264ZM22.4806 52.3527L26.2081 61.3477L35.197 57.6177L28.8471 54.977L22.4806 52.3527ZM46.8744 61.8264C46.8414 61.8264 46.8249 61.8264 46.7919 61.8099L37.1598 57.8158C37.0773 57.7827 37.0278 57.7167 37.0278 57.6177C37.0278 57.5187 37.0773 57.4527 37.1598 57.4197L50.7834 51.7751C50.8493 51.7421 50.9483 51.7586 51.0143 51.8246C51.0802 51.8906 51.0967 51.9731 51.0637 52.0556L47.0723 61.6944C47.0558 61.7439 47.0064 61.7934 46.9569 61.8099C46.9239 61.8099 46.8909 61.8264 46.8744 61.8264ZM37.77 57.6177L46.759 61.3312L50.4865 52.3362L37.77 57.6177ZM62.2298 61.4963C62.1968 61.4963 62.1803 61.4963 62.1473 61.4798C62.0649 61.4468 62.0154 61.3808 62.0154 61.2817V47.5004C62.0154 47.4343 62.0484 47.3683 62.1144 47.3353C62.1638 47.3023 62.2463 47.2858 62.3123 47.3188L69.4539 50.2731C69.5034 50.2896 69.5529 50.3392 69.5694 50.3887C69.5859 50.4382 69.5859 50.5042 69.5694 50.5537C67.8541 54.6139 65.4295 58.2614 62.3783 61.4468C62.3453 61.4798 62.2793 61.4963 62.2298 61.4963ZM62.4442 47.8139V60.7701C65.2481 57.7662 67.4912 54.3333 69.1076 50.5702L62.4442 47.8139ZM10.7208 61.4963C10.6713 61.4963 10.6053 61.4798 10.5723 61.4303C7.52104 58.2449 5.0965 54.5974 3.38118 50.5372C3.36469 50.4877 3.36469 50.4217 3.38118 50.3722C3.39768 50.3227 3.44716 50.2731 3.49664 50.2566L10.6383 47.2858C10.7043 47.2528 10.7702 47.2693 10.8362 47.3023C10.9022 47.3353 10.9352 47.4013 10.9352 47.4674V61.2487C10.9352 61.3312 10.8857 61.4138 10.8032 61.4468C10.7702 61.4963 10.7373 61.4963 10.7208 61.4963ZM3.843 50.5702C5.45936 54.3333 7.70247 57.7662 10.5064 60.7701V47.8139L3.843 50.5702ZM36.4835 57.5187C36.4506 57.5187 36.4341 57.5187 36.4011 57.5022L21.7054 51.412C21.6559 51.3955 21.6229 51.3459 21.59 51.2964L15.5039 36.5908C15.4874 36.5413 15.4874 36.4918 15.5039 36.4258L21.59 21.7201C21.6064 21.6706 21.6559 21.6211 21.7054 21.6046L36.4011 15.5144C36.4506 15.4979 36.5 15.4979 36.566 15.5144L51.2617 21.6046C51.3111 21.6211 51.3441 21.6706 51.3771 21.7201L57.4632 36.4258C57.4797 36.4753 57.4797 36.5248 57.4632 36.5908L51.3771 51.2964C51.3606 51.3459 51.3111 51.3955 51.2617 51.412L36.566 57.5022C36.533 57.5187 36.5 57.5187 36.4835 57.5187ZM21.9363 51.0654L36.4835 57.0896L51.0143 51.0654L57.0344 36.5083L51.0143 21.9677L36.4835 15.9435L21.9528 21.9677L15.9327 36.5248L21.9363 51.0654ZM51.9379 51.1149C51.8884 51.1149 51.8389 51.0984 51.7895 51.0489C51.7235 50.9828 51.707 50.9003 51.74 50.8178L57.3807 37.185C57.4467 37.0364 57.6941 37.0364 57.7601 37.185L61.7515 46.8237C61.801 46.9227 61.7515 47.0547 61.636 47.0877L52.0039 51.0819C51.9874 51.1149 51.9544 51.1149 51.9379 51.1149ZM57.5787 37.8121L52.3172 50.5372L61.3062 46.8072L57.5787 37.8121ZM21.0292 51.1149C20.9962 51.1149 20.9797 51.1149 20.9467 51.0984L11.3145 47.1043C11.2156 47.0547 11.1661 46.9392 11.1991 46.8402L15.1905 37.2015C15.2565 37.0529 15.5039 37.0529 15.5698 37.2015L21.2106 50.8343C21.2436 50.9168 21.2271 50.9993 21.1611 51.0654C21.1281 51.0819 21.0787 51.1149 21.0292 51.1149ZM11.6609 46.7907L20.6498 50.5207L15.3884 37.8121L11.6609 46.7907ZM69.6024 50.1411C69.5694 50.1411 69.5529 50.1411 69.5199 50.1246L62.3783 47.1538C62.3123 47.1208 62.2628 47.0712 62.2463 47.0052C62.2298 46.9392 62.2463 46.8732 62.2958 46.8237L72.0434 37.0694C72.1094 37.0034 72.1919 36.9869 72.2743 37.0199C72.3568 37.0529 72.4063 37.1354 72.4063 37.218C72.3238 41.6412 71.4497 45.9489 69.8003 50.0091C69.7838 50.0586 69.7343 50.1081 69.6849 50.1246C69.6519 50.1246 69.6189 50.1411 69.6024 50.1411ZM62.8236 46.8897L69.4869 49.6625C71.0043 45.8664 71.8455 41.8558 71.9774 37.7296L62.8236 46.8897ZM3.3482 50.1411C3.31521 50.1411 3.29872 50.1411 3.26573 50.1246C3.21625 50.1081 3.16677 50.0586 3.15028 50.0091C1.50093 45.9489 0.626778 41.6412 0.544311 37.218C0.544311 37.1354 0.593791 37.0529 0.676259 37.0199C0.742232 36.9869 0.841193 37.0034 0.907167 37.0694L10.6548 46.8237C10.7043 46.8732 10.7208 46.9392 10.7208 47.0052C10.7043 47.0712 10.6548 47.1373 10.5888 47.1538L3.44716 50.1246C3.39768 50.1246 3.38118 50.1411 3.3482 50.1411ZM0.973141 37.7296C1.10509 41.8393 1.94625 45.8499 3.46365 49.6625L10.127 46.8897L6.66338 43.4072L0.973141 37.7296ZM10.9022 46.7742C10.8527 46.7742 10.8032 46.7577 10.7538 46.7081L0.709245 36.6568C0.626778 36.5743 0.626778 36.4423 0.709245 36.3597L10.7538 26.3084C10.8032 26.2589 10.8692 26.2424 10.9352 26.2589C11.0012 26.2754 11.0671 26.3249 11.0836 26.3744L15.24 36.4258C15.2565 36.4753 15.2565 36.5248 15.24 36.5908L11.0836 46.6421C11.0506 46.7081 11.0012 46.7577 10.9352 46.7577C10.9352 46.7577 10.9187 46.7742 10.9022 46.7742ZM1.15457 36.5083L10.8362 46.1965L14.8441 36.5083L10.8362 26.8201L1.15457 36.5083ZM62.0484 46.7577C62.0319 46.7577 62.0154 46.7577 62.0154 46.7577C61.9494 46.7411 61.8834 46.6916 61.867 46.6421L57.7106 36.5908C57.6941 36.5413 57.6941 36.4918 57.7106 36.4258L61.867 26.3744C61.8999 26.3084 61.9494 26.2589 62.0154 26.2589C62.0814 26.2424 62.1473 26.2589 62.1968 26.3084L72.2413 36.3597C72.2743 36.3927 72.3073 36.4588 72.3073 36.5083C72.3073 36.5578 72.2908 36.6073 72.2413 36.6568L62.1968 46.7081C62.1473 46.7411 62.0979 46.7577 62.0484 46.7577ZM58.1064 36.5083L62.1144 46.1965L71.796 36.5083L62.1144 26.8366L58.1064 36.5083ZM0.758726 36.0131C0.725739 36.0131 0.709245 36.0131 0.676259 35.9966C0.593791 35.9636 0.544311 35.8811 0.544311 35.7986C0.626778 31.3753 1.50093 27.0841 3.15028 23.0075C3.16677 22.958 3.21625 22.9085 3.26573 22.892C3.31521 22.8754 3.36469 22.8754 3.43066 22.892L10.5723 25.8628C10.6383 25.8958 10.6878 25.9453 10.7043 26.0113C10.7208 26.0773 10.7043 26.1434 10.6548 26.1929L0.907167 35.9471C0.857687 35.9966 0.808206 36.0131 0.758726 36.0131ZM3.46365 23.3706C1.94625 27.1667 1.10509 31.1773 0.973141 35.3034L10.127 26.1434L3.46365 23.3706ZM72.1919 36.0131C72.1424 36.0131 72.0929 35.9966 72.0434 35.9471L62.2958 26.1929C62.2463 26.1434 62.2298 26.0773 62.2463 26.0113C62.2628 25.9453 62.3123 25.8793 62.3783 25.8628L69.5199 22.9085C69.5694 22.892 69.6354 22.892 69.6849 22.9085C69.7343 22.925 69.7838 22.9745 69.8003 23.024C71.4497 27.0841 72.3238 31.3918 72.4063 35.8151C72.4063 35.8976 72.3568 35.9801 72.2743 36.0131C72.2578 36.0131 72.2248 36.0131 72.1919 36.0131ZM62.8236 26.1269L71.9774 35.2869C71.8455 31.1608 71.0043 27.1501 69.4869 23.3541L62.8236 26.1269ZM15.3719 35.9636C15.2895 35.9636 15.207 35.9141 15.174 35.8316L11.1826 26.1929C11.1331 26.0939 11.1826 25.9618 11.298 25.9288L20.9302 21.9347C20.9962 21.9017 21.0951 21.9182 21.1611 21.9842C21.2271 22.0502 21.2436 22.1327 21.2106 22.2153L15.5698 35.8481C15.5369 35.9141 15.4544 35.9636 15.3719 35.9636ZM11.6609 26.2259L15.3884 35.2209L18.0274 28.8666L20.6663 22.5123L11.6609 26.2259ZM57.5787 35.9636C57.4962 35.9636 57.4137 35.9141 57.3807 35.8316L51.74 22.1988C51.707 22.1162 51.7235 22.0337 51.7895 21.9677C51.8554 21.9017 51.9379 21.8852 52.0204 21.9182L61.6525 25.9123C61.702 25.9288 61.735 25.9783 61.768 26.0278C61.801 26.0773 61.7845 26.1269 61.768 26.1929L57.7766 35.8316C57.7271 35.9141 57.6611 35.9636 57.5787 35.9636ZM52.3172 22.4958L54.9562 28.8501L57.5787 35.2044L61.3062 26.2094L52.3172 22.4958ZM11.298 25.7307C11.2651 25.7307 11.2156 25.7142 11.1826 25.6977C11.1166 25.6647 11.0836 25.5987 11.0836 25.5327V11.3057C11.0836 11.1902 11.1826 11.1076 11.2815 11.1076H25.4824C25.5484 11.1076 25.6144 11.1406 25.6473 11.2067C25.6803 11.2562 25.6968 11.3387 25.6638 11.4047L22.3651 19.3765L21.5075 21.4395C21.491 21.4891 21.4415 21.5386 21.392 21.5551L11.3805 25.7142C11.3475 25.7307 11.331 25.7307 11.298 25.7307ZM11.496 11.5203V25.2191L21.1776 21.2085L25.1855 11.5203H11.496ZM10.7208 25.7307C10.6878 25.7307 10.6713 25.7307 10.6383 25.7142L3.49664 22.7599C3.44716 22.7434 3.39768 22.6939 3.38118 22.6444C3.36469 22.5949 3.36469 22.5288 3.38118 22.4793C5.0965 18.4192 7.52104 14.7552 10.5723 11.5863C10.6383 11.5203 10.7208 11.5038 10.8032 11.5368C10.8857 11.5698 10.9352 11.6358 10.9352 11.7348V25.5162C10.9352 25.5822 10.9022 25.6482 10.8362 25.6812C10.8032 25.7142 10.7702 25.7307 10.7208 25.7307ZM3.843 22.4463L10.5064 25.2026V12.2465C7.71896 15.2503 5.47585 18.6833 3.843 22.4463ZM61.6525 25.7307C61.6196 25.7307 61.6031 25.7307 61.5701 25.7142L51.5256 21.5551C51.4761 21.5386 51.4431 21.4891 51.4101 21.4395L47.2703 11.3882C47.2373 11.3222 47.2538 11.2562 47.2867 11.1902C47.3197 11.1407 47.3857 11.0911 47.4517 11.0911H61.6525C61.768 11.0911 61.8505 11.1902 61.8505 11.2892V25.4997C61.8505 25.5657 61.8175 25.6317 61.7515 25.6647C61.735 25.7142 61.702 25.7307 61.6525 25.7307ZM51.773 21.2085L61.4546 25.2191V11.5203H47.7651L51.773 21.2085ZM62.2298 25.7307C62.1968 25.7307 62.1473 25.7142 62.1144 25.6977C62.0484 25.6647 62.0154 25.5987 62.0154 25.5327V11.7348C62.0154 11.6523 62.0649 11.5698 62.1473 11.5368C62.2298 11.5038 62.3123 11.5203 62.3783 11.5863C65.4295 14.7717 67.8541 18.4357 69.5694 22.4628C69.5859 22.5123 69.5859 22.5784 69.5694 22.6279C69.5529 22.6774 69.5034 22.7269 69.4539 22.7434L62.3123 25.6977C62.2958 25.7142 62.2628 25.7307 62.2298 25.7307ZM62.4442 12.2465V25.2026L69.1076 22.4463C67.4912 18.6833 65.2481 15.2668 62.4442 12.2465ZM50.8658 21.258C50.8328 21.258 50.8163 21.258 50.7834 21.2415L37.1598 15.5969C37.0773 15.5639 37.0278 15.4979 37.0278 15.3988C37.0278 15.2998 37.0773 15.2338 37.1598 15.2008L46.7919 11.2067C46.9074 11.1572 47.0229 11.2067 47.0558 11.3222L51.0473 20.9609C51.0802 21.0434 51.0637 21.126 50.9978 21.192C50.9648 21.2415 50.9153 21.258 50.8658 21.258ZM44.12 18.0396L50.47 20.6803L46.7425 11.6853L37.77 15.3988L44.12 18.0396ZM22.0848 21.258C22.0353 21.258 21.9858 21.2415 21.9363 21.192C21.8703 21.126 21.8538 21.0434 21.8868 20.9609L25.8782 11.3222C25.9277 11.2232 26.0432 11.1572 26.1421 11.2067L35.7743 15.2008C35.8568 15.2338 35.9063 15.2998 35.9063 15.3988C35.9063 15.4979 35.8568 15.5639 35.7743 15.5969L22.1507 21.2415C22.1507 21.2415 22.1177 21.258 22.0848 21.258ZM26.1916 11.6688L22.4641 20.6638L35.1641 15.3988L26.1916 11.6688ZM36.467 15.2998C36.4341 15.2998 36.4176 15.2998 36.3846 15.2833L26.3401 11.1241C26.2741 11.0911 26.2246 11.0416 26.2081 10.9756C26.1916 10.9096 26.2081 10.8436 26.2576 10.7941L36.3021 0.742729C36.3846 0.660206 36.5165 0.660206 36.599 0.742729L46.6435 10.7941C46.693 10.8436 46.7095 10.9096 46.693 10.9756C46.6765 11.0416 46.627 11.1076 46.561 11.1241L36.5165 15.2833C36.533 15.2833 36.5 15.2998 36.467 15.2998ZM26.8019 10.8601L36.4835 14.8707L46.1652 10.8601L36.4835 1.17185L26.8019 10.8601ZM61.2402 10.9426H47.4517C47.3857 10.9426 47.3197 10.9096 47.2867 10.8436C47.2538 10.7941 47.2373 10.7115 47.2703 10.6455L50.2391 3.499C50.2556 3.44949 50.305 3.39998 50.3545 3.38347C50.404 3.36697 50.47 3.36697 50.5195 3.38347C54.5604 5.09995 58.2219 7.50963 61.4051 10.5795C61.4711 10.6455 61.4876 10.728 61.4546 10.8106C61.4051 10.8931 61.3227 10.9426 61.2402 10.9426ZM47.7651 10.53H60.7124C57.7106 7.72419 54.28 5.47956 50.5195 3.86211L47.7651 10.53ZM25.4989 10.9426H11.7104C11.6279 10.9426 11.5454 10.8931 11.5125 10.8106C11.4795 10.728 11.496 10.6455 11.5619 10.5795C14.6462 7.62516 18.1758 5.2485 22.0848 3.53201L22.4476 3.38347C22.4971 3.36697 22.5466 3.36697 22.6125 3.38347C22.662 3.39998 22.695 3.44949 22.728 3.499L25.6803 10.6455C25.7133 10.7115 25.6968 10.7775 25.6638 10.8436C25.6308 10.9096 25.5649 10.9426 25.4989 10.9426ZM12.2382 10.53H25.1855L22.4311 3.86211L22.2662 3.92812C18.5552 5.54558 15.1905 7.7737 12.2382 10.53ZM46.9239 10.728C46.8744 10.728 46.8249 10.7115 46.7754 10.662L37.0278 0.907776C36.9618 0.841757 36.9454 0.759234 36.9783 0.676711C37.0113 0.594188 37.0938 0.544674 37.1763 0.544674C41.58 0.627197 45.8683 1.50194 49.9587 3.15241C50.0082 3.16891 50.0576 3.21842 50.0741 3.26794C50.0906 3.31745 50.0906 3.38347 50.0741 3.43298L47.1218 10.5795C47.0888 10.6455 47.0393 10.695 46.9734 10.695C46.9569 10.728 46.9404 10.728 46.9239 10.728ZM37.6876 0.990299L46.8414 10.1504L49.5958 3.4825C45.8023 1.96407 41.7944 1.12234 37.6876 0.990299ZM26.0267 10.728C26.0102 10.728 25.9937 10.728 25.9937 10.728C25.9277 10.7115 25.8618 10.662 25.8453 10.6125L22.8929 3.46599C22.8435 3.36697 22.8929 3.23493 23.0084 3.20192L23.3548 3.05338C27.3297 1.50194 31.5025 0.660206 35.7743 0.577683C35.8733 0.594188 35.9393 0.627197 35.9722 0.70972C36.0052 0.792243 35.9887 0.874767 35.9228 0.940785L26.1751 10.695C26.1421 10.695 26.0927 10.728 26.0267 10.728ZM23.3383 3.4825L26.0927 10.1504L35.2465 0.990299C31.2056 1.12234 27.2472 1.94757 23.4867 3.41648L23.3383 3.4825Z" fill="#B5936C"/>
</g>
<defs>
<clipPath id="clip0_14_342">
<rect width="73" height="73" fill="white"/>
</clipPath>
</defs>
</svg>
