<svg width="73" height="73" viewBox="0 0 73 73" fill="none" xmlns="http://www.w3.org/2000/svg">
<g clip-path="url(#clip0_14_416)">
<path d="M36 72C55.8823 72 72 55.8823 72 36C72 16.1178 55.8823 0 36 0C16.1177 0 0 16.1178 0 36C0 55.8823 16.1177 72 36 72Z" fill="white"/>
<path d="M47.7485 18.2871C49.6948 17.99 50.7339 18.8318 51.2781 20.7298C51.9214 22.9579 52.812 25.1035 53.6367 27.2656C53.9006 27.9423 53.9336 28.5365 53.7687 29.2792C53.6202 29.9394 51.4596 29.9559 53.1749 31.2103C54.2635 32.0025 55.6819 32.9928 56.589 31.9035C59.7558 28.0579 63.6317 30.4841 66.683 31.2598C68.4643 31.7219 71.1033 34.4452 71.4661 37.2675C71.9609 41.2121 71.6146 45.1732 70.0972 48.9197C69.0581 51.4945 67.8706 51.4614 65.9243 49.5964C64.0441 47.8139 61.3227 47.2032 59.3434 45.2722C58.6837 44.6285 56.655 46.0974 55.418 46.9887C54.9727 46.9887 54.5109 46.9887 54.0655 46.9887C50.8988 44.2324 50.0246 40.6674 50.5689 36.6898C51.0802 33.0258 49.5628 30.6656 46.0992 29.3287C44.9776 29.8734 46.4291 32.2005 44.4499 32.118C42.718 32.0355 42.7345 30.3355 42.4377 29.2132C41.3161 25.054 39.8482 21.423 34.7187 21.0269C33.5147 20.9279 32.5086 19.9871 32.4756 18.6832C32.4261 17.1153 33.8611 17.2308 34.9001 16.7522C36.8134 15.894 38.5452 16.7687 40.3595 16.8347C41.4975 16.8842 43.2293 17.5114 43.4273 15.5639C43.5592 14.2435 44.2354 12.659 41.9758 11.8668C39.3699 10.9591 39.4523 8.36784 40.5409 6.61835C41.646 4.83585 43.3943 5.84263 45.0931 6.7834C48.3423 8.59891 52.0863 9.42414 55.1046 11.7678C56.4406 12.8076 58.0405 13.6163 57.2983 15.5969C56.589 17.4949 54.7253 16.8182 53.3068 16.8347C52.4162 16.8347 51.4431 16.6037 50.6349 16.2075C48.2598 15.0357 47.7156 16.2406 47.7156 18.2871C47.6166 18.3862 47.5341 18.4852 47.4352 18.5842C47.5506 18.4687 47.6496 18.3862 47.7485 18.2871Z" fill="#E6E6E6"/>
<path d="M46.8249 61.7934C47.6826 61.0342 47.5011 59.8623 47.9135 58.9546C48.6392 57.3701 49.6618 55.7527 51.2781 58.2944C52.0368 59.4827 52.911 59.7633 54.214 59.2352C55.5169 58.707 56.8529 58.707 57.3642 60.308C57.9085 62.0079 56.8694 62.6846 55.352 63.2953C53.5377 64.0215 52.2018 65.2924 51.4431 67.3719C50.5524 69.8311 48.6062 71.7292 45.8683 72.1088C43.9056 72.3894 41.4975 72.5544 42.6026 69.1544C43.2293 67.2069 40.376 66.4807 41.2501 63.9555C42.5531 60.2254 43.7241 59.3672 46.8249 61.7934ZM44.7632 66.5962C44.7137 66.5302 44.6808 66.4147 44.6148 66.3982C44.5653 66.3817 44.4828 66.4642 44.4004 66.5137C44.4828 66.6292 44.5653 66.7283 44.6478 66.8438C44.6972 66.7613 44.7302 66.6787 44.7632 66.5962Z" fill="#E7E7E7"/>
<path d="M45.6539 52.8809C45.7693 55.4391 44.6808 56.8585 41.9758 56.809C41.0522 56.7925 40.0791 56.743 39.2049 56.974C33.927 58.2944 33.927 58.3274 31.7499 53.1945C31.4695 52.5178 31.7829 51.2634 30.5294 51.5275C29.2924 51.7916 27.9894 52.1217 27.676 50.6032C27.3462 49.0518 27.4781 47.3683 27.5936 45.7509C27.6265 45.1402 28.4677 44.7606 28.9625 45.1237C30.6119 46.2955 33.0694 46.3615 33.8611 48.7052C34.8012 51.4615 36.8629 51.577 39.2379 50.9003C40.244 50.6197 41.2666 50.4052 42.2562 50.1081C44.8127 49.3324 45.7363 50.4712 45.6539 52.8809Z" fill="#E7E7E7"/>
<path d="M54.0655 46.9887C54.5108 46.9887 54.9726 46.9887 55.4179 46.9887C57.4961 47.9955 60.399 47.6324 60.7618 51.2799C60.8773 52.4187 63.6976 52.2207 65.1985 53.343C67.5901 55.1255 67.6231 56.4129 66.1387 58.773C64.8687 60.7866 62.807 61.1992 61.0752 62.2225C60.0691 62.8167 59.0135 62.2225 58.9805 60.7866C58.964 60.0934 58.964 59.3837 58.964 58.6905C58.931 53.4255 58.931 53.4255 53.6531 53.3265C52.4986 53.31 51.1626 53.4585 50.7503 52.0061C50.305 50.4877 51.575 49.9926 52.6305 49.5139C53.7356 48.9858 54.1974 48.177 54.0655 46.9887Z" fill="#E7E7E7"/>
<path d="M68.9096 22.6939C69.157 26.0773 66.6335 26.5725 64.5388 26.5065C62.2462 26.4404 60.5309 24.7405 61.3226 22.2483C61.9329 20.2842 61.3721 18.6338 61.1247 16.8347C60.9927 15.9765 60.7288 14.8872 61.7679 14.326C62.873 13.7319 63.8461 14.26 64.5223 15.1183C66.3531 17.4454 68.0684 19.8551 68.9096 22.6939Z" fill="#E6E6E6"/>
<path d="M12.7 40.7169C14.2998 40.6674 15.4709 40.7334 16.2626 42.4004C17.3511 44.6616 19.2479 46.6751 17.9944 49.4149C17.1697 51.2139 13.772 50.6197 11.8258 48.078C10.8032 46.7576 10.1435 45.0577 9.92907 43.2917C9.64869 40.948 10.9352 40.4694 12.7 40.7169Z" fill="#E7E7E7"/>
<path d="M24.2784 57.7497C25.6968 59.2351 27.6431 58.74 29.4243 59.0536C30.4964 59.2516 31.2386 60.0438 31.519 61.1496C31.9973 63.0147 30.183 63.3448 29.3254 64.302C28.4677 65.2758 27.2142 65.6224 26.2081 64.8302C24.5753 63.5593 23.3383 61.8263 22.629 59.8788C22.2662 58.8885 22.7775 57.8322 24.2784 57.7497Z" fill="#E7E7E7"/>
<path d="M25.9112 11.9659C24.1629 11.9824 22.4806 11.9329 22.6125 9.75427C22.7774 7.34459 24.7567 7.82322 26.307 7.77371C27.8739 7.7407 29.5562 7.82322 29.4243 9.98533C29.2924 12.428 27.2637 11.8504 25.9112 11.9659Z" fill="#E7E7E7"/>
<path d="M15.5039 27.6288C15.0091 29.2132 14.5638 31.2268 12.3372 31.4248C10.9022 31.5404 10.3909 30.187 10.7703 28.9491C11.2981 27.1831 11.364 24.757 14.0195 24.7735C15.5039 24.8065 15.5204 26.2424 15.5039 27.6288Z" fill="#E8E8E8"/>
<path d="M33.3663 4.98439C34.6528 4.96789 35.6424 5.41351 35.7743 6.84942C35.8733 8.02124 35.428 9.02803 34.158 9.02803C32.723 9.02803 31.8984 7.98824 31.7169 6.61835C31.552 5.44652 32.2447 4.95138 33.3663 4.98439Z" fill="#E8E8E8"/>
<path d="M47.7485 18.2871C47.6496 18.3862 47.5506 18.4687 47.4517 18.5677C47.5506 18.4687 47.6331 18.3697 47.732 18.2706L47.7485 18.2871Z" fill="#FEFEFE"/>
<path d="M44.7632 66.5962C44.7302 66.6787 44.6973 66.7448 44.6643 66.8273C44.5818 66.7118 44.4993 66.6127 44.4169 66.4972C44.4828 66.4642 44.5818 66.3652 44.6313 66.3817C44.6808 66.4147 44.7137 66.5302 44.7632 66.5962Z" fill="#FEFEFE"/>
<path d="M10.7208 25.5162L3.57909 22.5618C5.27792 18.5347 7.68596 14.8872 10.7208 11.7348V25.5162ZM22.1837 3.73004L22.5466 3.5815L25.4989 10.728H11.7104C14.7781 7.79018 18.2912 5.43002 22.1837 3.73004ZM23.4207 3.2184C27.3791 1.66697 31.519 0.841734 35.7743 0.759211L26.0267 10.5134L23.0743 3.36694L23.4207 3.2184ZM49.8762 3.36694L46.9239 10.5134L43.2293 6.81641L37.1927 0.759211C41.5635 0.841734 45.8188 1.71648 49.8762 3.36694ZM47.4517 10.7445L50.4205 3.59801C54.4284 5.28148 58.0734 7.69116 61.2402 10.7445H47.4517ZM62.4607 26.0608L69.6024 23.1065C71.2352 27.1501 72.1094 31.4248 72.1918 35.8151L62.4607 26.0608ZM69.6024 49.9265L62.4607 46.9557L72.2083 37.2014C72.1094 41.6082 71.2352 45.8829 69.6024 49.9265ZM62.2298 47.5003L69.3715 50.4547C67.6561 54.4818 65.2646 58.1293 62.2298 61.2817V47.5003ZM50.7668 69.2865L50.404 69.435L47.4517 62.2885H61.2237C58.1724 65.2263 54.6593 67.5865 50.7668 69.2865ZM49.5298 69.7981C45.5714 71.3495 41.4316 72.1748 37.1762 72.2573L43.2128 66.2001L46.9074 62.503L49.8597 69.6496L49.5298 69.7981ZM23.0743 69.6496L26.0267 62.503L29.7212 66.2001L35.7743 72.2573C31.387 72.1748 27.1152 71.3 23.0743 69.6496ZM25.4989 62.2885L22.5301 69.435C18.5057 67.735 14.8771 65.3253 11.7104 62.2885H25.4989ZM6.79531 43.2586L10.4898 46.9557L3.34818 49.9265C1.71533 45.8829 0.841178 41.6082 0.758711 37.2179L6.79531 43.2586ZM22.2002 19.2939L21.3425 21.3735L11.298 25.5327V11.3057H25.4989L22.2002 19.2939ZM46.5115 10.9261L36.467 15.0852L33.0364 13.6658L26.4225 10.9261L36.467 0.874743L40.4914 4.90187L46.5115 10.9261ZM61.6525 25.5162L51.608 21.357L47.4517 11.3057H61.6525V25.5162ZM62.2298 25.5162V11.7348C65.2811 14.9037 67.6726 18.5347 69.3715 22.5618L62.2298 25.5162ZM57.892 36.5083L62.0484 26.4569L72.0929 36.5083L62.0484 46.5596L57.892 36.5083ZM11.298 47.5003L18.6871 50.5537L21.3425 51.6595L25.4989 61.7108H11.298V47.5003ZM10.7208 47.5003V61.2817C7.66947 58.1128 5.27792 54.4818 3.57909 50.4547L10.7208 47.5003ZM37.2257 57.6177L50.8493 51.9731L46.8579 61.6118L46.4785 61.4468L37.2257 57.6177ZM22.0847 21.0434L26.0762 11.4047L35.7083 15.3988L22.0847 21.0434ZM54.7583 28.9326L51.9379 22.1162L61.5701 26.1103L57.5786 35.749L54.7583 28.9326ZM28.913 54.7954L35.7248 57.6177L26.0926 61.6118L22.1012 51.9731L28.913 54.7954ZM57.5786 37.2675L61.5701 46.9062L51.9379 50.9003L57.5786 37.2675ZM44.054 18.2211L37.2422 15.3988L46.8744 11.4047L50.8658 21.0434L44.054 18.2211ZM15.6853 36.5083L18.7366 29.1472L21.7879 21.7861L36.4835 15.6959L43.8396 18.7493L51.1792 21.8026L57.2653 36.5083L51.1792 51.2139L36.4835 57.3041L29.1274 54.2507L21.7714 51.1974L19.9406 46.7741L15.6853 36.5083ZM18.2088 28.9326L15.3884 35.749L11.3805 26.1103L21.0127 22.1162L18.2088 28.9326ZM11.397 46.9062L14.0194 40.5519L15.3719 37.2675L18.1923 44.0839L21.0127 50.9003L18.5716 49.8935L11.397 46.9062ZM0.874165 36.5083L4.89857 32.4811L10.9187 26.4569L15.075 36.5083L14.0029 39.0995L10.9187 46.5596L4.89857 40.5354L0.874165 36.5083ZM36.4835 72.1418L32.4591 68.1146L26.439 62.0904L36.4835 57.9313L42.4541 60.407L46.528 62.0904L40.5079 68.1146L36.4835 72.1418ZM47.4517 61.7108L49.7443 56.1818L51.608 51.6595L61.6525 47.5003V61.7108H47.4517ZM3.34818 23.09L4.89857 23.7337L10.4898 26.0608L6.79531 29.7579L0.758711 35.7985C0.841178 31.4083 1.71533 27.1336 3.34818 23.09ZM2.91935 50.4217C10.3909 68.4612 31.5685 77.4728 49.7443 70.3262L50.371 70.0622L50.9978 69.7981C64.0771 64.071 72.7526 50.8178 72.7691 36.5248C72.8021 36.4917 72.8021 36.4422 72.7691 36.3927C72.7361 25.021 67.2603 14.1445 58.1559 7.34456C48.2104 -0.0990312 34.7682 -1.86503 23.2063 2.65724L22.5795 2.92132L21.9528 3.18539C4.10688 11.0086 -4.58517 32.3656 2.91935 50.4217Z" fill="#B5936C"/>
<path d="M36.7474 73C31.8489 73 26.9338 71.9932 22.2332 70.0127C13.2937 66.2001 6.3665 59.2847 2.73794 50.5042C-0.907113 41.7402 -0.907113 31.9365 2.73794 22.9085C6.38299 13.8969 13.1783 6.83294 21.8703 3.03687L23.1238 2.50873C34.8012 -2.06306 48.2764 -0.264054 58.2879 7.21255C67.4582 14.062 72.9506 24.9715 72.9835 36.3927C73 36.4588 73 36.5413 72.9835 36.6073C72.9506 50.8838 64.1595 64.3021 51.0802 70.0127L49.8267 70.5408C45.6209 72.1748 41.1842 73 36.7474 73ZM36.4176 0.412637C31.9643 0.412637 27.5111 1.22136 23.2888 2.87183L22.0353 3.38347C13.4422 7.14653 6.72935 14.128 3.11729 23.0405C-0.494776 31.9695 -0.494776 41.6577 3.11729 50.3227C6.71286 59.0041 13.5576 65.8535 22.3981 69.6166C31.2386 73.3796 40.9368 73.5612 49.6783 70.1282L50.9318 69.6166C63.8462 63.972 72.5547 50.6858 72.5712 36.5413C72.5712 36.5248 72.5712 36.4918 72.5877 36.4753C72.5877 36.4588 72.5712 36.4258 72.5712 36.4092C72.5382 25.1036 67.1119 14.3095 58.0405 7.52613C51.773 2.83882 44.12 0.412637 36.4176 0.412637ZM35.7743 72.4554C31.3706 72.3728 27.0658 71.4981 22.9919 69.8476C22.9424 69.8311 22.8929 69.7816 22.8764 69.7321C22.8599 69.6826 22.8599 69.6166 22.8764 69.5671L25.8288 62.4206C25.8618 62.3545 25.9112 62.305 25.9772 62.305C26.0432 62.2885 26.1092 62.305 26.1586 62.3545L35.9063 72.1088C35.9722 72.1748 35.9887 72.2573 35.9557 72.3398C35.9393 72.4059 35.8568 72.4554 35.7743 72.4554ZM23.3383 69.5506C27.1482 71.069 31.1562 71.9107 35.263 72.0428L26.0927 62.8827L23.3383 69.5506ZM37.1763 72.4554C37.0938 72.4554 37.0113 72.4059 36.9783 72.3233C36.9454 72.2408 36.9618 72.1583 37.0278 72.0923L46.7754 62.338C46.8249 62.2885 46.8909 62.272 46.9569 62.2885C47.0229 62.305 47.0888 62.3545 47.1053 62.404L50.0576 69.5506C50.0741 69.6001 50.0741 69.6661 50.0576 69.7156C50.0412 69.7651 49.9917 69.8146 49.9422 69.8311L49.5958 69.9797C45.6374 71.5476 41.4646 72.3728 37.1763 72.4554ZM46.8579 62.8662L37.7041 72.0263C41.7449 71.8942 45.7034 71.069 49.4639 69.6001L49.6288 69.534L46.8579 62.8662ZM36.4835 72.3563C36.4341 72.3563 36.3681 72.3398 36.3351 72.2903L26.2906 62.239C26.2411 62.1895 26.2246 62.1235 26.2411 62.0574C26.2576 61.9914 26.3071 61.9254 26.3731 61.9089L36.4176 57.7497C36.467 57.7332 36.5165 57.7332 36.5825 57.7497L46.627 61.9089C46.693 61.9419 46.7425 61.9914 46.759 62.0574C46.7754 62.1235 46.759 62.1895 46.7095 62.239L36.6155 72.2903C36.5825 72.3233 36.533 72.3563 36.4835 72.3563ZM26.8019 62.173L36.4835 71.8612L46.1652 62.173L36.4835 58.1624L26.8019 62.173ZM22.5301 69.6331C22.4971 69.6331 22.4806 69.6331 22.4476 69.6166C18.4067 67.9001 14.7452 65.4904 11.5619 62.4206C11.496 62.3545 11.4795 62.272 11.5125 62.1895C11.5454 62.107 11.6279 62.0574 11.7104 62.0574H25.4824C25.5484 62.0574 25.6144 62.0905 25.6473 62.1565C25.6803 62.206 25.6968 62.2885 25.6638 62.3545L22.695 69.501C22.6785 69.5506 22.629 69.6001 22.5796 69.6166C22.5796 69.6331 22.5631 69.6331 22.5301 69.6331ZM12.2382 62.4866C15.24 65.3089 18.6706 67.5535 22.4311 69.1544L25.202 62.4866H12.2382ZM50.4205 69.6331C50.338 69.6331 50.2556 69.5836 50.2226 69.501L47.2703 62.3545C47.2373 62.2885 47.2538 62.2225 47.2867 62.1565C47.3197 62.107 47.3857 62.0574 47.4517 62.0574H61.2237C61.3062 62.0574 61.3886 62.107 61.4216 62.1895C61.4546 62.272 61.4381 62.3545 61.3722 62.4206C58.2879 65.3749 54.7583 67.7516 50.8493 69.4515L50.4865 69.6001C50.47 69.6331 50.437 69.6331 50.4205 69.6331ZM47.7651 62.4866L50.5195 69.1544L50.6844 69.0884C54.3954 67.471 57.7601 65.2428 60.7124 62.4866H47.7651ZM61.6525 61.9089H47.4517C47.3857 61.9089 47.3197 61.8759 47.2867 61.8099C47.2538 61.7604 47.2373 61.6778 47.2703 61.6118L51.4266 51.5605C51.4431 51.511 51.4926 51.4615 51.5421 51.445L61.5866 47.2858C61.6525 47.2528 61.7185 47.2693 61.7845 47.3023C61.8505 47.3353 61.8835 47.4013 61.8835 47.4674V61.6778C61.867 61.8264 61.768 61.9089 61.6525 61.9089ZM47.7651 61.4963H61.4546V47.7974L51.773 51.8081L47.7651 61.4963ZM25.4989 61.9089H11.298C11.1826 61.9089 11.1001 61.8099 11.1001 61.7109V47.5004C11.1001 47.4343 11.1331 47.3683 11.1991 47.3353C11.2486 47.3023 11.331 47.2858 11.397 47.3188L21.4415 51.478C21.491 51.4945 21.524 51.544 21.557 51.5935L25.7133 61.6448C25.7463 61.7108 25.7298 61.7769 25.6968 61.8429C25.6308 61.8759 25.5649 61.9089 25.4989 61.9089ZM11.496 61.4963H25.1855L21.1776 51.8081L11.496 47.7974V61.4963ZM26.0762 61.8264C25.9937 61.8264 25.9112 61.7769 25.8782 61.6944L21.8868 52.0556C21.8538 51.9731 21.8703 51.8906 21.9363 51.8246C22.0023 51.7586 22.0848 51.7421 22.1672 51.7751L35.8073 57.4197C35.8898 57.4527 35.9393 57.5187 35.9393 57.6177C35.9393 57.7167 35.8898 57.7827 35.8073 57.8158L26.1751 61.8099C26.1421 61.8099 26.1092 61.8264 26.0762 61.8264ZM22.4641 52.3527L26.1916 61.3477L35.1806 57.6177L22.4641 52.3527ZM46.8579 61.8264C46.8249 61.8264 46.8084 61.8264 46.7754 61.8099L37.1433 57.8158C37.0608 57.7827 37.0113 57.7167 37.0113 57.6177C37.0113 57.5187 37.0608 57.4527 37.1433 57.4197L50.7669 51.7751C50.8328 51.7421 50.9318 51.7586 50.9978 51.8246C51.0637 51.8906 51.0802 51.9731 51.0473 52.0556L47.0558 61.6944C47.0393 61.7439 46.9899 61.7934 46.9404 61.8099C46.9239 61.8099 46.8909 61.8264 46.8579 61.8264ZM37.77 57.6177L46.759 61.3312L50.4865 52.3362L37.77 57.6177ZM62.2298 61.4963C62.1968 61.4963 62.1803 61.4963 62.1473 61.4798C62.0649 61.4468 62.0154 61.3808 62.0154 61.2817V47.5004C62.0154 47.4343 62.0484 47.3683 62.1144 47.3353C62.1638 47.3023 62.2463 47.2858 62.3123 47.3188L69.4539 50.2731C69.5034 50.2896 69.5529 50.3392 69.5694 50.3887C69.5859 50.4382 69.5859 50.5042 69.5694 50.5537C67.8541 54.5974 65.4295 58.2614 62.3783 61.4468C62.3453 61.4798 62.2793 61.4963 62.2298 61.4963ZM62.4442 47.8139V60.7701C65.2481 57.7662 67.4912 54.3333 69.1076 50.5702L62.4442 47.8139ZM10.7208 61.4963C10.6713 61.4963 10.6053 61.4798 10.5723 61.4303C7.52104 58.2449 5.0965 54.5974 3.38118 50.5372C3.36469 50.4877 3.36469 50.4217 3.38118 50.3722C3.39768 50.3227 3.44716 50.2731 3.49664 50.2566L10.6383 47.2858C10.7043 47.2528 10.7702 47.2693 10.8362 47.3023C10.9022 47.3353 10.9352 47.4013 10.9352 47.4674V61.2487C10.9352 61.3312 10.8857 61.4138 10.8032 61.4468C10.7702 61.4963 10.7373 61.4963 10.7208 61.4963ZM3.843 50.5702C5.45936 54.3333 7.70247 57.7662 10.5064 60.7701V47.8139L3.843 50.5702ZM36.4835 57.5187C36.4506 57.5187 36.4341 57.5187 36.4011 57.5022L21.7054 51.412C21.6559 51.3955 21.6229 51.3459 21.59 51.2964L15.5039 36.5908C15.4874 36.5413 15.4874 36.4918 15.5039 36.4258L21.59 21.7201C21.6064 21.6706 21.6559 21.6211 21.7054 21.6046L36.4011 15.5144C36.4506 15.4979 36.5 15.4979 36.566 15.5144L51.2617 21.6046C51.3111 21.6211 51.3441 21.6706 51.3771 21.7201L57.4632 36.4258C57.4797 36.4753 57.4797 36.5248 57.4632 36.5908L51.3771 51.2964C51.3606 51.3459 51.3111 51.3955 51.2617 51.412L36.566 57.5022C36.533 57.5022 36.5 57.5187 36.4835 57.5187ZM21.9363 51.0489L36.4835 57.0731L51.0143 51.0489L57.0344 36.4918L51.0143 21.9512L36.4835 15.927L21.9528 21.9512L15.9327 36.5083L21.9363 51.0489ZM51.9214 51.1149C51.8719 51.1149 51.8224 51.0984 51.773 51.0489C51.707 50.9828 51.6905 50.9003 51.7235 50.8178L57.3642 37.185C57.4302 37.0364 57.6776 37.0364 57.7436 37.185L61.735 46.8237C61.7845 46.9227 61.735 47.0547 61.6196 47.0877L51.9874 51.0819C51.9874 51.0984 51.9544 51.1149 51.9214 51.1149ZM57.5787 37.8121L52.3172 50.5372L61.3062 46.8072L57.5787 37.8121ZM21.0292 51.1149C20.9962 51.1149 20.9797 51.1149 20.9467 51.0984L11.3145 47.1043C11.2156 47.0547 11.1661 46.9392 11.1991 46.8402L15.1905 37.2015C15.2565 37.0529 15.5039 37.0529 15.5698 37.2015L21.2106 50.8343C21.2436 50.9168 21.2271 50.9993 21.1611 51.0654C21.1281 51.0819 21.0787 51.1149 21.0292 51.1149ZM11.6609 46.7907L20.6498 50.5207L15.3884 37.8121L11.6609 46.7907ZM69.6024 50.1411C69.5694 50.1411 69.5529 50.1411 69.5199 50.1246L62.3783 47.1538C62.3123 47.1208 62.2628 47.0712 62.2463 47.0052C62.2298 46.9392 62.2463 46.8732 62.2958 46.8237L72.0434 37.0694C72.1094 37.0034 72.1919 36.9869 72.2743 37.0199C72.3568 37.0529 72.4063 37.1354 72.4063 37.218C72.3238 41.6412 71.4497 45.9324 69.8003 50.0091C69.7838 50.0586 69.7343 50.1081 69.6849 50.1246C69.6519 50.1246 69.6189 50.1411 69.6024 50.1411ZM62.8236 46.8897L69.4869 49.6625C71.0043 45.8664 71.8455 41.8558 71.9774 37.7296L62.8236 46.8897ZM3.3482 50.1411C3.31521 50.1411 3.29872 50.1411 3.26573 50.1246C3.21625 50.1081 3.16677 50.0586 3.15028 50.0091C1.50093 45.9489 0.626778 41.6412 0.544311 37.218C0.544311 37.1354 0.593791 37.0529 0.676259 37.0199C0.758726 36.9869 0.841193 37.0034 0.907167 37.0694L10.6548 46.8237C10.7043 46.8732 10.7208 46.9392 10.7208 47.0052C10.7043 47.0712 10.6548 47.1373 10.5888 47.1538L3.44716 50.1246C3.39768 50.1246 3.38118 50.1411 3.3482 50.1411ZM0.973141 37.7296C1.10509 41.8393 1.94625 45.8499 3.46365 49.6625L10.127 46.8897L6.66338 43.4072L0.973141 37.7296ZM10.9022 46.7577C10.8527 46.7577 10.8032 46.7411 10.7538 46.6916L0.709245 36.6403C0.626778 36.5578 0.626778 36.4258 0.709245 36.3432L10.7538 26.2919C10.8032 26.2424 10.8692 26.2259 10.9352 26.2424C11.0012 26.2589 11.0671 26.3084 11.0836 26.3579L15.24 36.4092C15.2565 36.4588 15.2565 36.5083 15.24 36.5743L11.0836 46.6256C11.0506 46.6916 11.0012 46.7411 10.9352 46.7411C10.9352 46.7577 10.9187 46.7577 10.9022 46.7577ZM1.15457 36.5083L10.8362 46.1965L14.8441 36.5083L10.8362 26.8201L1.15457 36.5083ZM62.0484 46.7577C62.0319 46.7577 62.0154 46.7577 62.0154 46.7577C61.9494 46.7411 61.8834 46.6916 61.867 46.6421L57.7106 36.5908C57.6941 36.5413 57.6941 36.4918 57.7106 36.4258L61.867 26.3744C61.8999 26.3084 61.9494 26.2589 62.0154 26.2589C62.0814 26.2424 62.1473 26.2589 62.1968 26.3084L72.2413 36.3597C72.2743 36.3927 72.3073 36.4588 72.3073 36.5083C72.3073 36.5578 72.2908 36.6073 72.2413 36.6568L62.1968 46.7081C62.1473 46.7411 62.0979 46.7577 62.0484 46.7577ZM58.1064 36.5083L62.1144 46.1965L71.796 36.5083L62.1144 26.8366L58.1064 36.5083ZM0.758726 36.0131C0.725739 36.0131 0.709245 36.0131 0.676259 35.9966C0.593791 35.9636 0.544311 35.8811 0.544311 35.7986C0.626778 31.3753 1.50093 27.0841 3.15028 23.0075C3.16677 22.958 3.21625 22.9085 3.26573 22.892C3.31521 22.8754 3.36469 22.8754 3.43066 22.892L10.5723 25.8628C10.6383 25.8958 10.6878 25.9453 10.7043 26.0113C10.7208 26.0773 10.7043 26.1434 10.6548 26.1929L0.907167 35.9471C0.857687 35.9966 0.808206 36.0131 0.758726 36.0131ZM3.46365 23.3706C1.94625 27.1667 1.10509 31.1773 0.973141 35.3034L10.127 26.1434L3.46365 23.3706ZM72.1919 36.0131C72.1424 36.0131 72.0929 35.9966 72.0434 35.9471L62.2958 26.1929C62.2463 26.1434 62.2298 26.0773 62.2463 26.0113C62.2628 25.9453 62.3123 25.8793 62.3783 25.8628L69.5199 22.9085C69.5694 22.892 69.6354 22.892 69.6849 22.9085C69.7343 22.925 69.7838 22.9745 69.8003 23.024C71.4497 27.0841 72.3238 31.3918 72.4063 35.8151C72.4063 35.8976 72.3568 35.9801 72.2743 36.0131C72.2578 36.0131 72.2248 36.0131 72.1919 36.0131ZM62.8236 26.1269L71.9774 35.2869C71.8455 31.1608 71.0043 27.1667 69.4869 23.3541L62.8236 26.1269ZM15.3719 35.9636C15.2895 35.9636 15.207 35.9141 15.174 35.8316L11.1826 26.1929C11.1331 26.0939 11.1826 25.9618 11.298 25.9288L20.9302 21.9347C20.9962 21.9017 21.0951 21.9182 21.1611 21.9842C21.2271 22.0502 21.2436 22.1327 21.2106 22.2153L15.5698 35.8481C15.5369 35.9141 15.4544 35.9636 15.3719 35.9636ZM11.6609 26.2259L15.3884 35.2209L18.0274 28.8666L20.6663 22.5123L11.6609 26.2259ZM57.5787 35.9636C57.4962 35.9636 57.4137 35.9141 57.3807 35.8316L51.74 22.1988C51.707 22.1162 51.7235 22.0337 51.7895 21.9677C51.8554 21.9017 51.9379 21.8852 52.0204 21.9182L61.6525 25.9123C61.702 25.9288 61.735 25.9783 61.768 26.0278C61.801 26.0773 61.7845 26.1269 61.768 26.1929L57.7766 35.8316C57.7271 35.9141 57.6611 35.9636 57.5787 35.9636ZM52.3172 22.4958L54.9562 28.8501L57.5787 35.2044L61.3062 26.2094L52.3172 22.4958ZM11.298 25.7307C11.2651 25.7307 11.2156 25.7142 11.1826 25.6977C11.1166 25.6647 11.0836 25.5987 11.0836 25.5327V11.3057C11.0836 11.1902 11.1826 11.1076 11.2815 11.1076H25.4824C25.5484 11.1076 25.6144 11.1406 25.6473 11.2067C25.6803 11.2562 25.6968 11.3387 25.6638 11.4047L22.3651 19.3765L21.5075 21.4395C21.491 21.4891 21.4415 21.5386 21.392 21.5551L11.3805 25.7142C11.3475 25.7307 11.331 25.7307 11.298 25.7307ZM11.496 11.5203V25.2191L21.1776 21.2085L25.1855 11.5203H11.496ZM10.7208 25.7307C10.6878 25.7307 10.6713 25.7307 10.6383 25.7142L3.49664 22.7599C3.44716 22.7434 3.39768 22.6939 3.38118 22.6444C3.36469 22.5949 3.36469 22.5288 3.38118 22.4793C5.0965 18.4192 7.52104 14.7552 10.5723 11.5863C10.6383 11.5203 10.7208 11.5038 10.8032 11.5368C10.8857 11.5698 10.9352 11.6358 10.9352 11.7348V25.5162C10.9352 25.5822 10.9022 25.6482 10.8362 25.6812C10.8032 25.7142 10.7702 25.7307 10.7208 25.7307ZM3.843 22.4463L10.5064 25.2026V12.2465C7.71896 15.2503 5.47585 18.6833 3.843 22.4463ZM61.6525 25.7307C61.6196 25.7307 61.6031 25.7307 61.5701 25.7142L51.5256 21.5551C51.4761 21.5386 51.4431 21.4891 51.4101 21.4395L47.2703 11.3882C47.2373 11.3222 47.2538 11.2562 47.2867 11.1902C47.3197 11.1407 47.3857 11.0911 47.4517 11.0911H61.6525C61.768 11.0911 61.8505 11.1902 61.8505 11.2892V25.4997C61.8505 25.5657 61.8175 25.6317 61.7515 25.6647C61.735 25.7142 61.702 25.7307 61.6525 25.7307ZM51.773 21.2085L61.4546 25.2191V11.5203H47.7651L51.773 21.2085ZM62.2298 25.7307C62.1968 25.7307 62.1473 25.7142 62.1144 25.6977C62.0484 25.6647 62.0154 25.5987 62.0154 25.5327V11.7348C62.0154 11.6523 62.0649 11.5698 62.1473 11.5368C62.2298 11.5038 62.3123 11.5203 62.3783 11.5863C65.446 14.7717 67.8541 18.4357 69.5694 22.4628C69.5859 22.5123 69.5859 22.5784 69.5694 22.6279C69.5529 22.6774 69.5034 22.7269 69.4539 22.7434L62.3123 25.6977C62.2958 25.7142 62.2628 25.7307 62.2298 25.7307ZM62.4442 12.2465V25.2026L69.1076 22.4463C67.4912 18.6833 65.2481 15.2668 62.4442 12.2465ZM50.8658 21.258C50.8328 21.258 50.8163 21.258 50.7834 21.2415L37.1433 15.5969C37.0608 15.5639 37.0113 15.4979 37.0113 15.3988C37.0113 15.2998 37.0608 15.2338 37.1433 15.2008L46.7754 11.2067C46.8909 11.1572 47.0064 11.2067 47.0393 11.3222L51.0308 20.9609C51.0637 21.0434 51.0473 21.126 50.9813 21.192C50.9648 21.2415 50.9153 21.258 50.8658 21.258ZM37.77 15.3988L50.4865 20.6638L46.759 11.6688L37.77 15.3988ZM22.0848 21.258C22.0353 21.258 21.9858 21.2415 21.9363 21.192C21.8703 21.126 21.8538 21.0434 21.8868 20.9609L25.8782 11.3222C25.9277 11.2232 26.0432 11.1572 26.1421 11.2067L35.7743 15.2008C35.8568 15.2338 35.9063 15.2998 35.9063 15.3988C35.9063 15.4979 35.8568 15.5639 35.7743 15.5969L22.1507 21.2415C22.1507 21.2415 22.1177 21.258 22.0848 21.258ZM26.1916 11.6688L22.4641 20.6638L35.1806 15.3988L26.1916 11.6688ZM36.467 15.2833C36.4341 15.2833 36.4176 15.2833 36.3846 15.2668L26.3401 11.1076C26.2741 11.0746 26.2246 11.0251 26.2081 10.9591C26.1916 10.8931 26.2081 10.8271 26.2576 10.7775L36.3021 0.726225C36.3351 0.693216 36.4011 0.660206 36.4506 0.660206C36.5 0.660206 36.566 0.676711 36.599 0.726225L46.627 10.7775C46.6765 10.8271 46.693 10.8931 46.6765 10.9591C46.66 11.0251 46.6105 11.0911 46.5445 11.1076L36.5 15.2668C36.533 15.2833 36.5 15.2833 36.467 15.2833ZM26.8019 10.8601L36.467 14.8542L46.1487 10.8436L36.4835 1.15535L26.8019 10.8601ZM61.2402 10.9426H47.4682C47.4022 10.9426 47.3362 10.9096 47.3032 10.8436C47.2703 10.7941 47.2538 10.7115 47.2867 10.6455L50.2556 3.499C50.2721 3.44949 50.3215 3.39998 50.371 3.38347C50.4205 3.36697 50.4865 3.36697 50.536 3.38347C54.5768 5.09995 58.2384 7.50963 61.4216 10.5795C61.4876 10.6455 61.5041 10.728 61.4711 10.8106C61.3886 10.8931 61.3227 10.9426 61.2402 10.9426ZM47.7651 10.53H60.7124C57.7106 7.72419 54.28 5.47956 50.5195 3.86211L47.7651 10.53ZM25.4989 10.9426H11.7104C11.6279 10.9426 11.5454 10.8931 11.5125 10.8106C11.496 10.728 11.5125 10.6455 11.5784 10.596C14.6627 7.64167 18.1923 5.265 22.1012 3.54852L22.4476 3.39998C22.4971 3.38347 22.5466 3.38347 22.6125 3.39998C22.662 3.41648 22.695 3.46599 22.728 3.51551L25.6803 10.662C25.7133 10.728 25.6968 10.7941 25.6638 10.8601C25.6308 10.9096 25.5649 10.9426 25.4989 10.9426ZM12.2382 10.53H25.1855L22.4311 3.86211L22.2662 3.92812C18.5552 5.54558 15.1905 7.7737 12.2382 10.53ZM46.9239 10.728C46.8744 10.728 46.8249 10.7115 46.7754 10.662L37.0278 0.907776C36.9618 0.841757 36.9454 0.759234 36.9783 0.676711C37.0113 0.594188 37.0938 0.544674 37.1763 0.544674C41.58 0.627197 45.8683 1.50194 49.9587 3.15241C50.0082 3.16891 50.0576 3.21842 50.0741 3.26794C50.0906 3.31745 50.0906 3.38347 50.0741 3.43298L47.1218 10.5795C47.0888 10.6455 47.0393 10.695 46.9734 10.695C46.9569 10.728 46.9404 10.728 46.9239 10.728ZM37.6876 0.990299L46.8414 10.1504L49.5958 3.4825C45.8023 1.96407 41.7944 1.12234 37.6876 0.990299ZM26.0267 10.7115C26.0102 10.7115 25.9937 10.7115 25.9937 10.7115C25.9277 10.695 25.8618 10.6455 25.8453 10.596L22.8929 3.44949C22.8435 3.35046 22.8929 3.21842 23.0084 3.18542L23.3548 3.03687C27.3297 1.48544 31.5025 0.643702 35.7743 0.561179C35.8733 0.577683 35.9393 0.610692 35.9722 0.693216C36.0052 0.775739 35.9887 0.858262 35.9228 0.92428L26.1751 10.6785C26.1421 10.695 26.0762 10.7115 26.0267 10.7115ZM23.3383 3.4825L26.0927 10.1504L35.2465 0.990299C31.2056 1.12234 27.2472 1.94757 23.4867 3.41648L23.3383 3.4825Z" fill="#B5936C"/>
</g>
<defs>
<clipPath id="clip0_14_416">
<rect width="73" height="73" fill="white"/>
</clipPath>
</defs>
</svg>
