<svg width="624" height="340" viewBox="0 0 624 340" fill="none" xmlns="http://www.w3.org/2000/svg">
<mask id="mask0_665_978" style="mask-type:alpha" maskUnits="userSpaceOnUse" x="0" y="0" width="624" height="340">
<rect width="624" height="340" rx="10" fill="#282828"/>
</mask>
<g mask="url(#mask0_665_978)">
<path d="M0.500061 93.3218C-103.556 -11.3619 -234.508 -88.2591 -387.066 -124.877L-378.468 -182.604C-270.664 -157.617 -174.764 -113.676 -89.6673 -57.0263L-63.2124 -39.5791L-71.5899 -69.5194C-106.202 -192.297 -77.9831 -332.306 0.500061 -430.958C78.7627 -332.306 107.202 -192.297 72.5897 -69.5194L64.2125 -39.5791L90.6674 -57.0263C175.764 -113.676 271.884 -158.479 379.468 -183.25L388.066 -125.523C235.509 -88.9053 104.556 -11.3619 0.500061 93.3218Z" fill="url(#paint0_linear_665_978)"/>
<path d="M-346.443 699.312L-280.39 93.5138L-264.706 102.758C-168.83 159.081 -90.8473 239.911 -39.3746 336.865L-37.1657 341.165L-38.7119 345.679C-70.7442 440.268 -83.1154 569.038 -74.7208 680.394C-47.9903 679.75 -21.2598 679.32 5.47064 679.32C29.1083 679.32 52.7458 679.749 76.3835 680.179C84.999 569.038 72.4069 440.268 40.3746 345.679L38.8284 341.165L41.0376 336.865C92.5103 240.126 170.492 159.081 266.369 102.758L282.053 93.5138L348.106 698.237C404.66 704.471 460.551 712.211 516 721.455L405.764 -27.0869C242.51 15.2631 102.451 114.151 10.5516 252.595L0.610535 267.428L-9.33078 252.595C-101.451 114.151 -241.51 15.2631 -404.544 -27.0869L-515 722.959C-459.551 713.5 -403.439 705.761 -346.885 699.312H-346.443Z" fill="url(#paint1_linear_665_978)"/>
</g>
<defs>
<linearGradient id="paint0_linear_665_978" x1="340.917" y1="-291.91" x2="-187.895" y2="18.9259" gradientUnits="userSpaceOnUse">
<stop stop-color="#222222"/>
<stop offset="0.520833" stop-color="#1C1C1C" stop-opacity="0.47"/>
<stop offset="1" stop-color="#0C0C0C" stop-opacity="0.45"/>
</linearGradient>
<linearGradient id="paint1_linear_665_978" x1="453.287" y1="171.838" x2="-275.458" y2="570.096" gradientUnits="userSpaceOnUse">
<stop stop-color="#222222"/>
<stop offset="0.520833" stop-color="#1C1C1C" stop-opacity="0.47"/>
<stop offset="1" stop-color="#0C0C0C" stop-opacity="0.45"/>
</linearGradient>
</defs>
</svg>
