<svg width="578" height="632" viewBox="0 0 578 632" fill="none" xmlns="http://www.w3.org/2000/svg">
<path d="M288.596 286.883C230.425 229.601 157.219 187.523 71.9349 167.486L76.7414 135.898C137.007 149.571 190.618 173.615 238.19 204.614L252.979 214.161L248.295 197.777C228.946 130.594 244.721 53.9821 288.596 0C332.347 53.9821 348.245 130.594 328.896 197.777L324.213 214.161L339.002 204.614C386.574 173.615 440.308 149.099 500.451 135.545L505.257 167.132C419.973 187.17 346.767 229.601 288.596 286.883Z" fill="url(#paint0_linear_530_4786)"/>
<path d="M94.3642 618.612L131.343 286.609L140.124 291.675C193.799 322.542 237.456 366.841 266.273 419.975L267.509 422.332L266.644 424.806C248.711 476.644 241.785 547.216 246.485 608.244C261.449 607.89 276.414 607.655 291.379 607.655C304.612 607.655 317.845 607.89 331.078 608.126C335.902 547.216 328.852 476.644 310.919 424.806L310.054 422.332L311.29 419.975C340.107 366.959 383.764 322.542 437.439 291.675L446.22 286.609L483.199 618.022C514.86 621.439 546.149 625.68 577.192 630.746L515.478 220.515C424.082 243.724 345.672 297.919 294.223 373.792L288.658 381.921L283.092 373.792C231.52 297.919 153.11 243.724 61.8376 220.515L0 631.571C31.0425 626.387 62.4559 622.146 94.1168 618.612H94.3642Z" fill="url(#paint1_linear_530_4786)"/>
<defs>
<linearGradient id="paint0_linear_530_4786" x1="478.899" y1="76.0864" x2="186.56" y2="251.64" gradientUnits="userSpaceOnUse">
<stop stop-color="#262626"/>
<stop offset="0.520833" stop-color="#1D1D1D"/>
<stop offset="1" stop-color="#1B1B1B"/>
</linearGradient>
<linearGradient id="paint1_linear_530_4786" x1="542.083" y1="329.534" x2="138.146" y2="555.036" gradientUnits="userSpaceOnUse">
<stop stop-color="#262626"/>
<stop offset="0.520833" stop-color="#1D1D1D"/>
<stop offset="1" stop-color="#1B1B1B"/>
</linearGradient>
</defs>
</svg>
