<svg width="185" height="123" viewBox="0 0 185 123" fill="none" xmlns="http://www.w3.org/2000/svg">
<g clip-path="url(#clip0_33_77)">
<path d="M89.23 10.89C87.12 8.72 84.46 7.12 81.36 6.36L81.53 5.16C83.72 5.68 85.67 6.59 87.4 7.77L87.94 8.13L87.77 7.51C87.07 4.96 87.64 2.05 89.23 0C90.82 2.05 91.4 4.96 90.69 7.51L90.52 8.13L91.06 7.77C92.79 6.59 94.74 5.66 96.93 5.15L97.1 6.35C94 7.11 91.34 8.72 89.23 10.9" fill="#C68C58"/>
<path d="M82.19 23.57L83.53 10.96L83.85 11.15C85.79 12.32 87.37 14.01 88.42 16.02L88.47 16.11L88.44 16.2C87.79 18.17 87.54 20.85 87.71 23.17C88.25 23.16 88.79 23.15 89.34 23.15C89.82 23.15 90.3 23.15 90.78 23.17C90.95 20.85 90.7 18.18 90.05 16.21L90.02 16.12L90.07 16.03C91.11 14.01 92.69 12.33 94.64 11.16L94.96 10.97L96.3 23.56C97.44 23.69 98.58 23.85 99.7 24.04L97.47 8.44995C94.16 9.32995 91.32 11.39 89.46 14.27L89.26 14.58L89.06 14.27C87.19 11.39 84.36 9.32995 81.05 8.44995L78.81 24.07C79.93 23.87 81.07 23.71 82.22 23.58L82.19 23.57Z" fill="#C68C58"/>
<path d="M44.03 108.99L44.55 109.54V121.56L44.03 122.1V122.75H47.93V122.1L47.39 121.54V109.56L47.93 108.99V108.35H44.03V108.99Z" fill="white"/>
<path d="M82.52 108.35L78.29 118.04L74.01 108.35H70.24V108.99L70.78 109.56V121.54L70.24 122.1V122.75H73.44V122.1L72.84 121.48V112.68L77.3 122.75H78.44L82.88 112.64V121.56L82.36 122.1V122.75H86.26V122.1L85.72 121.54V109.56L86.26 108.99V108.35H82.52Z" fill="white"/>
<path d="M104.07 110.3C102.67 108.94 100.76 108.19 98.69 108.19C94.39 108.19 91.14 111.36 91.14 115.55C91.14 119.74 94.39 122.92 98.69 122.92C100.76 122.92 102.67 122.17 104.07 120.81C105.47 119.45 106.24 117.58 106.24 115.55C106.24 113.52 105.47 111.66 104.07 110.29V110.3ZM94.16 115.56C94.16 112.18 95.94 109.99 98.69 109.99C101.44 109.99 103.22 112.18 103.22 115.56C103.22 118.94 101.44 121.13 98.69 121.13C95.94 121.13 94.16 118.94 94.16 115.56Z" fill="white"/>
<path d="M122.13 108.99L122.7 109.59V117.51L114.84 108.35H111.49V108.99L112.03 109.56V121.54L111.49 122.1V122.75H114.69V122.1L114.09 121.48V112.01L123 122.75H124.76V109.59L125.33 108.99V108.35H122.13V108.99Z" fill="white"/>
<path d="M142.01 110.4C140.6 109.07 138.69 108.34 136.61 108.34H131.06V108.99L131.58 109.54V121.55L131.06 122.1V122.75H136.61C138.69 122.75 140.61 122.02 142.01 120.69C143.42 119.35 144.2 117.53 144.2 115.54C144.2 113.55 143.42 111.73 142.01 110.4ZM134.41 120.94V110.15H136.41C139.28 110.15 141.14 112.27 141.14 115.54C141.14 118.81 139.28 120.94 136.41 120.94H134.41Z" fill="white"/>
<path d="M36.7 110.4C35.29 109.07 33.38 108.34 31.3 108.34H25.75V108.99L26.27 109.54V121.55L25.75 122.1V122.75H31.3C33.38 122.75 35.3 122.02 36.7 120.69C38.11 119.35 38.89 117.53 38.89 115.54C38.89 113.55 38.11 111.73 36.7 110.4ZM29.1 110.15H31.1C33.97 110.15 35.83 112.27 35.83 115.54C35.83 118.81 33.97 120.94 31.1 120.94H29.1V110.15Z" fill="white"/>
<path d="M59.92 108.35H57.24V109.32L57.5 109.94L53 121.38L52.32 122.1V122.75H55.37V122.1L55.02 121.67L56.23 118.43H61.16L62.48 121.65L62.14 122.1V122.75H66.04V122.1L65.35 121.33L59.91 108.34L59.92 108.35ZM56.95 116.63L58.59 112.47L60.38 116.63H56.94H56.95Z" fill="white"/>
<path d="M157.05 115.79C156.27 115.16 155.28 114.72 154.03 114.25C152.43 113.63 150.8 112.84 150.8 111.64C150.8 110.44 152.1 109.97 153.32 109.97C154.71 109.97 156.18 110.61 156.75 111.91L156.9 112.26H157.52V109.63L157.32 109.46C156.44 108.71 154.85 108.2 153.36 108.2C150.37 108.2 148.35 109.93 148.35 112.5C148.35 115.3 150.92 116.36 152.8 117.13C154.81 117.93 155.83 118.53 155.83 119.56C155.83 120.65 154.49 121.15 153.25 121.15C151.69 121.15 150.12 120.36 149.56 118.96L149.42 118.58H148.6V121.77L148.92 121.93C149.7 122.31 151.3 122.96 153.28 122.96C154.77 122.96 156.06 122.59 156.99 121.88C157.99 121.13 158.52 120.05 158.52 118.78C158.52 117.58 158.04 116.62 157.06 115.82L157.05 115.79Z" fill="white"/>
<path d="M79.01 50.2699L78.98 92.7699L80.94 94.8399V96.0099H70.38V94.8399L72.27 92.8399V50.3699L70.38 48.3699V47.1999H80.75V48.3699L79.02 50.2699H79.01ZM136.58 50.6099V77.8099C136.58 89.0899 130.69 96.6999 118.97 96.6999C107.25 96.6999 99.38 88.6099 99.38 76.6299V50.2699L97.65 48.3699V47.1999H107.82V48.3699L105.85 50.5299V77.7299C105.85 82.4099 107.07 87.3099 110.67 90.5399C113.38 92.9699 116.85 93.9099 120.43 93.9099C124.01 93.9099 127.2 93.0499 129.78 90.6999C133.37 87.4499 134.44 82.3699 134.44 77.7199V50.6599L132.34 48.3599V47.1899H138.62V48.3599L136.58 50.5999V50.6099ZM156.39 94.2799H179.59L182.88 89.0099H184.17V96.0099H148.7V94.5399L176.48 48.9299H154.51L150.95 53.9099H149.67V47.1999H184.25V48.6699L156.39 94.2899V94.2799ZM51.14 50.4399V92.7699L53.1 94.8399V96.0099H42.54V94.8399L44.43 92.8399V52.3499L25.25 96.0099H23.5L4.26 52.5699V92.5599L6.42 94.8399V96.0099H0V94.8399L2.15 92.5699V50.6399L0 48.3699V47.1999H9.13L26.84 87.0999L44.49 47.1999H53.11V48.3699L51.15 50.4399H51.14Z" fill="white"/>
</g>
<defs>
<clipPath id="clip0_33_77">
<rect width="184.25" height="122.93" fill="white"/>
</clipPath>
</defs>
</svg>
