<svg width="252" height="66" viewBox="0 0 252 66" fill="none" xmlns="http://www.w3.org/2000/svg">
<path d="M73.6679 30.8688L74.634 27.8025L71.4322 27.8988C71.1562 27.8988 69.1965 27.8438 67.2782 26.4688C67.4162 26.4825 67.568 26.4963 67.706 26.4963C69.6657 26.4963 71.5702 25.3275 72.3292 23.65L73.7093 20.625C71.9842 20.6525 70.3972 20.4325 70.3972 20.4325C70.3834 20.4325 69.1413 20.2675 67.6922 18.81C66.6572 17.765 65.3737 17.215 63.9937 17.215C63.3864 17.215 62.8482 17.325 62.379 17.4625C62.448 17.215 62.517 16.9675 62.5584 16.7063C63 13.8738 61.1507 11.715 61.1507 11.715L58.7356 8.75875L57.2451 12.2375C57.2451 12.2513 56.8587 13.0625 56.1825 13.4613C55.9755 12.4438 55.4786 11.2887 54.416 10.2025C52.4011 8.14 49.9446 7.82375 48.6611 7.82375C48.0677 7.82375 47.6399 7.8925 47.5433 7.90625L44.6313 8.47C44.7969 7.82375 45.1558 6.71 45.8044 5.6925L47.4053 3.2175L43.3617 3.67125L42.0782 0.9625L39.5941 2.2275L37.3308 0L35.0261 2.255L32.5282 0.99L31.2447 3.69875L27.2011 3.245L28.8158 5.72C29.4644 6.72375 29.8232 7.85125 29.9888 8.48375L27.2149 7.9475L27.1183 7.93375C26.9803 7.90625 26.5525 7.85125 25.959 7.85125C24.6756 7.85125 22.2191 8.1675 20.2042 10.23C19.1277 11.33 18.6309 12.4712 18.4239 13.4888C17.7476 13.09 17.375 12.2925 17.375 12.2925L15.8846 8.8L13.4418 11.7563C13.1382 12.1413 11.6616 14.1763 12.0618 16.72C12.1032 16.9675 12.1722 17.2288 12.2412 17.4625C11.772 17.3113 11.2337 17.215 10.6265 17.215C9.24644 17.215 7.96298 17.765 6.92793 18.81C5.49266 20.2675 4.2506 20.4188 4.2644 20.4188C4.2644 20.4188 2.95334 20.6525 0.924644 20.6112L2.29091 23.6362C3.04995 25.3137 4.95444 26.4825 6.91413 26.4825C7.06594 26.4825 7.20394 26.4688 7.35575 26.455C5.45126 27.83 3.47777 27.885 3.24315 27.885L0 27.8025L0.993647 30.8688C1.49047 32.45 3.14655 35.0763 6.3345 35.3513C5.98949 36.795 5.21665 38.4037 3.53297 39.0912L1.10405 40.0812L2.42892 42.3638C3.17415 43.6013 4.92684 45.045 7.43856 45.045C7.97678 45.045 8.50121 44.99 9.01183 44.88C9.13604 45.4437 9.30164 46.0075 9.49485 46.5713C10.2401 48.7713 9.59146 50.2975 9.59146 50.3112L8.3908 52.8L11.0681 53.5013C11.0957 53.515 11.91 53.735 12.9312 53.735C13.3866 53.735 13.8283 53.6937 14.2423 53.5975C14.5597 53.5288 14.8495 53.4325 15.1393 53.3088C15.4843 53.9275 15.9122 54.4912 16.3952 54.9863C18.1065 56.7325 20.5492 57.6125 23.6267 57.6125H23.6405L25.8348 57.585L21.2944 59.455L24.7446 61.105C26.0004 61.71 27.4909 62.425 28.9952 62.975L28.5674 64.1438L29.7542 64.68C29.8646 64.7213 32.1417 65.7388 35.9507 65.9588C35.9507 65.9588 36.8754 66 37.3722 66C37.8828 66 38.7799 65.9588 38.7799 65.9588C42.5612 65.7388 44.8245 64.735 44.9349 64.68L46.1218 64.1438L45.6802 62.975C47.2397 62.4113 48.7853 61.6688 49.986 61.0913L53.3671 59.4688L48.8405 57.5988L51.0486 57.6263C54.14 57.6263 56.5689 56.7463 58.2802 55C58.7632 54.505 59.191 53.9412 59.536 53.3225C59.8259 53.4325 60.1295 53.5288 60.4331 53.6113C60.8471 53.7075 61.2887 53.7487 61.7441 53.7487C62.7378 53.7487 63.5658 53.5288 63.5796 53.5288L66.2708 52.8275L65.0977 50.38C65.0701 50.3112 64.4215 48.785 65.1667 46.585C65.3599 46.0212 65.5117 45.4575 65.6497 44.8937C66.1604 45.0037 66.6848 45.0588 67.223 45.0588C70.411 45.0588 71.9428 42.845 72.2327 42.3638L73.5437 40.1088L71.1148 39.1188C69.4311 38.4313 68.6583 36.8088 68.3133 35.3787C71.4736 35.09 73.1573 32.4637 73.6679 30.8688ZM30.1958 9.5425L30.1682 9.55625L30.1958 9.515V9.5425Z" fill="white"/>
<path d="M37.3308 9.405C34.75 9.405 32.8318 10.2437 32.4039 11.22L37.3308 13.145L42.2576 11.22C41.8298 10.2437 39.9115 9.405 37.3308 9.405Z" fill="white"/>
<path d="M37.3722 60.335H37.3308H37.2894C35.7299 60.3488 33.577 60.0325 32.542 59.73L31.2999 63.0713C32.1141 63.36 34.9019 63.91 37.3446 63.91C39.7735 63.91 42.5612 63.36 43.3755 63.0713L42.1334 59.73C41.0846 60.0325 38.9317 60.3488 37.3722 60.335Z" fill="white"/>
<path d="M46.798 57.0212C45.8734 57.5437 43.8033 58.3137 42.6026 58.685L43.6101 61.435C45.4732 60.9262 47.005 60.3487 48.2747 59.7162L46.177 59.0287L46.798 57.0212Z" fill="white"/>
<path d="M27.8635 57.0212L28.4846 59.0287L26.3869 59.7162C27.6565 60.3487 29.2022 60.94 31.0515 61.435L32.0589 58.685C30.8583 58.3137 28.7882 57.53 27.8635 57.0212Z" fill="white"/>
<path d="M37.3308 6.215C39.2767 6.215 41.1811 6.66875 42.644 7.48C42.782 7.04 42.9614 6.49 43.2236 5.92625L42.6716 5.995L42.092 6.05L41.8436 5.5275L41.0983 3.9875L39.7459 4.68875L39.2215 4.95L38.8074 4.5375L37.3446 3.09375L35.8679 4.5375L35.4539 4.95L34.9295 4.68875L33.577 3.9875L32.8456 5.54125L32.5971 6.06375L32.0175 6.00875L31.4655 5.94C31.7139 6.50375 31.9071 7.04 32.0451 7.49375C33.4942 6.66875 35.3987 6.215 37.3308 6.215Z" fill="white"/>
<path d="M66.9608 24.1037C67.2092 24.1862 67.4714 24.2275 67.7198 24.2275C68.8101 24.2275 69.8727 23.5262 70.2453 22.715C70.2453 22.715 68.2304 22.5912 66.0637 20.4187C65.3737 19.7175 64.6423 19.4975 64.0212 19.4975C63.0552 19.4975 62.3238 20.0062 62.3238 20.0062C64.9321 21.395 65.4703 23.6087 66.9608 24.1037Z" fill="white"/>
<path d="M6.94172 24.2275C7.19013 24.2275 7.45234 24.1863 7.70075 24.1038C9.19123 23.6088 9.72945 21.395 12.3378 20.02C12.3378 20.02 11.6063 19.5113 10.6403 19.5113C10.0055 19.5113 9.28783 19.7175 8.584 20.4325C6.43109 22.605 4.4162 22.715 4.4162 22.715C4.77502 23.5263 5.83767 24.2275 6.94172 24.2275Z" fill="white"/>
<path d="M67.6646 33.0962C67.706 33.0962 67.7474 33.0962 67.8026 33.0962C70.5351 33.0962 71.4736 30.195 71.4736 30.195H71.4184C70.9216 30.195 66.8366 30.085 63.966 26.455C62.0753 24.0762 60.5159 21.9725 57.4521 21.1475L57.1485 21.0925L57.0795 20.79C56.9967 20.3225 57.3141 19.8962 58.0456 19.415C62.2824 16.665 59.4118 13.1725 59.4118 13.1725C59.4118 13.1725 58.1974 15.9775 55.4924 15.9775C55.4234 15.9775 55.3544 15.9775 55.2854 15.9775C54.9818 15.9637 54.6782 15.95 54.3884 15.8812L53.8916 15.785C53.8916 15.785 54.6644 13.7087 52.8013 11.7975C51.3936 10.3537 49.6962 10.12 48.7025 10.12C48.2057 10.12 47.8883 10.1887 47.8883 10.1887C48.8267 11.3987 49.5029 13.4062 48.4127 14.6437C47.4743 15.7025 45.1971 15.7575 45.1971 17.3525C45.1971 18.0262 45.832 18.81 46.9636 19.5112C50.3862 21.6425 53.795 24.475 55.2026 28.2837C56.9691 33.0275 54.9818 36.1625 52.1389 37.9637C52.1389 37.9637 53.0359 38.775 54.3194 38.885C54.5816 38.9125 54.8438 38.9262 55.0784 38.9262C57.8109 38.9262 59.2186 37.6612 59.2186 37.6612C59.2186 37.6612 58.984 39.4075 57.5625 41.03C56.2515 42.5287 54.5264 43.4087 51.9181 43.45C51.9181 43.45 51.8353 44.66 52.9945 45.6912C53.7397 46.3512 55.451 46.5712 55.451 46.5712C55.451 46.5712 52.2355 47.2175 51.8767 51.92C51.6835 54.4637 51.021 55.3437 51.021 55.3437H51.0762C58.5286 55.3437 58.3354 49.005 58.3354 49.005C58.3354 49.005 58.8598 50.875 60.9299 51.37C61.1783 51.4387 61.4543 51.4662 61.7027 51.4662C62.379 51.4662 62.9586 51.315 62.9586 51.315C62.9586 51.315 61.8683 49.0462 62.9448 45.8562C63.8418 43.2162 63.69 41.2637 63.69 41.2637C63.69 41.2637 64.6975 42.7625 67.1816 42.7762H67.2092C69.2793 42.7762 70.1901 41.2225 70.1901 41.2225C65.2219 39.1737 65.7049 32.5875 65.7049 32.5875C65.7049 32.5875 66.4088 33.0412 67.6646 33.0962ZM66.1741 39.985C64.1592 38.995 62.8758 36.3825 62.5584 35.4337C62.2272 40.6312 59.6602 44.2337 56.6655 47.7125C55.106 49.5137 54.5678 51.26 54.5678 51.26C54.5678 51.26 54.8714 49.28 56.2101 47.6575C59.0116 44.33 61.6613 40.1912 61.8545 35.4062C61.9925 32.065 61.1231 29.3562 59.7706 27.1287C60.5297 29.4525 60.4193 32.2987 57.8523 34.9525C57.8523 34.9525 62.9724 28.875 55.8098 22.66C52.9393 20.295 49.8066 18.8237 48.1919 17.7925C54.0158 19.6762 56.8725 17.6 56.8725 17.6C55.0094 19.195 52.5943 19.1675 51.1038 18.9475C51.504 19.14 51.9319 19.3462 52.3873 19.5937C57.3003 22.2337 61.7165 26.5787 62.4756 32.615V32.5737C63.621 38.4587 66.1741 39.985 66.1741 39.985Z" fill="white"/>
<path d="M19.1967 46.5575C19.1967 46.5575 20.908 46.3513 21.6532 45.6775C22.8125 44.6325 22.7297 43.4363 22.7297 43.4363C20.1076 43.395 18.3825 42.515 17.0714 41.0163C15.6638 39.3938 15.4291 37.6475 15.4291 37.6475C15.4291 37.6475 16.8368 38.9125 19.5693 38.9125C19.8177 38.9125 20.0662 38.8988 20.3284 38.8713C21.6256 38.775 22.5089 37.95 22.5089 37.95C19.6659 36.1488 17.6786 33 19.4313 28.27C20.8528 24.475 24.2478 21.6425 27.6703 19.4975C28.8158 18.7963 29.4368 18.0125 29.4368 17.3388C29.4368 15.7575 27.1597 15.7025 26.2351 14.63C25.1586 13.3925 25.8348 11.385 26.7595 10.175C26.7595 10.175 26.4559 10.1063 25.9452 10.1063C24.9654 10.1063 23.2541 10.3538 21.8602 11.7838C19.9972 13.695 20.77 15.7713 20.77 15.7713L20.2732 15.8675C19.9696 15.9363 19.6797 15.9363 19.3761 15.9638C19.3071 15.9638 19.2381 15.9638 19.1829 15.9638C16.478 15.9638 15.2635 13.1725 15.2635 13.1725C15.2635 13.1725 12.393 16.6788 16.616 19.415C17.3474 19.8825 17.6648 20.3225 17.582 20.79L17.513 21.0925L17.2094 21.1475C14.1457 21.9725 12.5862 24.0625 10.6955 26.455C7.82498 30.0713 3.75378 30.195 3.24316 30.195H3.18796C3.18796 30.195 4.1126 33.0963 6.85893 33.0963C6.90033 33.0963 6.94174 33.0963 6.99694 33.0963C8.2528 33.055 8.90143 32.5738 8.90143 32.5738C8.90143 32.5738 9.38445 39.16 4.41622 41.2088C4.41622 41.2088 5.32706 42.7625 7.39716 42.7625H7.42476C9.92268 42.7488 10.9163 41.25 10.9163 41.25C10.9163 41.25 10.7645 43.2025 11.6616 45.8425C12.738 49.0188 11.6616 51.3013 11.6616 51.3013C11.6616 51.3013 12.2412 51.4525 12.9036 51.4525C13.1658 51.4525 13.428 51.425 13.6765 51.3563C15.7604 50.8613 16.271 48.9913 16.271 48.9913C16.271 48.9913 16.0778 55.33 23.5439 55.33H23.5991C23.5991 55.33 22.9505 54.45 22.7573 51.9063C22.3985 47.2038 19.1967 46.5575 19.1967 46.5575ZM17.9961 47.6988C15.0013 44.22 12.4344 40.6175 12.1032 35.42C11.7996 36.3688 10.5161 38.9813 8.50121 39.9713C8.50121 39.9713 11.0405 38.4588 12.186 32.5463V32.5875C12.945 26.565 17.3612 22.22 22.2743 19.5663C22.7297 19.3188 23.1575 19.1125 23.5577 18.92C22.0673 19.1538 19.6521 19.1813 17.7891 17.5725C17.7891 17.5725 20.632 19.6488 26.4559 17.765C24.8412 18.7963 21.7084 20.2675 18.8517 22.6325C11.6892 28.8613 16.8092 34.925 16.8092 34.925C14.2285 32.2713 14.1319 29.425 14.8909 27.1013C13.5385 29.3288 12.669 32.0375 12.807 35.3788C13.0002 40.1638 15.6638 44.3025 18.4515 47.63C19.8039 49.2388 20.1076 51.2325 20.1076 51.2325C20.1076 51.2325 19.5417 49.5 17.9961 47.6988Z" fill="white"/>
<path d="M31.8105 23.4025C31.9347 23.5262 32.0589 23.6775 32.1693 23.815C32.1969 23.8425 32.2245 23.8837 32.2521 23.9112C32.3625 24.0487 32.4729 24.2 32.5695 24.3512C32.5971 24.3787 32.6109 24.42 32.6386 24.4475C32.7628 24.64 32.887 24.8325 32.9974 25.025C34.0738 26.8675 35.7989 27.9675 37.317 27.9675C38.8488 27.9675 40.5601 26.8675 41.6504 25.025C41.7746 24.8187 41.885 24.6262 42.0092 24.4337C42.023 24.4062 42.0506 24.3787 42.0644 24.3512C42.1748 24.2 42.2852 24.035 42.3956 23.8837C42.4232 23.8562 42.437 23.8287 42.4646 23.8012C42.5888 23.65 42.713 23.5125 42.8372 23.375C42.8648 23.3475 42.8786 23.3337 42.8924 23.32C43.4445 22.77 44.0931 22.3437 44.9487 22.11L44.5623 21.89H44.5347L43.0166 21.0237L41.4572 20.1437L37.3032 22.385L37.2894 22.3712L37.2756 22.385L33.1216 20.1437L31.6035 21.0375L30.0854 21.9037H30.0716L29.6852 22.1237C30.5409 22.3575 31.1895 22.77 31.7415 23.3337C31.7691 23.3612 31.7829 23.375 31.8105 23.4025ZM35.6471 23.2237H37.3998H39.1525V24.42C38.7384 23.925 37.938 24.0212 37.938 24.0212V25.74C37.938 25.74 37.9656 26.5925 38.2692 26.95H37.3998H36.5303C36.834 26.5787 36.8616 25.74 36.8616 25.74V24.0212C36.8616 24.0212 36.0611 23.925 35.6471 24.42V23.2237Z" fill="white"/>
<path d="M36.972 20.9138V13.9288L32.473 12.4163L33.6598 19.195L36.972 20.9138ZM36.0059 15.6338V16.7613L35.7851 16.665C35.7713 16.6513 35.4539 16.5825 34.9019 16.1425C33.9772 15.4413 33.9634 14.7813 33.9634 14.7813L36.0059 15.6338Z" fill="white"/>
<path d="M41.0018 19.1812L42.1886 12.4025L37.6896 13.915V20.9L41.0018 19.1812ZM38.6557 15.6337L40.6981 14.7812C40.6981 14.7812 40.6843 15.4275 39.7597 16.1425C39.2077 16.5825 38.8765 16.6512 38.8765 16.665L38.6557 16.7612V15.6337Z" fill="white"/>
<path d="M30.6099 37.1113C31.0515 37.2625 31.5759 37.3038 31.8519 37.3038C31.8657 37.2763 31.8795 37.235 31.8933 37.18C31.9209 37.0975 31.9347 37.0288 31.9623 36.9325C32.0313 36.5475 32.0589 36.1075 32.0727 35.8188C31.8933 35.7088 31.6311 35.5025 31.4793 35.2C31.3137 34.8563 31.0791 34.6913 30.7203 34.6913C30.2648 34.6913 29.7818 34.9525 29.5748 35.09C29.4092 36.0663 30.1268 36.9325 30.6099 37.1113Z" fill="white"/>
<path d="M40.5463 33.3987C39.7183 34.2925 38.076 35.86 37.9932 35.9425L37.8966 36.0387L32.7351 35.9562C32.7351 36.465 32.6523 36.8912 32.5695 37.2075C32.5557 37.2625 32.5419 37.3175 32.5281 37.3725L38.6694 38.4587C39.3043 38.0187 41.0707 36.74 41.747 36.245C41.2502 35.53 41.2087 34.6775 41.3192 34.0725C41.0017 33.88 40.7533 33.66 40.5463 33.3987Z" fill="white"/>
<path d="M41.2501 27.2525C40.0633 28.4213 38.9178 28.8475 37.8966 28.9575C37.7172 28.9713 37.524 28.985 37.3308 28.985H37.317H37.3032C37.1099 28.985 36.9167 28.9713 36.7373 28.9575C36.5579 28.9438 36.3785 28.9163 36.1853 28.875C36.1163 29.1363 36.0335 29.6863 36.2681 30.2088C36.4889 30.6763 36.9167 31.0338 37.5654 31.2675L37.7862 31.35V31.5838C37.7862 31.6525 37.8414 33.1375 39.4699 33.55C39.7321 33.275 39.9805 33.0275 40.1599 32.8213C39.8287 32.0375 39.9943 31.24 40.4911 30.855C40.4635 30.9375 40.2565 32.89 41.8436 33.6188L42.1058 33.7425L42.023 34.0175C41.9954 34.1 41.471 35.9838 43.3893 36.685L43.7205 36.8088L43.5687 37.1388C43.5411 37.2075 42.782 38.9263 44.5485 39.9025H48.3851V36.8913C47.0188 36.7263 46.4392 35.64 46.3012 34.87C45.6664 34.76 45.1695 34.485 44.8383 34.045C44.0379 33 44.7279 32.0375 44.7417 31.9825C44.7417 31.9963 44.7417 33.0138 45.3765 33.6463C45.694 33.9488 46.0666 34.1825 46.6324 34.2375L46.9084 34.265L46.936 34.5538C46.936 34.6088 47.1016 35.9975 48.3989 36.2175V30.0575C48.3989 29.1088 48.6749 28.1463 49.0199 27.2663L41.2501 27.2525Z" fill="white"/>
<path d="M30.9411 30.0712L30.8445 33.99L31.2999 34.0587L32.404 30.305L31.8519 29.15L30.9411 30.0712Z" fill="white"/>
<path d="M43.0719 48.0563C43.0995 48.0563 43.1409 48.0563 43.1823 48.07C43.8723 48.2625 44.0379 50.71 45.2386 50.93C45.349 50.9575 45.4594 50.9575 45.556 50.9575C45.901 50.9575 46.108 50.8063 46.3288 50.545C46.3288 50.545 45.7216 49.61 45.28 48.9775C44.6727 48.1525 44.2173 47.1488 43.0995 47.1488C43.0719 47.1488 43.0443 47.1488 43.0167 47.1488C42.644 47.1625 42.4232 47.3413 42.4232 47.3413C41.9678 47.0663 41.5538 46.9563 41.1674 46.9563C40.4635 46.9563 39.9253 47.2725 39.6493 47.2725H39.6355L37.1376 47.025C36.7512 46.9838 36.4337 46.5988 36.3233 46.4475C36.2957 46.4063 36.2819 46.3788 36.2819 46.3788C36.2819 46.31 36.2819 46.2413 36.2819 46.1863C36.1991 44.165 34.6121 43.2988 34.06 43.285C34.06 43.285 34.129 42.9 33.9772 42.7488L33.4252 43.4088L31.6173 42.515L32.9008 44L31.8105 45.21C31.6725 45.3475 31.6863 45.54 31.7415 45.6088L32.2107 46.0213L32.8042 45.6638C32.8318 45.6363 32.887 45.6363 32.956 45.6363C33.1216 45.6363 33.37 45.6775 33.5908 45.6775C33.8392 45.6775 34.0462 45.6225 34.0738 45.4025C34.0048 46.145 33.301 47.4513 33.7564 48.4825L34.1014 49.2525L31.8933 48.9363L30.8583 50.6688C30.5409 51.2463 30.4857 51.865 30.8031 52.2088L31.1895 52.69C31.1895 52.69 31.7277 52.1263 31.8519 51.7413L31.6725 51.5488C31.5207 51.3838 31.5345 51.2463 31.6173 51.0675L32.2659 50.0088L34.8743 50.6138L35.0123 50.38C35.1917 50.0913 35.4401 49.995 35.7161 49.995C35.8265 49.995 35.9507 50.0088 36.0749 50.0225C36.5579 50.1188 37.3584 50.2425 38.145 50.2425C39.0145 50.2425 39.8839 50.0913 40.3393 49.5825C41.2778 50.9713 43.1961 51.1913 43.0443 51.8925L42.5474 54.2713C42.8786 54.2575 43.1961 54.23 43.4997 54.1888L43.9827 51.7138C44.0379 51.4388 44.0793 51.0813 44.0793 51.0813C43.8999 50.9025 43.4445 50.5038 43.1961 50.0225C42.8648 49.3763 43.0443 49.0463 42.7268 48.2075C42.7544 48.2488 42.851 48.0563 43.0719 48.0563ZM33.3286 44.5913C33.2044 44.5913 33.1078 44.4813 33.1078 44.3575C33.1216 44.2338 33.2182 44.1375 33.3424 44.1513C33.4666 44.1513 33.5632 44.2613 33.5632 44.385C33.5494 44.495 33.439 44.5913 33.3286 44.5913Z" fill="white"/>
<path d="M29.768 50.2975C29.768 50.2975 30.6375 49.94 30.7065 49.6925L30.5961 49.4038C30.5132 49.225 30.5271 49.0188 30.6789 48.9088L31.6173 48.2763L33.1768 48.5788C33.1768 48.5788 32.9008 48.235 32.9284 47.7675L31.4379 47.4513L30.0302 48.3038C29.4368 48.7438 29.3816 49.4725 29.5886 49.9125L29.768 50.2975Z" fill="white"/>
<path d="M40.7809 54.3125C41.057 54.2987 41.3606 54.2987 41.7056 54.2987C41.7056 54.2987 42.506 51.975 42.5474 51.9062C42.092 51.7137 41.1674 51.2187 40.8085 50.9987C41.0432 51.3562 41.6228 51.755 41.5124 52.0575L40.7809 54.3125Z" fill="white"/>
<path d="M48.3989 40.5625H26.2488V48.8125C26.2488 52.1813 28.7192 54.2987 32.3487 54.2987C35.3849 54.2987 36.1853 54.4087 37.317 55.5225C38.0898 54.7525 38.7384 54.4637 40.0633 54.3537L40.0909 54.23L40.7947 52.0987C40.7533 52.0575 39.6079 50.765 39.6079 50.765C39.1525 50.9163 38.7798 50.9438 38.1312 50.9438C37.4688 50.9438 36.7373 50.875 35.9369 50.7237C35.8541 50.71 35.7851 50.6963 35.7023 50.6963C35.6057 50.6963 35.5919 50.71 35.5643 50.7513L35.4263 50.9713L35.1779 51.3838L34.6948 51.2737L32.5695 50.7787L32.2797 51.26L32.3211 51.315L32.5833 51.6037L32.4729 51.975C32.3211 52.4563 31.8105 53.02 31.6587 53.1713L31.1343 53.735L30.6513 53.13L30.2924 52.6763C29.906 52.25 29.8232 51.6037 30.0302 50.93C30.0302 50.93 30.0164 50.9438 30.0026 50.9438L29.3954 51.1912L29.1194 50.6138L28.9262 50.2013C28.595 49.4725 28.7192 48.4138 29.6024 47.7812L31.3137 46.8187L32.9422 47.135C32.9836 46.9837 33.0388 46.4338 33.094 46.2825C33.0664 46.2825 33.0388 46.2688 32.9974 46.2688L32.0589 46.6125L31.1481 45.9938C31.1481 45.9938 30.7893 45.65 31.1205 45.32L32.0037 44.0138L29.8094 41.2362L33.2182 42.625L33.439 42.35L33.8944 41.8L34.4188 42.295C34.5706 42.4325 34.6534 42.6113 34.6948 42.79C35.6333 43.1475 37.317 44.22 37.4688 45.9662L36.9444 46.1725V46.1862C37.0686 46.3237 37.1652 46.3787 37.1928 46.3925L39.6217 46.6263C39.6769 46.6125 39.7597 46.585 39.8425 46.5575C40.1461 46.4613 40.6015 46.31 41.1398 46.31C41.5814 46.31 42.0092 46.4062 42.4094 46.5987C42.5612 46.5437 42.7406 46.5025 42.9614 46.4888H43.0718C44.3691 46.4888 45.0177 47.4513 45.5422 48.2213C45.625 48.3588 45.7216 48.4825 45.8044 48.6062C46.2598 49.2388 46.8532 50.1738 46.8808 50.215L47.143 50.6275L46.8118 51.0125C46.5634 51.3013 46.177 51.645 45.5284 51.645C45.3904 51.645 45.2523 51.6312 45.0867 51.6037C44.9487 51.5762 44.8245 51.535 44.7003 51.4938C44.6865 51.6175 44.6589 51.7688 44.6313 51.9062L44.2035 54.1063C46.7566 53.4875 48.3851 51.5763 48.3851 48.84L48.3989 40.5625Z" fill="#FFDD2D"/>
<path d="M26.2488 39.9025H43.4721C42.6164 39.0225 42.6302 37.9087 42.8372 37.18C42.5888 37.0562 42.3818 36.9187 42.1886 36.7675C41.5124 37.2625 39.4561 38.7475 38.9178 39.105L38.8074 39.1875L32.0451 37.9775H31.9071C31.7415 37.9775 31.5069 37.9775 31.2447 37.9362C31.1757 38.2387 30.9135 38.445 30.6099 38.445C30.5822 38.445 30.5408 38.445 30.4994 38.4312C30.32 38.4037 30.1682 38.3075 30.0716 38.17C29.9612 38.0325 29.9198 37.8537 29.9474 37.675L29.975 37.5375C29.2712 37.0562 28.6364 35.97 28.9262 34.815L28.9538 34.6912L29.0504 34.6225C29.0642 34.6087 29.1746 34.54 29.354 34.43L28.8572 34.3612C28.6778 34.3337 28.5536 34.155 28.5812 33.9762C28.6088 33.7975 28.7882 33.66 28.9676 33.7012L30.1406 33.88L30.251 29.7962L31.9899 27.9675L33.0802 30.2362L31.9347 34.155L32.9698 34.32C33.1492 34.3475 33.2734 34.5125 33.2458 34.705C33.2182 34.87 33.0802 34.98 32.9146 34.98C32.9008 34.98 32.8732 34.98 32.8594 34.98L32.0175 34.8425C32.0313 34.87 32.0451 34.8837 32.0589 34.9112C32.1417 35.09 32.3487 35.2275 32.4591 35.2825L37.6068 35.365C37.8276 35.1587 38.3658 34.6362 38.9178 34.0725C37.6482 33.5912 37.1928 32.5187 37.11 31.79C36.4061 31.4875 35.9093 31.0475 35.6471 30.4562C35.3159 29.7412 35.4401 29.0125 35.5229 28.6687C34.8329 28.4212 34.1152 27.9675 33.37 27.2387H25.614C25.9452 28.1187 26.2212 29.0812 26.2212 30.03V39.9025H26.2488Z" fill="#FFDD2D"/>
<path d="M33.3424 44.1375C33.2182 44.1238 33.1078 44.22 33.1078 44.3438C33.094 44.4675 33.1906 44.5775 33.3286 44.5775C33.4528 44.5913 33.5632 44.495 33.577 44.3713C33.5632 44.2613 33.4804 44.1375 33.3424 44.1375Z" fill="black"/>
<path d="M48.3713 59.0975L47.1016 58.6163L47.4466 57.31L47.8331 55.88C47.8331 55.88 45.5698 57.09 42.3818 58.0113C41.471 58.2725 40.7947 58.3825 40.7947 58.3825V59.345C40.7947 59.345 39.0972 59.6338 37.3722 59.6338H37.3584H37.3308H37.3032H37.2894C35.5643 59.6338 33.8668 59.345 33.8668 59.345V58.3825C33.8668 58.3825 33.1768 58.2725 32.2797 58.0113C29.0918 57.1038 26.8285 55.88 26.8285 55.88L27.2149 57.31L27.5737 58.6163L26.2902 59.0975L24.8688 59.62C26.4973 60.39 28.7468 61.5313 30.8169 62.095L30.3338 63.415C30.3338 63.415 32.956 64.5975 37.3032 64.6113H37.317H37.3308H37.3446H37.3584C41.7194 64.5975 44.3415 63.415 44.3415 63.415L43.8585 62.095C45.9286 61.5313 48.1781 60.4038 49.8066 59.62L48.3713 59.0975ZM26.373 59.7163L28.4707 59.0288L27.8497 57.0213C28.7744 57.5438 30.8445 58.3138 32.0451 58.685L31.0377 61.435C29.1884 60.9263 27.6427 60.335 26.373 59.7163ZM37.3308 63.91C34.8881 63.91 32.1141 63.36 31.2861 63.0713L32.5281 59.73C33.5632 60.0325 35.7161 60.3488 37.2756 60.335H37.317H37.3584C38.9178 60.3488 41.0569 60.0325 42.1058 59.73L43.3479 63.0713C42.5474 63.36 39.7597 63.91 37.3308 63.91ZM43.6101 61.435L42.6026 58.685C43.8033 58.3275 45.8734 57.5438 46.798 57.0213L46.177 59.0288L48.2747 59.7163C47.005 60.335 45.4732 60.9263 43.6101 61.435Z" fill="black"/>
<path d="M37.3308 7.0125C39.9253 7.0125 42.0092 7.865 43.1547 8.7725C43.1547 8.7725 43.4997 6.7375 44.6589 4.95L42.5612 5.18375L41.471 2.8875L39.3733 3.96L37.3308 1.96625L35.3021 3.96L33.1906 2.8875L32.1003 5.18375L30.0026 4.95C31.1619 6.7375 31.5069 8.7725 31.5069 8.7725C32.6662 7.865 34.7363 7.0125 37.3308 7.0125ZM32.0037 5.995L32.5833 6.05L32.8318 5.5275L33.5632 3.97375L34.9157 4.66125L35.4401 4.9225L35.8541 4.51L37.317 3.06625L38.7936 4.5375L39.2077 4.95L39.7459 4.675L41.0984 3.9875L41.8436 5.54125L42.092 6.06375L42.6716 6.00875L43.2237 5.94C42.9752 6.50375 42.782 7.04 42.644 7.49375C41.1812 6.6825 39.2767 6.22875 37.3308 6.22875C35.3987 6.22875 33.4942 6.6825 32.0313 7.49375C31.8933 7.05375 31.7139 6.50375 31.4517 5.94L32.0037 5.995Z" fill="black"/>
<path d="M67.7888 33.9763C71.1424 33.9763 72.274 30.5938 72.3154 30.4425L72.6881 29.2463L71.4322 29.2875C70.9906 29.2875 67.2782 29.1913 64.6561 25.8913L64.4077 25.5888C62.6964 23.43 61.0679 21.3675 58.156 20.4325C58.2388 20.3638 58.363 20.2675 58.5286 20.1575C60.0743 19.1538 60.9713 17.93 61.1921 16.5138C61.5233 14.3825 60.1433 12.6775 60.0881 12.6088L59.1496 11.4675L58.57 12.8288C58.5286 12.9113 57.5487 15.0838 55.4786 15.0838H55.3268C55.1888 15.07 55.0508 15.07 54.9128 15.0563C54.9818 14.08 54.8024 12.5813 53.4361 11.1788C51.7801 9.48751 49.7652 9.22626 48.7025 9.22626C48.1367 9.22626 47.7641 9.29501 47.7227 9.29501L46.315 9.57001L47.1844 10.7113C47.8745 11.5913 48.4817 13.2 47.7503 14.0525C47.5157 14.3275 47.0326 14.5338 46.5634 14.7538C45.6112 15.1938 44.3139 15.785 44.3139 17.325C44.3139 18.315 45.0867 19.36 46.5082 20.24C50.6898 22.8388 53.2705 25.5613 54.3884 28.5588C56.1135 33.1788 53.864 35.805 51.6835 37.1938L50.7036 37.8125L51.5592 38.5963C51.6697 38.6925 52.7185 39.6138 54.278 39.7375C54.5678 39.7513 54.8576 39.7788 55.1198 39.7788C56.1135 39.7788 56.9553 39.6275 57.6453 39.4213C57.4521 39.7513 57.2175 40.0813 56.9277 40.425C55.6856 41.855 54.14 42.515 51.9319 42.5425L51.1176 42.5563L51.0486 43.3675C51.0348 43.5325 50.9796 45.045 52.4287 46.3238C52.6495 46.5163 52.9117 46.6813 53.2015 46.8188C52.2217 47.6988 51.228 49.2113 51.0348 51.8238C50.8692 53.9963 50.3448 54.8075 50.3448 54.8075L49.4339 56.1825L51.0762 56.21C53.7812 56.21 55.8651 55.4675 57.3003 54.01C58.156 53.1438 58.639 52.1675 58.9288 51.3013C59.398 51.7 60.0053 52.0438 60.8057 52.2363C61.1093 52.305 61.4405 52.3463 61.7855 52.3463C62.5446 52.3463 63.1932 52.1813 63.2622 52.1675L64.3111 51.8925L63.8418 50.93C63.8142 50.8475 62.931 48.9088 63.8694 46.145C64.2697 44.9488 64.4767 43.8763 64.5871 43.0375C65.2495 43.3813 66.1327 43.6563 67.2644 43.6563C69.8589 43.6563 71.0044 41.745 71.0458 41.6625L71.5564 40.7825L70.6042 40.3975C67.5128 39.1325 66.8366 35.7225 66.6986 33.88C66.9746 33.935 67.292 33.9763 67.6508 33.99H67.7888V33.9763ZM70.2453 41.2088C70.2453 41.2088 69.3345 42.7625 67.2644 42.7625H67.2368C64.7527 42.7488 63.7452 41.25 63.7452 41.25C63.7452 41.25 63.897 43.2025 62.9862 45.8425C61.9097 49.0188 63 51.3013 63 51.3013C63 51.3013 62.4204 51.4525 61.7441 51.4525C61.4819 51.4525 61.2197 51.425 60.9713 51.3563C58.8874 50.8613 58.3768 48.9913 58.3768 48.9913C58.3768 48.9913 58.57 55.33 51.1176 55.33H51.0624C51.0624 55.33 51.7249 54.45 51.9181 51.8925C52.2769 47.19 55.4924 46.5438 55.4924 46.5438C55.4924 46.5438 53.7812 46.3375 53.0359 45.6638C51.8767 44.6188 51.9595 43.4225 51.9595 43.4225C54.5816 43.3813 56.3067 42.5013 57.6039 41.0025C59.0254 39.38 59.26 37.6338 59.26 37.6338C59.26 37.6338 57.8523 38.8988 55.1198 38.8988C54.8852 38.8988 54.623 38.885 54.3608 38.8575C53.0773 38.7613 52.1803 37.9363 52.1803 37.9363C55.0232 36.135 57.0105 32.9863 55.244 28.2563C53.8226 24.4613 50.4276 21.6288 47.005 19.4838C45.8596 18.7825 45.2385 17.9988 45.2385 17.325C45.2385 15.7438 47.5157 15.6888 48.4541 14.6163C49.5306 13.3788 48.8543 11.3713 47.9159 10.1613C47.9159 10.1613 48.2333 10.0925 48.7301 10.0925C49.71 10.0925 51.4212 10.34 52.8289 11.77C54.692 13.6813 53.9192 15.7575 53.9192 15.7575L54.416 15.8538C54.7196 15.9225 55.0094 15.9225 55.313 15.9363C55.382 15.9363 55.451 15.9363 55.52 15.9363C58.225 15.9363 59.4394 13.1313 59.4394 13.1313C59.4394 13.1313 62.31 16.6375 58.087 19.3738C57.3555 19.8413 57.0381 20.2813 57.1209 20.7488L57.1899 21.0513L57.4935 21.1063C60.5573 21.9313 62.1168 24.0213 64.0074 26.4138C66.8918 30.0438 70.963 30.1538 71.4598 30.1538H71.515C71.515 30.1538 70.5904 33.055 67.844 33.055C67.8026 33.055 67.7612 33.055 67.706 33.055C66.4502 33.0138 65.8015 32.5325 65.8015 32.5325C65.8015 32.5325 65.2633 39.16 70.2453 41.2088Z" fill="black"/>
<path d="M61.896 20.8038C63.1518 21.4638 63.8833 22.3438 64.5181 23.1275C65.1529 23.8975 65.7463 24.6263 66.671 24.9425C67.0022 25.0525 67.361 25.1075 67.706 25.1075C69.1137 25.1075 70.5214 24.255 71.0458 23.0863L71.584 21.9038L70.2868 21.8213C70.2316 21.8213 68.5617 21.67 66.6986 19.7863C65.9396 19.0163 65.0149 18.6038 64.0075 18.6038C62.793 18.6038 61.8822 19.2088 61.7856 19.2638L60.5849 20.1025L61.896 20.8038ZM64.0213 19.5113C64.6423 19.5113 65.3737 19.7175 66.0638 20.4325C68.2305 22.605 70.2454 22.7288 70.2454 22.7288C69.8865 23.5263 68.8239 24.2413 67.7198 24.2413C67.4714 24.2413 67.2092 24.2 66.9608 24.1175C65.4703 23.6225 64.9459 21.4088 62.3238 20.0338C62.3238 20.02 63.0552 19.5113 64.0213 19.5113Z" fill="black"/>
<path d="M62.4756 32.5463V32.5875C61.7165 26.565 57.3003 22.22 52.3873 19.5663C51.9319 19.3188 51.5178 19.1263 51.1038 18.92C52.5943 19.1538 55.0094 19.1813 56.8725 17.5725C56.8725 17.5725 54.0296 19.6488 48.1919 17.765C49.8066 18.7963 52.9393 20.2675 55.8099 22.6325C62.9724 28.8613 57.8386 34.925 57.8386 34.925C60.4055 32.2713 60.5159 29.425 59.7568 27.1013C61.1093 29.3288 61.9788 32.0375 61.8407 35.3788C61.6475 40.1638 58.984 44.3025 56.1963 47.63C54.8576 49.2388 54.554 51.2325 54.554 51.2325C54.554 51.2325 55.0922 49.4863 56.6517 47.685C59.6464 44.22 62.2134 40.6038 62.5446 35.4063C62.8482 36.355 64.1317 38.9675 66.1603 39.9575C66.1741 39.985 63.621 38.4588 62.4756 32.5463Z" fill="black"/>
<path d="M24.3444 54.8212C24.3444 54.8075 23.8199 54.01 23.6543 51.8375C23.4611 49.225 22.4675 47.7125 21.4876 46.8325C21.7774 46.695 22.0396 46.53 22.2605 46.3375C23.7095 45.045 23.6405 43.5462 23.6405 43.3812L23.5853 42.57L22.7573 42.5562C20.5492 42.515 19.0173 41.8687 17.7614 40.4387C17.4716 40.095 17.237 39.765 17.0438 39.435C17.7338 39.6412 18.5757 39.7925 19.5693 39.7925C19.8315 39.7925 20.1075 39.7787 20.4112 39.7512C21.9568 39.6137 23.0057 38.7062 23.1299 38.61L23.9855 37.8262L23.0057 37.2075C20.8114 35.8187 18.5757 33.1925 20.3008 28.5725C21.4186 25.575 23.9855 22.8525 28.1809 20.2537C29.5886 19.3737 30.3614 18.3287 30.3614 17.3387C30.3614 15.7987 29.0642 15.1937 28.1119 14.7675C27.6427 14.5475 27.1597 14.3275 26.9251 14.0662C26.1936 13.2275 26.8147 11.605 27.4909 10.725L28.3741 9.58374L26.9527 9.30874C26.9113 9.30874 26.5387 9.23999 25.9728 9.23999C24.9102 9.23999 22.8953 9.48749 21.2392 11.1925C19.8591 12.6087 19.6797 14.1075 19.7487 15.07C19.6107 15.0837 19.4865 15.0837 19.3347 15.0975H19.1829C17.1128 15.0975 16.133 12.925 16.0916 12.8425L15.5119 11.4812L14.5735 12.6225C14.5183 12.6912 13.1382 14.3962 13.4694 16.5275C13.6902 17.9437 14.5873 19.1675 16.133 20.1712C16.2986 20.2812 16.4228 20.3637 16.5056 20.4462C13.5936 21.3812 11.979 23.4437 10.2539 25.6025L10.0055 25.905C7.38334 29.205 3.67097 29.315 3.22935 29.315L1.95969 29.2737L2.3461 30.47C2.38751 30.6075 3.50536 34.0037 6.87272 34.0037H7.03833C7.39714 33.99 7.71456 33.9487 7.99057 33.8937C7.85257 35.7362 7.16253 39.1462 4.07119 40.4112L3.13274 40.7962L3.64337 41.6762C3.69857 41.7587 4.84402 43.67 7.43855 43.67C8.5702 43.67 9.45344 43.3812 10.1159 43.0512C10.2125 43.89 10.4195 44.9625 10.8335 46.1587C11.772 48.9225 10.9025 50.875 10.8611 50.9437L10.3919 51.9062L11.4407 52.1812C11.5097 52.195 12.1584 52.36 12.9174 52.36C13.2762 52.36 13.6074 52.3187 13.8973 52.25C14.6977 52.0712 15.3049 51.7137 15.7741 51.315C16.064 52.1812 16.547 53.1575 17.3888 54.0237C18.8241 55.495 20.908 56.2237 23.6129 56.2237L25.2552 56.1962L24.3444 54.8212ZM23.5439 55.33C16.0916 55.33 16.271 48.9912 16.271 48.9912C16.271 48.9912 15.7465 50.8612 13.6764 51.3562C13.428 51.425 13.1658 51.4525 12.9036 51.4525C12.2274 51.4525 11.6615 51.3012 11.6615 51.3012C11.6615 51.3012 12.738 49.0325 11.6615 45.8425C10.7645 43.2025 10.9163 41.25 10.9163 41.25C10.9163 41.25 9.90886 42.7487 7.42475 42.7625H7.39714C5.32705 42.7625 4.4162 41.2087 4.4162 41.2087C9.38444 39.16 8.90142 32.5737 8.90142 32.5737C8.90142 32.5737 8.25279 33.055 6.99693 33.0962C6.95552 33.0962 6.91412 33.0962 6.85892 33.0962C4.11259 33.0962 3.18794 30.195 3.18794 30.195H3.24315C3.75377 30.195 7.81116 30.085 10.6955 26.455C12.5862 24.0762 14.1457 21.9725 17.2094 21.1475L17.513 21.0925L17.582 20.79C17.6648 20.3225 17.3474 19.8962 16.616 19.415C12.3792 16.665 15.2635 13.1725 15.2635 13.1725C15.2635 13.1725 16.4642 15.9637 19.1829 15.9637C19.2519 15.9637 19.3071 15.9637 19.3761 15.9637C19.6797 15.95 19.9833 15.9362 20.2732 15.8675L20.77 15.7712C20.77 15.7712 19.9971 13.695 21.8602 11.7837C23.2679 10.34 24.9654 10.1062 25.9452 10.1062C26.4421 10.1062 26.7595 10.175 26.7595 10.175C25.821 11.385 25.1448 13.3925 26.235 14.63C27.1735 15.6887 29.4368 15.7437 29.4368 17.3387C29.4368 18.0125 28.802 18.7962 27.6703 19.4975C24.2477 21.6287 20.839 24.475 19.4313 28.27C17.6648 33.0137 19.6521 36.1487 22.5089 37.95C22.5089 37.95 21.6118 38.7612 20.3284 38.8712C20.0661 38.8987 19.8177 38.9125 19.5693 38.9125C16.8506 38.9125 15.4291 37.6475 15.4291 37.6475C15.4291 37.6475 15.6637 39.3937 17.0714 41.0162C18.3825 42.515 20.1075 43.4087 22.7297 43.4362C22.7297 43.4362 22.8125 44.6462 21.6532 45.6775C20.908 46.3375 19.1967 46.5575 19.1967 46.5575C19.1967 46.5575 22.4123 47.2037 22.7711 51.9062C22.9643 54.45 23.6129 55.3437 23.6129 55.3437H23.5439V55.33Z" fill="black"/>
<path d="M6.94173 25.1075C7.30055 25.1075 7.65936 25.0525 7.99058 24.9425C8.92902 24.64 9.52245 23.8975 10.1573 23.1275C10.8059 22.3437 11.5235 21.4637 12.7794 20.8037L14.0629 20.1162L12.8622 19.2775C12.7656 19.2087 11.8686 18.6175 10.6541 18.6175C9.66046 18.6175 8.72201 19.0162 7.96298 19.8C6.09989 21.6837 4.43001 21.835 4.37481 21.835L3.07755 21.9037L3.61577 23.0862C4.1402 24.255 5.53406 25.1075 6.94173 25.1075ZM8.59781 20.4325C9.28784 19.7312 10.0193 19.5112 10.6541 19.5112C11.6202 19.5112 12.3516 20.02 12.3516 20.02C9.74326 21.395 9.20504 23.6087 7.71457 24.1037C7.46615 24.1862 7.21774 24.2275 6.95553 24.2275C5.85148 24.2275 4.80263 23.5262 4.43001 22.715C4.41621 22.715 6.4311 22.605 8.59781 20.4325Z" fill="black"/>
<path d="M12.7932 35.4063C12.6552 32.065 13.5246 29.3563 14.8771 27.1288C14.1181 29.4525 14.2285 32.2988 16.7954 34.9525C16.7954 34.9525 11.6753 28.875 18.8379 22.66C21.7084 20.295 24.8412 18.8238 26.4421 17.7925C20.6182 19.6763 17.7752 17.6 17.7752 17.6C19.6383 19.195 22.0396 19.1675 23.5439 18.9338C23.1437 19.1263 22.7159 19.3325 22.2605 19.58C17.3474 22.22 12.9312 26.5788 12.1722 32.6013V32.56C11.0267 38.4725 8.4874 39.985 8.4874 39.985C10.5023 38.995 11.7858 36.3825 12.0894 35.4338C12.4206 40.6313 14.9875 44.2338 17.9822 47.7125C19.5417 49.5138 20.0799 51.26 20.0799 51.26C20.0799 51.26 19.7763 49.28 18.4239 47.6575C15.6499 44.33 13.0002 40.1913 12.7932 35.4063Z" fill="black"/>
<path d="M35.6471 23.2238V24.42C36.0611 23.925 36.8616 24.0213 36.8616 24.0213V25.74C36.8616 25.74 36.834 26.5925 36.5303 26.95H37.3998H38.2692C37.9656 26.5788 37.938 25.74 37.938 25.74V24.0213C37.938 24.0213 38.7384 23.925 39.1525 24.42V23.2238H37.3998H35.6471Z" fill="black"/>
<path d="M34.9019 16.1425C35.4539 16.5825 35.7851 16.6512 35.7851 16.665L36.0059 16.7613V15.6337L33.9634 14.7812C33.9634 14.7812 33.9772 15.4275 34.9019 16.1425Z" fill="black"/>
<path d="M39.7597 16.1425C40.6843 15.4413 40.6981 14.7812 40.6981 14.7812L38.6556 15.6337V16.7613L38.8765 16.665C38.8903 16.6512 39.2077 16.5825 39.7597 16.1425Z" fill="black"/>
<path d="M43.4445 11.5638C43.4445 9.85876 40.5463 8.31876 37.3446 8.31876H37.3308H37.317C34.1152 8.31876 31.2171 9.85876 31.2171 11.5638L31.2861 11.99L32.5695 19.2638L31.2861 20.0063L27.9601 21.9313H27.9739C27.9739 21.9313 27.2287 22.3163 26.8837 22.55C25.614 23.4163 25.3518 24.695 26.0832 25.2175C26.2626 24.1863 27.0907 23.1 28.6364 23.1C29.7542 23.1 30.596 23.6638 31.2861 24.53C31.4655 24.75 31.6311 24.97 31.7829 25.2175C31.9761 25.5338 32.1693 25.8088 32.3625 26.07H23.8061C24.441 27.3213 25.0344 28.655 25.0344 30.085V48.8125C25.0344 53.35 28.5673 55.5225 32.3763 55.5225C35.3297 55.5225 35.7161 55.385 37.3446 56.9938C38.9592 55.385 39.3595 55.5225 42.3128 55.5225C46.1356 55.5225 49.6548 53.35 49.6548 48.8125V30.0575C49.6548 28.6138 50.2482 27.2938 50.883 26.0425H42.3266C42.5198 25.7813 42.713 25.5063 42.9062 25.19C43.0718 24.9425 43.2236 24.7088 43.4031 24.5025C44.0931 23.65 44.9349 23.0725 46.0528 23.0725C47.5985 23.0725 48.4265 24.1588 48.6059 25.19C49.3373 24.6675 49.0751 23.4025 47.8055 22.5225C47.4604 22.2888 46.7152 21.9038 46.7152 21.9038H46.729L43.4031 19.9788L42.1196 19.2363L43.4031 11.9625L43.4445 11.5638ZM32.4729 12.4025L36.9719 13.915V20.9L33.6598 19.1675L32.4729 12.4025ZM33.3976 27.2525C34.129 27.9813 34.8604 28.435 35.5505 28.6825C35.4677 29.04 35.3435 29.755 35.6747 30.4838C35.9507 31.0613 36.4337 31.515 37.1376 31.8175C37.2204 32.5325 37.6758 33.6188 38.9454 34.1C38.3934 34.65 37.8414 35.1725 37.6344 35.3925L32.4867 35.31C32.3763 35.255 32.1693 35.1175 32.0865 34.9388C32.0727 34.9113 32.0589 34.8975 32.0451 34.87L32.887 35.0075C32.9008 35.0075 32.9284 35.0075 32.9422 35.0075C33.1078 35.0075 33.2458 34.8975 33.2734 34.7325C33.301 34.5538 33.1768 34.375 32.9974 34.3475L31.9623 34.1825L33.1078 30.2638L32.0175 27.995L30.2786 29.8238L30.1682 33.9075L28.9952 33.7288C28.8158 33.6875 28.6364 33.825 28.6088 34.0038C28.5812 34.1825 28.7054 34.3475 28.8848 34.3888L29.3816 34.4575C29.2022 34.5538 29.0918 34.6363 29.078 34.65L28.9814 34.7188L28.9538 34.8425C28.664 35.9838 29.3126 37.07 30.0026 37.565L29.975 37.7025C29.9474 37.8813 29.9888 38.0463 30.0992 38.1975C30.1958 38.3488 30.3614 38.4313 30.527 38.4588C30.5684 38.4588 30.596 38.4725 30.6374 38.4725C30.9411 38.4725 31.2033 38.2663 31.2723 37.9638C31.5345 37.9913 31.7691 38.005 31.9347 38.005H32.0727L38.835 39.215L38.9454 39.1463C39.4837 38.775 41.54 37.29 42.2162 36.8088C42.3956 36.96 42.6026 37.1113 42.8648 37.235C42.644 37.9638 42.6302 39.0775 43.4997 39.9575H26.2488V30.1125C26.2488 29.1638 25.9728 28.2013 25.6278 27.3213L33.3976 27.2525ZM41.7608 36.2588C41.0707 36.7538 39.3181 38.0325 38.6832 38.4725L32.5419 37.3863C32.5557 37.3313 32.5695 37.2763 32.5833 37.2213C32.6661 36.905 32.7489 36.4788 32.7489 35.97L37.9104 36.0525L38.007 35.9563C38.0898 35.8738 39.7183 34.32 40.5601 33.4125C40.7533 33.66 41.0017 33.8938 41.333 34.1C41.2088 34.6913 41.264 35.5438 41.7608 36.2588ZM31.4793 35.2138C31.6311 35.5163 31.8933 35.7225 32.0727 35.8325C32.0727 36.1075 32.0451 36.5475 31.9623 36.9463C31.9485 37.0288 31.9209 37.1113 31.8933 37.1938C31.8795 37.2488 31.8657 37.29 31.8519 37.3175C31.5759 37.3175 31.0515 37.29 30.6098 37.125C30.1268 36.9463 29.4092 36.0663 29.5748 35.1038C29.7818 34.98 30.2648 34.705 30.7203 34.705C31.0653 34.705 31.2999 34.8563 31.4793 35.2138ZM30.8307 33.99L30.9273 30.0713L31.8105 29.1363L32.3625 30.2913L31.2585 34.045L30.8307 33.99ZM41.7056 54.2988C41.3744 54.2988 41.0569 54.2988 40.7809 54.3125L41.5124 52.0575C41.6228 51.7413 41.0431 51.3425 40.8085 50.9988C41.1674 51.2188 42.1058 51.7138 42.5474 51.9063C42.506 51.9888 41.7056 54.2988 41.7056 54.2988ZM43.9965 51.7413L43.5135 54.2025C43.2098 54.2438 42.8786 54.2713 42.5474 54.285L43.0442 51.92C43.196 51.2188 41.2778 50.9988 40.3393 49.61C39.8839 50.1188 39.0144 50.27 38.145 50.27C37.3446 50.27 36.5579 50.1463 36.0749 50.05C35.9507 50.0363 35.8403 50.0225 35.7161 50.0225C35.4401 50.0225 35.1779 50.105 35.0123 50.4075L34.8742 50.6413L32.2659 50.0363L31.6173 51.095C31.5207 51.26 31.5207 51.4113 31.6725 51.5763L31.8519 51.7688C31.7277 52.14 31.1895 52.7175 31.1895 52.7175L30.8031 52.2363C30.4994 51.8925 30.5408 51.2738 30.8721 50.6963L31.9071 48.9638L34.1152 49.28L33.7702 48.51C33.3148 47.4925 34.0048 46.1863 34.0876 45.43C34.06 45.65 33.853 45.705 33.6046 45.705C33.3838 45.705 33.1354 45.6638 32.9698 45.6638C32.9008 45.6638 32.8456 45.6638 32.818 45.6913L32.2245 46.0488L31.7553 45.6363C31.7001 45.5538 31.6863 45.375 31.8243 45.2375L32.9146 44.0275L31.6311 42.5425L33.439 43.4363L33.991 42.7763C34.1428 42.9275 34.0738 43.3125 34.0738 43.3125C34.6396 43.3263 36.2129 44.1925 36.2957 46.2138C36.2957 46.2688 36.2957 46.3375 36.2957 46.4063C36.2957 46.4063 36.3095 46.4338 36.3371 46.475C36.4475 46.6263 36.7511 47.0113 37.1514 47.0525L39.6493 47.3H39.6631C39.9391 47.3 40.4773 46.9838 41.1812 46.9838C41.5676 46.9838 41.9816 47.08 42.437 47.3688C42.437 47.3688 42.6578 47.19 43.0304 47.1763C43.058 47.1763 43.0856 47.1763 43.1132 47.1763C44.2311 47.1763 44.7003 48.18 45.2937 49.005C45.7492 49.6375 46.3426 50.5725 46.3426 50.5725C46.1218 50.8338 45.9148 50.985 45.5698 50.985C45.4732 50.985 45.3627 50.9713 45.2523 50.9575C44.0517 50.7375 43.8723 48.29 43.196 48.0975C43.1546 48.0838 43.127 48.0838 43.0856 48.0838C42.8648 48.0838 42.7682 48.2763 42.7682 48.2763C43.0856 49.1013 42.9062 49.445 43.2374 50.0913C43.4859 50.5725 43.9413 50.9575 44.1207 51.15C44.0931 51.1088 44.0517 51.48 43.9965 51.7413ZM30.596 49.4175L30.7065 49.7063C30.6374 49.9538 29.768 50.3113 29.768 50.3113L29.5748 49.9125C29.3816 49.4863 29.423 48.7575 30.0164 48.3038L31.4241 47.4513L32.9146 47.7675C32.887 48.235 33.163 48.5788 33.163 48.5788L31.6035 48.2763L30.665 48.9088C30.5132 49.0188 30.5132 49.225 30.596 49.4175ZM44.2311 54.0788L44.6589 51.8788C44.6865 51.755 44.7141 51.6038 44.7279 51.4663C44.8521 51.5213 44.9763 51.5625 45.1143 51.5763C45.2799 51.6038 45.418 51.6175 45.556 51.6175C46.2046 51.6175 46.591 51.2738 46.8394 50.985L47.1706 50.6L46.9084 50.1875C46.8808 50.1463 46.2874 49.2113 45.832 48.5788C45.7492 48.455 45.6526 48.3313 45.5698 48.1938C45.0453 47.4238 44.3967 46.4613 43.0994 46.4613H42.9752C42.7544 46.475 42.575 46.5163 42.4232 46.5713C42.0092 46.3788 41.5952 46.2825 41.1536 46.2825C40.6153 46.2825 40.1599 46.4338 39.8563 46.53C39.7735 46.5575 39.6907 46.585 39.6355 46.5988L37.1928 46.365C37.1652 46.365 37.0548 46.2963 36.9444 46.1588V46.145L37.4688 45.9388C37.317 44.2063 35.6333 43.1338 34.6948 42.7625C34.6534 42.5838 34.5706 42.4188 34.4188 42.2675L33.8944 41.7725L33.439 42.3225L33.2182 42.5975L29.8094 41.2363L32.0313 44L31.1481 45.32C30.8307 45.6638 31.1757 45.9938 31.1757 45.9938L32.0865 46.6125L33.025 46.2688C33.0526 46.2688 33.0802 46.2825 33.1216 46.2825C33.0802 46.42 33.025 46.97 32.9836 47.135L31.3551 46.8188L29.6438 47.7813C28.7606 48.4138 28.6502 49.4725 28.9676 50.2013L29.1608 50.6138L29.4368 51.1913L30.0302 50.9438C30.044 50.9438 30.044 50.9438 30.0578 50.93C29.837 51.6038 29.9336 52.25 30.32 52.6763L30.6789 53.13L31.1619 53.735L31.6863 53.1713C31.8381 53.02 32.3487 52.4563 32.5005 51.975L32.6109 51.6038L32.3487 51.315L32.3073 51.26L32.5971 50.7788L34.7224 51.2738L35.2055 51.3838L35.4539 50.9713L35.5919 50.7513C35.6195 50.71 35.6195 50.6963 35.7299 50.6963C35.7989 50.6963 35.8817 50.71 35.9645 50.7238C36.7649 50.875 37.5102 50.9438 38.1588 50.9438C38.7936 50.9438 39.1801 50.9163 39.6355 50.765C39.6355 50.765 40.7809 52.0438 40.8223 52.0988L40.1185 54.23L40.0909 54.3538C38.766 54.4638 38.1174 54.7525 37.3446 55.5225C36.2129 54.4088 35.4125 54.2988 32.3763 54.2988C28.733 54.2988 26.2764 52.1813 26.2764 48.8125V40.5625H48.4265V48.8125C48.4127 51.5488 46.7842 53.4463 44.2311 54.0788ZM49.0199 27.2525C48.6887 28.1325 48.3989 29.095 48.3989 30.0438V36.2038C47.1016 35.9838 46.9498 34.6088 46.936 34.54L46.9084 34.2513L46.6324 34.2238C46.0666 34.1688 45.694 33.935 45.3765 33.6325C44.7417 33 44.7417 31.9825 44.7417 31.9688C44.7279 32.0238 44.0379 32.9863 44.8383 34.0313C45.1695 34.4713 45.6664 34.7463 46.3012 34.8563C46.453 35.6263 47.0326 36.7125 48.3851 36.8775V39.8888H44.5761C42.8096 38.9125 43.5549 37.2075 43.5963 37.125L43.7481 36.795L43.4169 36.6713C41.4986 35.97 42.023 34.0725 42.0506 34.0038L42.1334 33.7288L41.8712 33.605C40.2841 32.8763 40.5049 30.9238 40.5187 30.8413C40.0357 31.2263 39.8563 32.0238 40.1875 32.8075C40.0081 33.0138 39.7597 33.2613 39.4975 33.5363C37.8552 33.1238 37.8138 31.6388 37.8138 31.57V31.3363L37.593 31.2538C36.9581 31.02 36.5165 30.6625 36.2957 30.195C36.0473 29.6725 36.1439 29.1225 36.2129 28.8613C36.4061 28.9025 36.5855 28.93 36.7649 28.9438C36.9443 28.9575 37.1376 28.9713 37.3308 28.9713H37.3446H37.3584C37.5516 28.9713 37.731 28.9575 37.9242 28.9438C38.9454 28.8475 40.0909 28.4075 41.2778 27.2388L49.0199 27.2525ZM43.0442 21.0375L44.5623 21.9038H44.5899L44.9763 22.1238C44.1207 22.3575 43.4721 22.7838 42.92 23.3338C42.9062 23.3475 42.8786 23.375 42.8648 23.3888C42.7406 23.5263 42.6164 23.6638 42.4922 23.815C42.4646 23.8425 42.4508 23.87 42.4232 23.8975C42.299 24.0488 42.2024 24.2 42.092 24.365C42.0782 24.3925 42.0506 24.42 42.0368 24.4475C41.9126 24.6263 41.7884 24.8325 41.6642 25.0388C40.5877 26.8813 38.8626 27.9813 37.3308 27.9813C35.7989 27.9813 34.0876 26.8813 33.0112 25.0388C32.9008 24.8463 32.7766 24.64 32.6523 24.4613C32.6247 24.42 32.6109 24.3925 32.5833 24.365C32.4729 24.2138 32.3763 24.0625 32.2659 23.925C32.2383 23.8838 32.2107 23.8563 32.1831 23.8288C32.0589 23.6913 31.9485 23.54 31.8243 23.4163C31.7967 23.4025 31.7829 23.375 31.7553 23.3475C31.2033 22.7975 30.5546 22.3713 29.699 22.1375L30.0854 21.9175H30.0992L31.6173 21.0513L33.1768 20.1713L37.3308 22.4125L37.3446 22.3988L37.3584 22.4125L41.5124 20.1713L43.0442 21.0375ZM41.0017 19.1813L37.6896 20.9138V13.915L42.1886 12.4025L41.0017 19.1813ZM37.3308 13.145L32.4039 11.22C32.818 10.2438 34.75 9.40501 37.3308 9.40501C39.9115 9.40501 41.8436 10.2438 42.2576 11.22L37.3308 13.145Z" fill="black"/>
<path d="M98.3159 42.405V31.3362H104.871V27.3075H86.9855V31.3362H93.5408V42.405H98.3159ZM111.399 36.0937V27.3075H106.789V42.405H110.861L118.824 33.6187V42.405H123.433V27.3075H119.362L111.399 36.0937ZM138.973 36.795V42.405H143.596V27.3075H138.973V32.8212H131.562V27.3075H126.952V42.405H131.562V36.795H138.973ZM156.43 42.405C157.479 42.405 158.432 42.3087 159.329 42.0612C161.716 41.4012 163.276 39.4625 163.276 36.8225C163.276 34.32 161.937 32.5737 159.812 31.7762C158.79 31.3912 157.576 31.3637 156.43 31.3637H151.683V27.3075H147.074V42.405H156.43ZM155.644 34.925C156.279 34.925 156.886 34.925 157.424 35.1175C158.183 35.365 158.639 36.0112 158.639 36.7675C158.639 37.565 158.197 38.225 157.465 38.5412C156.955 38.7612 156.444 38.7612 155.644 38.7612H151.697V34.925H155.644ZM171.556 36.6987L177.062 42.405H183.204L175.531 34.54L182.914 27.3075H177.118L171.542 32.9862H170.273V27.3075H165.663V42.405H170.273V36.6987H171.556ZM192.699 26.895C186.488 26.895 182.762 30.3875 182.762 34.8837C182.762 39.3937 186.488 42.8725 192.699 42.8725C198.881 42.8725 202.607 39.38 202.607 34.8837C202.607 30.3875 198.881 26.895 192.699 26.895ZM192.699 39.2012C189.607 39.2012 187.634 37.3587 187.634 34.8837C187.634 32.4087 189.607 30.6075 192.699 30.6075C195.762 30.6075 197.763 32.4087 197.763 34.8837C197.763 37.3587 195.762 39.2012 192.699 39.2012ZM217.981 26.455H213.358V27.9812C207.562 28.105 204.098 30.5525 204.098 34.87C204.098 39.1875 207.576 41.4287 213.358 41.5662V43.0925H217.968V41.5662C223.791 41.4425 227.255 39.1875 227.255 34.87C227.255 30.5525 223.791 28.1187 217.968 27.9812V26.455H217.981ZM213.358 38.3075C210.17 38.1837 208.776 36.8775 208.776 34.8562C208.776 32.8212 210.17 31.3637 213.358 31.24V38.3075ZM217.981 31.24C221.197 31.3637 222.563 32.8212 222.563 34.8562C222.563 36.8912 221.197 38.1837 217.981 38.3075V31.24ZM242.629 26.455H238.02V27.9812C232.224 28.105 228.76 30.5525 228.76 34.87C228.76 39.1875 232.224 41.4287 238.02 41.5662V43.0925H242.629V41.5662C248.453 41.4425 251.931 39.1875 251.931 34.87C251.931 30.5525 248.467 28.1187 242.629 27.9812V26.455ZM238.02 38.3075C234.832 38.1837 233.438 36.8775 233.438 34.8562C233.438 32.8212 234.846 31.3637 238.02 31.24V38.3075ZM242.629 31.24C245.845 31.3637 247.211 32.8212 247.211 34.8562C247.211 36.8912 245.845 38.1837 242.629 38.3075V31.24Z" fill="white"/>
</svg>
